<svg xmlns="http://www.w3.org/2000/svg" viewBox="0 0 233.58 166.99"><defs><style>.cls-1{fill:#d65045;}</style></defs><title>abt-circle-bg</title><g id="Layer_2" data-name="Layer 2"><g id="Layer_1-2" data-name="Layer 1"><path class="cls-1" d="M5,125.62c-.56-.48-1.37.24-.85.8,3.9,4.19,9.64,8.72,15,4.43,2.42,3.41,5,6.69,7.71,9.92,1,1.25,2.06,2.54,3,3.86-2.6-.6-5.78,1-7.83-1.29a.56.56,0,0,0-.89.64c1.22,2.39,2.76,5,5.38,6,2,.81,4.71.58,6.09-1.25,3.14,5.32,4.89,11.18,2.85,17.62-.2.63.7.86,1,.29,3.09-6.77.46-14.32-3.42-20.18-1.75-2.64-3.68-5.12-5.65-7.58a.54.54,0,0,0,0-.43c-.09-.22-.19-.42-.29-.62a18.28,18.28,0,0,0-1-5.89.27.27,0,0,0-.53.12c.21,1.2.44,2.38.55,3.59,0,.21,0,.42,0,.62a10.67,10.67,0,0,1-1.81-3.88,9.7,9.7,0,0,1,.8-5.9,15.72,15.72,0,0,0,1.25,2.76c1.61,3.22,1.16,5.85,1.08,9.26a.22.22,0,0,0,.4.12,8.7,8.7,0,0,0,.88-5.53A12.42,12.42,0,0,0,28,130c-.62-1.58-2.15-3.43-1.78-5.24a.58.58,0,0,0-1.05-.48,10.52,10.52,0,0,0-1.09,10.59,91.48,91.48,0,0,1-6.78-9.31c-.72-1.17-1.4-2.36-2.05-3.57a.37.37,0,0,0,0-.18,7.12,7.12,0,0,0,4.12-4c1.25-3.12-.8-6.58.71-9.58.23-.46-.24-1.15-.77-.81a12.65,12.65,0,0,0-5.83,11,51.36,51.36,0,0,1-4.69-17.6c2.59-.47,5-.11,6.41-2.83,1.14-2.24.83-5.85,3.35-7.15a.6.6,0,0,0-.42-1.1,13.78,13.78,0,0,0-9.42,6.45,36,36,0,0,1,2.38-11.54c2-1.24,5-1.54,6.05-3.82a6.42,6.42,0,0,0,.26-3.45A9.07,9.07,0,0,1,19,70.8c.27-.39-.15-1-.61-.86-5,1.79-9.67,7.91-7.85,13.43a30.5,30.5,0,0,0-2.1,5.8c-.06-.13-.13-.25-.2-.38-.57-1-1.45-1.79-2-2.81a7.92,7.92,0,0,1-.71-4.91c.07-.5-.62-.75-.95-.43C2.28,82.91.7,86.17,1.55,89.47a7,7,0,0,0,6,5.28,38.63,38.63,0,0,0-.14,4.57c-.08.25-.15.5-.21.76a.56.56,0,0,0,.27.62,45.83,45.83,0,0,0,.71,5.69c-2.16-2.13-5.85-3.68-6.79-6.16a.59.59,0,0,0-1.07.11c-1.39,6.17,2.3,13.54,9.42,12.28a55,55,0,0,0,2.73,6.92,69.37,69.37,0,0,0,4.36,7.77A9.42,9.42,0,0,0,14,126a9,9,0,0,0-3.23-.31c-1.78.14-4.16,1.32-5.73,0M8.6,108.56q.15.68.33,1.35a3.4,3.4,0,0,1,0,.63.31.31,0,0,0-.11-.08,7.47,7.47,0,0,1-2.56-1.26,8.48,8.48,0,0,1-1.85-2.35c-.22-.35-.83-.17-.71.27a5.77,5.77,0,0,0,5.05,3.77.27.27,0,0,0,.12,0c0,.08,0,.15-.05.24a.32.32,0,0,0,.22.4c-5.36.65-8.19-4.53-7.83-9.33,2,2.36,6.21,3.81,7.42,6.39m4.68-26a16.12,16.12,0,0,0-1.61.81,35.28,35.28,0,0,1,2.76-5.16c.18-.28-.23-.51-.43-.27a28.33,28.33,0,0,0-2.49,3.68,11.23,11.23,0,0,1,1.23-5.4,11,11,0,0,1,4.41-4.43,10.73,10.73,0,0,0-.81,5.86c.24,2.56-.8,3.86-3.06,4.91M8,91c0,.26-.09.52-.13.77l-.06.2a.2.2,0,0,0,0,.17c0,.2-.06.41-.09.61a11.44,11.44,0,0,1-3.65-4.57c-.19-.4-.88-.14-.74.29a8.88,8.88,0,0,0,4.31,4.87,2,2,0,0,0,0,.24h0c-5.85-.89-5.92-7-3.25-10.89a7.73,7.73,0,0,0,.64,3C5.75,87.44,8.07,89,8,91m1.21,8.9-.46.11c0-.39,0-.79,0-1.18a12.54,12.54,0,0,1,7.54-7.43,10.62,10.62,0,0,0-1.09,2.89,12.53,12.53,0,0,1-1.14,3.54c-.85,1.38-2.31,1.63-3.78,1.88a41.89,41.89,0,0,0,3.39-3.54c.27-.28-.14-.72-.43-.44a31.48,31.48,0,0,0-3.93,3.9.28.28,0,0,0-.05.27m9.38,13c.42,3.58-.44,6.45-3.52,8.06q-.09-.33-.15-.66a.24.24,0,0,0,.09-.11,56.27,56.27,0,0,0,2.07-5.66c.14-.41-.48-.59-.63-.2-.59,1.51-1.22,3-1.72,4.57a11.41,11.41,0,0,1,3.8-9.5,12.88,12.88,0,0,0,.06,3.5m6.59,32.76c1.43,0,4.05-.41,5.65.29l.48.72a11.2,11.2,0,0,0-3.47.12c-.34.08-.3.64.05.61a23.24,23.24,0,0,1,3.82-.12l.31.46a.41.41,0,0,0-.11.07c-3.32,3-6.53.52-8.6-2.43a6.71,6.71,0,0,0,1.87.28M18.41,129.9c-4.17,3.27-8.39.59-11.68-2.54A14.11,14.11,0,0,0,9.27,127a9.26,9.26,0,0,1,8.31,2,3.8,3.8,0,0,1-4.53-.23c-.37-.27-.8.3-.49.61a4.14,4.14,0,0,0,5.51.11,3.89,3.89,0,0,1,.34.36"/><path class="cls-1" d="M228,40.54c.57.46,1.36-.28.82-.83-4-4.08-9.86-8.45-15.13-4-2.5-3.34-5.21-6.55-8-9.71-1.06-1.23-2.12-2.49-3.13-3.79,2.62.54,5.76-1.11,7.87,1.09.44.47,1.16-.12.87-.67-1.28-2.35-2.9-4.89-5.54-5.86-2.06-.76-4.72-.46-6.05,1.4-3.28-5.23-5.19-11-3.32-17.53.19-.64-.72-.85-1-.27-2.92,6.84-.09,14.33,4,20.08,1.81,2.59,3.81,5,5.85,7.43a.47.47,0,0,0,0,.43c.09.22.2.41.3.61a18.16,18.16,0,0,0,1.13,5.87.27.27,0,0,0,.52-.14c-.24-1.19-.5-2.37-.65-3.58,0-.2,0-.41-.05-.61a10.47,10.47,0,0,1,1.92,3.83,9.74,9.74,0,0,1-.65,5.92,16.21,16.21,0,0,0-1.33-2.73c-1.69-3.17-1.31-5.81-1.31-9.22a.22.22,0,0,0-.41-.12,8.7,8.7,0,0,0-.73,5.56,12.36,12.36,0,0,0,.89,3.14c.66,1.56,2.24,3.38,1.92,5.2a.58.58,0,0,0,1.06.45,10.52,10.52,0,0,0,.81-10.62,94.6,94.6,0,0,1,7,9.13c.75,1.15,1.46,2.33,2.14,3.52a.35.35,0,0,0,0,.18,7.05,7.05,0,0,0-4,4.12c-1.17,3.16,1,6.56-.46,9.59-.22.48.27,1.15.79.8A12.65,12.65,0,0,0,219.64,48a51.57,51.57,0,0,1,5.16,17.47c-2.58.53-5,.24-6.34,3-1.08,2.28-.68,5.88-3.16,7.24a.6.6,0,0,0,.45,1.09A13.78,13.78,0,0,0,225,70.1a36,36,0,0,1-2.07,11.59c-2,1.3-4.94,1.67-5.95,4a6.45,6.45,0,0,0-.17,3.46,9.07,9.07,0,0,1-1.4,6.58c-.26.39.18,1,.64.84,4.91-1.92,9.46-8.16,7.49-13.64a30.44,30.44,0,0,0,1.95-5.85,3.59,3.59,0,0,0,.21.38c.59,1,1.49,1.75,2.06,2.76a7.94,7.94,0,0,1,.84,4.88.57.57,0,0,0,1,.41c2.27-2.33,3.76-5.63,2.83-8.91a7,7,0,0,0-6.11-5.12,38.7,38.7,0,0,0,0-4.57c.07-.26.14-.51.19-.77a.58.58,0,0,0-.28-.61,47.66,47.66,0,0,0-.87-5.67c2.22,2.08,5.95,3.52,7,6a.59.59,0,0,0,1.06-.14c1.23-6.2-2.66-13.47-9.74-12a54.8,54.8,0,0,0-2.91-6.85,70.88,70.88,0,0,0-4.57-7.65,9.16,9.16,0,0,0,6.1,1.51c1.77-.19,4.12-1.44,5.73-.12m-3.13,17.15c-.12-.45-.24-.9-.37-1.34a4.61,4.61,0,0,1,0-.64.24.24,0,0,0,.11.08A7.62,7.62,0,0,1,227.18,57a8.65,8.65,0,0,1,1.91,2.3c.23.34.84.15.7-.29a5.75,5.75,0,0,0-5.14-3.63.16.16,0,0,0-.12,0,2.4,2.4,0,0,1,0-.24.31.31,0,0,0-.23-.39c5.34-.8,8.3,4.3,8.07,9.12-2.08-2.31-6.3-3.64-7.58-6.19m-4,26.16c.56-.28,1.09-.54,1.58-.85a36,36,0,0,1-2.62,5.23c-.17.28.25.5.44.25a28.12,28.12,0,0,0,2.39-3.74,11.24,11.24,0,0,1-1.09,5.43,11,11,0,0,1-4.29,4.54,10.78,10.78,0,0,0,.66-5.87c-.32-2.56.69-3.88,2.93-5m5-8.66c0-.25.07-.51.11-.77l0-.2a.2.2,0,0,0,0-.17c0-.2.05-.41.07-.61a11.46,11.46,0,0,1,3.77,4.47c.2.39.89.12.73-.31a8.87,8.87,0,0,0-4.43-4.75l0-.25,0,0c5.87.73,6.1,6.85,3.53,10.79a7.73,7.73,0,0,0-.71-2.94c-.82-1.75-3.17-3.26-3.2-5.28m-1.45-8.86.46-.12c0,.39.06.78.08,1.18A12.55,12.55,0,0,1,217.6,75a10.5,10.5,0,0,0,1-2.92,12.65,12.65,0,0,1,1-3.57c.81-1.4,2.26-1.69,3.73-2a38.79,38.79,0,0,0-3.29,3.62c-.27.29.15.72.43.43a30.14,30.14,0,0,0,3.83-4,.27.27,0,0,0,0-.27m-9.72-12.71c-.51-3.57.28-6.46,3.32-8.15.06.22.11.44.16.66a.24.24,0,0,0-.09.11A57.13,57.13,0,0,0,216.15,52a.33.33,0,0,0,.64.18c.55-1.52,1.14-3.05,1.59-4.61a11.35,11.35,0,0,1-3.54,9.59,12.55,12.55,0,0,0-.16-3.49M207.24,21c-1.43,0-4,.53-5.66-.13l-.5-.72a10.91,10.91,0,0,0,3.47-.21c.33-.08.28-.65-.07-.6a23.26,23.26,0,0,1-3.81.22c-.11-.15-.22-.3-.32-.46a.53.53,0,0,0,.1-.06c3.24-3.13,6.52-.7,8.66,2.19a7.15,7.15,0,0,0-1.87-.23m7.22,15.57c4.08-3.38,8.37-.81,11.74,2.24a13.37,13.37,0,0,0-2.53.4,9.24,9.24,0,0,1-8.36-1.81,3.8,3.8,0,0,1,4.53.11c.38.26.8-.32.48-.62a4.13,4.13,0,0,0-5.52,0c-.11-.12-.23-.23-.34-.36"/></g></g></svg>