<svg xmlns="http://www.w3.org/2000/svg" viewBox="0 0 92.38 93.86"><defs><style>.cls-1{fill:#58595b;}.cls-1,.cls-10,.cls-11,.cls-12,.cls-13,.cls-14,.cls-15,.cls-16,.cls-17,.cls-19,.cls-2,.cls-20,.cls-21,.cls-22,.cls-23,.cls-24,.cls-25,.cls-26,.cls-27,.cls-28,.cls-29,.cls-3,.cls-30,.cls-31,.cls-32,.cls-33,.cls-34,.cls-35,.cls-36,.cls-37,.cls-38,.cls-39,.cls-4,.cls-40,.cls-41,.cls-42,.cls-43,.cls-44,.cls-45,.cls-46,.cls-47,.cls-48,.cls-49,.cls-5,.cls-50,.cls-51,.cls-52,.cls-53,.cls-54,.cls-55,.cls-56,.cls-57,.cls-58,.cls-59,.cls-6,.cls-7,.cls-8,.cls-9{fill-rule:evenodd;}.cls-10,.cls-11,.cls-12,.cls-13,.cls-14,.cls-15,.cls-16,.cls-17,.cls-18,.cls-19,.cls-2,.cls-20,.cls-21,.cls-22,.cls-23,.cls-24,.cls-25,.cls-26,.cls-27,.cls-28,.cls-29,.cls-3,.cls-30,.cls-31,.cls-32,.cls-33,.cls-34,.cls-35,.cls-36,.cls-37,.cls-38,.cls-39,.cls-4,.cls-40,.cls-41,.cls-42,.cls-43,.cls-44,.cls-45,.cls-46,.cls-47,.cls-48,.cls-49,.cls-5,.cls-50,.cls-51,.cls-52,.cls-53,.cls-54,.cls-55,.cls-56,.cls-57,.cls-58,.cls-59,.cls-6,.cls-7,.cls-8,.cls-9{fill:none;stroke:#58595b;stroke-linecap:round;}.cls-2{stroke-width:1.36px;}.cls-3{stroke-width:1.32px;}.cls-4{stroke-width:1.34px;}.cls-5{stroke-width:1.2px;}.cls-6{stroke-width:2.17px;}.cls-7{stroke-width:1.27px;}.cls-8{stroke-width:1.41px;}.cls-9{stroke-width:1.37px;}.cls-10{stroke-width:2.06px;}.cls-11{stroke-width:1.45px;}.cls-12{stroke-width:2.5px;}.cls-13{stroke-width:1.41px;}.cls-14{stroke-width:2.31px;}.cls-15{stroke-width:1.62px;}.cls-16{stroke-width:1.45px;}.cls-17{stroke-width:1.39px;}.cls-18{stroke-width:2.57px;}.cls-19{stroke-width:1.33px;}.cls-20{stroke-width:1.45px;}.cls-21{stroke-width:1.5px;}.cls-22{stroke-width:1.46px;}.cls-23{stroke-width:2.43px;}.cls-24{stroke-width:1.44px;}.cls-25{stroke-width:1.49px;}.cls-26{stroke-width:1.31px;}.cls-27{stroke-width:1.37px;}.cls-28{stroke-width:1.26px;}.cls-29{stroke-width:1.36px;}.cls-30{stroke-width:1.3px;}.cls-31{stroke-width:1.29px;}.cls-32{stroke-width:1.31px;}.cls-33{stroke-width:1.47px;}.cls-34{stroke-width:1.53px;}.cls-35{stroke-width:1.52px;}.cls-36{stroke-width:1.39px;}.cls-37{stroke-width:1.49px;}.cls-38{stroke-width:1.82px;}.cls-39{stroke-width:1.57px;}.cls-40{stroke-width:1.37px;}.cls-41{stroke-width:1.37px;}.cls-42{stroke-width:1.3px;}.cls-43{stroke-width:1.75px;}.cls-44{stroke-width:1.26px;}.cls-45{stroke-width:1.29px;}.cls-46{stroke-width:1.29px;}.cls-47{stroke-width:1.35px;}.cls-48{stroke-width:1.43px;}.cls-49{stroke-width:1.55px;}.cls-50{stroke-width:1.43px;}.cls-51{stroke-width:2.14px;}.cls-52{stroke-width:1.41px;}.cls-53{stroke-width:1.66px;}.cls-54{stroke-width:1.35px;}.cls-55{stroke-width:1.28px;}.cls-56{stroke-width:1.34px;}.cls-57{stroke-width:1.32px;}.cls-58{stroke-width:1.35px;}.cls-59{stroke-width:1.3px;}</style></defs><title>ailments-circle-bg</title><g id="Layer_2" data-name="Layer 2"><g id="Layer_1-2" data-name="Layer 1"><path class="cls-1" d="M9.81,21.37c.28,0,.67.09.71-.17L10.25,21l.09-.32c-.54.12-.64-.18-1.06-.18l-.2.26-.33-.08v.17l.27.31-.09.4h.18l.26-.44Z"/><path class="cls-1" d="M4.52,42.18V41.3a1.07,1.07,0,0,0-1.23,0C3.18,42.33,3.75,42.42,4.52,42.18Z"/><path class="cls-1" d="M4,39.36a.75.75,0,0,0,.71-1.24H4A1.49,1.49,0,0,0,4,39.36Z"/><path class="cls-1" d="M4.7,35.65c1.21.92,1-1.74-.18-.7C4.54,35.23,4.44,35.62,4.7,35.65Z"/><path class="cls-1" d="M6.11,33.36c.34-.33,0-.64,0-1.06-.61-.14-.75.2-1.06.36A.91.91,0,0,0,6.11,33.36Z"/><path class="cls-1" d="M7.52,30.54c.14-.78-.17-1.13-.88-1.06.08.56-.61.47-.18.88A1.48,1.48,0,0,0,7.52,30.54Z"/><path class="cls-1" d="M8.22,27.37h.89c.1-.75-.06-1.24-.89-1.06Z"/><path class="cls-1" d="M9.46,25.25h.88c-.13-.54.48-.34.35-.88-.15-.08-.31-.16-.35-.35C9.56,23.94,9.38,24.47,9.46,25.25Z"/><path class="cls-1" d="M11,23.13h.71a1.5,1.5,0,0,0,.18-1.05H10.87C10.74,22.62,11.05,22.72,11,23.13Z"/><path class="cls-1" d="M22.33,9c.14,0,.17-.18.35-.18a5.46,5.46,0,0,0,0,3c1.82-.12,1-2.31,1.24-3.53.06-.41.54-.26.52-.52l-.26-.21.09-.32C22.84,6.88,21.82,5.32,20,5.86c-.44,1.4,1.31,1.91,2.11,2.64l.09.27Z"/><path class="cls-1" d="M26,6.86l.23.23h.53a2.65,2.65,0,0,0-.36,2.65C27.87,9.61,28.1,7.36,28,6.21l-.09-.27L28,5.68c-.73-.82-1.63-2.34-3.17-1.76,0,1.23.91,1.55,1.41,2.29,0,.33-.59.12-.53.53Z"/><path class="cls-1" d="M30.88,5l-.26.2c-.17.9-.94,1.72-.53,2.65.5.3,1.43-.26,1.76-.71.45-.61.31-2.34,1.06-2.82l-.27-.21.09-.32h-.35a3.33,3.33,0,0,0-3-2.12c-.41,1.82,1.86,2.24,1.41,3Z"/><path class="cls-1" d="M35.29,3.3l-.09.26c.46.59-.58,1.18-.35,2.12.39-.1.25.34.53.35a4,4,0,0,0,1.94-3.17l-.09-.27.09-.26h-.18C36.4,1.34,35.41-.27,34,0,33.51,1.3,35,2,35.38,3Z"/><path class="cls-1" d="M20.07,10.35l-.21-.26c-1.2-.28-2-.9-3.7-.71v1.06c.65.34,1.55.44,1.94,1.06l.32-.09.21.26c.14,0,.17-.17.35-.17V14c1.67,0,1.62-2.36,1.41-3.71Z"/><path class="cls-1" d="M16.89,13l-.2-.27c-1.19-.37-3.19-.32-3.53.71.22.75,1.7.68,2.12.7l.26.21-.09.32c.49.42-.28,1.07.18,1.59,1.77.13,1.55-1.74,1.59-3.35Z"/><path class="cls-1" d="M14,15.82l-.26-.09a2.64,2.64,0,0,0-2.29,2.82c1.44.25,2.55-1.16,2.82-2.64Z"/><path class="cls-2" d="M10.25,21a1.86,1.86,0,0,1,1.06-.24"/><path class="cls-3" d="M8.84,19.52c.31.34.08.84.24,1.23"/><path class="cls-4" d="M.67,43.09c.52-.35.77-1,1.29-1.35"/><path class="cls-5" d="M2,41.74c.18.4.53.66.71,1"/><path class="cls-6" d="M2,41.74v-.18"/><path class="cls-7" d="M2,41.56a10,10,0,0,0,1.19-1.25,6.69,6.69,0,0,0-1-1.75"/><path class="cls-6" d="M2.14,38.56a3.16,3.16,0,0,1,0-.32"/><path class="cls-8" d="M2.17,38.24A4.09,4.09,0,0,0,3.8,36.76c0-.73-.59-1.19-.87-1.81"/><path class="cls-9" d="M2.93,35c.35-.43.95-.56,1.28-1a2.67,2.67,0,0,0-.46-1.89"/><path class="cls-10" d="M3.75,32.08l.18-.36"/><path class="cls-11" d="M3.93,31.72a5.32,5.32,0,0,1,1.21-.44,2.93,2.93,0,0,0-.07-2.47"/><path class="cls-12" d="M5.07,28.81l.07-.12"/><path class="cls-13" d="M5.14,28.69A17,17,0,0,0,7,28c.06-.71-.42-1.34-.48-2"/><path class="cls-14" d="M6.56,25.92v0"/><path class="cls-15" d="M6.57,25.9a4.71,4.71,0,0,0,1.78-.8c.22-.61-.22-1.17-.13-1.79"/><path class="cls-16" d="M8.22,23.31c.52-.16,1.23,0,1.56-.55-.25-.53-.2-1.12-.41-1.65"/><path class="cls-17" d="M2,41.56c-.35-.49-.95-.82-1.13-1.42a3,3,0,0,1,1.31-1.58"/><line class="cls-18" x1="2.93" y1="34.95" x2="2.93" y2="34.95"/><path class="cls-19" d="M2.17,38.24C.51,37,1.3,35.69,2.93,35"/><path class="cls-20" d="M2.93,35a4.73,4.73,0,0,1-1-1.83,3,3,0,0,1,1.86-1"/><path class="cls-21" d="M3.93,31.72a2.89,2.89,0,0,1-.66-2.42c.63-.08,1.17-.37,1.8-.49"/><path class="cls-22" d="M5.14,28.69c-.6-1.4-.45-2.91,1.42-2.77"/><path class="cls-23" d="M8.18,23.27l0,0"/><path class="cls-24" d="M6.57,25.9a4.2,4.2,0,0,1-.41-2.08c.48-.67,1.37-.25,2-.55"/><path class="cls-25" d="M8.18,23.27A3.19,3.19,0,0,1,8,21.37c.31-.11.66-.14,1-.22"/><path class="cls-26" d="M24.18,7.59c.61-.21,1.19-.54,1.8-.73"/><path class="cls-27" d="M27.88,5.94c1.05-.19,1.94-1,3-1"/><path class="cls-28" d="M32.64,4.06c.92-.16,1.75-.55,2.65-.76"/><path class="cls-29" d="M37.23,2.59A15.71,15.71,0,0,0,39.34,2"/><path class="cls-30" d="M22.24,8.77a7,7,0,0,0-2.17,1.58"/><path class="cls-31" d="M18.42,11.41c-.43.57-1.18.91-1.53,1.59"/><path class="cls-32" d="M15.54,14.35A10.54,10.54,0,0,0,14,15.82"/><path class="cls-1" d="M89.15,51.54v.88C87.51,53.29,87.54,50.71,89.15,51.54Z"/><path class="cls-1" d="M88.45,54.36c0,.42.27.66.17,1.24h-.88C87.44,55,87.58,54.26,88.45,54.36Z"/><path class="cls-1" d="M87,57.89h.88c.13.78-.17,1.13-.88,1.06A1.23,1.23,0,0,1,87,57.89Z"/><path class="cls-1" d="M86.51,60.18c.36.23.89.28.88.88-.16.08-.32.16-.35.35A.68.68,0,0,1,86.51,60.18Z"/><path class="cls-1" d="M84.92,63.18H86a1.54,1.54,0,0,1-.18,1.06h-.7C84.89,64,84.9,63.61,84.92,63.18Z"/><path class="cls-1" d="M83.51,66.53c1.21-.92,1,1.74-.18.7C83.35,67,83.25,66.56,83.51,66.53Z"/><path class="cls-1" d="M82.1,68.47c.61-.14.74.19,1.06.35-.22.37-.49.69-.71,1.06C81.92,69.82,81.74,68.88,82.1,68.47Z"/><path class="cls-1" d="M81.57,70.76v.88a1.32,1.32,0,0,1-1.23-.35C80.57,70.78,80.9,70.38,81.57,70.76Z"/><path class="cls-1" d="M55.56,91.06l-.26-.2c.39-1.32.82-2.59,1.94-3.17.35,0,.22.48.7.35.07,1-.51,1.37-.7,2.11l.09.27.08.26h-.17c.51.93,2,1.7,1.41,3.18a3.6,3.6,0,0,1-2.82-2.47h-.35Z"/><path class="cls-1" d="M60.15,89.65l-.27-.2a1.15,1.15,0,0,1,.53-.35c0-1.76.75-3.53,2.29-3.18a3.61,3.61,0,0,1-.7,2.65l.09.26.09.27c-.2,0-.12.35-.36.35.83.44,1.78,1.59,1.41,2.64-1.38-.21-2.47-.7-2.64-2.11h-.53Z"/><path class="cls-1" d="M64.91,87.77l-.09-.26c-.1-1.81.11-3.3,1.59-3.53.17,1-.26,2.32,0,2.82l-.09.27.09.26c.45.87,1.91,1.38,1.41,2.65-1.71.06-2.27-1-3-1.94Z"/><path class="cls-1" d="M68.79,86.13l-.27-.21c0-1.32,0-3.5,1.24-4,1.29.28.28,2.25.53,2.82L70.2,85l.26.21c.87.77,2.44.85,2.29,2.64-1.69.51-2.87-.84-4-1.41Z"/><path class="cls-1" d="M72.55,83.37l-.32.08q-.24-2.7,1-3.87c.81.13.61,2,.36,2.64.57.22.13-.57.7-.35v.35h.35c.47.8,2.45.72,1.77,2.12-1.63.15-2.48-.47-3.71-.71Z"/><path class="cls-1" d="M75.8,80.86l-.23-.23c-.3-1.33,0-3.36,1.77-3.17.17.82-.23,1.06-.35,1.59.16-.1.26-.49.35-.18l.09.26.08.27v.18c.45.12,1.72-.1,2.12.52-.28,1.37-2.66,1-3.7,1.06Z"/><path class="cls-1" d="M78.9,77.72l-.33.09c0-1.79,1.22-2.43,2.65-2.82v.35c.44.08,0,1.07-.18,1.41A4.18,4.18,0,0,1,79.1,78Z"/><path class="cls-33" d="M83.25,72.65c0,.61.37,1.12.35,1.72"/><path class="cls-34" d="M81.31,73a16,16,0,0,1,1.88-.34"/><path class="cls-35" d="M83.19,72.62c-.53-1-.56-2.34.94-2.21"/><path class="cls-36" d="M84.13,70.41a10.48,10.48,0,0,1,.07-2c.56-.24,1.12-.41,1.68-.65"/><path class="cls-37" d="M85.88,67.81a20.07,20.07,0,0,1-.46-2,5.88,5.88,0,0,1,1.79-.65"/><path class="cls-38" d="M87.21,65.12l.27-.27"/><path class="cls-39" d="M87.48,64.85c-.16-.74-.84-1.76-.13-2.4A6.62,6.62,0,0,0,88.63,62"/><path class="cls-14" d="M88.63,62l.1-.25"/><path class="cls-40" d="M88.73,61.71a4.57,4.57,0,0,1-.47-1.79c.16-.6.89-.73,1.33-1.06"/><path class="cls-6" d="M89.59,58.86v-.18"/><path class="cls-41" d="M89.59,58.68a3.23,3.23,0,0,1-1-1.74,4.17,4.17,0,0,1,1.68-1.43"/><path class="cls-6" d="M90.3,55.51v-.35"/><path class="cls-42" d="M90.3,55.16a5.28,5.28,0,0,1-.91-1.76c.35-.44.56-1,1.15-1.17"/><path class="cls-43" d="M90.54,52.23c0-.11,0-.22,0-.32"/><path class="cls-44" d="M90.58,51.91a2.79,2.79,0,0,1-.81-1"/><path class="cls-45" d="M90.58,51.91c.53-.28.72-.92,1.13-1.34"/><path class="cls-46" d="M90.3,55.16c.71-.18.93-.95,1.33-1.49-.1-.22-.14-.45-.23-.67-.48,0-.44-.61-.86-.77"/><path class="cls-47" d="M89.59,58.68a8.07,8.07,0,0,0,1.83-1.45,8.07,8.07,0,0,0-1.12-1.72"/><path class="cls-48" d="M88.73,61.71c.63-.36,1.49-.47,1.85-1.17a5.21,5.21,0,0,0-1-1.68"/><path class="cls-49" d="M87.48,64.85c.6-.08,1.12-.37,1.72-.44A4.17,4.17,0,0,0,88.63,62"/><path class="cls-14" d="M85.88,67.81l.15.06"/><path class="cls-50" d="M86,67.87c.56-.26,1.27-.27,1.72-.76.06-.68-.4-1.33-.54-2"/><path class="cls-51" d="M84.13,70.41l.14.11"/><path class="cls-52" d="M84.27,70.52c.61-.47,1.65.16,2.06-.65-.17-.65,0-1.38-.3-2"/><path class="cls-14" d="M83.19,72.62l.06,0"/><path class="cls-53" d="M83.25,72.65c.4-.21.88-.13,1.27-.33a5.56,5.56,0,0,0-.25-1.8"/><path class="cls-54" d="M53.92,91.56c.54-.18,1.09-.36,1.64-.5"/><path class="cls-55" d="M57.33,90.42c1-.19,1.84-.6,2.82-.77"/><path class="cls-45" d="M66.32,87.07a12.46,12.46,0,0,1,2.47-.94"/><path class="cls-56" d="M70.2,85a4.48,4.48,0,0,0,2.35-1.64"/><path class="cls-57" d="M74.34,82.22c.44-.52,1.06-.82,1.46-1.36"/><path class="cls-58" d="M77.43,79.13a4.06,4.06,0,0,0,1.47-1.41"/><path class="cls-59" d="M64.91,87.77c-1,.2-1.85.84-2.82,1.06"/></g></g></svg>