<svg xmlns="http://www.w3.org/2000/svg" viewBox="0 0 69.91 51.04"><defs><style>.cls-1{fill:#fff;}</style></defs><title>mail</title><g id="Layer_2" data-name="Layer 2"><g id="Layer_1-2" data-name="Layer 1"><polygon class="cls-1" points="0 10.75 0 45.32 20.78 28.03 0 10.75"/><path class="cls-1" d="M64.39,0H5.52A5.54,5.54,0,0,0,.08,4.58L27.55,27.42l4.58,3.81a4.58,4.58,0,0,0,5.65,0l4.81-4L69.83,4.58A5.54,5.54,0,0,0,64.39,0Z"/><polygon class="cls-1" points="69.91 45.32 69.91 10.75 49.13 28.03 69.91 45.32"/><path class="cls-1" d="M41.5,34.38l-3.72,3.09a4.61,4.61,0,0,1-5.65,0l-4.8-4-2.8-2.33L2.08,49.82A5.46,5.46,0,0,0,5.52,51H64.39a5.46,5.46,0,0,0,3.44-1.22L45.38,31.15Z"/></g></g></svg>