<svg xmlns="http://www.w3.org/2000/svg" viewBox="0 0 185.27 173.92"><defs><style>.cls-1{fill:#58595b;}.cls-1,.cls-10,.cls-2,.cls-3,.cls-4,.cls-5,.cls-6,.cls-7,.cls-8,.cls-9{fill-rule:evenodd;}.cls-10,.cls-2,.cls-3,.cls-4,.cls-5,.cls-6,.cls-7,.cls-8,.cls-9{fill:none;stroke:#58595b;stroke-linecap:round;}.cls-2{stroke-width:1.6px;}.cls-3{stroke-width:1.62px;}.cls-4{stroke-width:1.64px;}.cls-5{stroke-width:1.7px;}.cls-6{stroke-width:1.78px;}.cls-7{stroke-width:1.65px;}.cls-8{stroke-width:1.67px;}.cls-9{stroke-width:1.61px;}.cls-10{stroke-width:1.56px;}</style></defs><title>event-border</title><g id="Layer_2" data-name="Layer 2"><g id="Layer_1-2" data-name="Layer 1"><path class="cls-1" d="M181.38,75.32c-.74.09-1.12-.74-1.3,0l-.65-.22-.65.22c-1.34.68-1.89,2.15-3.46,2.6-1.79.06-.45-3-.86-4.33,1.9-.84,3.69-1.78,3.89-4.33-1.23-.69-2,2.13-3.46,2.6-1-.4-1.15-1.74-1.3-3,1.63-1.25,4-1.79,3.89-4.76l.8.22.5-.65a6.19,6.19,0,0,0,5.2,3.89c.21,1.7.9,4.62.43,5.63a13.19,13.19,0,0,1-4.33-2.6c-.73,2.31,1.3,1.88,1.3,3.46l-.22.65Z"/><path class="cls-1" d="M179.58,76l.5-.65c.8,2.66,2.9,4,5.19,5.19-.59.56-.42,1.88-.43,3-2.51-.51-3.8-2.25-4.76-4.32-1.9,1.26-2.41,3.93-5.62,3.89-1-4.9,4.64-3.14,4.32-7.36Z"/><path class="cls-1" d="M139.62,5.43l.21.65c-.7.12-.74-.41-1.3-.44-1.12.47-.6,2.57-1.73,3C134.25,6.32,132.63,3,130.74,0c3.89,0,8-.24,10.82.86.14,1.87-1.77,1.7-2.16,3,.42,0,.34.53.43.87Z"/><path class="cls-1" d="M15.63,29c-.63-1.54-.45-3.88-1.74-4.76.23-1.5,1.46-2,2.17-3,1,1.41,2.4,4.36,1.3,6.49,1.72-.73,4.56-.33,6.92-.43,0,1.27-1.65.95-1.3,2.6-2.11.2-5.07-.45-6.49.43l-.3-.73Z"/><path class="cls-1" d="M15.84,30.53l.65-.22c.07.5-.09.77-.43.87.59.7,3-.45,4.76,0,.07,2.09-1.37,2.67-2.16,3.89-2.77-.16-5.13.07-6.06,1.73.91.89,3.19-.53,5.19,0,0,1.45-1.41,1.48-1.3,3-2.28-.26-3.72.32-5.62.44l-.51-.65-.79.21A13.19,13.19,0,0,0,7.4,34.64c.64-2,1.35-3.84,3-4.76.59,1.57,1.27,3.06,1.73,4.76,1-.84,1-2.64.44-3.9l.65.22.64-.22a2.1,2.1,0,0,1,1.3-.43Z"/><path class="cls-1" d="M6.9,112.32l.5-.65c2.06.19,1.68-2.07,3.9-1.73a59.75,59.75,0,0,1-.87,10.82c-3-2.06-5.4-4.69-8.22-6.92.15-1.58,2.79-.67,3.89-1.3v-.43Z"/><path class="cls-1" d="M12.67,28.36l-.51.65c-1.86-.57-.11-1.93,0-3,.55.75,1.47,1.14,1.3,2.6Z"/><path class="cls-2" d="M179.58,76a5.28,5.28,0,0,1-.15-.87"/><path class="cls-3" d="M139.62,5.43c20.49,13.11,34.61,35.07,38.66,58.86"/><path class="cls-4" d="M181.16,74.67c1,0,1.46,1.46,2.6,1.3"/><path class="cls-5" d="M16.19,29.58a2.14,2.14,0,0,0-.35,1"/><path class="cls-6" d="M6.9,112.32c-9.22-23-7.66-50.75,3.46-72.7"/><path class="cls-7" d="M13.25,31a4.65,4.65,0,0,0-.58-2.6"/><path class="cls-1" d="M66.76,167.65l-4.82,3.66c-.94-.65-2-.64-2.87-1.63a15.57,15.57,0,0,1,5.69-3.23,9.77,9.77,0,0,1-2.54-6.22,18.15,18.15,0,0,1,2.68.68c1.32,1.93.35,3.54,2.63,5.61l-.76.3Z"/><path class="cls-1" d="M68.36,167.25l-.56-.39c.35-.36.67-.39,1-.18-.09-1.45-2-3.15-1.24-4.49,4.39-2.16,4,5,7.56,5.66-.4-1-1.24-2.75-1.84-4.57,1.23-.74,2.08,1.3,3.37.15A8.91,8.91,0,0,0,79,168.69l.22.65.22.65c-2,.19-3.69,2.68-5.16,3.93a37.37,37.37,0,0,1-5.12-1c.1-1.32,2.77-2.3,3.88-3.49-1-.86-2.21-.43-3.46.46l-.31-.76h-.82c-.2-.44.5-.76.16-1.22Z"/><path class="cls-1" d="M146.93,149.76h-.82c-.25-.55.65-.94,1.12-1.39.1-1.39-1.94-.85-2.7-2.84,3.29-1.53,6.43-1.88,9.67-3,1,1.11-.31,3.36-1,5.11a27.47,27.47,0,0,1-2.56,5.21c-1.52-.7-.82-1.9-2-3.36l-1.38,1Z"/><path class="cls-1" d="M67.86,170.16l.65.5c-.7,1.35-2.41,2.65-3.54,1.07,1-.61,1.67-2.83,3.1-2.36Z"/><path class="cls-8" d="M79.19,169.34a88.3,88.3,0,0,0,67.74-19.58"/><path class="cls-9" d="M67.86,170.16a4,4,0,0,0,1.38-1"/><path class="cls-10" d="M68.36,167.25c-.6.22-1.09-.15-1.59-.43"/></g></g></svg>