<svg xmlns="http://www.w3.org/2000/svg" viewBox="0 0 210.62 222.21"><defs><style>.cls-1{fill:#4d4d4d;}</style></defs><title>filter-icon</title><g id="Layer_2" data-name="Layer 2"><g id="Layer_1-2" data-name="Layer 1"><path class="cls-1" d="M157.52,199c-16.67,0-33.35,0-50,0-2.07,0-2.85.69-3.48,2.63a28.53,28.53,0,0,1-16.38,18.2,28.87,28.87,0,0,1-21.47.77A27.75,27.75,0,0,1,48.9,204.12a19.19,19.19,0,0,1-.81-1.87c-1-3.76-.38-3.28-4.49-3.29-13.63,0-27.25,0-40.88,0-2.61,0-2.62,0-2.63-2.58s0-4.85,0-7.28c0-2.28.14-2.42,2.45-2.42H44c3.35-.07,2.87.47,4.08-3.14a28.64,28.64,0,0,1,13.52-16.43,29.6,29.6,0,0,1,35.14,4.67,25.89,25.89,0,0,1,7.34,12.34c.5,2,1.44,2.61,3.48,2.61q49.74-.09,99.48,0c3.6,0,3.6,0,3.6,3.53v5.6c0,3.14,0,3.14-3.08,3.14h-50Z"/><path class="cls-1" d="M134.27,35.6H60.76c-1.36,0-2.48-.13-3,1.8-2.69,8.92-8.25,15.5-16.9,19.14a28.29,28.29,0,0,1-20.35.9A28.87,28.87,0,0,1,2.62,41.66,28.52,28.52,0,0,1,.69,23.31,28.06,28.06,0,0,1,14.6,4,28.38,28.38,0,0,1,36.3.89c3.92.93,6.86,3.28,10.2,5.2A23.79,23.79,0,0,1,54,13.3a25.54,25.54,0,0,1,3.92,8.78,1.61,1.61,0,0,0,1.9,1.46c4.48,0,9,0,13.44,0H207.74c2.87,0,2.87,0,2.88,2.85,0,2.18,0,4.35,0,6.53,0,2.5-.19,2.69-2.63,2.69H134.27Z"/><path class="cls-1" d="M64.58,105.19q30.9,0,61.78,0c1.59,0,2.4-.29,2.89-2a29.43,29.43,0,0,1,53.59-7.13,20.28,20.28,0,0,1,3,7,2.33,2.33,0,0,0,2.7,2.16c6.47-.07,12.94,0,19.41-.06,1.82,0,2.42.59,2.33,2.36-.12,2.42,0,4.85,0,7.28,0,2.2-.24,2.42-2.51,2.43-6.34,0-12.69,0-19,0-1.72,0-2.46.53-3,2.26a29.3,29.3,0,0,1-38.23,19.29,28.63,28.63,0,0,1-16.64-15.38,40.19,40.19,0,0,1-1.75-4.89,1.54,1.54,0,0,0-1.76-1.26c-.5,0-1,0-1.49,0H2.85c-2.69,0-2.75-.07-2.76-2.68,0-2.43.1-4.86,0-7.28-.1-1.87.81-2.1,2.37-2.1q30.15,0,60.29,0Z"/></g></g></svg>