<svg xmlns="http://www.w3.org/2000/svg" xmlns:xlink="http://www.w3.org/1999/xlink" viewBox="0 0 103.89 104.19"><defs><style>.cls-1{fill:none;}.cls-2{clip-path:url(#clip-path);}.cls-3{fill:#595a5c;}.cls-4{clip-path:url(#clip-path-2);}</style><clipPath id="clip-path" transform="translate(-9.8 -9.52)"><rect class="cls-1" x="-4.87" y="18.86" width="67.48" height="38.44" transform="translate(-16.36 53.48) rotate(-71.63)"/></clipPath><clipPath id="clip-path-2" transform="translate(-9.8 -9.52)"><rect class="cls-1" x="61.13" y="69.86" width="67.48" height="38.44" transform="translate(-28.39 130.8) rotate(-61.89)"/></clipPath></defs><title>healer-circle-bg</title><g id="Layer_2" data-name="Layer 2"><g id="Layer_1-2" data-name="Layer 1"><g class="cls-2"><path class="cls-3" d="M55,19.62A1.7,1.7,0,0,0,54,19a1.1,1.1,0,0,0-.81-.28,1,1,0,0,0-.42.1,35.44,35.44,0,0,0-4.6-1q2-1.12,4.06-2.16c.65,1.52,2.89,1.07,3.59-.26a1.14,1.14,0,0,0,.5-1.12.37.37,0,0,0-.13-.51l-.09,0a1.43,1.43,0,0,0-.68-.51,1.72,1.72,0,0,0-.84-.42,1.51,1.51,0,0,0-1.42.57,2,2,0,0,0-1.07,1.49,41.59,41.59,0,0,0-5,2.15c.54-1.48,1.16-2.93,1.79-4.38a1.55,1.55,0,0,0,2.33-.93,1.66,1.66,0,0,0-1.52-2.16,1.58,1.58,0,0,0-.81.28,1.42,1.42,0,0,0-.33.21A1.44,1.44,0,0,0,48,11a1,1,0,0,0,.07.63,1.4,1.4,0,0,0,.24.47,30.67,30.67,0,0,0-2.52,5.57c-1.2.66-2.36,1.37-3.51,2.13q.55-1.9,1.08-3.84a1.61,1.61,0,0,0,1.85-.59,1.58,1.58,0,0,0-.76-2.43,1.8,1.8,0,0,0-1.6.1,1.6,1.6,0,0,0-.21,2.48l.14.11q-.93,2.51-1.82,5a.22.22,0,0,0,0,.08A49.53,49.53,0,0,0,37,23.88c.2-1.28.45-2.55.72-3.82A1.7,1.7,0,0,0,39,18.78a1.37,1.37,0,0,0,0-.34,1.17,1.17,0,0,0,.07-.73,1.73,1.73,0,0,0-2-.87,1.63,1.63,0,0,0-1.07.89,1.24,1.24,0,0,0-.2.83A1.21,1.21,0,0,0,36,19a1.66,1.66,0,0,0,.92,1,40.24,40.24,0,0,0-1.11,5A55.36,55.36,0,0,0,20.33,51.3a26.34,26.34,0,0,1-2.16-3.83s0,0,0-.07c.52-.86,1.1-1.72,1.58-2.63a1.27,1.27,0,0,0,.89-.17,1.38,1.38,0,0,0,.67-1.31,1.31,1.31,0,0,0-1-1.09l-.14,0h0a1.9,1.9,0,0,0-.25,0,1.25,1.25,0,0,0-1.22.91A1.35,1.35,0,0,0,19,44.28c-.46.69-.85,1.43-1.26,2.16a24,24,0,0,1-1.37-4.9c.78-.78,1.64-1.49,2.41-2.28a1.28,1.28,0,0,0,.22.24,1.36,1.36,0,0,0,1.91,0c.86-1-.42-2.8-1.57-2a.79.79,0,0,0-.48.09.85.85,0,0,0-.42.81,9.82,9.82,0,0,0-2.26,1.83A29.89,29.89,0,0,1,16,36c.84-.88,1.77-1.74,2.55-2.68A1.7,1.7,0,0,0,21,31a1.45,1.45,0,0,0-1.84-.52l0,0a1.69,1.69,0,0,0-.95.73A1.54,1.54,0,0,0,18,32.5a24.56,24.56,0,0,0-2,2c.1-1.3.27-2.63.5-4,1.05-.14,1.91-1.42,1-2.22a.48.48,0,0,1-.18-.21h0c-.08-.25-.57-.29-.83-.29a1.52,1.52,0,0,0-1.15.62h0a.87.87,0,0,0-.08.1,1.28,1.28,0,0,0,.45,1.81,16.35,16.35,0,0,0-1,3.22c-.29-.52-.57-1-.83-1.57.67-.84.44-2.34-.85-2.37a1.53,1.53,0,0,0-.3,0,.84.84,0,0,0-.64-.22,1.31,1.31,0,0,0-1,1.4,1.69,1.69,0,0,0,2.23,1.6c.36.83.76,1.63,1.19,2.42A20.51,20.51,0,0,0,14.63,40c-.76-.67-1.5-1.35-2.25-2a2.45,2.45,0,0,0-.08-.29.34.34,0,0,0-.06-.29,1.36,1.36,0,0,0-2.3.14,1.43,1.43,0,0,0,1.35,2,1.1,1.1,0,0,0,.81-.42,33.17,33.17,0,0,0,2.81,2.51A23.4,23.4,0,0,0,16.3,46l-1.47-.67a1.38,1.38,0,0,0-.39-1,1.34,1.34,0,0,0-.93-.38,1.15,1.15,0,0,0-.94.19c-.58.41-.37,1.29,0,1.76a1.63,1.63,0,0,0,1.68.55.72.72,0,0,0,.44-.4c.72.39,1.43.78,2.16,1.16a22.13,22.13,0,0,0,3.27,4.86,45.35,45.35,0,0,0-.66,18.29.24.24,0,0,0,.47,0c-.31-8.88.55-17.41,3.67-25.49h.07a7.35,7.35,0,0,1,.41-1L24,44a47.9,47.9,0,0,1,3-6.15A48.93,48.93,0,0,1,37,25.66c1.37-.08,2.7,0,4.06,0a1.45,1.45,0,0,0,1.78,1.11,1.3,1.3,0,0,0,.56-2.26l-.06,0a.36.36,0,0,0-.11-.17,1.39,1.39,0,0,0-2,.31,12.37,12.37,0,0,0-2.86-.18q1.89-1.56,3.9-3a16.79,16.79,0,0,0,3.93.56,1,1,0,0,0,0,.3v0a.48.48,0,0,0,.07.23,1.42,1.42,0,0,0,.68.79,1.44,1.44,0,0,0,1.34,0,1.18,1.18,0,0,0,.63-1.35,1.13,1.13,0,0,0-.56-.68A1.25,1.25,0,0,0,47,21.14c-1.12-.2-2.25-.33-3.38-.51,1-.7,2.12-1.38,3.22-2a53,53,0,0,0,5.31.88,1.19,1.19,0,0,0-.05.5,1.46,1.46,0,0,0,1.23,1.32,1.76,1.76,0,0,0,1.75-1,.67.67,0,0,0,0-.67" transform="translate(-9.8 -9.52)"/></g><g class="cls-4"><path class="cls-3" d="M66,102.85a1.68,1.68,0,0,0,.9.82,1.1,1.1,0,0,0,.75.42,1,1,0,0,0,.43,0,34.53,34.53,0,0,0,4.37,1.73c-1.44.52-2.89,1-4.36,1.45-.39-1.61-2.68-1.54-3.59-.35a1.12,1.12,0,0,0-.68,1,.36.36,0,0,0,0,.52l.08,0a1.34,1.34,0,0,0,.58.62,1.7,1.7,0,0,0,.76.56,1.49,1.49,0,0,0,1.49-.32,2,2,0,0,0,1.31-1.29,42.16,42.16,0,0,0,5.3-1.28c-.79,1.38-1.65,2.69-2.51,4a1.55,1.55,0,0,0-2.45.52,1.66,1.66,0,0,0,1.13,2.39,2.71,2.71,0,0,0,1.21-.29,1.4,1.4,0,0,0,.68-.88,1,1,0,0,0,0-.63,1.5,1.5,0,0,0-.15-.51,30.37,30.37,0,0,0,3.42-5.06c1.29-.44,2.56-1,3.82-1.51q-.87,1.8-1.71,3.6a1.63,1.63,0,0,0-1.93.28,1.58,1.58,0,0,0,.34,2.52,1.78,1.78,0,0,0,1.6.17,1.59,1.59,0,0,0,.62-2.4.87.87,0,0,0-.12-.14c.89-1.54,1.78-3.08,2.64-4.63,0,0,0,0,0-.08a48.89,48.89,0,0,0,4.42-2.44c-.42,1.23-.88,2.44-1.36,3.64a1.68,1.68,0,0,0-1.46,1,1,1,0,0,0-.09.33,1.09,1.09,0,0,0-.2.7,1.74,1.74,0,0,0,1.85,1.2,1.61,1.61,0,0,0,1.2-.69,1.24,1.24,0,0,0,.33-.79,1.13,1.13,0,0,0-.09-.49,1.67,1.67,0,0,0-.75-1.11,40.49,40.49,0,0,0,1.94-4.73,55.37,55.37,0,0,0,19.7-23.32A25.22,25.22,0,0,1,107,81.64l-.06,0c-.65.76-1.38,1.51-2,2.32a1.3,1.3,0,0,0-.91,0,1.39,1.39,0,0,0-.88,1.18,1.29,1.29,0,0,0,.81,1.24l.14.06h0l.24.08a1.25,1.25,0,0,0,1.35-.7,1.37,1.37,0,0,0,0-1.25c.56-.61,1.08-1.27,1.6-1.91a23.47,23.47,0,0,1,.52,5c-.9.64-1.86,1.19-2.75,1.84a1.81,1.81,0,0,0-.18-.27,1.36,1.36,0,0,0-1.89-.28c-1,.81-.06,2.84,1.2,2.26a.81.81,0,0,0,.49,0,.85.85,0,0,0,.56-.73,9.35,9.35,0,0,0,2.53-1.42,29.25,29.25,0,0,1-.54,4.12c-1,.72-2,1.42-3,2.22a1.78,1.78,0,0,0-1.19-.64,1.73,1.73,0,0,0-1.65,2.49,1.47,1.47,0,0,0,1.73.83l0,0a1.73,1.73,0,0,0,1.06-.56,1.54,1.54,0,0,0,.39-1.19,24.07,24.07,0,0,0,2.26-1.64c-.31,1.26-.71,2.54-1.17,3.84-1,0-2.12,1.08-1.32,2a.69.69,0,0,1,.15.23h0c0,.26.51.38.76.42a1.51,1.51,0,0,0,1.24-.41h0s.07-.05.1-.08a1.28,1.28,0,0,0-.14-1.86,16.21,16.21,0,0,0,1.49-3c.2.56.38,1.12.55,1.68-.8.72-.82,2.24.44,2.48a1,1,0,0,0,.3,0,.81.81,0,0,0,.6.33,1.31,1.31,0,0,0,1.23-1.21,1.69,1.69,0,0,0-1.93-2c-.21-.88-.48-1.73-.77-2.59a20,20,0,0,0,.8-5.13c.64.79,1.25,1.59,1.89,2.38a1.51,1.51,0,0,0,0,.3.37.37,0,0,0,0,.29,1.36,1.36,0,0,0,2.29.25,1.43,1.43,0,0,0-1-2.19,1.06,1.06,0,0,0-.86.28,30.7,30.7,0,0,0-2.35-3,24.28,24.28,0,0,0-.63-4.49l1.33.9a1.36,1.36,0,0,0,.22,1,1.29,1.29,0,0,0,.85.53,1.14,1.14,0,0,0,1,0c.63-.31.58-1.21.27-1.73a1.62,1.62,0,0,0-1.56-.83.69.69,0,0,0-.51.32l-1.93-1.51a21.85,21.85,0,0,0-2.4-5.34,45.19,45.19,0,0,0,3.74-17.92.23.23,0,0,0-.46-.05c-1.2,8.8-3.49,17.07-7.93,24.5l-.06,0a9.33,9.33,0,0,1-.57.87l.15,0a49.66,49.66,0,0,1-4,5.55,49.11,49.11,0,0,1-12,10.29c-1.36-.15-2.66-.47-4-.73a1.43,1.43,0,0,0-1.57-1.39,1.3,1.3,0,0,0-.93,2.13l0,0a.36.36,0,0,0,.08.19,1.39,1.39,0,0,0,2,0,12.34,12.34,0,0,0,2.79.66q-2.13,1.22-4.35,2.27a16.69,16.69,0,0,0-3.78-1.22,1.35,1.35,0,0,0,.05-.29v0a.49.49,0,0,0,0-.24,1.45,1.45,0,0,0-.54-.9,1.48,1.48,0,0,0-1.31-.26,1.16,1.16,0,0,0-.85,1.22,1.13,1.13,0,0,0,.43.77,1.25,1.25,0,0,0,1.37.51c1.07.4,2.16.72,3.24,1.08-1.15.51-2.32,1-3.51,1.45-1.68-.62-3.37-1.3-5.09-1.76A1.56,1.56,0,0,0,69,103a1.49,1.49,0,0,0-1-1.51,1.74,1.74,0,0,0-1.89.7.66.66,0,0,0-.08.66" transform="translate(-9.8 -9.52)"/></g></g></g></svg>