<svg xmlns="http://www.w3.org/2000/svg" viewBox="0 0 222.69 228.24"><defs><style>.cls-1{fill:#58595b;}.cls-1,.cls-10,.cls-11,.cls-12,.cls-13,.cls-14,.cls-15,.cls-16,.cls-17,.cls-19,.cls-2,.cls-20,.cls-21,.cls-22,.cls-23,.cls-24,.cls-25,.cls-26,.cls-27,.cls-28,.cls-29,.cls-3,.cls-30,.cls-31,.cls-32,.cls-33,.cls-34,.cls-35,.cls-36,.cls-37,.cls-38,.cls-39,.cls-4,.cls-40,.cls-41,.cls-42,.cls-43,.cls-44,.cls-45,.cls-46,.cls-47,.cls-48,.cls-49,.cls-5,.cls-50,.cls-51,.cls-52,.cls-53,.cls-54,.cls-55,.cls-56,.cls-57,.cls-58,.cls-59,.cls-6,.cls-7,.cls-8,.cls-9{fill-rule:evenodd;}.cls-10,.cls-11,.cls-12,.cls-13,.cls-14,.cls-15,.cls-16,.cls-17,.cls-18,.cls-19,.cls-2,.cls-20,.cls-21,.cls-22,.cls-23,.cls-24,.cls-25,.cls-26,.cls-27,.cls-28,.cls-29,.cls-3,.cls-30,.cls-31,.cls-32,.cls-33,.cls-34,.cls-35,.cls-36,.cls-37,.cls-38,.cls-39,.cls-4,.cls-40,.cls-41,.cls-42,.cls-43,.cls-44,.cls-45,.cls-46,.cls-47,.cls-48,.cls-49,.cls-5,.cls-50,.cls-51,.cls-52,.cls-53,.cls-54,.cls-55,.cls-56,.cls-57,.cls-58,.cls-59,.cls-6,.cls-7,.cls-8,.cls-9{fill:none;stroke:#58595b;stroke-linecap:round;}.cls-2{stroke-width:1.36px;}.cls-3{stroke-width:1.32px;}.cls-4{stroke-width:1.34px;}.cls-5{stroke-width:1.2px;}.cls-6{stroke-width:2.17px;}.cls-7{stroke-width:1.27px;}.cls-8{stroke-width:1.41px;}.cls-9{stroke-width:1.37px;}.cls-10{stroke-width:2.06px;}.cls-11{stroke-width:1.45px;}.cls-12{stroke-width:2.5px;}.cls-13{stroke-width:1.41px;}.cls-14{stroke-width:2.31px;}.cls-15{stroke-width:1.62px;}.cls-16{stroke-width:1.45px;}.cls-17{stroke-width:1.39px;}.cls-18{stroke-width:2.57px;}.cls-19{stroke-width:1.33px;}.cls-20{stroke-width:1.45px;}.cls-21{stroke-width:1.5px;}.cls-22{stroke-width:1.46px;}.cls-23{stroke-width:2.43px;}.cls-24{stroke-width:1.44px;}.cls-25{stroke-width:1.49px;}.cls-26{stroke-width:1.31px;}.cls-27{stroke-width:1.37px;}.cls-28{stroke-width:1.26px;}.cls-29{stroke-width:1.36px;}.cls-30{stroke-width:1.3px;}.cls-31{stroke-width:1.29px;}.cls-32{stroke-width:1.31px;}.cls-33{stroke-width:1.47px;}.cls-34{stroke-width:1.53px;}.cls-35{stroke-width:1.52px;}.cls-36{stroke-width:1.39px;}.cls-37{stroke-width:1.49px;}.cls-38{stroke-width:1.82px;}.cls-39{stroke-width:1.57px;}.cls-40{stroke-width:1.37px;}.cls-41{stroke-width:1.37px;}.cls-42{stroke-width:1.3px;}.cls-43{stroke-width:1.75px;}.cls-44{stroke-width:1.26px;}.cls-45{stroke-width:1.29px;}.cls-46{stroke-width:1.29px;}.cls-47{stroke-width:1.35px;}.cls-48{stroke-width:1.43px;}.cls-49{stroke-width:1.55px;}.cls-50{stroke-width:1.43px;}.cls-51{stroke-width:2.14px;}.cls-52{stroke-width:1.41px;}.cls-53{stroke-width:1.66px;}.cls-54{stroke-width:1.35px;}.cls-55{stroke-width:1.28px;}.cls-56{stroke-width:1.34px;}.cls-57{stroke-width:1.32px;}.cls-58{stroke-width:1.35px;}.cls-59{stroke-width:1.3px;}</style></defs><title>healer-list-bg_1</title><g id="Layer_2" data-name="Layer 2"><g id="Layer_1-2" data-name="Layer 1"><path class="cls-1" d="M22.89,52c.68,0,1.64.21,1.72-.43L24,51l.21-.78c-1.31.31-1.56-.44-2.57-.43l-.5.64-.79-.21v.42l.65.75-.22,1h.43l.64-1.07Z"/><path class="cls-1" d="M10,102.56v-2.14a2.69,2.69,0,0,0-3,0C6.78,102.93,8.16,103.16,10,102.56Z"/><path class="cls-1" d="M8.75,95.7a1.81,1.81,0,0,0,1.71-3H8.75A3.5,3.5,0,0,0,8.75,95.7Z"/><path class="cls-1" d="M10.46,86.7c3,2.23,2.49-4.24-.43-1.72C10.07,85.66,9.83,86.62,10.46,86.7Z"/><path class="cls-1" d="M13.89,81.13c.84-.81.13-1.57,0-2.58-1.48-.34-1.81.48-2.57.86A2.22,2.22,0,0,0,13.89,81.13Z"/><path class="cls-1" d="M17.32,74.27c.34-1.91-.4-2.74-2.14-2.58.21,1.35-1.48,1.14-.43,2.15A3.69,3.69,0,0,0,17.32,74.27Z"/><path class="cls-1" d="M19,66.55h2.14c.25-1.83-.14-3-2.14-2.57Z"/><path class="cls-1" d="M22,61.4h2.14c-.32-1.32,1.18-.82.86-2.14-.38-.19-.77-.38-.86-.86C22.28,58.21,21.85,59.5,22,61.4Z"/><path class="cls-1" d="M25.9,56.26h1.71A3.65,3.65,0,0,0,28,53.69H25.47C25.16,55,25.91,55.25,25.9,56.26Z"/><path class="cls-1" d="M53.34,22c.34-.08.42-.43.85-.43a13.1,13.1,0,0,0,0,7.29c4.42-.29,2.51-5.62,3-8.58.16-1,1.32-.63,1.28-1.28l-.64-.5.21-.79c-3.47-.93-6-4.74-10.29-3.43-1,3.42,3.19,4.66,5.15,6.43l.21.65Z"/><path class="cls-1" d="M62.21,16.68l.56.56h1.28c-1.35.92-1.74,4.65-.85,6.43,3.6-.3,4.16-5.77,3.86-8.57l-.22-.64.22-.65c-1.79-2-4-5.68-7.72-4.29,0,3,2.23,3.78,3.43,5.58-.05.81-1.42.3-1.29,1.28Z"/><path class="cls-1" d="M74.13,12l-.64.5c-.4,2.18-2.27,4.17-1.29,6.43,1.23.74,3.48-.63,4.29-1.72,1.1-1.48.75-5.69,2.57-6.86l-.64-.5.21-.78h-.85c-1.47-2.69-3.25-5-7.29-5.15-1,4.43,4.53,5.43,3.43,7.29Z"/><path class="cls-1" d="M84.85,8l-.22.65c1.13,1.43-1.41,2.85-.85,5.14,1-.23.61.82,1.28.86C88,13.48,89.56,9.51,89.78,7l-.21-.64.21-.64h-.43c-1.79-2.4-4.2-6.32-7.72-5.58-1.1,3.06,2.59,4.78,3.43,7.29Z"/><path class="cls-1" d="M47.83,25.17l-.5-.64c-2.9-.66-5-2.17-9-1.71v2.57c1.6.83,3.78,1.08,4.72,2.57l.78-.21.5.64c.35-.08.43-.43.86-.43v6c4.06-.05,3.93-5.72,3.43-9Z"/><path class="cls-1" d="M40.12,31.61l-.5-.65c-2.88-.9-7.74-.78-8.58,1.72.53,1.82,4.13,1.65,5.15,1.71l.64.5-.21.79c1.17,1-.69,2.6.42,3.86,4.32.31,3.77-4.24,3.86-8.15Z"/><path class="cls-1" d="M33,38.46l-.64-.21c-3.27.88-5.64,2.66-5.58,6.86,3.5.62,6.22-2.81,6.86-6.43Z"/><path class="cls-2" d="M24,51a4.35,4.35,0,0,1,2.57-.57"/><path class="cls-3" d="M20.54,47.47c.76.82.19,2,.57,3"/><path class="cls-4" d="M.67,104.78c1.27-.85,1.88-2.4,3.15-3.29"/><path class="cls-5" d="M3.82,101.49c.42,1,1.28,1.61,1.71,2.57"/><path class="cls-6" d="M3.82,101.49v-.43"/><path class="cls-7" d="M3.82,101.06A28.38,28.38,0,0,0,6.7,98a16,16,0,0,0-2.46-4.26"/><path class="cls-6" d="M4.24,93.77A6.43,6.43,0,0,1,4.32,93"/><path class="cls-8" d="M4.32,93a10.09,10.09,0,0,0,4-3.59c.05-1.79-1.43-2.89-2.11-4.42"/><path class="cls-9" d="M6.17,85c.84-1,2.29-1.34,3.1-2.38C9.75,81,8.86,79.42,8.16,78"/><path class="cls-10" d="M8.16,78c.15-.29.3-.58.44-.88"/><path class="cls-11" d="M8.6,77.12a14.63,14.63,0,0,1,2.93-1.05c1.11-1.72.51-4.18-.17-6"/><path class="cls-12" d="M11.36,70.06l.17-.3"/><path class="cls-13" d="M11.53,69.76A37.45,37.45,0,0,0,16.17,68c.13-1.71-1-3.25-1.17-5"/><path class="cls-14" d="M15,63,15,63"/><path class="cls-15" d="M15,63c1.46-.62,3.18-.75,4.32-1.95.53-1.49-.52-2.85-.3-4.34"/><path class="cls-16" d="M19,56.69c1.26-.39,3-.07,3.78-1.35-.6-1.27-.48-2.71-1-4"/><path class="cls-17" d="M3.82,101.06c-.87-1.19-2.33-2-2.76-3.45a7.37,7.37,0,0,1,3.18-3.84"/><line class="cls-18" x1="6.17" y1="84.98" x2="6.17" y2="84.98"/><path class="cls-19" d="M4.32,93C.27,90,2.2,86.8,6.17,85"/><path class="cls-20" d="M6.17,85c-1-1.42-2.29-2.68-2.54-4.43C4.65,79,6.48,78.44,8.16,78"/><path class="cls-21" d="M8.6,77.12A6.86,6.86,0,0,1,7,71.26c1.52-.2,2.84-.9,4.37-1.2"/><path class="cls-22" d="M11.53,69.76C10.08,66.37,10.44,62.7,15,63"/><path class="cls-23" d="M18.93,56.58l.11.11"/><path class="cls-24" d="M15,63c-.48-1.6-1.41-3.34-1-5.06,1.15-1.63,3.33-.61,4.9-1.34"/><path class="cls-25" d="M18.93,56.58A7.77,7.77,0,0,1,18.57,52c.76-.28,1.6-.33,2.4-.54"/><path class="cls-26" d="M57.84,18.46c1.49-.5,2.88-1.32,4.37-1.78"/><path class="cls-27" d="M66.84,14.46C69.4,14,71.56,12,74.13,12"/><path class="cls-28" d="M78.42,9.88c2.23-.4,4.26-1.34,6.43-1.86"/><path class="cls-29" d="M89.57,6.31c1.8-.19,3.38-1,5.14-1.43"/><path class="cls-30" d="M53.12,21.32a17.11,17.11,0,0,0-5.29,3.85"/><path class="cls-31" d="M43.83,27.75c-1,1.38-2.88,2.22-3.71,3.86"/><path class="cls-32" d="M36.83,34.89A27.19,27.19,0,0,0,33,38.46"/><path class="cls-1" d="M215.83,125.34v2.14C211.85,129.6,211.92,123.31,215.83,125.34Z"/><path class="cls-1" d="M214.12,132.2c.13,1,.67,1.61.43,3H212.4C211.67,133.75,212,132,214.12,132.2Z"/><path class="cls-1" d="M210.69,140.77h2.14c.34,1.91-.4,2.74-2.14,2.57A3,3,0,0,1,210.69,140.77Z"/><path class="cls-1" d="M209.4,146.34c.88.55,2.18.69,2.15,2.15-.39.19-.77.38-.86.86A1.65,1.65,0,0,1,209.4,146.34Z"/><path class="cls-1" d="M205.54,153.63h2.58a3.72,3.72,0,0,1-.43,2.58H206A3.72,3.72,0,0,1,205.54,153.63Z"/><path class="cls-1" d="M202.11,161.78c3-2.23,2.49,4.24-.43,1.72C201.72,162.82,201.48,161.86,202.11,161.78Z"/><path class="cls-1" d="M198.68,166.5c1.48-.34,1.81.47,2.57.85-.52.9-1.18,1.68-1.71,2.58C198.24,169.79,197.8,167.5,198.68,166.5Z"/><path class="cls-1" d="M197.4,172.07v2.14a3.25,3.25,0,0,1-3-.85C195,172.11,195.78,171.14,197.4,172.07Z"/><path class="cls-1" d="M134.16,221.45l-.65-.5c1-3.2,2-6.3,4.72-7.72.85,0,.54,1.17,1.71.86.17,2.45-1.24,3.33-1.71,5.14l.21.65.22.64h-.43c1.25,2.24,4.92,4.13,3.43,7.72-3.33-1-5.95-2.63-6.86-6h-.86Z"/><path class="cls-1" d="M145.3,218l-.64-.5a3,3,0,0,1,1.29-.86c0-4.27,1.83-8.58,5.57-7.72a8.72,8.72,0,0,1-1.72,6.43l.22.65.21.64c-.46.11-.29.85-.85.86,2,1.07,4.32,3.86,3.43,6.43-3.36-.51-6-1.71-6.44-5.15h-1.28Z"/><path class="cls-1" d="M156.88,213.44l-.22-.64c-.24-4.39.27-8,3.86-8.57.41,2.42-.63,5.64,0,6.86l-.21.64.21.64c1.1,2.11,4.66,3.36,3.43,6.43-4.15.15-5.52-2.48-7.29-4.71Z"/><path class="cls-1" d="M166.31,209.44l-.64-.5c-.13-3.21,0-8.51,3-9.86,3.14.7.7,5.47,1.29,6.86l-.22.79.64.5c2.12,1.89,5.94,2.07,5.58,6.43-4.12,1.23-7-2-9.86-3.43Z"/><path class="cls-1" d="M175.46,202.73l-.79.21q-.57-6.57,2.57-9.43c2,.32,1.47,4.93.86,6.43,1.39.53.33-1.39,1.72-.86v.86h.85c1.14,1.94,6,1.75,4.29,5.14-4,.38-6-1.13-9-1.71Z"/><path class="cls-1" d="M183.38,196.64l-.56-.56c-.75-3.24,0-8.17,4.29-7.72.42,2-.56,2.59-.86,3.86.4-.24.65-1.19.86-.43l.21.65.22.64v.43c1.08.3,4.16-.24,5.14,1.28-.67,3.33-6.47,2.36-9,2.58Z"/><path class="cls-1" d="M190.89,189l-.78.21c.07-4.36,2.95-5.91,6.43-6.86v.86c1.08.18.12,2.59-.43,3.43-1,1.53-3.45,2.52-4.72,3Z"/><path class="cls-33" d="M201.49,176.67c0,1.47.89,2.73.84,4.19"/><path class="cls-34" d="M196.75,177.43c1.55-.15,3-.86,4.59-.82"/><path class="cls-35" d="M201.34,176.61c-1.28-2.47-1.37-5.71,2.27-5.4"/><path class="cls-36" d="M203.61,171.21c.13-1.56-.24-3.24.19-4.74,1.36-.57,2.71-1,4.08-1.57"/><path class="cls-37" d="M207.88,164.9a46.78,46.78,0,0,1-1.12-5,14.19,14.19,0,0,1,4.36-1.59"/><path class="cls-38" d="M211.12,158.35l.64-.64"/><path class="cls-39" d="M211.76,157.71c-.37-1.8-2-4.29-.31-5.85,1.14-.11,2.05-.85,3.13-1.2"/><path class="cls-14" d="M214.58,150.66c.08-.19.16-.39.23-.59"/><path class="cls-40" d="M214.81,150.07c-.93-1.28-.81-2.89-1.13-4.36.38-1.47,2.15-1.76,3.23-2.58"/><path class="cls-6" d="M216.91,143.13v-.43"/><path class="cls-41" d="M216.91,142.7c-1-1.26-2.33-2.53-2.36-4.24.86-1.63,2.53-2.56,4.07-3.48"/><path class="cls-6" d="M218.62,135v-.85"/><path class="cls-42" d="M218.62,134.13c-.78-1.38-2-2.64-2.21-4.28.85-1.06,1.37-2.5,2.81-2.84"/><path class="cls-43" d="M219.22,127c0-.27.05-.55.09-.77"/><path class="cls-44" d="M219.31,126.24a6.86,6.86,0,0,1-2-2.4"/><path class="cls-45" d="M219.31,126.24c1.28-.68,1.75-2.24,2.74-3.26"/><path class="cls-46" d="M218.62,134.13c1.74-.42,2.27-2.29,3.25-3.62-.25-.52-.36-1.1-.56-1.62-1.18-.09-1.09-1.49-2.09-1.88"/><path class="cls-47" d="M216.91,142.7c1.48-1.15,3.33-2,4.45-3.54-.53-1.64-1.86-2.74-2.74-4.18"/><path class="cls-48" d="M214.81,150.07c1.54-.88,3.63-1.14,4.49-2.84a12.75,12.75,0,0,0-2.39-4.1"/><path class="cls-49" d="M211.76,157.71c1.48-.2,2.74-.9,4.19-1.08.48-1.9-.62-4.19-1.37-6"/><path class="cls-14" d="M207.88,164.9l.37.15"/><path class="cls-50" d="M208.25,165.05c1.37-.63,3.07-.67,4.18-1.86.15-1.65-1-3.22-1.31-4.84"/><path class="cls-51" d="M203.61,171.21l.36.27"/><path class="cls-52" d="M204,171.48c1.48-1.14,4,.4,5-1.57-.41-1.6.14-3.37-.72-4.86"/><path class="cls-14" d="M201.34,176.61l.15.06"/><path class="cls-53" d="M201.49,176.67c1-.52,2.14-.32,3.09-.8.25-1.47-.41-2.94-.61-4.39"/><path class="cls-54" d="M130.16,222.66c1.32-.44,2.64-.89,4-1.21"/><path class="cls-55" d="M138.44,219.88c2.36-.46,4.47-1.46,6.86-1.86"/><path class="cls-45" d="M160.31,211.73c2-.79,3.84-1.89,6-2.29"/><path class="cls-56" d="M169.74,206.73a11,11,0,0,0,5.72-4"/><path class="cls-57" d="M179.82,199.94c1.07-1.26,2.57-2,3.56-3.3"/><path class="cls-58" d="M187.32,192.44a10,10,0,0,0,3.57-3.43"/><path class="cls-59" d="M156.88,213.44c-2.43.49-4.49,2-6.86,2.58"/></g></g></svg>