<svg xmlns="http://www.w3.org/2000/svg" viewBox="0 0 66.36 66.36"><defs><style>.cls-1{fill:#fff;}</style></defs><title>Asset 3</title><g id="Layer_2" data-name="Layer 2"><g id="Layer_1-2" data-name="Layer 1"><path class="cls-1" d="M53.53,0H12.82A12.83,12.83,0,0,0,0,12.82V53.53A12.84,12.84,0,0,0,12.82,66.36H53.53A12.85,12.85,0,0,0,66.36,53.53V12.82A12.84,12.84,0,0,0,53.53,0Zm3.68,7.65h1.46V18.89l-11.2,0,0-11.24ZM23.71,26.37a11.64,11.64,0,0,1,18.94,0c.25.36.48.73.7,1.11a11.68,11.68,0,1,1-20.34,0A9.86,9.86,0,0,1,23.71,26.37ZM59.89,53.53a6.36,6.36,0,0,1-6.36,6.36H12.82a6.36,6.36,0,0,1-6.36-6.36V26.37h9.91a17.16,17.16,0,0,0-.64,1.87,17.87,17.87,0,0,0-.7,4.94,18.15,18.15,0,0,0,36.29,0,17.87,17.87,0,0,0-.7-4.94A17.16,17.16,0,0,0,50,26.37h9.91V53.53Z"/></g></g></svg>