<svg xmlns="http://www.w3.org/2000/svg" viewBox="0 0 156.56 16.8"><defs><style>.cls-1{fill:#1d1d1b;}.cls-2{fill:#070708;}.cls-3{fill:#fab720;}</style></defs><title>list-divider</title><g id="Layer_2" data-name="Layer 2"><g id="Isolation_Mode" data-name="Isolation Mode"><path class="cls-1" d="M9.2,11.89c46.21-2.1,92.47-1.29,138.7-2.22.85,0,3.14-1.32,1.22-1.28-46.23.93-92.49.12-138.7,2.21-.84,0-3.14,1.37-1.22,1.29Z"/><path class="cls-2" d="M29.94,9.66c.69.32,3.16,1.88,3.71,1.3.65-.81-.24-2.2-1-2.68C30.08,7,27.7,11.82,30.61,13c3.44,1.6,4.84-4.4,2-5.28-2.85-1-5.07,4.31-2,5.28"/><path class="cls-2" d="M77,9.75c.69.32,3.16,1.87,3.71,1.3.65-.82-.24-2.2-1-2.69-2.59-1.33-5,3.55-2,4.75,3.43,1.59,4.83-4.41,2-5.28-2.85-1-5.07,4.3-2,5.28"/><path class="cls-2" d="M128.29,7.39c.69.32,3.16,1.88,3.71,1.3.65-.81-.24-2.2-1-2.68-2.59-1.33-5,3.54-2.06,4.75,3.44,1.59,4.84-4.41,2-5.29-2.86-1-5.07,4.31-2,5.29"/><path class="cls-2" d="M66.64,13.83c-2.56-1.82-5.51-3.05-7.9-5.1L58,9.83c3.57-.93,5.53-4.43,9-5.34.54-.15,1.24-1.41.38-1.19-3.57.93-5.53,4.43-9,5.35-.28.06-1.19.72-.76,1.1C60,11.81,62.94,13,65.5,14.84c.53.37,1.6-.69,1.14-1Z"/><path class="cls-2" d="M50.56,15.37c-1.62-2.22-4-3.53-6.1-5.19C43,9.06,50,2.23,50.49,1.9c.29-.2,1.13-1.33.34-.78-3.45,2.38-5.39,5.94-7.93,9.17,0,.06-.25.31-.16.39,2.25,1.94,4.9,3.27,6.68,5.71.16.21,1.34-.74,1.14-1Z"/><path class="cls-2" d="M92.41,12.86c2.56-1.82,5.51-3,7.9-5.1l.75,1.1c-3.57-.93-5.53-4.43-9-5.34-.54-.15-1.24-1.41-.39-1.19,3.58.93,5.54,4.43,9.05,5.35.28.06,1.19.72.76,1.1-2.4,2.06-5.33,3.28-7.9,5.09-.52.37-1.59-.69-1.13-1Z"/><path class="cls-2" d="M108.49,14.4c1.62-2.22,4-3.53,6.1-5.19,1.43-1.12-5.56-8-6-8.28-.28-.2-1.13-1.33-.33-.78,3.45,2.38,5.39,5.94,7.93,9.17,0,0,.25.31.16.39-2.25,1.94-4.9,3.27-6.68,5.71-.16.21-1.34-.74-1.14-1Z"/><path class="cls-3" d="M156,6.47a4.32,4.32,0,0,0-1.71-2.21c-1.9-1.23-4.68-.9-5.65,1.15a1.13,1.13,0,0,0-.59.64,4.77,4.77,0,0,0-.41.65,5.18,5.18,0,0,0-.82,2,4.55,4.55,0,0,0,.18,2,4,4,0,0,0,.05.5.31.31,0,0,0,.3.28l0,0a5.62,5.62,0,0,0,.15.8.36.36,0,0,0,.25.23,1.3,1.3,0,0,0,.57,0,2.81,2.81,0,0,0,.65.32h0l-.09.46a.38.38,0,0,0,.19.42,3.88,3.88,0,0,0,3.7-.58l.05-.05a1.17,1.17,0,0,0,.24-.09l.1,0a.93.93,0,0,0,1.11-.34,1.38,1.38,0,0,0,.32.42.42.42,0,0,0,.63-.09,13.07,13.07,0,0,0,1.3-6.23.41.41,0,0,0-.59-.33m-6.83-.16a.75.75,0,0,1,.21,0c-.26,1.16-.23,2.37-.39,3.54,0,.12-.07.24-.11.36a1.7,1.7,0,0,1-.19-.35,12.41,12.41,0,0,0,.48-3.57M151,10.66c.06-.28.11-.58.15-.88s.08-.53.11-.8a1.27,1.27,0,0,0,.12-.1h.06c-.06.49-.1,1-.15,1.48a8,8,0,0,0-.06,1.3h-.14c0-.33-.07-.67-.09-1m1.82-2.41v0a21.75,21.75,0,0,0-.11,2.28,3.84,3.84,0,0,1-.44.64,21.2,21.2,0,0,0,.54-2.88m-1.25-.51-.15.13c0-.26.06-.53.07-.8l.17.06-.09.61m-3.33,3a2.18,2.18,0,0,0,.32.43c-.15.33-.32.47-.53-.12a.43.43,0,0,1,0,0,1.88,1.88,0,0,0,.22-.26m6.34-3.58v0c0,.32-.07.64-.1,1a5.83,5.83,0,0,0-.66,1.23s0,0,0-.07V9.27a3.2,3.2,0,0,1,.75-2.06m-3.9-1.76a5.93,5.93,0,0,0-.16.73,4.53,4.53,0,0,0-.12-.81,2.37,2.37,0,0,1,.36-.09.45.45,0,0,0-.08.17m4.14.43,0,0a.27.27,0,0,0-.1.18,1.52,1.52,0,0,1,0,.21.43.43,0,0,0-.39.09,5.18,5.18,0,0,0-.41.4c0-.59,0-1.17,0-1.77a3.24,3.24,0,0,1,.87.86m-1.43-1.19a.39.39,0,0,0-.24.34s0,.08,0,.12a2.46,2.46,0,0,0-.19-.58s0-.05,0-.07a4.14,4.14,0,0,1,.49.19m-3.19,0a3.17,3.17,0,0,1,2.34-.31.46.46,0,0,0-.35.28c-.14.47-.25.94-.35,1.41l-.31,0h0a5.67,5.67,0,0,0-.05-.58.38.38,0,0,0-.22-.3h0a.19.19,0,1,0,0-.38,3.66,3.66,0,0,0-1.64.45,2.34,2.34,0,0,1,.6-.58m-.4,8.43,0-.15a3.09,3.09,0,0,0,1.05-.13,1.13,1.13,0,0,0,.43.11h0l.15.06a2.32,2.32,0,0,1-1.67.11m5.11-1.54a1.18,1.18,0,0,0,.19-.11c-.05.15-.11.29-.16.43a3.16,3.16,0,0,1,0-.32"/><path class="cls-2" d="M148.94,6.83c-.38,2.24-.3,4.38,1.61,5.87.09.07.25.17.34.05,1.26-1.52,2.15-3.56,1.14-5.44-.67-1.23-2.15-1.67-3.09-.51-1.26,1.53-1.07,4.35-.13,6,1.27,2.2,3.72,2.61,5.34.45,1.29-1.72.41-4.32-.88-5.75-1.63-1.79-3.92-2.5-6.1-1.23A3,3,0,0,0,146,10.67a5.85,5.85,0,0,0,5.45,2.61,4.69,4.69,0,0,0,.64-.09c.42-.07.14-1.14-.31-1.06a5.62,5.62,0,0,1-4.49-1.1c-1.41-1.12-1.45-2.63.05-3.65a4,4,0,0,1,4.62,0c1.65,1,2.69,3.22,1.59,5-1.38,2.26-3.93,1.1-4.62-.93-.42-1.22-.24-3.74,1.21-4.25s1.72,1.53,1.5,2.42c-.14.56-.83,2.29-1.46,1.7-1-1-.81-2.61-.6-3.87.06-.4-.56-1.26-.66-.63Z"/><path class="cls-3" d="M9.22,8.62A4.29,4.29,0,0,0,7.5,6.41c-1.9-1.23-4.67-.9-5.64,1.15a1.16,1.16,0,0,0-.59.64,4.53,4.53,0,0,0-.41.66,5.08,5.08,0,0,0-.82,2,4.7,4.7,0,0,0,.17,2c0,.17,0,.34.06.5a.3.3,0,0,0,.3.28l0,0a7.45,7.45,0,0,0,.14.8A.36.36,0,0,0,1,14.7a1.33,1.33,0,0,0,.57,0,3.25,3.25,0,0,0,.65.31h0c0,.15,0,.31-.08.46a.38.38,0,0,0,.19.42,3.85,3.85,0,0,0,3.7-.58l.05,0,.24-.09.1,0a.91.91,0,0,0,1.1-.35,1.31,1.31,0,0,0,.33.42.42.42,0,0,0,.63-.09A13.18,13.18,0,0,0,9.81,9a.41.41,0,0,0-.59-.33M2.39,8.46l.21,0c-.26,1.16-.23,2.37-.39,3.54a3.07,3.07,0,0,1-.11.36A1.63,1.63,0,0,1,1.91,12a12.89,12.89,0,0,0,.48-3.58m1.82,4.36c.06-.29.1-.58.15-.89s.08-.53.11-.79L4.59,11l0,0c0,.48-.09,1-.14,1.47a9.44,9.44,0,0,0-.07,1.3H4.3q-.06-.49-.09-1M6,10.4v0a21.56,21.56,0,0,0-.11,2.27,3.47,3.47,0,0,1-.44.64A22.86,22.86,0,0,0,6,10.4M4.78,9.9,4.63,10c0-.26,0-.53.07-.8l.17.06c0,.21-.07.41-.09.62M1.45,13a2.07,2.07,0,0,0,.31.42c-.14.33-.32.47-.52-.12a.07.07,0,0,1,0-.05c.08-.08.14-.16.22-.25M7.78,9.37h0c0,.32-.07.65-.11,1A5.24,5.24,0,0,0,7,11.59s0-.05,0-.08v-.09a3.22,3.22,0,0,1,.74-2.05M3.88,7.6c-.06.24-.11.49-.15.74a4.51,4.51,0,0,0-.12-.82L4,7.43a.46.46,0,0,0-.09.17M8,8v0A.38.38,0,0,0,8,8.24l0,.21a.44.44,0,0,0-.39.1,3.78,3.78,0,0,0-.41.39c0-.59,0-1.17,0-1.77A3.56,3.56,0,0,1,8,8M6.6,6.85a.36.36,0,0,0-.24.33s0,.08,0,.12a2.25,2.25,0,0,0-.19-.57.17.17,0,0,0-.06-.08,2.75,2.75,0,0,1,.5.2m-3.19,0a3.11,3.11,0,0,1,2.33-.32.48.48,0,0,0-.34.29c-.14.46-.25.94-.35,1.4l-.31,0h0a3.86,3.86,0,0,0,0-.58.41.41,0,0,0-.22-.3h0a.19.19,0,1,0,0-.38,3.6,3.6,0,0,0-1.65.44,2.33,2.33,0,0,1,.61-.57M3,15.3a1,1,0,0,0,0-.16A3.12,3.12,0,0,0,4.09,15a.83.83,0,0,0,.43.11h0l.15.06A2.32,2.32,0,0,1,3,15.3m5.11-1.55a1.18,1.18,0,0,0,.19-.11c-.05.15-.11.29-.17.44,0-.11,0-.22,0-.33"/><path class="cls-2" d="M5.19,9c-.38,2.23-.3,4.37,1.61,5.86.08.07.25.17.34.05,1.26-1.51,2.15-3.55,1.13-5.44A1.81,1.81,0,0,0,5.18,9c-1.25,1.53-1.06,4.34-.13,6,1.28,2.2,3.73,2.61,5.35.45,1.29-1.72.41-4.32-.88-5.75C7.88,7.84,5.6,7.12,3.42,8.39a3,3,0,0,0-1.15,4.43,5.84,5.84,0,0,0,5.45,2.61,4.86,4.86,0,0,0,.64-.08c.42-.08.14-1.14-.31-1.07a5.62,5.62,0,0,1-4.49-1.1c-1.42-1.11-1.45-2.63,0-3.65a4.06,4.06,0,0,1,4.63,0c1.65,1.05,2.68,3.22,1.59,5-1.38,2.26-3.93,1.1-4.62-.93C4.78,12.39,5,9.87,6.4,9.36s1.72,1.53,1.5,2.42c-.13.56-.82,2.29-1.45,1.7-1.06-1-.81-2.61-.6-3.87.06-.4-.56-1.25-.66-.62Z"/></g></g></svg>