<svg xmlns="http://www.w3.org/2000/svg" viewBox="0 0 258.57 95.02"><defs><style>.cls-1,.cls-2{fill:#4f0475;}.cls-2{stroke:#4f0475;stroke-miterlimit:10;}</style></defs><title>thriive_logo</title><g id="Layer_2" data-name="Layer 2"><g id="Isolation_Mode" data-name="Isolation Mode"><path class="cls-1" d="M24.14,39.94c-.34.76-1.27,1.61-3.23,1.61H16.15A1.56,1.56,0,0,0,14.62,43V95H10.28c-1.44,0-1.7-.85-1.7-1.27V41.55H0V37.39a1.89,1.89,0,0,1,1.87-1.87H26.18Z"/><path class="cls-1" d="M60.18,35.52a2.28,2.28,0,0,1,2.46,2.38V95H56.52V69.09a1.47,1.47,0,0,0-1.44-1.36H48.45V95H42.33V37.9a2.28,2.28,0,0,1,2.46-2.38h3.66v24c0,1.7.68,2.13,2.12,2.13h6V35.52Z"/><path class="cls-1" d="M98,95V73.26c0-2.89-1.53-3.83-3.14-3.83H91.63V95H85.51V35.52H96.64A7.49,7.49,0,0,1,104.12,43V61.36s.26,4.67-2.21,5.27c2.38,1.19,2.21,5.61,2.21,5.61V95ZM94.86,63.65c1.61,0,3.14-.68,3.14-3.4v-16a2.87,2.87,0,0,0-3.14-3.06H91.63V63.65Z"/><path class="cls-1" d="M133.79,35.52a2.33,2.33,0,0,1,2.46,2.38V95h-4.33c-1.45,0-1.71-.85-1.79-1.27V35.52Z"/><path class="cls-1" d="M167.79,35.52a2.33,2.33,0,0,1,2.46,2.38V95h-4.33c-1.45,0-1.71-.85-1.79-1.27V35.52Z"/><path class="cls-1" d="M207.82,95h-3.06c-3.06,0-3.57-3.65-3.65-4.16l-8.5-55.34h4.67c.43,0,1.45.34,1.78,2.29l5.7,37.32,6-39.61h6.12Z"/><path class="cls-1" d="M258.57,89c-.68,1.53-1.7,3.91-2,4.42A3.46,3.46,0,0,1,253.3,95H239.7V37.22a1.85,1.85,0,0,1,1.86-1.7h15.9l-2,4.42a3.25,3.25,0,0,1-3.23,1.7h-4.93a1.38,1.38,0,0,0-1.44,1.44V60.76H255c-.68,1.53-1.7,4-2,4.51a3.31,3.31,0,0,1-3.23,1.61h-2.55a1.49,1.49,0,0,0-1.44,1.45V89Z"/><path class="cls-2" d="M116.42,8.43V21.55h-1.15V19.26A7.27,7.27,0,0,1,114,20.64,5.43,5.43,0,0,1,110.39,22a4.86,4.86,0,0,1-4-2.06,7.2,7.2,0,0,1-1.44-4.46,7.88,7.88,0,0,1,.11-1.36,7.46,7.46,0,0,1,2.45-4.58,5.81,5.81,0,0,1,4.47-1.46C113.13,8.12,114.63,8.23,116.42,8.43Zm-1.15,6.89V9.43c-2-.15-3.17-.22-3.59-.22a4.72,4.72,0,0,0-3.6,1.28,5.58,5.58,0,0,0-1.49,2.31,7.73,7.73,0,0,0-.5,2.75,5.85,5.85,0,0,0,.73,3,4,4,0,0,0,3.48,2.32,4.74,4.74,0,0,0,3.16-1.29A5.41,5.41,0,0,0,115.27,15.32Z"/><path class="cls-2" d="M124.76,8.29V9.46a5.08,5.08,0,0,0-1.67,1,6.33,6.33,0,0,0-1.93,3.87,9.65,9.65,0,0,0-.14,1v6.23h-1.14V8.29H121v3a7.35,7.35,0,0,1,1.42-1.74A5.92,5.92,0,0,1,124.76,8.29Z"/><path class="cls-2" d="M132.94,20.73v1c-.9,0-1.49,0-1.75,0a2.93,2.93,0,0,1-1.58-.55,3.57,3.57,0,0,1-1-2.32c0-.42-.08-1.61-.11-3.57s0-3.85,0-5.77h-1.93V8.31h1.93V6.09h1.14V8.31h3V9.46h-3q0,2.83,0,5.7c0,1.77,0,2.8.07,3.09a3.26,3.26,0,0,0,.8,2.09A4.27,4.27,0,0,0,132.94,20.73Z"/><path class="cls-2" d="M157.7,21.53h-1.42l-2-2.15-.27.25a11.86,11.86,0,0,1-2.2,1.6,7,7,0,0,1-3.19.69,5.43,5.43,0,0,1-4.47-1.86A4.85,4.85,0,0,1,143,16.9a4.33,4.33,0,0,1,.94-2.8,8.4,8.4,0,0,1,3-2.17l.42-.21L147,11.4a15.79,15.79,0,0,1-1.92-2.33,4.14,4.14,0,0,1-.57-2.15,3.87,3.87,0,0,1,1.19-2.71,4.49,4.49,0,0,1,3.41-1.4,4.32,4.32,0,0,1,3.21,1.24,3.8,3.8,0,0,1,1.08,2.73A4.39,4.39,0,0,1,152.15,10a12.08,12.08,0,0,1-2.79,1.83l-.37.21,5.13,5.58.26-.36a8.13,8.13,0,0,0,.89-1.56,14.41,14.41,0,0,0,.78-3.57h1.14a11.93,11.93,0,0,1-2.2,6.14l-.16.23Zm-4.19-2.91-5.46-6-.22.1A8.67,8.67,0,0,0,145,14.54a3.43,3.43,0,0,0-.89,2.41,4.08,4.08,0,0,0,.59,2.08,4.3,4.3,0,0,0,4,2,5.62,5.62,0,0,0,3-.85,8.07,8.07,0,0,0,1.54-1.3Zm-7-9.53c.25.34.76.93,1.54,1.79l.32.34.23-.09a10.55,10.55,0,0,0,2.84-1.74,3.39,3.39,0,0,0,1-2.5,3.11,3.11,0,0,0-.73-2.15,3.23,3.23,0,0,0-2.55-1,3.52,3.52,0,0,0-2.48.9,3,3,0,0,0-1,2.33A3.76,3.76,0,0,0,146.47,9.09Z"/><path class="cls-2" d="M174.26,16.28a3.09,3.09,0,0,1,.8,2,5.18,5.18,0,0,1-.09.91,3.22,3.22,0,0,1-1.33,2.11,3.82,3.82,0,0,1-2.36.71,4.4,4.4,0,0,1-1-.11,5.34,5.34,0,0,1-2.33-1l0-1.26a4.89,4.89,0,0,0,3.32,1.35,2.35,2.35,0,0,0,2.48-2.2,2.38,2.38,0,0,0,0-.46,3.12,3.12,0,0,0-1.53-2.34l-2.86-1.92a3.55,3.55,0,0,1-1.54-2.75,3.51,3.51,0,0,1,.07-.69,2.94,2.94,0,0,1,3.25-2.56,4.82,4.82,0,0,1,3.64,1.37l-.11,1.08a4.66,4.66,0,0,0-1.26-1,4.11,4.11,0,0,0-1.28-.37,5.5,5.5,0,0,0-.76-.07A2.09,2.09,0,0,0,169.15,11a2.79,2.79,0,0,0-.07.51c0,.76.76,1.6,2.27,2.52A12.94,12.94,0,0,1,174.26,16.28Z"/><path class="cls-2" d="M187.43,10.08A7,7,0,0,1,189.26,15,7.46,7.46,0,0,1,187.65,20a6.3,6.3,0,0,1-8.9,0A7.27,7.27,0,0,1,177.08,15a7,7,0,0,1,1.84-4.88,5.46,5.46,0,0,1,8.51,0Zm-.69,9.08a6.14,6.14,0,0,0,1.38-4.2,6,6,0,0,0-1.49-4.07,4.31,4.31,0,0,0-6.87,0A6,6,0,0,0,178.27,15a6.2,6.2,0,0,0,1.35,4.22,4.84,4.84,0,0,0,7.12,0Z"/><path class="cls-2" d="M202.3,8.33V21.55h-1.12V20.06A5.34,5.34,0,0,1,197.1,22a6.33,6.33,0,0,1-.76,0,4.48,4.48,0,0,1-3.59-2.15,9.3,9.3,0,0,1-.8-4.28V8.33h1.19v7.2a8.82,8.82,0,0,0,.66,3.5A3.2,3.2,0,0,0,197,20.84a4.55,4.55,0,0,0,3-1.28,4.14,4.14,0,0,0,1.15-1.69V8.33Z"/><path class="cls-2" d="M206.65.5h1.15V21.6h-1.15Z"/></g></g></svg>