<svg xmlns="http://www.w3.org/2000/svg" xmlns:xlink="http://www.w3.org/1999/xlink" viewBox="0 0 82.39 81.14"><defs><style>.cls-1{fill:url(#linear-gradient);}.cls-2{fill:none;}.cls-3{fill:#f8b420;}.cls-4{clip-path:url(#clip-path);}.cls-5{mask:url(#mask);}.cls-6{fill:#d19918;}.cls-7{fill:#fff;}</style><linearGradient id="linear-gradient" x1="-1333.52" y1="277.64" x2="-1333.11" y2="277.64" gradientTransform="matrix(0, 70.62, 70.62, 0, -19564.95, 94199.56)" gradientUnits="userSpaceOnUse"><stop offset="0" stop-color="#fff"/><stop offset="0.2" stop-color="#b3b3b3"/><stop offset="0.38" stop-color="#747474"/><stop offset="0.55" stop-color="#424242"/><stop offset="0.7" stop-color="#1e1e1e"/><stop offset="0.82" stop-color="#080808"/><stop offset="0.9"/><stop offset="1"/></linearGradient><clipPath id="clip-path"><path class="cls-2" d="M27.94,38.46,23.59,50.11l12.79,12.8A30.1,30.1,0,0,0,59.54,28l-9.83-9.76Z"/></clipPath><mask id="mask" x="1.25" y="0" width="81.14" height="81.14" maskUnits="userSpaceOnUse"><rect class="cls-1" x="13.13" y="11.88" width="57.38" height="57.38" transform="translate(-16.44 41.45) rotate(-45)"/></mask></defs><title>tickmark_abt</title><g id="Layer_2" data-name="Layer 2"><g id="Isolation_Mode" data-name="Isolation Mode"><path class="cls-3" d="M60.09,33.5a30,30,0,1,0-30,30.05,30,30,0,0,0,30-30"/><g class="cls-4"><g class="cls-5"><rect class="cls-6" x="13.13" y="11.88" width="57.38" height="57.38" transform="translate(-16.44 41.45) rotate(-45)"/></g></g><path class="cls-7" d="M23.65,50.12,10.26,36.73a4.29,4.29,0,0,1,6.07-6.07L23.68,38l20-19.8a4.29,4.29,0,0,1,6,6.1Z"/></g></g></svg>