<svg xmlns="http://www.w3.org/2000/svg" viewBox="0 0 66.36 53.09"><defs><style>.cls-1{fill:#fff;}</style></defs><title>twitter_new</title><g id="Layer_2" data-name="Layer 2"><g id="Layer_1-2" data-name="Layer 1"><path id="_Path_" data-name="&lt;Path&gt;" class="cls-1" d="M66.36,6.29a27.54,27.54,0,0,1-7.82,2.1,13.42,13.42,0,0,0,6-7.41,27.42,27.42,0,0,1-8.65,3.25A13.7,13.7,0,0,0,46,0,13.5,13.5,0,0,0,32.34,13.4a14.07,14.07,0,0,0,.34,3.06,38.84,38.84,0,0,1-28-14A13.2,13.2,0,0,0,2.78,9.19,13.34,13.34,0,0,0,8.84,20.34a13.81,13.81,0,0,1-6.17-1.67v.17a13.25,13.25,0,0,0,.93,4.85,13.6,13.6,0,0,0,10,8.29,14.07,14.07,0,0,1-3.59.47,13.62,13.62,0,0,1-2.56-.24,13.6,13.6,0,0,0,12.72,9.3A27.56,27.56,0,0,1,3.25,47.25,29.09,29.09,0,0,1,0,47.07a39,39,0,0,0,20.87,6c21.28,0,34.36-14.75,37.81-30A36.93,36.93,0,0,0,59.61,15c0-.58,0-1.16,0-1.74A27.43,27.43,0,0,0,66.36,6.29Z"/></g></g></svg>