<svg id="Layer_1" data-name="Layer 1" xmlns="http://www.w3.org/2000/svg" width="200" height="200" viewBox="0 0 200 200">
  <defs>
    <style>
      .cls-1 {
        fill: #fd3f0a;
      }

      .cls-2 {
        fill: #fff;
      }
    </style>
  </defs>
  <g>
    <circle class="cls-1" cx="100" cy="100" r="97.5"/>
    <path class="cls-2" d="M98.7,73.7c-34.5.2-50.2,7.5-56.3,9.8-4.2,1.6-17.7,10-19.5,19.2-3.2,15.6,12.2,28.2,15.2,27.7s25.2-10,29.8-14.9S67.2,103,70,101s29.1-2,29.1-2,26.3-.3,29.1,1.6-2.5,9.7,2.3,14.5,27,14,30,14.4,18.2-12.4,14.8-27.9c-2-9.2-15.6-17.4-19.8-18.9-6.2-2.2-20.2-8-56.4-9Z"/>
  </g>
</svg>
