<svg id="Layer_1" data-name="Layer 1" xmlns="http://www.w3.org/2000/svg" width="200" height="200" viewBox="0 0 200 200">
  <defs>
    <style>
      .cls-1 {
        fill: #27265f;
      }
    </style>
  </defs>
  <g>
    <path class="cls-1" d="M100,198a98,98,0,1,1,98-98A98.2,98.2,0,0,1,100,198Zm0-185.7A87.7,87.7,0,1,0,187.7,100,87.9,87.9,0,0,0,100,12.3Z"/>
    <path class="cls-1" d="M155.4,73.2a10.6,10.6,0,0,0-12.1-.8l-10.8,5.9a5.2,5.2,0,0,0,5.1,9.1l11.3-6.1,1.3,1.2v35a1.3,1.3,0,0,1-.7,1.2l-1.3-.2-22.3-11.7v-6.4a5.2,5.2,0,0,0-5.2-5.2,5.2,5.2,0,0,0-5.2,5.2v25.1a3.5,3.5,0,0,1-3.1,3.2H89.5l46.9-81.1a5.2,5.2,0,0,0-9-5.2L116.1,61.9a12.6,12.6,0,0,0-3.7-.5H53A13.5,13.5,0,0,0,39.4,74.9v50.6A13.9,13.9,0,0,0,53,139h6.8a5.2,5.2,0,0,0,0-10.3H53a3.6,3.6,0,0,1-3.2-3.2V74.9A3.3,3.3,0,0,1,53,71.7h57.5l-34.1,59a7.5,7.5,0,0,0-.7,1.2L63.6,152.8a5.3,5.3,0,0,0,1.9,7.1,6.5,6.5,0,0,0,2.6.6,5.2,5.2,0,0,0,4.5-2.5l11-19h28.8a13.8,13.8,0,0,0,13.5-13.5v-7l17.3,9.1a11.3,11.3,0,0,0,11.6,0,11.8,11.8,0,0,0,5.8-10.1v-35A10.9,10.9,0,0,0,155.4,73.2Z"/>
  </g>
</svg>
