<svg id="Layer_1" data-name="Layer 1" xmlns="http://www.w3.org/2000/svg" width="200" height="200" viewBox="0 0 200 200">
  <defs>
    <style>
      .cls-1 {
        fill: #27265f;
      }

      .cls-2 {
        fill: #fff;
      }
    </style>
  </defs>
  <g>
    <path class="cls-1" d="M100,198c-54,0-98-43.9-98-97.8S46,2,100,2s98,44.1,98,98.2S154,198,100,198Zm0-185.6a87.9,87.9,0,0,0-87.7,87.8c0,48.2,39.4,87.4,87.7,87.4s87.7-39.2,87.7-87.4A87.9,87.9,0,0,0,100,12.4Z"/>
    <path class="cls-1" d="M100,12.4a87.9,87.9,0,0,0-87.7,87.8c0,48.2,39.4,87.4,87.7,87.4s87.7-39.2,87.7-87.4A87.9,87.9,0,0,0,100,12.4Z"/>
    <path class="cls-2" d="M154.8,72.6a12.8,12.8,0,0,0-11.5-.5l-10.8,6a5.2,5.2,0,0,0,5.1,9.1l10.1-5.7a2.3,2.3,0,0,1,1.8,0,1.3,1.3,0,0,1,.7,1.1v35.2l-1.9,1-22.4-12.1v-32a13.9,13.9,0,0,0-13.5-13.6H53A13.9,13.9,0,0,0,39.4,74.7v50.7A13.6,13.6,0,0,0,53,138.9h59.4a13.6,13.6,0,0,0,13.5-13.5v-6.9l17.3,9.3a9.9,9.9,0,0,0,5.3,1.5,12.5,12.5,0,0,0,6.3-1.9,11.3,11.3,0,0,0,5.8-9.6V82.6A11.6,11.6,0,0,0,154.8,72.6Zm-42.4,55.9H53a3.2,3.2,0,0,1-3.2-3.1V74.7A3.5,3.5,0,0,1,53,71.5h59.4a3.4,3.4,0,0,1,3.1,3.2v50.7A3.1,3.1,0,0,1,112.4,128.5Z"/>
  </g>
</svg>
