<svg id="Layer_1" data-name="Layer 1" xmlns="http://www.w3.org/2000/svg" xmlns:xlink="http://www.w3.org/1999/xlink" width="50" height="50" viewBox="0 0 50 50">
  <defs>
    <style>
      .cls-1 {
        fill: #6e2780;
      }

      .cls-2 {
        fill: #282560;
      }

      .cls-3 {
        clip-path: url(#clip-path);
      }

      .cls-4 {
        clip-path: url(#clip-path-2);
      }

      .cls-5 {
        fill: #fff;
      }
    </style>
    <clipPath id="clip-path">
      <circle class="cls-1" cx="-72.1" cy="25" r="24.8"/>
    </clipPath>
    <clipPath id="clip-path-2">
      <circle class="cls-2" cx="25" cy="25" r="24.8"/>
    </clipPath>
  </defs>
  <g>
    <circle class="cls-1" cx="-72.1" cy="25" r="24.8"/>
    <g class="cls-3">
      <rect class="cls-1" x="-150.1" y="-33.3" width="163.2" height="108.8"/>
    </g>
  </g>
  <g>
    <g>
      <circle class="cls-2" cx="25" cy="25" r="24.8"/>
      <g class="cls-4">
        <rect class="cls-2" x="-53" y="-33.3" width="163.2" height="108.8"/>
      </g>
    </g>
    <g>
      <path class="cls-5" d="M6.9,23.2a5.7,5.7,0,0,0,2.2-.7,5.9,5.9,0,0,0,1.8-1.4A11.3,11.3,0,0,1,13,19.6a11,11,0,0,1,2.6-.6,6,6,0,0,1,2.6.5,6.9,6.9,0,0,1,2.2,1.4A12.5,12.5,0,0,0,22.2,22l2,.4a4.8,4.8,0,0,0,2-.4A7.3,7.3,0,0,0,28,20.9a6.7,6.7,0,0,1,2.2-1.3,5.1,5.1,0,0,1,2.7-.4,5.7,5.7,0,0,1,2.5.6,8.7,8.7,0,0,1,2.1,1.5,5.9,5.9,0,0,0,1.8,1.4,5.2,5.2,0,0,0,2.2.7H39.1a7.6,7.6,0,0,1-2.2-1.1,6.6,6.6,0,0,0-2-1.1,4.4,4.4,0,0,0-2-.3,5.9,5.9,0,0,0-2,.4,6.8,6.8,0,0,0-1.8,1.3,9.3,9.3,0,0,1-2.2,1.4,6.5,6.5,0,0,1-2.7.5,8.1,8.1,0,0,1-2.7-.5,9.4,9.4,0,0,1-2.2-1.5,6.3,6.3,0,0,0-1.8-1.2,4.2,4.2,0,0,0-2-.5,4.4,4.4,0,0,0-2,.2,6.6,6.6,0,0,0-2,1.1A9.1,9.1,0,0,1,9.3,23H6.9Z"/>
      <path class="cls-5" d="M6.8,28.6l2.3-.7,1.8-1.4a7.5,7.5,0,0,1,2-1.5,5.8,5.8,0,0,1,2.6-.6,8.4,8.4,0,0,1,2.7.4,11.8,11.8,0,0,1,2.2,1.4,5.8,5.8,0,0,0,1.8,1.1,4.5,4.5,0,0,0,2,.4,5.8,5.8,0,0,0,1.9-.3,9.4,9.4,0,0,0,1.8-1.2,12.6,12.6,0,0,1,2.3-1.3,7.8,7.8,0,0,1,2.6-.4,7.6,7.6,0,0,1,2.6.6,6.4,6.4,0,0,1,2,1.6l1.8,1.4a6.2,6.2,0,0,0,2.3.7H39a9.4,9.4,0,0,1-2.2-1.2,5.2,5.2,0,0,0-1.9-1.1,7.6,7.6,0,0,0-2.1-.3,6.5,6.5,0,0,0-2,.5,8.8,8.8,0,0,0-1.7,1.2,7.4,7.4,0,0,1-2.3,1.4,6.2,6.2,0,0,1-2.7.5,6.8,6.8,0,0,1-2.7-.5,11.3,11.3,0,0,1-2.1-1.5,14,14,0,0,0-1.8-1.2,6.5,6.5,0,0,0-2-.5,5.1,5.1,0,0,0-2.1.3,8.7,8.7,0,0,0-1.9,1,9.4,9.4,0,0,1-2.2,1.2H6.8Z"/>
    </g>
  </g>
</svg>
