<svg id="Layer_1" data-name="Layer 1" xmlns="http://www.w3.org/2000/svg" xmlns:xlink="http://www.w3.org/1999/xlink" width="50" height="50" viewBox="0 0 50 50">
  <defs>
    <style>
      .cls-1 {
        fill: #ec7d21;
      }

      .cls-2 {
        fill: #f8b72a;
      }

      .cls-3 {
        clip-path: url(#clip-path);
      }

      .cls-4 {
        fill: #fff;
      }

      .cls-5 {
        clip-path: url(#clip-path-2);
      }
    </style>
    <clipPath id="clip-path">
      <ellipse class="cls-1" cx="25" cy="25" rx="24.5" ry="24.7"/>
    </clipPath>
    <clipPath id="clip-path-2">
      <circle class="cls-2" cx="122.1" cy="25" r="24.7"/>
    </clipPath>
  </defs>
  <g>
    <g>
      <ellipse class="cls-1" cx="25" cy="25" rx="24.5" ry="24.7"/>
      <g class="cls-3">
        <rect class="cls-1" x="-52.2" y="-33.3" width="161.5" height="108.8"/>
      </g>
    </g>
    <g>
      <path class="cls-4" d="M10.7,20.8a4.3,4.3,0,0,1,.2-1.1c.1-.4.3-.7.4-1.1a13.3,13.3,0,0,1,1.4-1.9,9.3,9.3,0,0,1,1.8-1.6,6,6,0,0,1,2.3-1,4.9,4.9,0,0,1,2.7.2,6.3,6.3,0,0,1,2.2,1.6A12.4,12.4,0,0,1,24,20.3a31.6,31.6,0,0,1,1.2,9.1,55,55,0,0,1-.8,9.1c-.5-3-.7-6-1.1-8.9A57,57,0,0,0,21.7,21c-.2-.7-.5-1.3-.7-1.9a9.5,9.5,0,0,0-1-1.7,3.3,3.3,0,0,0-1.3-1.1,2.2,2.2,0,0,0-1.6-.3,6.8,6.8,0,0,0-3.6,1.6A10.7,10.7,0,0,0,11.9,19l-.7.8Z"/>
      <path class="cls-4" d="M38.1,20.9a3.1,3.1,0,0,0-.5-1L37,19l-1.6-1.4A7.2,7.2,0,0,0,31.8,16a2.5,2.5,0,0,0-1.7.3,4.2,4.2,0,0,0-1.3,1.1,9.1,9.1,0,0,0-.9,1.7,10.8,10.8,0,0,0-.8,1.9,57,57,0,0,0-1.6,8.6c-.4,2.9-.6,5.9-1,8.9a46,46,0,0,1-.9-9.1,31.8,31.8,0,0,1,1.3-9.1,12.1,12.1,0,0,1,2.2-4.4,7.3,7.3,0,0,1,2.2-1.6,5.1,5.1,0,0,1,2.7-.2,8.7,8.7,0,0,1,2.4,1l1.8,1.6a12.7,12.7,0,0,1,1.3,1.9l.5,1.1A2.5,2.5,0,0,1,38.1,20.9Z"/>
    </g>
  </g>
  <g>
    <circle class="cls-2" cx="122.1" cy="25" r="24.7"/>
    <g class="cls-5">
      <rect class="cls-2" x="44" y="-33.3" width="163.2" height="108.8"/>
    </g>
  </g>
</svg>
