<svg id="Layer_1" data-name="Layer 1" xmlns="http://www.w3.org/2000/svg" xmlns:xlink="http://www.w3.org/1999/xlink" width="50" height="50" viewBox="0 0 50 50">
  <defs>
    <style>
      .cls-1 {
        fill: #95b832;
      }

      .cls-2 {
        fill: #e44f20;
      }

      .cls-3 {
        clip-path: url(#clip-path);
      }

      .cls-4 {
        fill: #fff;
      }

      .cls-5 {
        clip-path: url(#clip-path-2);
      }
    </style>
    <clipPath id="clip-path">
      <circle class="cls-1" cx="25" cy="25" r="24.7"/>
    </clipPath>
    <clipPath id="clip-path-2">
      <circle class="cls-2" cx="122.1" cy="25" r="24.7"/>
    </clipPath>
  </defs>
  <g>
    <g>
      <circle class="cls-1" cx="25" cy="25" r="24.7"/>
      <g class="cls-3">
        <rect class="cls-1" x="-53" y="-33.3" width="163.2" height="108.8"/>
      </g>
    </g>
    <g>
      <g>
        <path class="cls-4" d="M22.7,30.6A6.7,6.7,0,0,1,20,34.5a6.3,6.3,0,0,1-4.8,1.2,5.2,5.2,0,0,1-2.6-1,7.3,7.3,0,0,1-1.9-2,6.8,6.8,0,0,1-.8-5.4,7.1,7.1,0,0,1,3.3-4.4,7.2,7.2,0,0,1,2.7-.9,6.3,6.3,0,0,1,2.7.4,6.2,6.2,0,0,1,3.7,3.4A7.2,7.2,0,0,1,22.7,30.6Zm0,0a6,6,0,0,0-.7-4.7,4.9,4.9,0,0,0-1.6-1.6,4.6,4.6,0,0,0-2.1-.8,5.5,5.5,0,0,0-4,1,6.7,6.7,0,0,0-2.2,3.3,6.9,6.9,0,0,0,.3,4,5.5,5.5,0,0,0,3,2.8,5.7,5.7,0,0,0,2.2.4,6.2,6.2,0,0,0,2.3-.7A6.1,6.1,0,0,0,22.7,30.6Z"/>
        <path class="cls-4" d="M28.8,12.3a25.5,25.5,0,0,0-8,2.2,17.7,17.7,0,0,0-6.1,5.1l-.6.8-.3.4a.8.8,0,0,0-.2.4,16.2,16.2,0,0,0-1,1.8,24,24,0,0,0-1.2,3.8,10.8,10.8,0,0,0-.2,4,6.4,6.4,0,0,0,.6,1.8,7,7,0,0,0,1.4,1.6A4.4,4.4,0,0,1,11.3,33a6.2,6.2,0,0,1-1.2-1.9,12.1,12.1,0,0,1-.5-4.6,16,16,0,0,1,1.1-4.3,9.5,9.5,0,0,1,.9-2.1l.3-.5.3-.5.7-.9a12.2,12.2,0,0,1,1.5-1.7A8,8,0,0,1,16.1,15a15.6,15.6,0,0,1,4-2.2A16.1,16.1,0,0,1,28.8,12.3Z"/>
      </g>
      <g>
        <path class="cls-4" d="M25.8,18.1a7,7,0,0,1,2.7-4,6.4,6.4,0,0,1,4.9-1.2,4.9,4.9,0,0,1,2.5,1,6.1,6.1,0,0,1,1.9,2,6.8,6.8,0,0,1,.8,5.4,6.8,6.8,0,0,1-3.3,4.4,6.2,6.2,0,0,1-2.6.9,5.9,5.9,0,0,1-2.7-.4,6,6,0,0,1-3.7-3.4A6.5,6.5,0,0,1,25.8,18.1Zm0,0a6.2,6.2,0,0,0,.7,4.6,5.2,5.2,0,0,0,1.7,1.6,3.9,3.9,0,0,0,2,.8,5.1,5.1,0,0,0,4-1,5.7,5.7,0,0,0,2.2-3.3,5.6,5.6,0,0,0-.3-4,5.5,5.5,0,0,0-3-2.8,4.1,4.1,0,0,0-2.2-.3,4.3,4.3,0,0,0-2.2.6A6.2,6.2,0,0,0,25.8,18.1Z"/>
        <path class="cls-4" d="M19.7,36.3a25.5,25.5,0,0,0,8-2.2A16.9,16.9,0,0,0,33.8,29l.6-.8.3-.4.3-.4.9-1.8a24.3,24.3,0,0,0,1.3-3.8,13.5,13.5,0,0,0,.2-4,6.7,6.7,0,0,0-.7-1.8,5.2,5.2,0,0,0-1.4-1.6,3.9,3.9,0,0,1,1.9,1.2,5.6,5.6,0,0,1,1.2,2,9.8,9.8,0,0,1,.5,4.5,17.5,17.5,0,0,1-1,4.4,18.6,18.6,0,0,1-1,2l-.3.5-.3.5-.7.9a11.5,11.5,0,0,1-1.4,1.7,11.9,11.9,0,0,1-1.8,1.5,15,15,0,0,1-3.9,2.2A16.5,16.5,0,0,1,19.7,36.3Z"/>
      </g>
    </g>
  </g>
  <g>
    <circle class="cls-2" cx="122.1" cy="25" r="24.7"/>
    <g class="cls-5">
      <rect class="cls-2" x="44" y="-33.3" width="163.2" height="108.8"/>
    </g>
  </g>
</svg>
