<svg id="Layer_1" data-name="Layer 1" xmlns="http://www.w3.org/2000/svg" xmlns:xlink="http://www.w3.org/1999/xlink" width="50" height="50" viewBox="0 0 50 50">
  <defs>
    <style>
      .cls-1 {
        fill: #6e2780;
      }

      .cls-2 {
        fill: #282560;
      }

      .cls-3 {
        clip-path: url(#clip-path);
      }

      .cls-4 {
        fill: #fff;
      }

      .cls-5 {
        clip-path: url(#clip-path-2);
      }
    </style>
    <clipPath id="clip-path">
      <circle class="cls-1" cx="25" cy="25" r="24.8"/>
    </clipPath>
    <clipPath id="clip-path-2">
      <circle class="cls-2" cx="122.1" cy="25" r="24.8"/>
    </clipPath>
  </defs>
  <g>
    <g>
      <circle class="cls-1" cx="25" cy="25" r="24.8"/>
      <g class="cls-3">
        <rect class="cls-1" x="-53" y="-33.3" width="163.2" height="108.8"/>
      </g>
    </g>
    <path class="cls-4" d="M9.7,13.7l2.4-.2a2.5,2.5,0,0,1,1.2.1,3.9,3.9,0,0,1,1.1.6,6.1,6.1,0,0,1,1.3,2.2,21,21,0,0,1,.6,2.4,39.1,39.1,0,0,1,.3,4.9,38.4,38.4,0,0,1,0,4.8H15.3c.3-1.8.8-3.4,1.2-5.1a49.1,49.1,0,0,1,1.7-5l1.2-2.4.9-1.1a5.7,5.7,0,0,1,1.1-1.1,2.9,2.9,0,0,1,3.5.2,3.4,3.4,0,0,1,.9,1.5,7.7,7.7,0,0,1,.2,1.5,23.5,23.5,0,0,1,.1,2.6c0,.9-.1,1.7-.1,2.6a19.9,19.9,0,0,0,.5,4.9,15.7,15.7,0,0,0,1.8,4.4,8.4,8.4,0,0,0,3.4,3.1,4.3,4.3,0,0,0,4-.2,5,5,0,0,0,2.2-3.6,3,3,0,0,0-.6-1.8,4.3,4.3,0,0,0-1.7-1.3,3.8,3.8,0,0,0-4.1.6,5,5,0,0,0-1.3,1.9l-.3.5-.2.7c-.1.4-.3.8-.4,1.2A15.9,15.9,0,0,1,26.6,37a6.8,6.8,0,0,1-2.1,1.7l-1.2.5-1.3.4a5.8,5.8,0,0,1-2.6.1,5,5,0,0,1-2.4-.9,4.2,4.2,0,0,0,2.4.7,10.7,10.7,0,0,0,2.5-.3,9.7,9.7,0,0,0,2.3-1.1A5.5,5.5,0,0,0,26,36.5a16.7,16.7,0,0,0,2.3-4.4l.3-1.2.2-.6a1.4,1.4,0,0,0,.2-.7,7.3,7.3,0,0,1,1.6-2.3,5.1,5.1,0,0,1,2.6-1.4,7,7,0,0,1,2.9.3l1.3.7a3.5,3.5,0,0,1,1.1,1,4.4,4.4,0,0,1,1.1,2.9,5.5,5.5,0,0,1-.9,2.8,2.7,2.7,0,0,1-.9,1.2,5.2,5.2,0,0,1-1.1,1,6.7,6.7,0,0,1-2.9,1,7.2,7.2,0,0,1-2.9-.6,10,10,0,0,1-2.4-1.6,19.2,19.2,0,0,1-1.8-2.2,14.8,14.8,0,0,1-2.1-5,24.4,24.4,0,0,1-.5-5.3c0-.9.1-1.8.1-2.6V17c-.1-.4-.1-.7-.2-1.1a.9.9,0,0,0-.4-.6A.7.7,0,0,0,23,15l-.6.2a5.7,5.7,0,0,0-1.5,1.6L19.7,19l-1.8,4.7c-.5,1.6-.9,3.3-1.3,4.9l-1.3-.2c.1-1.5.3-3.1.3-4.7a38.5,38.5,0,0,0-.1-4.8,15.7,15.7,0,0,0-.4-2.3,5.1,5.1,0,0,0-1-2.1,2.8,2.8,0,0,0-.9-.6l-1.1-.2C11.3,13.6,10.5,13.8,9.7,13.7Z"/>
  </g>
  <g>
    <circle class="cls-2" cx="122.1" cy="25" r="24.8"/>
    <g class="cls-5">
      <rect class="cls-2" x="44" y="-33.3" width="163.2" height="108.8"/>
    </g>
  </g>
</svg>
