<svg id="Layer_1" data-name="Layer 1" xmlns="http://www.w3.org/2000/svg" xmlns:xlink="http://www.w3.org/1999/xlink" width="50" height="50" viewBox="0 0 50 50">
  <defs>
    <style>
      .cls-1 {
        fill: #95b832;
      }

      .cls-2 {
        fill: #e44f20;
      }

      .cls-3 {
        clip-path: url(#clip-path);
      }

      .cls-4 {
        clip-path: url(#clip-path-2);
      }

      .cls-5 {
        fill: #fff;
      }
    </style>
    <clipPath id="clip-path">
      <circle class="cls-1" cx="-72.1" cy="25" r="24.7"/>
    </clipPath>
    <clipPath id="clip-path-2">
      <circle class="cls-2" cx="25" cy="25" r="24.7"/>
    </clipPath>
  </defs>
  <g>
    <circle class="cls-1" cx="-72.1" cy="25" r="24.7"/>
    <g class="cls-3">
      <rect class="cls-1" x="-150.1" y="-33.3" width="163.2" height="108.8"/>
    </g>
  </g>
  <g>
    <g>
      <circle class="cls-2" cx="25" cy="25" r="24.7"/>
      <g class="cls-4">
        <rect class="cls-2" x="-53" y="-33.3" width="163.2" height="108.8"/>
      </g>
    </g>
    <g>
      <path class="cls-5" d="M24.9,31.7a7,7,0,0,1-6.4,6.9,6.7,6.7,0,0,1-2.8-.3,7.2,7.2,0,0,1-2.4-1.4A7,7,0,0,1,11,31.6a7.2,7.2,0,0,1,.6-2.9,6.6,6.6,0,0,1,1.7-2.3A6.9,6.9,0,0,1,15.8,25a6.9,6.9,0,0,1,7.4,2.1A6.9,6.9,0,0,1,24.9,31.7Zm0,0A6,6,0,0,0,23,27.3a5,5,0,0,0-2.1-1.2,6.2,6.2,0,0,0-2.3-.2,5.8,5.8,0,0,0-3.8,1.9,6.2,6.2,0,0,0-1.4,3.8,5.8,5.8,0,0,0,1.3,3.8,5.5,5.5,0,0,0,3.8,2,4.4,4.4,0,0,0,2.3-.2,5.3,5.3,0,0,0,2.1-1.1A5.7,5.7,0,0,0,24.9,31.7Z"/>
      <path class="cls-5" d="M38,37.1a8.1,8.1,0,0,1-2.8-1.7,5.3,5.3,0,0,1-1.7-3,12.2,12.2,0,0,1-.2-3.3c0-1.1.1-2.1.1-3.2a42,42,0,0,0-.6-6.1,10.3,10.3,0,0,0-2.5-5,6.9,6.9,0,0,0-5-1.8,8.1,8.1,0,0,0-2.7.5,3.4,3.4,0,0,0-1.2.6l-1.1.9a7.2,7.2,0,0,0-1.4,2.4,9.4,9.4,0,0,0-.6,2.9,9.5,9.5,0,0,0,.4,3,6.1,6.1,0,0,0,.7,1.4,2.7,2.7,0,0,0,1.2.9,2.1,2.1,0,0,1-1.4-.7,3.5,3.5,0,0,1-1.1-1.3,11.9,11.9,0,0,1-1-3.2,9.8,9.8,0,0,1,.3-3.4,8.5,8.5,0,0,1,1.5-3.2,7,7,0,0,1,2.8-2.3,11.1,11.1,0,0,1,3.5-.8,14.7,14.7,0,0,1,3.6.4,8.3,8.3,0,0,1,3.2,2,8.8,8.8,0,0,1,2,3,12.6,12.6,0,0,1,1,3.3,24.3,24.3,0,0,1,.2,6.6,31.1,31.1,0,0,1-.4,3.2,10.8,10.8,0,0,0-.1,3.1,4.7,4.7,0,0,0,1,2.7A9.3,9.3,0,0,0,38,37.1Z"/>
    </g>
  </g>
</svg>
