<svg id="Layer_1" data-name="Layer 1" xmlns="http://www.w3.org/2000/svg" xmlns:xlink="http://www.w3.org/1999/xlink" width="50" height="50" viewBox="0 0 50 50">
  <defs>
    <style>
      .cls-1 {
        fill: #282560;
      }

      .cls-2 {
        fill: #189ba4;
      }

      .cls-3 {
        clip-path: url(#clip-path);
      }

      .cls-4 {
        clip-path: url(#clip-path-2);
      }

      .cls-5 {
        fill: #fff;
      }
    </style>
    <clipPath id="clip-path">
      <circle class="cls-1" cx="-81.9" cy="25" r="24.8"/>
    </clipPath>
    <clipPath id="clip-path-2">
      <circle class="cls-2" cx="25" cy="25" r="24.8"/>
    </clipPath>
  </defs>
  <g>
    <circle class="cls-1" cx="-81.9" cy="25" r="24.8"/>
    <g class="cls-3">
      <rect class="cls-1" x="-160" y="-33.3" width="163.2" height="108.8"/>
    </g>
  </g>
  <g>
    <g>
      <circle class="cls-2" cx="25" cy="25" r="24.8"/>
      <g class="cls-4">
        <rect class="cls-2" x="-53" y="-33.3" width="163.2" height="108.8"/>
      </g>
    </g>
    <g>
      <path class="cls-5" d="M14.4,11a20.7,20.7,0,0,1,5.8,6,14.1,14.1,0,0,1,1.9,3.9,13.1,13.1,0,0,1,.7,4.4,8.2,8.2,0,0,1-.2,2.2v1.1l-.3,1.1a15.2,15.2,0,0,1-2,3.8,20.9,20.9,0,0,1-6.2,5.7,46.2,46.2,0,0,0,4.6-6.6,16.3,16.3,0,0,0,2-7.3,16.6,16.6,0,0,0-1.9-7.4A45.5,45.5,0,0,0,14.4,11Z"/>
      <path class="cls-5" d="M35.7,11.4a42.1,42.1,0,0,0-4.5,6.8,17.1,17.1,0,0,0-2.1,7.2,16.2,16.2,0,0,0,1.6,7.4,49.3,49.3,0,0,0,4.4,6.8,21.1,21.1,0,0,1-6-5.9,13.8,13.8,0,0,1-1.8-3.9L27,28.7V27.6a16.2,16.2,0,0,1-.1-2.2,16.4,16.4,0,0,1,.9-4.4,17.2,17.2,0,0,1,2-3.8A22.4,22.4,0,0,1,35.7,11.4Z"/>
      <path class="cls-5" d="M17.1,26.7a12.9,12.9,0,0,1,3.8-.8,25.5,25.5,0,0,1,3.9-.2l3.8.3a16.4,16.4,0,0,1,3.8,1,18.9,18.9,0,0,1-3.8.9,25.4,25.4,0,0,1-3.9.1,24.3,24.3,0,0,1-3.8-.3A16.4,16.4,0,0,1,17.1,26.7Z"/>
    </g>
  </g>
</svg>
