<svg id="Layer_1" data-name="Layer 1" xmlns="http://www.w3.org/2000/svg" xmlns:xlink="http://www.w3.org/1999/xlink" width="50" height="50" viewBox="0 0 50 50">
  <defs>
    <style>
      .cls-1 {
        fill: #149343;
      }

      .cls-2 {
        fill: #e00f21;
      }

      .cls-3 {
        clip-path: url(#clip-path);
      }

      .cls-4 {
        clip-path: url(#clip-path-2);
      }

      .cls-5 {
        fill: #fff;
      }
    </style>
    <clipPath id="clip-path">
      <circle class="cls-1" cx="-81.9" cy="25" r="24.7"/>
    </clipPath>
    <clipPath id="clip-path-2">
      <circle class="cls-2" cx="25" cy="25" r="24.8"/>
    </clipPath>
  </defs>
  <g>
    <circle class="cls-1" cx="-81.9" cy="25" r="24.7"/>
    <g class="cls-3">
      <rect class="cls-1" x="-160" y="-33.3" width="163.2" height="108.8"/>
    </g>
  </g>
  <g>
    <g>
      <circle class="cls-2" cx="25" cy="25" r="24.8"/>
      <g class="cls-4">
        <rect class="cls-2" x="-53" y="-33.3" width="163.2" height="108.8"/>
      </g>
    </g>
    <g>
      <path class="cls-5" d="M13.2,31.4a31.6,31.6,0,0,1,5.9-2,43.6,43.6,0,0,1,6.2-.7,44.6,44.6,0,0,1,6.3.5,27.4,27.4,0,0,1,6,1.8H25.4l-6.1.2Z"/>
      <path class="cls-5" d="M25.1,11.7c.4,2.4.7,4.7.9,7.1s.3,4.7.4,7.1,0,4.7-.2,7.1a56.9,56.9,0,0,1-.7,7.1,57.4,57.4,0,0,1-.9-7.1c-.2-2.3-.3-4.7-.4-7.1s0-4.7.2-7.1A58.8,58.8,0,0,1,25.1,11.7Z"/>
      <path class="cls-5" d="M21,16.9l.6-1.6.8-1.5.9-1.4.9-1.3.9-1.1.8,1,.5.7.5.6.9,1.4a10.9,10.9,0,0,1,.8,1.5,7.7,7.7,0,0,1,.7,1.6l-1.5-1-1.3-1-1.1-1.2-.6-.6-.5-.6h1.6l-1,1.2-1.2,1.2a6.9,6.9,0,0,1-1.3,1.1A7.1,7.1,0,0,1,21,16.9Z"/>
    </g>
  </g>
</svg>
