<svg id="Layer_1" data-name="Layer 1" xmlns="http://www.w3.org/2000/svg" xmlns:xlink="http://www.w3.org/1999/xlink" width="50" height="50" viewBox="0 0 50 50">
  <defs>
    <style>
      .cls-1 {
        fill: #149343;
      }

      .cls-2 {
        fill: #127cbf;
      }

      .cls-3 {
        clip-path: url(#clip-path);
      }

      .cls-4 {
        fill: #fff;
      }

      .cls-5 {
        clip-path: url(#clip-path-2);
      }
    </style>
    <clipPath id="clip-path">
      <circle class="cls-1" cx="25" cy="25" r="24.7"/>
    </clipPath>
    <clipPath id="clip-path-2">
      <circle class="cls-2" cx="-72.1" cy="25" r="24.8"/>
    </clipPath>
  </defs>
  <g>
    <g>
      <circle class="cls-1" cx="25" cy="25" r="24.7"/>
      <g class="cls-3">
        <rect class="cls-1" x="-53" y="-33.3" width="163.2" height="108.8"/>
      </g>
    </g>
    <g>
      <path class="cls-4" d="M11.3,16.7l1-1,1.2-1,1.4-.7.8-.2a1.7,1.7,0,0,1,1,0,1.7,1.7,0,0,1,1,.6,1.4,1.4,0,0,1,.5,1,2.4,2.4,0,0,1,.2.8V17a28.1,28.1,0,0,1,.1,2.9,54.9,54.9,0,0,1-.3,5.8,37,37,0,0,1-1,5.8,57,57,0,0,1-.6-5.8c0-1.9-.1-3.9,0-5.8V15.8a.8.8,0,0,1-.1-.4h-.2c-.2-.2-.6-.2-1.1-.1l-1.3.4Z"/>
      <path class="cls-4" d="M17.6,16.4l1-1.1a9.4,9.4,0,0,1,1.2-.9l1.4-.8.8-.2h1a1.7,1.7,0,0,1,1,.6,2.4,2.4,0,0,1,.5,1c.1.3.1.6.2.8v.8c.1,1,.1,2,.1,3a57.8,57.8,0,0,1-.3,5.8,41.5,41.5,0,0,1-1,5.8,59,59,0,0,1-.6-5.9,56.1,56.1,0,0,1,0-5.8V15.1l-.2-.2H21.5l-1.3.4Z"/>
      <path class="cls-4" d="M23.9,16.5l2-1.7,1.1-.7,1.4-.4h.8l.8.4a2.9,2.9,0,0,1,.7,1.5,26.5,26.5,0,0,1,.2,2.7q.2,5.1,0,10.2l-.2,2.6a8.6,8.6,0,0,0,.2,2.3,6.5,6.5,0,0,0,.7,2.1l.3.4.4.3.8.5h1l1-.3A13.3,13.3,0,0,0,37,35.1l1.5-2a15.9,15.9,0,0,0,1.3-2.2,12.8,12.8,0,0,1-2.1,4.8,7.3,7.3,0,0,1-2,1.9l-1.4.6H32.8a4.3,4.3,0,0,1-2.6-1.7,7.7,7.7,0,0,1-1.1-2.7,13.3,13.3,0,0,1-.3-2.8V28.5c.1-3.4.3-6.8.5-10.2V15.8a2,2,0,0,0-.2-.9,1.3,1.3,0,0,0-.8-.2,2.3,2.3,0,0,0-1.1.2l-1.2.4A11.9,11.9,0,0,0,23.9,16.5Z"/>
    </g>
  </g>
  <g>
    <circle class="cls-2" cx="-72.1" cy="25" r="24.8"/>
    <g class="cls-5">
      <rect class="cls-2" x="-150.1" y="-33.3" width="163.2" height="108.8"/>
    </g>
  </g>
</svg>
