<svg id="Layer_1" data-name="Layer 1" xmlns="http://www.w3.org/2000/svg" xmlns:xlink="http://www.w3.org/1999/xlink" width="50" height="50" viewBox="0 0 50 50">
  <defs>
    <style>
      .cls-1 {
        fill: #ec7d21;
      }

      .cls-2 {
        fill: #f8b72a;
      }

      .cls-3 {
        clip-path: url(#clip-path);
      }

      .cls-4 {
        clip-path: url(#clip-path-2);
      }

      .cls-5 {
        fill: #fff;
      }
    </style>
    <clipPath id="clip-path">
      <ellipse class="cls-1" cx="-72.1" cy="25" rx="24.5" ry="24.7"/>
    </clipPath>
    <clipPath id="clip-path-2">
      <circle class="cls-2" cx="25" cy="25" r="24.7"/>
    </clipPath>
  </defs>
  <g>
    <ellipse class="cls-1" cx="-72.1" cy="25" rx="24.5" ry="24.7"/>
    <g class="cls-3">
      <rect class="cls-1" x="-149.3" y="-33.3" width="161.5" height="108.8"/>
    </g>
  </g>
  <g>
    <g>
      <circle class="cls-2" cx="25" cy="25" r="24.7"/>
      <g class="cls-4">
        <rect class="cls-2" x="-53" y="-33.3" width="163.2" height="108.8"/>
      </g>
    </g>
    <g>
      <path class="cls-5" d="M25.2,24.9a7.7,7.7,0,0,1,5,1.8,6.9,6.9,0,0,1,2.5,4.8,7.6,7.6,0,0,1-.2,3A7.6,7.6,0,0,1,31,37.1a7.2,7.2,0,0,1-2.4,1.8,6.3,6.3,0,0,1-3,.7,6.1,6.1,0,0,1-3-.5,7.4,7.4,0,0,1-2.5-1.7,6.7,6.7,0,0,1-1.6-2.5A7.7,7.7,0,0,1,18,32a7.3,7.3,0,0,1,2.3-5A7.5,7.5,0,0,1,25.2,24.9Zm0,0a6.7,6.7,0,0,0-4.7,2.2,5.7,5.7,0,0,0-1.2,2.3,5.3,5.3,0,0,0-.2,2.5,6,6,0,0,0,2.2,4.2,6.6,6.6,0,0,0,4.3,1.5,6.4,6.4,0,0,0,4.1-1.8,6,6,0,0,0,2-4.2,6.9,6.9,0,0,0-.3-2.5A6.4,6.4,0,0,0,30,26.9,6.2,6.2,0,0,0,25.2,24.9Z"/>
      <path class="cls-5" d="M11.2,17.8a3.2,3.2,0,0,1-.3-1.4,3.5,3.5,0,0,1,.6-1.4,4.2,4.2,0,0,1,1.4-.9h1.7a4.6,4.6,0,0,1,2.6,1.7,15.8,15.8,0,0,1,1.5,2.4A30,30,0,0,0,21,22.6a6,6,0,0,0,.8.8,1,1,0,0,0,.5.4l.5.3.2.2h.3l.6.2.6.2h.7a5.3,5.3,0,0,1-2.8.2,6,6,0,0,1-2.6-1.4,7.2,7.2,0,0,1-1.7-2.2c-.5-.8-.9-1.6-1.3-2.4L16.3,18l-.6-1a3.8,3.8,0,0,0-1.6-1.3,1.5,1.5,0,0,0-.9-.2l-1,.2a2.7,2.7,0,0,0-.7.8A2.8,2.8,0,0,0,11.2,17.8Z"/>
      <path class="cls-5" d="M38.7,17a2.1,2.1,0,0,0-.3-1.2,2,2,0,0,0-.8-.8l-.9-.2a1.7,1.7,0,0,0-1,.3,3.2,3.2,0,0,0-1.4,1.4l-.6,1-.5,1.2a25.6,25.6,0,0,1-1.1,2.4,8.7,8.7,0,0,1-1.6,2.3A5.4,5.4,0,0,1,28,24.9a5.3,5.3,0,0,1-2.8,0l.6-.2.6-.2.6-.2.3-.2h.3l.4-.4.5-.3.7-.9a26.7,26.7,0,0,0,2.1-4.5,19.6,19.6,0,0,1,1.3-2.5,5.1,5.1,0,0,1,2.6-1.9,2.9,2.9,0,0,1,1.6,0,2.1,2.1,0,0,1,1.4.7,2.1,2.1,0,0,1,.7,1.4A2.2,2.2,0,0,1,38.7,17Z"/>
    </g>
  </g>
</svg>
