<svg id="Layer_1" data-name="Layer 1" xmlns="http://www.w3.org/2000/svg" xmlns:xlink="http://www.w3.org/1999/xlink" width="50" height="50" viewBox="0 0 50 50">
  <defs>
    <style>
      .cls-1 {
        fill: #57559f;
      }

      .cls-2 {
        fill: #e44f20;
      }

      .cls-3 {
        clip-path: url(#clip-path);
      }

      .cls-4 {
        fill: #fff;
      }

      .cls-5 {
        clip-path: url(#clip-path-2);
      }
    </style>
    <clipPath id="clip-path">
      <circle class="cls-1" cx="25" cy="25" r="24.7"/>
    </clipPath>
    <clipPath id="clip-path-2">
      <circle class="cls-2" cx="-81.9" cy="25" r="24.7"/>
    </clipPath>
  </defs>
  <g>
    <g>
      <circle class="cls-1" cx="25" cy="25" r="24.7"/>
      <g class="cls-3">
        <rect class="cls-1" x="-53" y="-33.3" width="163.2" height="108.8"/>
      </g>
    </g>
    <g>
      <path class="cls-4" d="M10.4,18l1-1.1,1.2-.9a5.7,5.7,0,0,1,1.3-.8l.9-.2h1a2.1,2.1,0,0,1,1,.6,1.4,1.4,0,0,1,.5,1,2.4,2.4,0,0,1,.2.8c0,.3.1.5.1.8s.1,2,.1,3a56.3,56.3,0,0,1-.3,5.8,38.2,38.2,0,0,1-.9,5.9,59,59,0,0,1-.6-5.9c-.1-1.9-.2-3.9-.2-5.8V17a.8.8,0,0,1-.1-.4H14.3l-1.3.4Z"/>
      <path class="cls-4" d="M16.7,17.6l1-1.1,1.2-1,1.4-.8.8-.2h1a2.4,2.4,0,0,1,1.1.6,2.4,2.4,0,0,1,.5,1c.1.3.1.6.2.9v.7c.1,1,.1,2,.1,3a58.2,58.2,0,0,1-.2,5.9,58.1,58.1,0,0,1-.9,5.8,38.3,38.3,0,0,1-.7-5.8c-.1-2-.1-4-.1-5.9V17.8a1.7,1.7,0,0,0-.1-.7v-.6c0-.1-.1-.2-.1-.3l-.2-.2h-1l-1.3.4A15.9,15.9,0,0,0,16.7,17.6Z"/>
      <path class="cls-4" d="M23.1,17.6a5.2,5.2,0,0,1,1-1.1,6.3,6.3,0,0,1,1.2-1,4.6,4.6,0,0,1,1.4-.7l.8-.3h1a1.7,1.7,0,0,1,1,.6,2.7,2.7,0,0,1,.6,1c0,.4.1.6.1.9s.1.5.1.7.1,2,.1,3a58.3,58.3,0,0,1-.3,5.9,40.1,40.1,0,0,1-.9,5.9c-.3-2-.5-4-.6-5.9s-.2-3.9-.2-5.9V16.5a.4.4,0,0,1-.1-.3l-.2-.2H27l-1.3.4C24.8,16.7,24,17.2,23.1,17.6Z"/>
      <path class="cls-4" d="M29.4,17.6l2.1-1.1a5.4,5.4,0,0,1,2.5-.3,4.7,4.7,0,0,1,2.5,1.1,7.9,7.9,0,0,1,1.4,2.3,7.5,7.5,0,0,1,.4,2.6,10.7,10.7,0,0,1-.3,2.5,8.7,8.7,0,0,1-1,2.4c-.4.7-.9,1.4-1.4,2.1A15.3,15.3,0,0,1,33.8,31l-1.9,1.4a44.9,44.9,0,0,1-4.2,2.4c-1.3.8-2.6,1.6-3.8,2.5L22.4,39a20,20,0,0,0-1,2.1,7.8,7.8,0,0,1,1.8-4.4,18.5,18.5,0,0,1,3.7-3.2c1.3-.9,2.7-1.7,3.9-2.6a19,19,0,0,0,3.3-3,5.7,5.7,0,0,0,1.2-1.8,6.6,6.6,0,0,0,.9-1.9,8.5,8.5,0,0,0,.2-4.2,4.4,4.4,0,0,0-.9-1.8,2.7,2.7,0,0,0-1.6-1,5.5,5.5,0,0,0-2.2-.2A19.5,19.5,0,0,0,29.4,17.6Z"/>
    </g>
  </g>
  <g>
    <circle class="cls-2" cx="-81.9" cy="25" r="24.7"/>
    <g class="cls-5">
      <rect class="cls-2" x="-160" y="-33.3" width="163.2" height="108.8"/>
    </g>
  </g>
</svg>
