<svg id="Layer_1" data-name="Layer 1" xmlns="http://www.w3.org/2000/svg" viewBox="0 0 17.54 15.39"><defs><style>.cls-1{fill:#231f20;}</style></defs><path class="cls-1" d="M10.33,1.31H6a.27.27,0,1,0,0,.54h4.35a.27.27,0,0,0,0-.54Z"/><path class="cls-1" d="M11.65.26a.27.27,0,0,0-.27.26V2.61a.27.27,0,0,0,.54,0V.52A.27.27,0,0,0,11.65.26Z"/><path class="cls-1" d="M4.7.26a.27.27,0,0,0-.27.26V2.61a.27.27,0,0,0,.54,0V.52A.27.27,0,0,0,4.7.26Z"/><path class="cls-1" d="M13.4,4.6H2.94a.27.27,0,1,0,0,.54H13.4a.27.27,0,0,0,0-.54Z"/><path class="cls-1" d="M11,6.72h-8a.27.27,0,1,0,0,.53h8a.27.27,0,1,0,0-.53Z"/><path class="cls-1" d="M7.47,8.8H2.94a.27.27,0,1,0,0,.53H7.47a.27.27,0,1,0,0-.53Z"/><path class="cls-1" d="M16.93,10a3.6,3.6,0,0,0-1.52-1.52V1.57a.26.26,0,0,0-.25-.26H12.71a.27.27,0,1,0,0,.54h2.16V8.28a3.57,3.57,0,0,0-4.52,4.51H1.48V1.85H3.29a.27.27,0,0,0,0-.54H1.2a.25.25,0,0,0-.26.24V13.07a.25.25,0,0,0,.24.26h9.4A3.58,3.58,0,0,0,16.93,10Zm-3.18,4.69a3,3,0,1,1,3-3A3,3,0,0,1,13.75,14.72Z"/><path class="cls-1" d="M15.36,11.58H14V9.76a.27.27,0,0,0-.54,0v2.09a.27.27,0,0,0,.25.27h1.62a.27.27,0,0,0,0-.54Z"/></svg>