<svg id="Layer_1" data-name="Layer 1" xmlns="http://www.w3.org/2000/svg" viewBox="0 0 17 14"><defs><style>.cls-1{fill:#231f20;}.cls-2{fill:none;stroke:#231f20;stroke-linecap:round;stroke-linejoin:round;}</style></defs><path class="cls-1" d="M13.52,4.21H3.42a.26.26,0,0,0,0,.52h10.1a.26.26,0,0,0,0-.52Z"/><path class="cls-1" d="M13.52,10.73H3.42a.26.26,0,1,0,0,.52h10.1a.26.26,0,0,0,0-.52Z"/><path class="cls-1" d="M12.34,6.25H4.6a.26.26,0,0,0,0,.52h7.74a.26.26,0,0,0,.26-.26A.26.26,0,0,0,12.34,6.25Z"/><path class="cls-1" d="M10.66,8.26H6.28a.26.26,0,1,0,0,.52h4.38a.26.26,0,0,0,0-.52Z"/><rect class="cls-2" x="0.97" y="1.04" width="15" height="11.91"/></svg>