<svg id="Layer_1" data-name="Layer 1" xmlns="http://www.w3.org/2000/svg" viewBox="0 0 8.11 8.12"><defs><style>.cls-1{fill:#58c6df;}</style></defs><path class="cls-1" d="M1.29,7.16c1.24.93,3.79,1.46,5.08.31A5.09,5.09,0,0,0,7.82,5.11.24.24,0,0,0,7.9,5C8.8,3.13,6.72.73,4.9.28L4.83.23C1-1.27-1.74,4.89,1.29,7.16Zm.06-5.31A2.86,2.86,0,0,1,4.4.66a.23.23,0,0,0,.16.09,3.4,3.4,0,0,1,1.73.92A6.37,6.37,0,0,0,5.1,1.16a3.35,3.35,0,0,0-2.62.43C1.29,2.7.73,5.35,2.45,6.34A2.3,2.3,0,0,0,5.92,4.42c-.08-1.57-2-2.51-3-1a1,1,0,0,0-.09,1v0a.28.28,0,0,0,.2.32c.45.61,1.33.9,1.67.12S4.16,3.34,3.47,3.57a1,1,0,0,1,1-.37c1.21.25,1.11,1.94.33,2.54a1.84,1.84,0,0,1-2.85-2c.18-.9.53-1.8,1.52-2a3.49,3.49,0,0,1,3.68,1.4A3,3,0,0,1,7,5.72C5.91,8.35,2.15,7.94.78,5.77.09,4.67.73,2.81,1.35,1.85Z"/></svg>