<svg id="Layer_1" data-name="Layer 1" xmlns="http://www.w3.org/2000/svg" viewBox="0 0 17.54 15.75"><defs><style>.cls-1{fill:#f9ae42;}.cls-2{fill:#0c0d0d;}</style></defs><path class="cls-1" d="M1.85,3.48a14.23,14.23,0,0,0-.05,5c.16.92,1.3.77,1.84.34A10.81,10.81,0,0,0,7,4.12L4.2,5a40.24,40.24,0,0,1,.26,4.79c.12,1.37,1.48,1.31,2.25.42A15.26,15.26,0,0,0,9.44,5.94L6.84,7.11c1.07,1.44.87,3.37,1.26,5.07s2.39-.11,2.75-.85A21.2,21.2,0,0,0,12.29,8.1L9.55,9.72c.46.46,1,.79,1.47,1.24a1.18,1.18,0,0,0,1.68,0,11,11,0,0,0,3.45-5.43L14.87,7l.36-.14H14.17a1.35,1.35,0,0,0,.41.48C16,8.63,18.3,5.62,17.16,4.51c-.86-.83-1.06-1.3-2.34-.82C13.05,4.34,13.28,7,11.9,8.15l1.69,0c-.45-.46-1-.78-1.46-1.23C11,5.78,9.69,7.53,9.39,8.57a16.26,16.26,0,0,1-1.17,2.32L11,10.05c-.44-2-.28-4-1.55-5.73-.84-1.12-2.27.36-2.6,1.17A9,9,0,0,1,5.19,8l2.25.42a45.2,45.2,0,0,0-.36-5.58c-.38-1.73-2.44,0-2.75.84A5.15,5.15,0,0,1,2.84,6l1.84.35A9.37,9.37,0,0,1,4.75,3c.43-2.5-2.6-1.3-2.9.47"/><path class="cls-1" d="M1.55,5.05A14.2,14.2,0,0,0,2.81,9.88c.39.85,1.46.41,1.87-.14a10.83,10.83,0,0,0,2-5.41L4.21,5.86A39.82,39.82,0,0,1,5.7,10.42c.48,1.28,1.77.87,2.29-.18a15.3,15.3,0,0,0,1.53-4.8l-2.2,1.8c1.41,1.12,1.72,3,2.53,4.57s2.28-.73,2.43-1.53a19.64,19.64,0,0,0,.56-3.5L10.62,9.07c.55.32,1.18.49,1.73.81A1.19,1.19,0,0,0,14,9.46,11.09,11.09,0,0,0,15.9,3.31L15,5l.31-.22-1,.27a1.17,1.17,0,0,0,.52.35c1.67.93,3.15-2.59,1.76-3.36-1-.57-1.36-1-2.47-.19C12.6,3,13.52,5.5,12.48,6.94l1.63-.42c-.55-.33-1.18-.49-1.73-.81C11,4.88,10.18,6.91,10.16,8a16.13,16.13,0,0,1-.52,2.54L12.07,9c-1-1.81-1.32-3.8-3-5.13C8,3,7,4.82,6.87,5.69A8.85,8.85,0,0,1,6,8.52l2.28-.18A44.41,44.41,0,0,0,6.43,3.06C5.62,1.48,4.09,3.72,4,4.58a5.14,5.14,0,0,1-.83,2.64L5,7.07a9.7,9.7,0,0,1-.8-3.23C4,1.3,1.39,3.26,1.55,5.05"/><path class="cls-2" d="M11,5.33C9.61,1.07,1.82-2.85.12,3.27-.52,5.58,1.49,7.87,2.9,9.46c1.84,2,4.13,3.67,5.91,5.77.19.22,1-.76.7-1.09C6.94,11.11,3.42,9,1.45,5.45A3.82,3.82,0,0,1,.94,2.68C1.46.81,4.07,1,5.4,1.49a8.23,8.23,0,0,1,4.84,4.82c.11.31.92-.6.79-1"/><path class="cls-2" d="M10.43,4.56c.58-2.13,3-4.72,5.18-2.65,1.86,1.79.64,4.59-.68,6.21-2,2.49-5,4.08-6.78,6.81-.43.68.36,1.18.79.5,2.63-4.08,9.47-6.53,8.51-12.33A3.41,3.41,0,0,0,13.54,0C11.27.36,9.94,2.7,9.4,4.68c-.22.81.87.49,1-.12"/></svg>