<svg id="Layer_1" data-name="Layer 1" xmlns="http://www.w3.org/2000/svg" viewBox="0 0 15.55 13.97"><defs><style>.cls-1{fill:#ee4347;}</style></defs><path class="cls-1" d="M9.78,4.73C8.52,1,1.62-2.53.11,2.9-.46,5,1.32,7,2.57,8.38c1.63,1.83,3.67,3.26,5.24,5.12.17.2.87-.67.62-1C6.15,9.85,3,8,1.29,4.83A3.34,3.34,0,0,1,.83,2.37c.46-1.65,2.78-1.45,4-1a7.28,7.28,0,0,1,4.3,4.27c.1.28.81-.53.7-.86"/><path class="cls-1" d="M9.25,4c.51-1.89,2.67-4.18,4.59-2.34,1.65,1.58.56,4.07-.61,5.5-1.8,2.21-4.44,3.61-6,6-.39.6.31,1,.7.44,2.32-3.61,8.39-5.79,7.54-10.93A3,3,0,0,0,12,0C10,.32,8.81,2.39,8.34,4.15c-.2.72.76.43.91-.11"/></svg>