<svg xmlns="http://www.w3.org/2000/svg" width="8.113" height="8.124" viewBox="0 0 8.113 8.124">
  <path id="bullet_counselor-now" d="M51.282,72.836c-1.24-.931-3.794-1.459-5.082-.314a5.148,5.148,0,0,0-1.452,2.358.246.246,0,0,0-.075.1c-.9,1.888,1.173,4.291,2.994,4.74a.337.337,0,0,0,.072.044c3.8,1.5,6.57-4.657,3.543-6.924m-.067,5.309a2.869,2.869,0,0,1-3.047,1.19.222.222,0,0,0-.154-.092,3.324,3.324,0,0,1-1.731-.919,5.941,5.941,0,0,0,1.182.505,3.33,3.33,0,0,0,2.624-.426c1.189-1.113,1.745-3.761.032-4.748a2.3,2.3,0,0,0-3.471,1.917c.083,1.571,2.024,2.514,2.982,1.046a1.047,1.047,0,0,0,.084-.982c0-.008,0-.016,0-.024a.278.278,0,0,0-.2-.322c-.452-.609-1.331-.9-1.669-.12-.366.835.56,1.48,1.244,1.253a1,1,0,0,1-.99.37c-1.21-.247-1.11-1.937-.322-2.541a1.838,1.838,0,0,1,2.843,1.972c-.179.9-.528,1.8-1.515,2.025a3.371,3.371,0,0,1-1.972-.1,3.406,3.406,0,0,1-1.71-1.3,3,3,0,0,1,.1-2.578c1.129-2.628,4.886-2.218,6.259-.043.693,1.1.052,2.951-.576,3.917" transform="translate(-44.457 -71.87)" fill="#33bfc8"/>
</svg>
