<svg id="Layer_1" data-name="Layer 1" xmlns="http://www.w3.org/2000/svg" viewBox="0 0 100 100"><defs><style>.cls-1{fill:#009b91;}</style></defs><title>Icons</title><path class="cls-1" d="M67.93,26.52h3.62a4.39,4.39,0,0,1,4.38,4.41V59.37a.83.83,0,0,1-.26.66q-6.89,7-13.75,14a.58.58,0,0,1-.45.19H32.66a4.39,4.39,0,0,1-4.38-4.38q0-19.44,0-38.88a4.38,4.38,0,0,1,4.37-4.38h4c0,.11,0,.23,0,.34,0,1.46,0,2.91,0,4.37A2.13,2.13,0,0,0,38,33.33a3.4,3.4,0,0,0,1.35.17,2.22,2.22,0,0,0,2.15-2.31c0-1.23,0-2.45,0-3.68,0-.34,0-.67,0-1H63c0,.11,0,.22,0,.34v4.31a2.24,2.24,0,0,0,1.73,2.28,4.2,4.2,0,0,0,1.12.06,2.23,2.23,0,0,0,2.06-2.22c0-.53,0-1.06,0-1.58,0-1.07,0-2.13,0-3.19ZM61.38,72v-.32c0-2.62-.05-5.24,0-7.86a3.68,3.68,0,0,1,1.54-3.24,4,4,0,0,1,2.4-.65c2.73,0,5.45,0,8.17,0,.25,0,.35,0,.35-.33V35.7c0-.25-.06-.33-.32-.32H30.67c-.38,0-.38,0-.38.37,0,2.43,0,4.87,0,7.31V62.43q0,3.74,0,7.45A2,2,0,0,0,32,72a4.57,4.57,0,0,0,.83.06H61.38Z"/><path class="cls-1" d="M36.62,26.52c0-1.39,0-2.78,0-4.17A2.25,2.25,0,0,1,39,20a3.2,3.2,0,0,1,.93.11,2.19,2.19,0,0,1,1.61,2.14c0,1.31,0,2.61,0,3.91,0,.12,0,.23,0,.35h0l-2,0-3,0Z"/><path class="cls-1" d="M63,26.52c0-1.08,0-2.15,0-3.22,0-.35,0-.69,0-1A2.25,2.25,0,0,1,65.34,20a3.91,3.91,0,0,1,1.08.15,2.18,2.18,0,0,1,1.49,2.1c0,1.42,0,2.84,0,4.26h0l-2.86,0-2.1,0Z"/><path class="cls-1" d="M53,49.59H60.3c.27,0,.33.08.33.34q0,3.51,0,7c0,.25-.05.35-.33.35h-7c-.24,0-.33,0-.33-.31q0-3.54,0-7.08C52.93,49.82,52.94,49.72,53,49.59Z"/><path class="cls-1" d="M34,59.39h7.32c.25,0,.33.06.33.32q0,3.56,0,7.11c0,.21-.07.27-.28.27H34.22c-.16,0-.26,0-.26-.23,0-2.44,0-4.87,0-7.31C34,59.51,34,59.48,34,59.39Z"/><path class="cls-1" d="M62.32,48.06v-.34c0-2.34,0-4.68,0-7,0-.26.08-.32.32-.32h7c.37,0,.37,0,.37.38q0,3.51,0,7c0,.18,0,.3-.26.3H62.57Z"/><path class="cls-1" d="M41.84,57.6H34.53c-.28,0-.38-.05-.37-.35q0-3.51,0-7c0-.26.08-.33.33-.32q3.52,0,7.07,0c.22,0,.3.06.3.29,0,2.37,0,4.74,0,7.11C41.86,57.39,41.85,57.47,41.84,57.6Z"/><path class="cls-1" d="M52.92,47.85v-.39c0-2.31,0-4.62,0-6.93,0-.26.06-.35.33-.35h7c.25,0,.33,0,.33.32q0,3.54,0,7.07c0,.19,0,.31-.26.31l-7.25,0Z"/><path class="cls-1" d="M51.23,40.31v1.6c0,1.92,0,3.84,0,5.75,0,.26-.07.33-.32.33q-3.53,0-7.05,0c-.27,0-.32-.1-.31-.34q0-3.54,0-7.08c0-.23.08-.29.3-.29H51Z"/><path class="cls-1" d="M34.19,40.49h7.32c.27,0,.36.07.35.35q0,3.49,0,7c0,.27-.06.36-.34.36h-7c-.23,0-.34,0-.34-.3,0-2.37,0-4.74,0-7.11C34.17,40.69,34.18,40.61,34.19,40.49Z"/><path class="cls-1" d="M51.21,49.72v7.67H43.92c-.28,0-.37-.07-.37-.37,0-2.35,0-4.69,0-7,0-.2,0-.3.26-.3H51Z"/><path class="cls-1" d="M51,66.87H43.59c-.18,0-.25,0-.25-.25q0-3.59,0-7.19c0-.2.08-.25.27-.25h7.17c.17,0,.26,0,.26.23,0,2.43,0,4.86,0,7.28C51,66.75,51,66.79,51,66.87Z"/><path class="cls-1" d="M70,57.47H62.35V49.81h7.39c.18,0,.28,0,.27.24v7.2C70,57.31,70,57.38,70,57.47Z"/></svg>