<svg id="Layer_1" data-name="Layer 1" xmlns="http://www.w3.org/2000/svg" viewBox="0 0 100 100"><defs><style>.cls-1{fill:#825295;}</style></defs><title>Icons</title><path class="cls-1" d="M58.88,74a23.08,23.08,0,0,1-8.82-2.65,50.79,50.79,0,0,1-22.9-22.46,27,27,0,0,1-3.06-9c-.36-2.71.06-5.15,2.22-7.1,1.07-.95,2-2,3.05-3.05,2-2,3.92-2,5.88,0s3.64,3.62,5.44,5.44c2.1,2.12,2.08,4,0,6.07-1,1-2,2-3.08,3a1.26,1.26,0,0,0-.3,1.65,27.34,27.34,0,0,0,5,7.19,31.33,31.33,0,0,0,9.6,7.54,1.25,1.25,0,0,0,1.71-.31c1-1.11,2.16-2.17,3.27-3.23,2-1.87,3.82-1.86,5.74,0s3.74,3.7,5.58,5.58c2,2,2,3.91,0,6-1,1-2.09,2.07-3.09,3.15C63.65,73.35,61.86,74,58.88,74Z"/><path class="cls-1" d="M50.81,22.2a25,25,0,0,1,16.86,7A25.62,25.62,0,0,1,76,47.64a2.54,2.54,0,0,1-3.54,2.66,2.6,2.6,0,0,1-1.7-2.74,20.54,20.54,0,0,0-6.24-14.23,20,20,0,0,0-12.85-5.87c-.53-.05-1.06-.09-1.59-.15a2.51,2.51,0,0,1-2.43-2.77c.11-1.55,1.08-2.37,2.77-2.34Z"/><path class="cls-1" d="M66.3,47.7a2.66,2.66,0,0,1-1.41,2.84A2.43,2.43,0,0,1,62,50.05a4.8,4.8,0,0,1-.89-2.37,11,11,0,0,0-8.8-10.34,16.47,16.47,0,0,0-2.33-.28,2.53,2.53,0,0,1-2.63-2.56,2.6,2.6,0,0,1,2.85-2.68A16.45,16.45,0,0,1,66,45.1C66.15,46,66.19,46.84,66.3,47.7Z"/></svg>