<svg xmlns="http://www.w3.org/2000/svg" width="37.932" height="37.935" viewBox="0 0 37.932 37.935">
  <g id="chat" transform="translate(-863.841 -2013.608)">
    <path id="Path_585" data-name="Path 585" d="M312.97,2040.384a2.61,2.61,0,0,0-3.685,0l-1.548,1.547a19.69,19.69,0,0,1-8.284-8.286L301,2032.1a2.607,2.607,0,0,0,0-3.684l-3.521-3.52a2.607,2.607,0,0,0-3.684,0l-2.817,2.816c-1.471,1.472-1.517,4.065-.128,7.305a33.824,33.824,0,0,0,15.519,15.52,10.926,10.926,0,0,0,4.2,1.008,4.233,4.233,0,0,0,3.106-1.139l2.816-2.815a2.606,2.606,0,0,0,0-3.685Zm1.948,5.633-2.816,2.816c-.763.763-2.58.635-4.857-.341a31.675,31.675,0,0,1-14.352-14.353c-.977-2.279-1.105-4.094-.342-4.856l2.816-2.817a.38.38,0,0,1,.54,0l3.521,3.52a.382.382,0,0,1,0,.54l-2.666,2.666.335.708a21.9,21.9,0,0,0,10.385,10.387l.708.335,2.666-2.667a.382.382,0,0,1,.271-.111.376.376,0,0,1,.269.111l3.522,3.522a.373.373,0,0,1,.111.269.377.377,0,0,1-.111.271" transform="translate(574)" fill="#f7931e"/>
    <path id="Path_586" data-name="Path 586" d="M324.349,2016.481a12.741,12.741,0,0,0-16.119,0,9.137,9.137,0,0,0,0,14.263,11.529,11.529,0,0,0,1.256.932,18.928,18.928,0,0,1-2.829,3.349,18.734,18.734,0,0,0,6.55-1.772,13.151,13.151,0,0,0,3.083.362,12.358,12.358,0,0,0,8.059-2.871,9.139,9.139,0,0,0,0-14.263m-8.059,14.912c-5.107,0-9.263-3.491-9.263-7.782s4.156-7.78,9.263-7.78,9.262,3.49,9.262,7.78-4.157,7.782-9.262,7.782" transform="translate(574)" fill="#f7931e"/>
    <path id="Path_587" data-name="Path 587" d="M316.29,2022.13a1.482,1.482,0,1,1-1.482,1.481,1.481,1.481,0,0,1,1.482-1.481" transform="translate(574)" fill="#f7931e"/>
    <path id="Path_588" data-name="Path 588" d="M311.1,2022.13a1.482,1.482,0,1,1-1.482,1.481,1.48,1.48,0,0,1,1.482-1.481" transform="translate(574)" fill="#f7931e"/>
    <path id="Path_589" data-name="Path 589" d="M321.477,2022.13a1.482,1.482,0,1,1-1.482,1.481,1.482,1.482,0,0,1,1.482-1.481" transform="translate(574)" fill="#f7931e"/>
  </g>
</svg>
