<svg id="Layer_1" data-name="Layer 1" xmlns="http://www.w3.org/2000/svg" viewBox="0 0 16.53 13"><defs><style>.cls-1{fill:#231f20;}</style></defs><path class="cls-1" d="M15.76,12.5H.76V.5h15ZM1.58,11.68H15V1.32H1.58Z"/><path class="cls-1" d="M1.36,12.35a.4.4,0,0,1-.29-.12.41.41,0,0,1,0-.58L6.51,6.21a.41.41,0,0,1,.58.58L1.65,12.23A.42.42,0,0,1,1.36,12.35Z"/><path class="cls-1" d="M15.35,12.35a.39.39,0,0,1-.28-.12L9.63,6.79a.41.41,0,0,1,.58-.58l5.43,5.44a.41.41,0,0,1,0,.58A.4.4,0,0,1,15.35,12.35Z"/><path class="cls-1" d="M8.18,7.71a.43.43,0,0,1-.24-.08l-5.47-4a.41.41,0,0,1-.09-.57A.42.42,0,0,1,3,3L8.42,7a.4.4,0,0,1,.09.57A.4.4,0,0,1,8.18,7.71Z"/><path class="cls-1" d="M8.24,7.78a.39.39,0,0,1-.33-.18A.4.4,0,0,1,8,7l5.56-3.85a.41.41,0,0,1,.57.1.4.4,0,0,1-.1.57L8.48,7.7A.41.41,0,0,1,8.24,7.78Z"/></svg>