<svg id="Layer_1" data-name="Layer 1" xmlns="http://www.w3.org/2000/svg" viewBox="0 0 100 100"><defs><style>.cls-1{fill:#009b91;}.cls-2{fill:#231f20;opacity:0.4;}.cls-3{fill:#fff;}</style></defs><title>Icons</title><rect class="cls-1" y="0.2" width="99.8" height="99.8"/><rect class="cls-2" width="99.8" height="99.8"/><path class="cls-3" d="M88.28,68.09A8.94,8.94,0,0,1,83,75.48a26.26,26.26,0,0,1-3.66,1c0,1.34,0,2.81,0,4.27a10.55,10.55,0,0,1-.09,1.49,2.19,2.19,0,0,1-3.47,1.51c-3.39-2.33-6.74-4.71-10.13-7a2.42,2.42,0,0,0-1.29-.4c-5.49,0-11,0-16.48,0a8.93,8.93,0,0,1-8.77-6.39,24,24,0,0,1-.47-4.58c-.06-.82,0-1.64,0-2.51a3.07,3.07,0,0,0-2.19.25c-4,2.35-8,4.63-12,7-2,1.23-4,.08-3.9-2.23.06-1.67,0-3.34,0-5-5.05-.55-8.14-3.2-9-8.27V27c.05-.29.09-.58.15-.87a9,9,0,0,1,8.63-7.37q21.66,0,43.32,0a9,9,0,0,1,8.85,8.93c0,4.3,0,8.59,0,12.89,0,.22,0,.44,0,.74h6.77a8.91,8.91,0,0,1,4.56,1.25,9.18,9.18,0,0,1,4.44,6.91ZM25.08,64.4c.28-.13.44-.19.58-.27,2.76-1.61,5.53-3.18,8.26-4.84a6.87,6.87,0,0,1,3.72-1c8.52,0,17,0,25.56,0A4.56,4.56,0,0,0,68,53.52V28a4.56,4.56,0,0,0-4.81-4.78q-9.58,0-19.19,0-11.61,0-23.23,0A4.53,4.53,0,0,0,16,27.75q0,13,0,26a4.43,4.43,0,0,0,4,4.44,19.52,19.52,0,0,0,2.17.06c2.06,0,2.85.8,2.84,2.85ZM74.67,77.56c0-.38,0-.62,0-.86,0-.82,0-1.65,0-2.47a2.25,2.25,0,0,1,2.21-2.43c.74-.07,1.5,0,2.25,0a4.46,4.46,0,0,0,4.59-4.43q.06-8.51,0-17a4.37,4.37,0,0,0-4-4.42c-1.86-.14-3.74-.06-5.61-.08H72.46v8.09a9,9,0,0,1-8.76,8.85q-9.86,0-19.71,0h-.84v4.37a4.4,4.4,0,0,0,4.59,4.63H65.12a3.48,3.48,0,0,1,2.24.68c1,.75,2,1.44,3.06,2.15Z"/></svg>