<svg xmlns="http://www.w3.org/2000/svg" width="47.601" height="47.631" viewBox="0 0 47.601 47.631">
  <g id="happyuser" transform="translate(-599.201 -2455.603)">
    <path id="Path_587" data-name="Path 587" d="M86.649,2482.11A21.649,21.649,0,1,1,65,2460.463a21.648,21.648,0,0,1,21.647,21.647" transform="translate(558 -3)" fill="#58c6df"/>
    <path id="Path_588" data-name="Path 588" d="M42.339,2474.861a23.652,23.652,0,0,0,.044,14.634,25.14,25.14,0,0,0,7.57,11.035,23.513,23.513,0,0,0,38.18-23.433,24.805,24.805,0,0,0-19.954-18.24,23.72,23.72,0,0,0-24.422,12.572,24.208,24.208,0,0,0-1.418,3.432c-.043.13.645.495.6.613a23.506,23.506,0,0,1,34.833-12.685,22.077,22.077,0,0,1,8.881,10.928,23.508,23.508,0,0,1-32.78,29.264,21.312,21.312,0,0,1-6.024-4.506,23.541,23.541,0,0,1-5.75-19.546,24.3,24.3,0,0,1,.84-3.455c.042-.132-.644-.492-.6-.613" transform="translate(558 -3)" fill="#58c6df"/>
    <path id="Path_593" data-name="Path 593" d="M64.838,2480.4a6.577,6.577,0,1,1,4.648-1.927,6.362,6.362,0,0,1-4.648,1.927m0-12.413a5.838,5.838,0,1,0,4.128,1.709,5.657,5.657,0,0,0-4.128-1.709" transform="translate(558 -3)" fill="#fff"/>
    <path id="Path_594" data-name="Path 594" d="M64.838,2480.4a6.577,6.577,0,1,1,4.648-1.927A6.362,6.362,0,0,1,64.838,2480.4Zm0-12.413a5.838,5.838,0,1,0,4.128,1.709A5.657,5.657,0,0,0,64.838,2467.982Z" transform="translate(558 -3)" fill="none" stroke="#fff" stroke-miterlimit="10" stroke-width="0.25"/>
    <path id="Path_595" data-name="Path 595" d="M71.2,2494.8H58.8a4.934,4.934,0,0,1-3.528-1.3,4.635,4.635,0,0,1-1.385-3.5c0-.524.017-1.044.052-1.546a15.628,15.628,0,0,1,.214-1.67,12.99,12.99,0,0,1,.412-1.683,8.4,8.4,0,0,1,.7-1.6,6.075,6.075,0,0,1,1.079-1.406,4.84,4.84,0,0,1,1.577-.993,5.4,5.4,0,0,1,2-.364,2.231,2.231,0,0,1,1.209.489c.307.2.66.427,1.05.676a5.619,5.619,0,0,0,1.272.558,4.914,4.914,0,0,0,3.1,0,5.64,5.64,0,0,0,1.275-.559c.394-.252.746-.479,1.048-.675a2.225,2.225,0,0,1,1.21-.488,5.383,5.383,0,0,1,2,.363,4.848,4.848,0,0,1,1.578.992,6.11,6.11,0,0,1,1.079,1.406,8.483,8.483,0,0,1,.705,1.6,13,13,0,0,1,.412,1.684,16,16,0,0,1,.213,1.667c.036.5.053,1.018.053,1.548a4.633,4.633,0,0,1-1.385,3.5,4.932,4.932,0,0,1-3.528,1.3m-11.286-13.321a4.671,4.671,0,0,0-1.726.312,4.115,4.115,0,0,0-1.338.84,5.433,5.433,0,0,0-.949,1.237,7.784,7.784,0,0,0-.641,1.457,12.107,12.107,0,0,0-.389,1.591,14.572,14.572,0,0,0-.2,1.589c-.034.484-.051.987-.051,1.5a3.929,3.929,0,0,0,1.156,2.971,4.228,4.228,0,0,0,3.021,1.093H71.2a4.228,4.228,0,0,0,3.021-1.093A3.928,3.928,0,0,0,75.381,2490c0-.513-.017-1.017-.051-1.5a14.778,14.778,0,0,0-.2-1.588,12.463,12.463,0,0,0-.389-1.59,7.792,7.792,0,0,0-.642-1.458,5.46,5.46,0,0,0-.949-1.238,4.124,4.124,0,0,0-1.339-.839,4.651,4.651,0,0,0-1.725-.311c-.154,0-.335.061-.809.368-.3.2-.657.426-1.052.678a6.317,6.317,0,0,1-1.446.64,5.671,5.671,0,0,1-3.552,0,6.329,6.329,0,0,1-1.443-.639c-.391-.251-.746-.479-1.053-.679-.475-.308-.656-.369-.809-.369" transform="translate(558 -3)" fill="#fff"/>
    <path id="Path_596" data-name="Path 596" d="M71.2,2494.8H58.8a4.934,4.934,0,0,1-3.528-1.3,4.635,4.635,0,0,1-1.385-3.5c0-.524.017-1.044.052-1.546a15.628,15.628,0,0,1,.214-1.67,12.99,12.99,0,0,1,.412-1.683,8.4,8.4,0,0,1,.7-1.6,6.075,6.075,0,0,1,1.079-1.406,4.84,4.84,0,0,1,1.577-.993,5.4,5.4,0,0,1,2-.364,2.231,2.231,0,0,1,1.209.489c.307.2.66.427,1.05.676a5.619,5.619,0,0,0,1.272.558,4.914,4.914,0,0,0,3.1,0,5.64,5.64,0,0,0,1.275-.559c.394-.252.746-.479,1.048-.675a2.225,2.225,0,0,1,1.21-.488,5.383,5.383,0,0,1,2,.363,4.848,4.848,0,0,1,1.578.992,6.11,6.11,0,0,1,1.079,1.406,8.483,8.483,0,0,1,.705,1.6,13,13,0,0,1,.412,1.684,16,16,0,0,1,.213,1.667c.036.5.053,1.018.053,1.548a4.633,4.633,0,0,1-1.385,3.5A4.932,4.932,0,0,1,71.2,2494.8Zm-11.286-13.321a4.671,4.671,0,0,0-1.726.312,4.115,4.115,0,0,0-1.338.84,5.433,5.433,0,0,0-.949,1.237,7.784,7.784,0,0,0-.641,1.457,12.107,12.107,0,0,0-.389,1.591,14.572,14.572,0,0,0-.2,1.589c-.034.484-.051.987-.051,1.5a3.929,3.929,0,0,0,1.156,2.971,4.228,4.228,0,0,0,3.021,1.093H71.2a4.228,4.228,0,0,0,3.021-1.093A3.928,3.928,0,0,0,75.381,2490c0-.513-.017-1.017-.051-1.5a14.778,14.778,0,0,0-.2-1.588,12.463,12.463,0,0,0-.389-1.59,7.792,7.792,0,0,0-.642-1.458,5.46,5.46,0,0,0-.949-1.238,4.124,4.124,0,0,0-1.339-.839,4.651,4.651,0,0,0-1.725-.311c-.154,0-.335.061-.809.368-.3.2-.657.426-1.052.678a6.317,6.317,0,0,1-1.446.64,5.671,5.671,0,0,1-3.552,0,6.329,6.329,0,0,1-1.443-.639c-.391-.251-.746-.479-1.053-.679C60.252,2481.539,60.071,2481.478,59.918,2481.478Z" transform="translate(558 -3)" fill="none" stroke="#fff" stroke-miterlimit="10" stroke-width="0.25"/>
  </g>
</svg>
