<svg xmlns="http://www.w3.org/2000/svg" xmlns:xlink="http://www.w3.org/1999/xlink" width="20" height="20" viewBox="0 0 20 20">
  <defs>
    <clipPath id="clip-icon-prev">
      <rect width="20" height="20"/>
    </clipPath>
  </defs>
  <g id="icon-prev" clip-path="url(#clip-icon-prev)">
    <rect width="20" height="20" fill="#fff"/>
    <g id="Group_405" data-name="Group 405" transform="translate(-16.899 -2069.502)">
      <g id="Group_404" data-name="Group 404" transform="translate(20.899 2073.502)">
        <g id="Group_401" data-name="Group 401" transform="translate(0.909 0.368)">
          <g id="Group_400" data-name="Group 400">
            <path id="Path_2324" data-name="Path 2324" d="M30.522,2084.4c-2.444-2.018-5.327-3.479-7.576-5.726-.285.348-.569.7-.852,1.044,3.689-.651,5.944-4.007,9.566-4.646.552-.1,1.362-1.315.477-1.16-3.689.651-5.942,4.007-9.564,4.645-.293.051-1.26.639-.852,1.044,2.254,2.251,5.128,3.706,7.576,5.726.494.408,1.661-.568,1.226-.928Z" transform="translate(-21.176 -2073.526)" fill="#404041"/>
            <path id="Path_2325" data-name="Path 2325" d="M32.475,2073.7a.576.576,0,0,1,.622.465c.1.557-.623,1.352-1.17,1.449a11.979,11.979,0,0,0-4.582,2.242,20.942,20.942,0,0,1-2.836,1.709c1.033.867,2.159,1.635,3.259,2.384,1.071.73,2.178,1.485,3.2,2.329a.626.626,0,0,1,.22.609,1.541,1.541,0,0,1-.977,1,.933.933,0,0,1-.951-.106c-.995-.821-2.087-1.565-3.142-2.285a32.572,32.572,0,0,1-4.146-3.166l-.585.1.3-.376-.019-.019a.672.672,0,0,1-.174-.7,1.882,1.882,0,0,1,1.228-.977,11.986,11.986,0,0,0,4.582-2.244,12.941,12.941,0,0,1,4.967-2.4A1.108,1.108,0,0,1,32.475,2073.7Zm-3.831,2.423a9.385,9.385,0,0,1,3.15-1.244,1.036,1.036,0,0,0,.461-.395A10.259,10.259,0,0,0,28.644,2076.121Zm-4.755,2.9a13.734,13.734,0,0,0,2.111-1.17,10.506,10.506,0,0,1-2.263,1.03Zm6.537,5.78c-.979-.8-2.05-1.533-3.087-2.238a37.726,37.726,0,0,1-3.609-2.679,8.252,8.252,0,0,1-.874.266,40.252,40.252,0,0,0,3.685,2.726c1.071.73,2.176,1.483,3.2,2.327.017.016.092.023.212-.022A.983.983,0,0,0,30.427,2084.8Z" transform="translate(-21.384 -2073.698)" fill="#404041"/>
          </g>
        </g>
        <g id="Group_403" data-name="Group 403">
          <g id="Group_402" data-name="Group 402">
            <path id="Path_2326" data-name="Path 2326" d="M32.475,2073.7a.574.574,0,0,1,.622.463c.1.558-.622,1.352-1.17,1.449a11.972,11.972,0,0,0-4.582,2.242,20.938,20.938,0,0,1-2.836,1.709c1.033.867,2.159,1.635,3.259,2.385,1.071.73,2.178,1.485,3.2,2.329a.731.731,0,0,1-.025,1.093c-.373.444-1.167.833-1.681.409-1-.823-2.087-1.567-3.142-2.288a32.409,32.409,0,0,1-4.148-3.166l-.585.1.306-.375-.021-.02a.676.676,0,0,1-.174-.7,1.883,1.883,0,0,1,1.226-.977,11.973,11.973,0,0,0,4.584-2.244,12.9,12.9,0,0,1,4.967-2.4A.975.975,0,0,1,32.475,2073.7Zm-3.831,2.423a9.394,9.394,0,0,1,3.15-1.246,1.036,1.036,0,0,0,.461-.395A10.229,10.229,0,0,0,28.644,2076.122Zm-4.755,2.9A13.785,13.785,0,0,0,26,2077.85a10.4,10.4,0,0,1-2.264,1.031C23.788,2078.929,23.84,2078.974,23.889,2079.021Zm6.537,5.78c-.979-.8-2.05-1.533-3.087-2.238a38.047,38.047,0,0,1-3.609-2.678,8.308,8.308,0,0,1-.874.266,39.982,39.982,0,0,0,3.685,2.726c1.071.73,2.176,1.483,3.2,2.327.017.013.09.023.212-.023A.983.983,0,0,0,30.427,2084.8Z" transform="translate(-20.475 -2073.33)" fill="#404041"/>
            <path id="Path_2327" data-name="Path 2327" d="M32.894,2073.5a.954.954,0,0,1,.991.771,1.948,1.948,0,0,1-1.472,1.878,11.664,11.664,0,0,0-4.428,2.184,25.569,25.569,0,0,1-2.359,1.475c.9.711,1.851,1.365,2.779,2,1.078.735,2.189,1.494,3.224,2.35a.994.994,0,0,1,.363.725,1.279,1.279,0,0,1-.34.892,1.64,1.64,0,0,1-2.207.457c-.987-.817-2.065-1.553-3.109-2.263a34.215,34.215,0,0,1-4.047-3.073l-1.39.242.756-.927a1.032,1.032,0,0,1-.076-.817,2.224,2.224,0,0,1,1.516-1.231,11.659,11.659,0,0,0,4.425-2.181,13.2,13.2,0,0,1,5.106-2.457A1.359,1.359,0,0,1,32.894,2073.5Zm-.433.817.139-.029.052-.009C32.588,2074.292,32.523,2074.306,32.46,2074.319Zm-3.2,2.3-.4-.631c-.309.2-.613.407-.914.612-.575.389-1.134.77-1.706,1.107l.4.631c.311-.2.617-.409.92-.614C28.131,2077.331,28.689,2076.954,29.261,2076.615Zm-5.014,3.016-.8-.745.494-.15a7.283,7.283,0,0,1-.716.163,1.559,1.559,0,0,0-.931.722.3.3,0,0,0,.082.32l.178.178.651-.159a7.327,7.327,0,0,0,.832-.254Zm.011.011.338-.159c-.042.019-.082.036-.122.055l-.225.1Zm6.127,4.487c-.786-.6-1.605-1.158-2.4-1.7-1.1-.752-2.239-1.53-3.285-2.407l-.086-.074a39.334,39.334,0,0,0,3.371,2.481C28.782,2082.973,29.6,2083.532,30.386,2084.129Zm-5.913-3.327c-.13-.1-.26-.213-.387-.32l-.013,0C24.2,2080.593,24.337,2080.7,24.472,2080.8Zm2.384,2.618-.09-.062-.263-.178.248.169Z" transform="translate(-20.899 -2073.502)" fill="#404041"/>
          </g>
        </g>
      </g>
    </g>
  </g>
</svg>
