<svg xmlns="http://www.w3.org/2000/svg" width="38" height="25" viewBox="0 0 38 25">
  <g id="Group_413" data-name="Group 413" transform="translate(-34.619 -2.867)">
    <g id="Group_411" data-name="Group 411" transform="translate(34.619 2.867)">
      <path id="Path_2332" data-name="Path 2332" d="M169.47,2034.867h-.83a11.59,11.59,0,0,1-1.29-.174,8.248,8.248,0,0,1-6.46-6.268c-.112-.427-.182-.865-.271-1.3v-1.849a1.366,1.366,0,0,0,.074-.252,19.458,19.458,0,0,1,.816-4.011,14.741,14.741,0,0,1,7.443-8.894,21.026,21.026,0,0,1,5.852-1.995c.435-.084.87-.173,1.3-.26h.83c.034.029.066.061.1.086a.775.775,0,0,1,0,1.372c-.219.146-.452.272-.683.4a22.124,22.124,0,0,0-4.613,3.1,10.03,10.03,0,0,0-2.331,2.856c-.2.41-.18.468.268.5a8.058,8.058,0,0,1,3.249.953,8.258,8.258,0,0,1,3.779,10.752,8.129,8.129,0,0,1-5.754,4.739C170.47,2034.748,169.966,2034.791,169.47,2034.867Z" transform="translate(-160.619 -2009.867)" fill="#25a9e0"/>
    </g>
    <g id="Group_412" data-name="Group 412" transform="translate(55.782 2.867)">
      <path id="Path_2333" data-name="Path 2333" d="M190.417,2034.867h-.83a1.175,1.175,0,0,0-.228-.055,7.718,7.718,0,0,1-4.111-1.427,8.066,8.066,0,0,1-3.6-6.216,16,16,0,0,1,1.032-6.843,14.517,14.517,0,0,1,3.924-5.912,18.292,18.292,0,0,1,8.669-4.2c.569-.123,1.141-.23,1.711-.345h.761a1.14,1.14,0,0,1,.691.616v.343a7.7,7.7,0,0,1-.88.739c-.876.545-1.793,1.026-2.662,1.581a13.457,13.457,0,0,0-3.981,3.636,8.377,8.377,0,0,0-.59,1.076c-.1.193-.025.319.222.334.263.015.523.062.784.1a8.475,8.475,0,0,1,6.98,7.046c.034.255.084.51.127.765v.685c-.056.4-.088.81-.171,1.208a8.26,8.26,0,0,1-5.9,6.517A13.99,13.99,0,0,1,190.417,2034.867Z" transform="translate(-181.601 -2009.867)" fill="#25a9e0"/>
    </g>
  </g>
</svg>
