<svg id="Layer_1" data-name="Layer 1" xmlns="http://www.w3.org/2000/svg" xmlns:xlink="http://www.w3.org/1999/xlink" viewBox="0 0 50 50"><defs><style>.cls-1{fill:url(#linear-gradient);}.cls-2{fill:url(#linear-gradient-2);}.cls-3{fill:url(#linear-gradient-3);}.cls-4{fill:url(#linear-gradient-4);}.cls-5{fill:url(#linear-gradient-5);}.cls-6{fill:url(#linear-gradient-6);}.cls-7{fill:url(#linear-gradient-7);}</style><linearGradient id="linear-gradient" x1="-7.67" y1="-4.84" x2="50.83" y2="57.9" gradientUnits="userSpaceOnUse"><stop offset="0" stop-color="#00aeef"/><stop offset="0.51" stop-color="#bf73ed"/><stop offset="1" stop-color="#ea577d"/></linearGradient><linearGradient id="linear-gradient-2" x1="-2.49" y1="-9.68" x2="56.01" y2="53.06" xlink:href="#linear-gradient"/><linearGradient id="linear-gradient-3" x1="-5.08" y1="-7.27" x2="53.42" y2="55.48" xlink:href="#linear-gradient"/><linearGradient id="linear-gradient-4" x1="-5.08" y1="-7.26" x2="53.42" y2="55.48" xlink:href="#linear-gradient"/><linearGradient id="linear-gradient-5" x1="-5.08" y1="-7.26" x2="53.42" y2="55.48" xlink:href="#linear-gradient"/><linearGradient id="linear-gradient-6" x1="4.68" y1="-16.36" x2="63.18" y2="46.38" xlink:href="#linear-gradient"/><linearGradient id="linear-gradient-7" x1="-14.84" y1="1.83" x2="43.66" y2="64.58" xlink:href="#linear-gradient"/></defs><title>Icons</title><path class="cls-1" d="M36.48,41.56a1,1,0,1,0,1,.95A1,1,0,0,0,36.48,41.56Z"/><path class="cls-2" d="M13.52,6.53a1,1,0,1,0,1,1A1,1,0,0,0,13.52,6.53Z"/><path class="cls-3" d="M44.14,41.84a7.75,7.75,0,0,0-1,.07V8.09a7.75,7.75,0,0,0,1,.07,1,1,0,0,0,1-1V1.46a1,1,0,0,0-1-1H38.4a1,1,0,0,0-1,1,7.45,7.45,0,0,0,.07,1h-25a7.45,7.45,0,0,0,.07-1,1,1,0,0,0-1-1H5.86a1,1,0,0,0-1,1V7.2a1,1,0,0,0,1,1,7.75,7.75,0,0,0,1-.07V41.91a7.75,7.75,0,0,0-1-.07,1,1,0,0,0-1,1v5.74a1,1,0,0,0,1,1H11.6a1,1,0,0,0,1-1,7.45,7.45,0,0,0-.07-.95h25a7.45,7.45,0,0,0-.07.95,1,1,0,0,0,1,1h5.74a1,1,0,0,0,1-1V42.8A1,1,0,0,0,44.14,41.84Zm-1-39.43V6.15A6.52,6.52,0,0,1,42.55,6a4.72,4.72,0,0,1-1.72-1.06L39.59,3c-.05-.18-.1-.36-.14-.55Zm-36.36,0h3.73a4.67,4.67,0,0,1-.18.64A4.83,4.83,0,0,1,7.45,6a6.52,6.52,0,0,1-.63.18V2.41Zm0,45.18V43.85a6.52,6.52,0,0,1,.63.18,4.72,4.72,0,0,1,1.72,1.06L10.41,47c.05.18.1.36.14.55Zm31.27-1.92H11.8L10.73,44a1,1,0,0,0-.13-.16,6.82,6.82,0,0,0-1.87-1.32v-35a6.64,6.64,0,0,0,3.18-3.18H38.2L39.27,6a1,1,0,0,0,.13.16,6.82,6.82,0,0,0,1.87,1.32V42.6l-1.7,1.07a.75.75,0,0,0-.17.14A6.73,6.73,0,0,0,38.09,45.67Zm5.09,1.92H39.45a4.67,4.67,0,0,1,.18-.64,4.72,4.72,0,0,1,1.06-1.72l2-1.23a5.44,5.44,0,0,1,.54-.15Z"/><path class="cls-4" d="M39.12,21.5A1,1,0,0,0,38,21.27a9.3,9.3,0,0,1-4.84,1c-.09-.26-.2-.51-.31-.77a11.67,11.67,0,0,0,.79-7l-.23-1.14a1,1,0,0,0-1.84-.12,9.35,9.35,0,0,1-2.75,4.11c-.25-.12-.5-.23-.76-.33a11.7,11.7,0,0,0-4.41-5.52l-1-.64a1,1,0,0,0-1.16.07A1,1,0,0,0,21.27,12a9.3,9.3,0,0,1,1,4.84c-.26.09-.51.2-.77.31a11.69,11.69,0,0,0-7-.79l-1.13.23a1,1,0,0,0-.12,1.84,9.33,9.33,0,0,1,2.49,1.28,9.44,9.44,0,0,1,1.62,1.47c-.12.25-.23.5-.33.76a11.7,11.7,0,0,0-5.52,4.41l-.64,1a1,1,0,0,0,.07,1.16,1,1,0,0,0,1.15.23,9.3,9.3,0,0,1,4.84-1c.09.26.2.51.31.77a11.67,11.67,0,0,0-.79,7l.23,1.14a1,1,0,0,0,1.84.12,9.44,9.44,0,0,1,2.75-4.11c.25.12.5.23.76.33a11.7,11.7,0,0,0,4.41,5.52l1,.64A1,1,0,0,0,28.73,38a9.3,9.3,0,0,1-1-4.84c.26-.09.51-.2.77-.31a11.69,11.69,0,0,0,7,.79l1.13-.23a1,1,0,0,0,.12-1.84,9.33,9.33,0,0,1-2.49-1.28,9.44,9.44,0,0,1-1.62-1.47c.12-.25.23-.5.33-.76a11.7,11.7,0,0,0,5.52-4.41l.64-1A1,1,0,0,0,39.12,21.5ZM32,26.38a1,1,0,0,0-.6.62,6.92,6.92,0,0,1-.62,1.41.94.94,0,0,0,.06,1.06,11.09,11.09,0,0,0,2.4,2.34l.14.11a9.92,9.92,0,0,1-4.39-1,1,1,0,0,0-.87,0,6.83,6.83,0,0,1-1.43.56,1,1,0,0,0-.72.8A11.22,11.22,0,0,0,26,35.79,9.86,9.86,0,0,1,23.62,32a1,1,0,0,0-.62-.6,6.92,6.92,0,0,1-1.41-.62.92.92,0,0,0-1.06.06,11.13,11.13,0,0,0-2.45,2.54,9.89,9.89,0,0,1,1-4.39,1,1,0,0,0,0-.87,6.33,6.33,0,0,1-.56-1.43,1,1,0,0,0-.8-.72,11.22,11.22,0,0,0-3.52.08A9.86,9.86,0,0,1,18,23.62a1,1,0,0,0,.6-.62,6.92,6.92,0,0,1,.62-1.41.94.94,0,0,0-.06-1.06,11.09,11.09,0,0,0-2.4-2.34l-.14-.11a9.89,9.89,0,0,1,4.39,1,1,1,0,0,0,.87,0,6.83,6.83,0,0,1,1.43-.56,1,1,0,0,0,.72-.8A11.22,11.22,0,0,0,24,14.21,9.86,9.86,0,0,1,26.38,18a1,1,0,0,0,.62.6,6.92,6.92,0,0,1,1.41.62.94.94,0,0,0,1.06-.06,11.13,11.13,0,0,0,2.45-2.54,9.92,9.92,0,0,1-1,4.39,1,1,0,0,0,0,.87,6.33,6.33,0,0,1,.56,1.43,1,1,0,0,0,.8.72A11.22,11.22,0,0,0,35.79,24,9.86,9.86,0,0,1,32,26.38Z"/><path class="cls-5" d="M25,20.21A4.79,4.79,0,1,0,29.79,25,4.8,4.8,0,0,0,25,20.21Zm0,7.66A2.87,2.87,0,1,1,27.87,25,2.88,2.88,0,0,1,25,27.87Z"/><path class="cls-6" d="M36.48,6.53H17.34a1,1,0,0,0,0,1.91H36.48a1,1,0,1,0,0-1.91Z"/><path class="cls-7" d="M32.66,41.56H13.52a1,1,0,1,0,0,1.91H32.66a1,1,0,0,0,0-1.91Z"/></svg>