<svg xmlns="http://www.w3.org/2000/svg" xmlns:xlink="http://www.w3.org/1999/xlink" width="20" height="20" viewBox="0 0 20 20">
  <defs>
    <clipPath id="clip-icon-next">
      <rect width="20" height="20"/>
    </clipPath>
  </defs>
  <g id="icon-next" clip-path="url(#clip-icon-next)">
    <rect width="20" height="20" fill="#fff"/>
    <g id="Group_410" data-name="Group 410" transform="translate(-328.084 -2069.501)">
      <g id="Group_407" data-name="Group 407" transform="translate(331.28 2073.698)">
        <g id="Group_406" data-name="Group 406">
          <path id="Path_2328" data-name="Path 2328" d="M333.666,2074.984c2.661,2.136,5.8,3.687,8.254,6.064.309-.368.62-.736.927-1.1-4.018.688-6.474,4.244-10.421,4.922-.6.1-1.486,1.392-.522,1.227,4.02-.688,6.476-4.244,10.423-4.922.317-.054,1.371-.676.929-1.106-2.459-2.386-5.589-3.926-8.254-6.066-.538-.433-1.812.6-1.336.985Z" transform="translate(-331.28 -2073.698)" fill="#404041"/>
          <path id="Path_2329" data-name="Path 2329" d="M331.945,2086.3a.606.606,0,0,1-.655-.478c-.1-.573.655-1.388,1.23-1.488a12.713,12.713,0,0,0,4.818-2.307,21.873,21.873,0,0,1,2.981-1.754c-1.085-.891-2.269-1.681-3.425-2.451-1.126-.75-2.29-1.527-3.363-2.395h0c-.277-.224-.376-.657.024-1.123s1.226-.859,1.769-.421c1.045.845,2.193,1.611,3.3,2.35a34.416,34.416,0,0,1,4.36,3.256l.613-.1-.32.384.02.021a.677.677,0,0,1,.183.716,1.972,1.972,0,0,1-1.289,1,12.725,12.725,0,0,0-4.818,2.306,13.661,13.661,0,0,1-5.218,2.465A1.2,1.2,0,0,1,331.945,2086.3Zm4.03-2.492a10.025,10.025,0,0,1-3.317,1.281,1.091,1.091,0,0,0-.482.408A10.919,10.919,0,0,0,335.975,2083.812Zm4.991-2.979a14.6,14.6,0,0,0-2.225,1.207,11.1,11.1,0,0,1,2.384-1.063Zm-6.869-5.943c1.029.826,2.155,1.577,3.244,2.3a39.511,39.511,0,0,1,3.791,2.749,9.334,9.334,0,0,1,.919-.272,41.935,41.935,0,0,0-3.874-2.8c-1.124-.749-2.288-1.524-3.361-2.393a.329.329,0,0,0-.223.026A1.021,1.021,0,0,0,334.1,2074.89Z" transform="translate(-331.28 -2073.698)" fill="#404041"/>
        </g>
      </g>
      <g id="Group_409" data-name="Group 409" transform="translate(331.084 2073.501)">
        <g id="Group_408" data-name="Group 408">
          <path id="Path_2330" data-name="Path 2330" d="M331.943,2086.3a.659.659,0,0,1-.525-.211.646.646,0,0,1-.078-.684,1.85,1.85,0,0,1,1.182-1.071,12.719,12.719,0,0,0,4.817-2.307,21.97,21.97,0,0,1,2.981-1.755c-1.086-.891-2.272-1.681-3.425-2.451-1.126-.751-2.29-1.527-3.363-2.395h0c-.277-.224-.376-.657.024-1.123s1.226-.858,1.769-.421c1.045.844,2.191,1.609,3.3,2.35a34.088,34.088,0,0,1,4.362,3.256l.613-.105-.32.384.02.021a.673.673,0,0,1,.183.714,1.972,1.972,0,0,1-1.289,1.006,12.729,12.729,0,0,0-4.819,2.306,13.719,13.719,0,0,1-5.219,2.465A1.311,1.311,0,0,1,331.943,2086.3Zm4.018-2.485a9.993,9.993,0,0,1-3.3,1.273,1.092,1.092,0,0,0-.482.407A10.891,10.891,0,0,0,335.961,2083.819Zm5.005-2.987a14.506,14.506,0,0,0-2.215,1.2,11.06,11.06,0,0,1,2.374-1.057C341.073,2080.928,341.021,2080.879,340.967,2080.832Zm-6.869-5.943c1.027.826,2.155,1.577,3.244,2.3a39.438,39.438,0,0,1,3.791,2.754,8.668,8.668,0,0,1,.919-.275,41.552,41.552,0,0,0-3.876-2.8c-1.124-.749-2.286-1.525-3.359-2.393a.313.313,0,0,0-.223.026A1.013,1.013,0,0,0,334.1,2074.889Zm-.06-.049Z" transform="translate(-331.084 -2073.501)" fill="#404041"/>
          <path id="Path_2331" data-name="Path 2331" d="M332.088,2086.5a.963.963,0,0,1-.926-1.369,2.132,2.132,0,0,1,1.409-1.283A11.686,11.686,0,0,0,337,2081.67a25.239,25.239,0,0,1,2.36-1.477c-.893-.711-1.85-1.365-2.78-2-1.077-.735-2.188-1.494-3.223-2.35a.994.994,0,0,1-.365-.728,1.285,1.285,0,0,1,.34-.889,2.168,2.168,0,0,1,.958-.648,1.283,1.283,0,0,1,1.249.189c.974.806,2.045,1.537,3.083,2.246a34.144,34.144,0,0,1,4.076,3.091l1.386-.244-.754.927a1.033,1.033,0,0,1,.078.817,2.234,2.234,0,0,1-1.514,1.231,11.693,11.693,0,0,0-4.433,2.184,13.215,13.215,0,0,1-5.1,2.455A1.633,1.633,0,0,1,332.088,2086.5Zm.472-.827c-.057.013-.116.025-.176.036l-.055.011C332.407,2085.708,332.483,2085.691,332.56,2085.674Zm3.156-2.282.4.631c.311-.2.619-.411.924-.618.573-.389,1.134-.77,1.709-1.108l-.4-.631c-.311.2-.617.409-.918.614C336.854,2082.67,336.291,2083.053,335.716,2083.393Zm5.019-3.021.8.749-.487.148a6.569,6.569,0,0,1,.714-.164,1.574,1.574,0,0,0,.93-.724.3.3,0,0,0-.08-.32l-.179-.176-.651.157a8.187,8.187,0,0,0-.832.254l-.21.078-.011-.011-.336.158.122-.053Zm-2.9-2.225c.834.579,1.669,1.179,2.453,1.839l.046.038C339.534,2079.348,338.683,2078.734,337.833,2078.146Zm2.658,1.035c.138.111.273.226.409.341l.013-.006C340.773,2079.4,340.632,2079.292,340.491,2079.181Zm-4.468-4.081c.716.534,1.455,1.041,2.178,1.533l.859.59c-.279-.193-.559-.385-.838-.574C337.482,2076.143,336.739,2075.635,336.023,2075.1Zm-1.264.9c.447.335.9.658,1.356.972C335.659,2076.653,335.2,2076.331,334.759,2076Zm-.758-1.389a1.089,1.089,0,0,0-.092.1l0,0A1.2,1.2,0,0,1,334,2074.608Zm.777-.36a.459.459,0,0,1,.242.07A.454.454,0,0,0,334.778,2074.248Z" transform="translate(-331.084 -2073.501)" fill="#404041"/>
        </g>
      </g>
    </g>
  </g>
</svg>
