<svg id="Layer_1" data-name="Layer 1" xmlns="http://www.w3.org/2000/svg" viewBox="0 0 40 40"><defs><style>.cls-1{fill:#652064;}</style></defs><path class="cls-1" d="M36.2,39.2A22.8,22.8,0,0,0,38.4,37l-7.7-7.7a17.1,17.1,0,0,0,4.6-11.5A16.7,16.7,0,0,0,31,6.2l2.6-2.6L24.5,2.1l1.6,9.1,2.8-2.8a13.1,13.1,0,0,1,3.3,9.8,14.2,14.2,0,0,1-6.4,11.1L27.5,32l.8-.7,7.9,7.9"/><path class="cls-1" d="M9,3.1l1.7,2.7-1.2,1a14.3,14.3,0,0,0-4.7,7.4,14.1,14.1,0,0,0-.3,5,13.3,13.3,0,0,0,2.9,6.9l.4.5,2.8-2.7L12.1,33,3,31.5l2.6-2.6a13.4,13.4,0,0,1-1.1-1.4,16.2,16.2,0,0,1-3-7.3,17.3,17.3,0,0,1,.6-7.8A17.6,17.6,0,0,1,5.2,6.7l1-1.1A14.5,14.5,0,0,1,8.8,3.2C8.9,3.2,9,3.2,9,3.1Z"/><path class="cls-1" d="M13.2,4.5,12.1,1.6A9.5,9.5,0,0,1,15.4.7l.5,3Z"/><path class="cls-1" d="M24.5,33.3a11.9,11.9,0,0,1-3.2,1l-.5-3.1,2.7-.8Z"/><path class="cls-1" d="M18.8.5h1l1.9.2-.6,3-2.5-.2Z"/><path class="cls-1" d="M18,31.5l-.2,3.1a24.8,24.8,0,0,1-2.7-.3l.6-3.1Z"/><path class="cls-1" d="M38.4,37a1.4,1.4,0,0,1,.2,1.3c-.4.7-1.3,1.7-2.4.9l.5-1,.4-.7Z"/><path class="cls-1" d="M9,3.1s.8-.4,1.3.1,1.5,1.7.4,2.6L9.9,5l-.6-.5Z"/><path class="cls-1" d="M27.5,31.9a1.2,1.2,0,0,1-1.3.1,1.7,1.7,0,0,1-.4-2.7l.8.8.6.5Z"/></svg>