<svg xmlns="http://www.w3.org/2000/svg" width="17.303" height="23.464" viewBox="0 0 17.303 23.464">
  <path id="Path_2212" data-name="Path 2212" d="M43.056,296.615a3.313,3.313,0,0,0-2.244.878c-.018-.3-.027-.585-.021-.823,0-.006,0-.012,0-.018l0-.016v-9.879a4.246,4.246,0,0,0-7.76-2.384,4.241,4.241,0,0,0-3.042-1.349.914.914,0,0,0-.007,1.827c.387.007,2.315.169,2.315,2.731v12.347a.913.913,0,0,0,1.827,0V286.757a2.42,2.42,0,0,1,4.84,0v9.879h0a12.291,12.291,0,0,0,.362,3.169,5.492,5.492,0,0,1-.937,3.072,10.418,10.418,0,0,1-2.035,1.372.913.913,0,1,0,.843,1.62,11.975,11.975,0,0,0,2.484-1.7,4.62,4.62,0,0,0,1.049-1.853,3.326,3.326,0,1,0,2.326-5.7Zm0,4.828a1.5,1.5,0,1,1,1.5-1.5A1.5,1.5,0,0,1,43.056,301.443Z" transform="translate(-29.08 -282.51)" fill="#ee4347"/>
</svg>
