<svg xmlns="http://www.w3.org/2000/svg" width="62.818" height="62.818" viewBox="0 0 62.818 62.818">
  <g id="Group_411" data-name="Group 411" transform="translate(-1051.849 -1317.437)">
    <path id="Path_90" data-name="Path 90" d="M311.258,1318.437q1.494,0,2.979.146t2.953.438q1.465.291,2.895.726t2.81,1q1.38.573,2.7,1.276t2.559,1.535q1.242.831,2.4,1.777t2.211,2q1.056,1.057,2,2.212t1.777,2.4q.831,1.241,1.534,2.559t1.276,2.7q.572,1.379,1.005,2.81t.726,2.895q.291,1.464.437,2.952t.147,2.98q0,1.494-.147,2.981t-.437,2.951q-.291,1.466-.726,2.9t-1.005,2.809q-.57,1.381-1.276,2.7t-1.534,2.56q-.831,1.241-1.777,2.4t-2,2.212q-1.056,1.056-2.211,2t-2.4,1.777q-1.244.831-2.559,1.535t-2.7,1.275q-1.38.572-2.81,1.005t-2.895.725a29.68,29.68,0,0,1-2.953.438q-1.485.148-2.979.147t-2.981-.147a29.811,29.811,0,0,1-2.953-.438q-1.463-.289-2.893-.725t-2.81-1.005q-1.38-.571-2.7-1.275t-2.561-1.535q-1.24-.829-2.395-1.777t-2.211-2q-1.058-1.057-2.005-2.212t-1.777-2.4q-.83-1.242-1.535-2.56t-1.275-2.7a29.722,29.722,0,0,1-1.007-2.809q-.432-1.43-.723-2.9t-.439-2.951q-.147-1.488-.146-2.981t.146-2.98q.147-1.488.439-2.952t.723-2.895a29.631,29.631,0,0,1,1.007-2.81q.572-1.378,1.275-2.7t1.535-2.559q.83-1.242,1.777-2.4t2.005-2.212q1.056-1.056,2.211-2t2.395-1.777q1.244-.831,2.561-1.535t2.7-1.276q1.38-.57,2.81-1t2.893-.726q1.467-.291,2.953-.438T311.258,1318.437Z" transform="translate(772)" fill="none" stroke="#fff" stroke-width="2"/>
    <path id="Path_91" data-name="Path 91" d="M322.784,1348.846a4.308,4.308,0,0,1-2.11,3.726l-14.363,8.617a4.344,4.344,0,0,1-6.579-3.725v-17.236a4.344,4.344,0,0,1,6.579-3.725l14.363,8.618a4.306,4.306,0,0,1,2.11,3.725m-2.173,0a2.139,2.139,0,0,0-1.053-1.862l-14.365-8.618a2.172,2.172,0,0,0-3.289,1.862v17.236a2.172,2.172,0,0,0,3.289,1.862l14.365-8.618a2.138,2.138,0,0,0,1.053-1.862" transform="translate(772)" fill="#fff"/>
  </g>
</svg>
