<svg id="Layer_1" data-name="Layer 1" xmlns="http://www.w3.org/2000/svg" viewBox="0 0 9.99 10"><defs><style>.cls-1{fill:#8ac440;}</style></defs><path class="cls-1" d="M1.58,8.81c1.53,1.15,4.67,1.8,6.26.39A6.37,6.37,0,0,0,9.63,6.29a.25.25,0,0,0,.09-.11C10.83,3.85,8.28.89,6,.34L6,.29C1.27-1.56-2.14,6,1.58,8.81Zm.09-6.54A3.54,3.54,0,0,1,5.42.81a.25.25,0,0,0,.19.11A4.18,4.18,0,0,1,7.74,2.05a8,8,0,0,0-1.46-.62A4.11,4.11,0,0,0,3.05,2C1.59,3.33.9,6.59,3,7.8c1.8,1,4.4-.19,4.28-2.36C7.18,3.51,4.8,2.35,3.62,4.15a1.29,1.29,0,0,0-.11,1.21v0a.34.34,0,0,0,.24.4c.56.75,1.64,1.11,2.06.15S5.12,4.12,4.28,4.39A1.22,1.22,0,0,1,5.5,3.94c1.48.3,1.36,2.38.39,3.13C4.1,8.44,2,6.62,2.39,4.64c.22-1.1.65-2.21,1.87-2.49A4.28,4.28,0,0,1,8.79,3.87c.58.87.25,2.3-.13,3.17-1.39,3.24-6,2.73-7.7.06C.11,5.75.89,3.46,1.67,2.27Z"/></svg>