<svg id="Layer_1" data-name="Layer 1" xmlns="http://www.w3.org/2000/svg" viewBox="0 0 40 40"><defs><style>.cls-1{fill:#1079aa;}</style></defs><path class="cls-1" d="M20.9,15.7a2.9,2.9,0,0,1,3.6,1.8,3,3,0,0,1,3.7,1.9,2.7,2.7,0,0,1,3.1.9,3.1,3.1,0,0,1,.6,1.6c0,3.2.1,6.3,0,9.5a8.4,8.4,0,0,1-9.7,8,8.4,8.4,0,0,1-5-2.4l-6.8-7.6a16.3,16.3,0,0,1-1.7-2A2.8,2.8,0,0,1,9,23.6a2.8,2.8,0,0,1,3.7.1,29.6,29.6,0,0,1,2.4,2.6h.3v-15a2.8,2.8,0,0,1,2.2-3,2.7,2.7,0,0,1,3.3,2.4v5.1Zm-3.7,4.1v4.6c0,1.4.1,2.7,0,4a1.4,1.4,0,0,1-.5,1c-.3.1-.8-.2-1.1-.3s-.3-.2-.4-.3l-3.3-3.3-.3-.3c-.5-.5-1-.6-1.4-.2a1,1,0,0,0,0,1.4c2,2.3,3.8,4.6,5.8,6.8a18.8,18.8,0,0,0,3.6,3.3,6.4,6.4,0,0,0,6.9.4A6.1,6.1,0,0,0,30,31.2c.2-3,.1-6.1.1-9.1a.9.9,0,0,0-1-1,.9.9,0,0,0-.8,1c-.1.5,0,1-.1,1.5s-.3,1.1-.8,1.1-1-.3-1-1.1V20.4c0-.7-.4-1.2-.9-1.1s-.9.4-.9,1.1v3.2c0,.8-.4,1.1-1,1.1s-.8-.3-.8-1.1V18.9a1.9,1.9,0,0,0-.1-.8c-.3-.3-.6-.6-.9-.6s-.6.4-.8.7-.1.5-.1.7v4.7c0,.8-.3,1.1-.9,1.1s-.9-.3-.9-1.1v-12a2.8,2.8,0,0,0-.1-.9c-.2-.2-.5-.6-.8-.6s-.7.3-.9.5a2.2,2.2,0,0,0-.1.8Z"/><path class="cls-1" d="M29.4,9.8a9.7,9.7,0,0,1,0,4.8h0a1,1,0,0,0,.5,1.1c.7.3,1.4-.6,1.4-.6a11.4,11.4,0,0,0,0-5.8,11.7,11.7,0,1,0-20.6,9.9.9.9,0,0,0,1,.4.9.9,0,0,0,.8-1.3h0A9.7,9.7,0,1,1,29.4,9.8Z"/></svg>