<svg xmlns="http://www.w3.org/2000/svg" width="16.639" height="15.978" viewBox="0 0 16.639 15.978">
  <g id="Group_23" data-name="Group 23" transform="translate(-16.152 -79.002)">
    <g id="Group_19" data-name="Group 19">
      <path id="Path_15" data-name="Path 15" d="M24.608,79.49c.06,5.049.5,10.092.11,15.137-.039.509,1.134.291,1.167-.132.387-5.047-.051-10.088-.11-15.137-.006-.521-1.171-.281-1.167.132Z" fill="#25a9e0"/>
    </g>
    <g id="Group_22" data-name="Group 22">
      <g id="Group_20" data-name="Group 20">
        <path id="Path_16" data-name="Path 16" d="M24.644,79.37c-2.352,3.464-5.444,6.313-8.376,9.271-.085.086-.177.267-.061.373a35.684,35.684,0,0,0,8.323,5.84c.391.189,1.442-.356.912-.613a31.5,31.5,0,0,1-4.355-2.59c-.961-.674-1.866-1.424-2.758-2.183-1.05-.894-.459-1.221.342-2.02a55.9,55.9,0,0,0,7.069-8c.33-.488-.853-.435-1.1-.075Z" fill="#25a9e0"/>
      </g>
      <g id="Group_21" data-name="Group 21">
        <path id="Path_17" data-name="Path 17" d="M25.132,79.672a83.09,83.09,0,0,1,6.546,11.147l.15-.506c-2,1.734-4.5,2.638-6.781,3.917-.691.386-.062.978.508.659,2.373-1.327,4.962-2.268,7.039-4.069.169-.146.259-.293.15-.506A83.058,83.058,0,0,0,26.2,79.166c-.3-.414-1.412.03-1.066.506Z" fill="#25a9e0"/>
      </g>
    </g>
  </g>
</svg>
