<svg xmlns="http://www.w3.org/2000/svg" xmlns:xlink="http://www.w3.org/1999/xlink" width="20" height="20" viewBox="0 0 20 20">
  <defs>
    <clipPath id="clip-icon-accordian">
      <rect width="20" height="20"/>
    </clipPath>
  </defs>
  <g id="icon-accordian" clip-path="url(#clip-icon-accordian)">
    <rect width="20" height="20" fill="#fff"/>
    <g id="Group_255" data-name="Group 255" transform="translate(-313.89 -2386.209)">
      <g id="Group_249" data-name="Group 249" transform="translate(323.431 2392.702)">
        <g id="Group_246" data-name="Group 246" transform="translate(0.194 0.195)">
          <g id="Group_245" data-name="Group 245">
            <path id="Path_2213" data-name="Path 2213" d="M323.634,2393.49c1.262,1.051,2.749,1.812,3.91,2.982l.44-.544c-1.9.339-3.067,2.086-4.936,2.419-.284.051-.7.685-.246.6,1.9-.338,3.067-2.086,4.936-2.419.15-.026.649-.333.44-.544-1.164-1.172-2.648-1.929-3.91-2.98-.255-.212-.858.3-.633.482Z" transform="translate(-322.404 -2392.762)" fill="#5f9e45"/>
            <path id="Path_2214" data-name="Path 2214" d="M322.792,2399.213a.3.3,0,0,1-.321-.242c-.051-.29.323-.7.605-.755a6.169,6.169,0,0,0,2.369-1.168,10.559,10.559,0,0,1,1.466-.89c-.535-.452-1.117-.853-1.686-1.243-.553-.38-1.126-.774-1.652-1.214a.382.382,0,0,1,.012-.569c.193-.232.6-.434.869-.214.515.43,1.079.817,1.624,1.192a16.814,16.814,0,0,1,2.143,1.651l.3-.054-.158.2.01.01a.351.351,0,0,1,.089.362.971.971,0,0,1-.633.509,6.17,6.17,0,0,0-2.369,1.17,6.668,6.668,0,0,1-2.567,1.249A.558.558,0,0,1,322.792,2399.213Zm1.981-1.262a4.858,4.858,0,0,1-1.629.649.529.529,0,0,0-.238.206A5.291,5.291,0,0,0,324.772,2397.951Zm2.457-1.511a6.916,6.916,0,0,0-1.092.611,5.314,5.314,0,0,1,1.17-.538Zm-3.378-3.013c.506.419,1.059.8,1.6,1.167a19.733,19.733,0,0,1,1.865,1.4,4.255,4.255,0,0,1,.452-.138,20.726,20.726,0,0,0-1.9-1.42c-.554-.38-1.126-.772-1.654-1.214a.159.159,0,0,0-.11.013A.494.494,0,0,0,323.852,2393.427Z" transform="translate(-322.466 -2392.823)" fill="#5f9e45"/>
          </g>
        </g>
        <g id="Group_248" data-name="Group 248">
          <g id="Group_247" data-name="Group 247">
            <path id="Path_2215" data-name="Path 2215" d="M322.792,2399.213a.3.3,0,0,1-.321-.242c-.051-.29.323-.7.605-.755a6.169,6.169,0,0,0,2.369-1.168,10.559,10.559,0,0,1,1.466-.89c-.535-.452-1.117-.853-1.686-1.243-.553-.38-1.126-.774-1.652-1.214a.382.382,0,0,1,.012-.569c.193-.232.6-.434.869-.214.515.43,1.079.817,1.624,1.192a16.814,16.814,0,0,1,2.143,1.651l.3-.054-.158.2.01.01a.351.351,0,0,1,.089.362.971.971,0,0,1-.633.509,6.17,6.17,0,0,0-2.369,1.17,6.668,6.668,0,0,1-2.567,1.249A.558.558,0,0,1,322.792,2399.213Zm1.981-1.262a4.858,4.858,0,0,1-1.629.649.529.529,0,0,0-.238.206A5.291,5.291,0,0,0,324.772,2397.951Zm2.457-1.511a6.916,6.916,0,0,0-1.092.611,5.314,5.314,0,0,1,1.17-.538Zm-3.378-3.013c.506.419,1.059.8,1.6,1.167a19.733,19.733,0,0,1,1.865,1.4,4.255,4.255,0,0,1,.452-.138,20.726,20.726,0,0,0-1.9-1.42c-.554-.38-1.126-.772-1.654-1.214-.009-.007-.047-.01-.11.013A.494.494,0,0,0,323.852,2393.427Z" transform="translate(-322.272 -2392.628)" fill="#5f9e45"/>
            <path id="Path_2216" data-name="Path 2216" d="M322.853,2399.47a.494.494,0,0,1-.512-.4,1.014,1.014,0,0,1,.761-.979,6.018,6.018,0,0,0,2.294-1.139,12.861,12.861,0,0,1,1.221-.768c-.463-.371-.959-.712-1.44-1.042-.559-.384-1.133-.78-1.668-1.226a.52.52,0,0,1-.189-.378.669.669,0,0,1,.176-.465.846.846,0,0,1,1.144-.239c.51.427,1.069.811,1.61,1.182a17.735,17.735,0,0,1,2.1,1.6l.718-.128-.391.484a.537.537,0,0,1,.04.425,1.148,1.148,0,0,1-.784.642,6.031,6.031,0,0,0-2.291,1.138,6.823,6.823,0,0,1-2.645,1.281A.741.741,0,0,1,322.853,2399.47Zm.224-.426-.072.015-.026.006Zm1.658-1.2.205.328c.16-.105.317-.212.474-.319.3-.2.586-.4.883-.578l-.205-.329c-.161.105-.32.214-.477.321C325.321,2397.472,325.032,2397.67,324.736,2397.848Zm2.6-1.573.413.388-.255.078a3.763,3.763,0,0,1,.369-.085.807.807,0,0,0,.482-.377.156.156,0,0,0-.041-.167l-.092-.093-.339.083a4.243,4.243,0,0,0-.43.133Zm-.007-.006-.174.082.065-.028.116-.05Zm-3.173-2.34c.408.313.831.6,1.245.887.57.393,1.16.8,1.7,1.255l.045.04a20.056,20.056,0,0,0-1.746-1.295C324.983,2394.531,324.558,2394.24,324.152,2393.929Zm3.063,1.734c.067.054.135.11.2.167h.006C327.354,2395.771,327.285,2395.717,327.215,2395.663Zm-1.234-1.365.047.032.136.094-.129-.089Z" transform="translate(-322.334 -2392.691)" fill="#5f9e45"/>
          </g>
        </g>
      </g>
      <g id="Group_254" data-name="Group 254" transform="translate(318.433 2392.667)">
        <g id="Group_251" data-name="Group 251" transform="translate(0.195 0.194)">
          <g id="Group_250" data-name="Group 250">
            <path id="Path_2217" data-name="Path 2217" d="M319.736,2393.466c1.261,1.051,2.747,1.812,3.909,2.982l.44-.544c-1.9.339-3.067,2.086-4.936,2.419-.284.052-.7.685-.246.6,1.9-.339,3.067-2.086,4.936-2.419.15-.026.649-.333.44-.544-1.164-1.173-2.648-1.929-3.91-2.98-.255-.213-.858.3-.632.482Z" transform="translate(-318.505 -2392.737)" fill="#5f9e45"/>
            <path id="Path_2218" data-name="Path 2218" d="M318.891,2399.19a.32.32,0,0,1-.258-.107.334.334,0,0,1-.038-.346.921.921,0,0,1,.581-.544,6.143,6.143,0,0,0,2.369-1.169,10.723,10.723,0,0,1,1.466-.89c-.535-.451-1.117-.852-1.685-1.243s-1.126-.774-1.654-1.214h0a.382.382,0,0,1,.012-.569c.192-.232.6-.436.869-.214.515.43,1.078.816,1.623,1.192a16.62,16.62,0,0,1,2.145,1.651l.3-.054-.158.195.012.01a.354.354,0,0,1,.089.364.978.978,0,0,1-.633.51,6.14,6.14,0,0,0-2.369,1.169,6.671,6.671,0,0,1-2.567,1.249A.539.539,0,0,1,318.891,2399.19Zm1.979-1.261a4.847,4.847,0,0,1-1.627.648.53.53,0,0,0-.237.205A5.288,5.288,0,0,0,320.871,2397.929Zm2.459-1.513a7.068,7.068,0,0,0-1.091.61,5.39,5.39,0,0,1,1.168-.537C323.38,2396.464,323.356,2396.439,323.329,2396.416Zm-3.378-3.013c.506.419,1.059.8,1.6,1.168a19.668,19.668,0,0,1,1.865,1.394,4.044,4.044,0,0,1,.452-.139,20.5,20.5,0,0,0-1.906-1.42c-.553-.38-1.124-.773-1.652-1.212-.009-.008-.048-.01-.11.013A.511.511,0,0,0,319.951,2393.4Zm-.029-.025Z" transform="translate(-318.566 -2392.799)" fill="#5f9e45"/>
          </g>
        </g>
        <g id="Group_253" data-name="Group 253">
          <g id="Group_252" data-name="Group 252">
            <path id="Path_2219" data-name="Path 2219" d="M318.891,2399.19a.32.32,0,0,1-.258-.107.334.334,0,0,1-.038-.346.921.921,0,0,1,.581-.544,6.143,6.143,0,0,0,2.369-1.169,10.723,10.723,0,0,1,1.466-.89c-.535-.451-1.117-.852-1.685-1.243s-1.126-.774-1.654-1.214h0a.382.382,0,0,1,.012-.569c.194-.232.6-.436.869-.214.515.43,1.078.816,1.623,1.192a16.62,16.62,0,0,1,2.145,1.651l.3-.054-.157.195.01.01a.354.354,0,0,1,.089.364.978.978,0,0,1-.633.51,6.14,6.14,0,0,0-2.369,1.169,6.671,6.671,0,0,1-2.567,1.249A.539.539,0,0,1,318.891,2399.19Zm1.976-1.259a4.829,4.829,0,0,1-1.624.646.537.537,0,0,0-.237.205A5.271,5.271,0,0,0,320.868,2397.93Zm2.462-1.514a6.873,6.873,0,0,0-1.089.61,5.312,5.312,0,0,1,1.167-.537C323.38,2396.464,323.356,2396.439,323.329,2396.416Zm-3.378-3.013c.506.419,1.059.8,1.6,1.168a19.668,19.668,0,0,1,1.865,1.394,4.044,4.044,0,0,1,.452-.139,20.5,20.5,0,0,0-1.906-1.42c-.553-.38-1.124-.773-1.652-1.212-.009-.008-.048-.01-.11.013A.511.511,0,0,0,319.951,2393.4Zm-.029-.025Z" transform="translate(-318.372 -2392.605)" fill="#5f9e45"/>
            <path id="Path_2220" data-name="Path 2220" d="M318.953,2399.447a.517.517,0,0,1-.406-.176.527.527,0,0,1-.073-.538,1.106,1.106,0,0,1,.73-.668,6.035,6.035,0,0,0,2.291-1.138,12.962,12.962,0,0,1,1.223-.77c-.463-.371-.959-.711-1.44-1.042-.557-.383-1.133-.778-1.668-1.226a.521.521,0,0,1-.189-.378.676.676,0,0,1,.176-.464,1.121,1.121,0,0,1,.5-.337.661.661,0,0,1,.646.1c.5.419,1.059.8,1.6,1.171a17.422,17.422,0,0,1,2.111,1.613l.717-.127-.39.484a.537.537,0,0,1,.04.425,1.151,1.151,0,0,1-.783.642,6,6,0,0,0-2.294,1.139,6.818,6.818,0,0,1-2.642,1.28A.808.808,0,0,1,318.953,2399.447Zm.245-.431-.091.019-.029.006C319.119,2399.033,319.159,2399.024,319.2,2399.016Zm1.633-1.19.205.33c.161-.107.321-.215.479-.324.3-.2.586-.4.884-.578l-.205-.329q-.242.159-.475.32C321.421,2397.448,321.129,2397.647,320.831,2397.825Zm2.6-1.576.415.392-.252.076a3.668,3.668,0,0,1,.369-.085.818.818,0,0,0,.481-.377.156.156,0,0,0-.041-.167l-.092-.092-.339.082a3.816,3.816,0,0,0-.43.134l-.11.04-.006-.006-.173.082.063-.028Zm-1.5-1.161c.432.3.865.616,1.271.96l.023.02C322.808,2395.715,322.366,2395.4,321.926,2395.088Zm1.377.541c.072.059.142.117.211.178l.009,0Zm-2.3-2.12c.367.277.745.537,1.116.792l.45.311q-.22-.154-.44-.3C321.751,2394.047,321.369,2393.786,321,2393.509Zm-.667.459c.232.175.468.343.7.507C320.8,2394.311,320.566,2394.143,320.336,2393.968Zm-.391-.724a.532.532,0,0,0-.048.051h0C319.911,2393.279,319.927,2393.261,319.944,2393.244Zm.4-.188a.232.232,0,0,1,.126.036A.235.235,0,0,0,320.346,2393.056Z" transform="translate(-318.434 -2392.667)" fill="#5f9e45"/>
          </g>
        </g>
      </g>
    </g>
  </g>
</svg>
