<svg id="Layer_1" data-name="Layer 1" xmlns="http://www.w3.org/2000/svg" viewBox="0 0 50 50"><defs><style>.cls-1{fill:#fe2544;}.cls-2{fill:#fff;}</style></defs><title>Icons</title><path class="cls-1" d="M44,49.4H6.11a4.8,4.8,0,0,1-4.8-4.79V28.09a4.8,4.8,0,0,1,4.8-4.79H44a4.8,4.8,0,0,1,4.79,4.79V44.61A4.8,4.8,0,0,1,44,49.4Zm0,0"/><path class="cls-1" d="M25,14.19a2.9,2.9,0,0,1-2-.83,2.9,2.9,0,1,1,2,.83Zm0,0"/><path class="cls-1" d="M31.29,18a1.44,1.44,0,0,1-1-2.45,6,6,0,0,0,0-8.5,1.44,1.44,0,0,1,2-2,8.88,8.88,0,0,1,0,12.56,1.44,1.44,0,0,1-1,.42Zm0,0"/><path class="cls-1" d="M34.54,22.25a1.46,1.46,0,0,1-1-.42,1.44,1.44,0,0,1,0-2,12,12,0,0,0,0-16.95,1.43,1.43,0,1,1,2-2,14.84,14.84,0,0,1,0,21,1.42,1.42,0,0,1-1,.42Zm0,0"/><path class="cls-1" d="M18.76,18a1.43,1.43,0,0,1-1-.42,8.86,8.86,0,0,1,0-12.56,1.44,1.44,0,1,1,2,2,6,6,0,0,0,0,8.5,1.44,1.44,0,0,1-1,2.45Zm0,0"/><path class="cls-1" d="M15.52,22.25a1.44,1.44,0,0,1-1-.42,14.84,14.84,0,0,1,0-21,1.44,1.44,0,0,1,2,2,12,12,0,0,0,0,17,1.44,1.44,0,0,1-1,2.45Zm0,0"/><path class="cls-2" d="M13.79,40.79H9.94V30.48a1.44,1.44,0,1,0-2.87,0V42.22A1.43,1.43,0,0,0,8.5,43.66h5.29a1.44,1.44,0,1,0,0-2.87Zm0,0"/><path class="cls-2" d="M18.24,29a1.45,1.45,0,0,0-1.44,1.44V42.22a1.44,1.44,0,0,0,2.88,0V30.48A1.45,1.45,0,0,0,18.24,29Zm0,0"/><path class="cls-2" d="M28.21,42.64,31.75,30.9A1.43,1.43,0,1,0,29,30.07l-2.18,7.19-2.17-7.19a1.43,1.43,0,1,0-2.74.83l3.54,11.74a1.51,1.51,0,0,0,2.75,0Zm0,0"/><path class="cls-2" d="M41.36,40.79H36.51V37.05h4.08a1.44,1.44,0,0,0,0-2.87H36.51V31.91h5a1.44,1.44,0,1,0,0-2.87H35.08a1.44,1.44,0,0,0-1.44,1.44V42.22a1.43,1.43,0,0,0,1.44,1.44h6.28a1.44,1.44,0,0,0,0-2.87Zm0,0"/></svg>