<?xml version="1.0" encoding="utf-8"?>
<!-- Generator: Adobe Illustrator 16.0.0, SVG Export Plug-In . SVG Version: 6.00 Build 0)  -->
<!DOCTYPE svg PUBLIC "-//W3C//DTD SVG 1.1//EN" "http://www.w3.org/Graphics/SVG/1.1/DTD/svg11.dtd">
<svg version="1.1" id="Layer_1" xmlns="http://www.w3.org/2000/svg" xmlns:xlink="http://www.w3.org/1999/xlink" x="0px" y="0px"
	 width="15.551px" height="13.967px" viewBox="0 0 15.551 13.967" enable-background="new 0 0 15.551 13.967" xml:space="preserve">
<g id="Group_233" transform="translate(-109.732 -79.142)">
	<g id="Group_231">
		<path id="Path_2210" fill="#EE4347" d="M119.365,84.036c-1.166-3.5-7.561-6.719-8.957-1.693c-0.527,1.9,1.125,3.781,2.282,5.079
			c1.506,1.688,3.392,3.018,4.853,4.738c0.154,0.186,0.799-0.623,0.569-0.894c-2.109-2.485-5.001-4.208-6.611-7.13
			c-0.43-0.676-0.581-1.492-0.423-2.277c0.425-1.532,2.573-1.344,3.659-0.972c1.837,0.678,3.29,2.119,3.981,3.951
			c0.088,0.26,0.75-0.492,0.648-0.8"/>
	</g>
	<g id="Group_232">
		<path id="Path_2211" fill="#EE4347" d="M118.873,83.402c0.477-1.749,2.474-3.874,4.248-2.173c1.529,1.465,0.525,3.768-0.556,5.093
			c-1.666,2.047-4.117,3.346-5.562,5.592c-0.356,0.556,0.292,0.964,0.648,0.412c2.154-3.351,7.772-5.367,6.985-10.126
			c-0.14-1.539-1.5-2.673-3.039-2.534c-0.058,0.005-0.114,0.012-0.171,0.021c-1.86,0.266-2.954,2.182-3.396,3.806
			c-0.185,0.668,0.71,0.404,0.846-0.093"/>
	</g>
</g>
</svg>
