<svg xmlns="http://www.w3.org/2000/svg" width="21.209" height="14.947" viewBox="0 0 21.209 14.947">
  <g id="Group_619" data-name="Group 619" transform="translate(-287.446 -79.419)">
    <path id="Path_19" data-name="Path 19" d="M294.184,82.724a5.175,5.175,0,0,0-2.034,3.68,4.911,4.911,0,0,0,1.671,3.771" fill="none" stroke="#5f9e45" stroke-miterlimit="10" stroke-width="0.8"/>
    <path id="Path_20" data-name="Path 20" d="M296.827,84.713a2.085,2.085,0,0,0-.427,3" fill="none" stroke="#5f9e45" stroke-miterlimit="10" stroke-width="0.8"/>
    <path id="Path_21" data-name="Path 21" d="M291.017,80.173a11.082,11.082,0,0,0-3.164,6.953,9.139,9.139,0,0,0,2.975,6.951" fill="none" stroke="#5f9e45" stroke-miterlimit="10" stroke-width="0.8"/>
    <path id="Path_22" data-name="Path 22" d="M301.916,91.062a5.177,5.177,0,0,0,2.034-3.68,4.911,4.911,0,0,0-1.671-3.772" fill="none" stroke="#5f9e45" stroke-miterlimit="10" stroke-width="0.8"/>
    <path id="Path_23" data-name="Path 23" d="M299.273,89.072a2.084,2.084,0,0,0,.427-2.995" fill="none" stroke="#5f9e45" stroke-miterlimit="10" stroke-width="0.8"/>
    <path id="Path_24" data-name="Path 24" d="M305.084,93.612a11.081,11.081,0,0,0,3.163-6.953,9.137,9.137,0,0,0-2.975-6.951" fill="none" stroke="#5f9e45" stroke-miterlimit="10" stroke-width="0.8"/>
  </g>
</svg>
