<svg id="Layer_1" data-name="Layer 1" xmlns="http://www.w3.org/2000/svg" viewBox="0 0 40 40"><defs><style>.cls-1{fill:#5f9e45;stroke:#fff;stroke-miterlimit:10;stroke-width:0.5px;}</style></defs><path class="cls-1" d="M18.6,37.9A17.9,17.9,0,0,1,14.2,2.6,17.8,17.8,0,0,1,28.9,5.3a2.6,2.6,0,0,1,1.3,2.3,1.8,1.8,0,0,1-2.4,1.8,3.7,3.7,0,0,1-1.4-.7A13.9,13.9,0,0,0,5.5,15.8a13.6,13.6,0,0,0,9.1,17.3,13.9,13.9,0,0,0,17.3-9.5,17,17,0,0,0,.4-2.2,4.8,4.8,0,0,1,.8-1.6,1.8,1.8,0,0,1,2.9,0,2.8,2.8,0,0,1,.6,2.3,18.1,18.1,0,0,1-7.8,12.7A17,17,0,0,1,18.6,37.9Z"/><path class="cls-1" d="M19,22.5l1.3-1.2,15.5-14a2.2,2.2,0,0,1,3.6.9,2,2,0,0,1-.6,2.2l-3.2,2.9L20.5,26.9a2.2,2.2,0,0,1-2.6.5l-.7-.5c-2.3-2.6-4.7-5.2-7.1-7.7a2.2,2.2,0,0,1,0-3.1,2.1,2.1,0,0,1,3.1.2L18.5,22Z"/></svg>