<svg id="Layer_1" data-name="Layer 1" xmlns="http://www.w3.org/2000/svg" viewBox="0 0 10 10"><defs><style>.cls-1{fill:#00a19a;}</style></defs><path class="cls-1" d="M1.59,8.81c1.53,1.15,4.67,1.8,6.26.39A6.28,6.28,0,0,0,9.63,6.29a.27.27,0,0,0,.1-.11C10.83,3.85,8.28.89,6,.34A.19.19,0,0,0,6,.29C1.28-1.56-2.13,6,1.59,8.81Zm.08-6.54A3.54,3.54,0,0,1,5.42.81a.25.25,0,0,0,.19.11A4.18,4.18,0,0,1,7.74,2.05a7.63,7.63,0,0,0-1.45-.62A4.11,4.11,0,0,0,3.06,2C1.6,3.33.91,6.59,3,7.8c1.8,1,4.39-.19,4.27-2.36C7.19,3.51,4.8,2.35,3.62,4.15a1.31,1.31,0,0,0-.1,1.21v0a.36.36,0,0,0,.25.4c.56.75,1.64,1.11,2.06.15S5.13,4.12,4.28,4.39A1.24,1.24,0,0,1,5.5,3.94c1.49.3,1.37,2.38.4,3.13C4.11,8.44,2,6.62,2.4,4.64c.22-1.1.65-2.21,1.86-2.49a4.18,4.18,0,0,1,2.43.12A4.25,4.25,0,0,1,8.8,3.87,3.71,3.71,0,0,1,8.67,7c-1.39,3.24-6,2.73-7.71.06C.11,5.75.9,3.46,1.67,2.27Z"/></svg>