<svg id="Layer_1" data-name="Layer 1" xmlns="http://www.w3.org/2000/svg" xmlns:xlink="http://www.w3.org/1999/xlink" viewBox="0 0 50 50"><defs><style>.cls-1{fill:url(#linear-gradient);}.cls-2{fill:url(#linear-gradient-2);}.cls-3{fill:url(#linear-gradient-3);}.cls-4{fill:url(#linear-gradient-4);}</style><linearGradient id="linear-gradient" x1="10.18" y1="25" x2="39.82" y2="25" gradientUnits="userSpaceOnUse"><stop offset="0" stop-color="#fbd437"/><stop offset="0.24" stop-color="#f9b72f"/><stop offset="0.55" stop-color="#f79a27"/><stop offset="0.81" stop-color="#f58822"/><stop offset="1" stop-color="#f58220"/></linearGradient><linearGradient id="linear-gradient-2" x1="23.94" y1="20.98" x2="26.06" y2="20.98" xlink:href="#linear-gradient"/><linearGradient id="linear-gradient-3" x1="23.94" y1="29.02" x2="26.06" y2="29.02" xlink:href="#linear-gradient"/><linearGradient id="linear-gradient-4" x1="0.5" y1="25" x2="49.5" y2="25" xlink:href="#linear-gradient"/></defs><title>Icons</title><path class="cls-1" d="M38,17.79h0a15,15,0,0,0-5.43-5.54h0a14.71,14.71,0,0,0-7.5-2h0a14.76,14.76,0,0,0-7.49,2h0a15,15,0,0,0-5.42,5.54h0a14.8,14.8,0,0,0,0,14.42h0a15,15,0,0,0,5.43,5.56h0a14.68,14.68,0,0,0,7.5,2h0a14.68,14.68,0,0,0,7.5-2h0a15,15,0,0,0,5.43-5.56h0a14.8,14.8,0,0,0,0-14.42Zm.21,6.39H33.82a8.85,8.85,0,0,0-.72-2.76l3.79-2.12A12.91,12.91,0,0,1,38.16,24.18Zm-2.07-6.3L32.3,20a9,9,0,0,0-2.13-2.18l2.2-3.74A13.24,13.24,0,0,1,36.09,17.88Zm-10.27-6A12.93,12.93,0,0,1,31,13.24L28.76,17a8.84,8.84,0,0,0-2.94-.8ZM25,17.78h0a7.22,7.22,0,0,1,4.56,12.8.19.19,0,0,0,0-.08A4.68,4.68,0,0,0,29.84,29,4.84,4.84,0,0,0,25,24.18a3.2,3.2,0,1,1,0-6.4Zm-.82-5.94v4.34a8.84,8.84,0,0,0-2.94.8L19,13.24A12.93,12.93,0,0,1,24.18,11.84Zm-6.55,2.23,2.2,3.74A9,9,0,0,0,17.7,20l-3.79-2.11A13.24,13.24,0,0,1,17.63,14.07ZM13.11,19.3l3.79,2.12a8.85,8.85,0,0,0-.72,2.76H11.84A12.91,12.91,0,0,1,13.11,19.3Zm-1.27,6.52h4.34a8.85,8.85,0,0,0,.72,2.76L13.11,30.7A13,13,0,0,1,11.84,25.82Zm2.07,6.3L17.7,30a9,9,0,0,0,2.13,2.18l-2.2,3.74A13.24,13.24,0,0,1,13.91,32.12Zm10.27,6A12.93,12.93,0,0,1,19,36.76L21.24,33a8.84,8.84,0,0,0,2.94.8ZM25,32.22h0a7.22,7.22,0,0,1-4.56-12.8.19.19,0,0,0,0,.08A4.68,4.68,0,0,0,20.16,21,4.84,4.84,0,0,0,25,25.82a3.2,3.2,0,1,1,0,6.4Zm.82,5.94V33.82h0a8.84,8.84,0,0,0,2.94-.8L31,36.76A12.93,12.93,0,0,1,25.82,38.16Zm6.55-2.23-2.2-3.74A9,9,0,0,0,32.3,30l3.79,2.11A13.24,13.24,0,0,1,32.37,35.93Zm4.52-5.23L33.1,28.58a8.85,8.85,0,0,0,.72-2.76h4.34A13,13,0,0,1,36.89,30.7Z"/><path class="cls-2" d="M25,19.92A1.06,1.06,0,1,1,23.94,21,1.05,1.05,0,0,1,25,19.92Z"/><path class="cls-3" d="M25,28A1.06,1.06,0,1,1,23.94,29,1.05,1.05,0,0,1,25,28Z"/><path class="cls-4" d="M46.44,13.15l-.1-.17a24.7,24.7,0,0,0-8.85-9l-.17-.1a24.46,24.46,0,0,0-24.64,0,1,1,0,0,0-.17.1A24.7,24.7,0,0,0,3.66,13l-.1.17a24.47,24.47,0,0,0,0,23.7l.09.16a24.6,24.6,0,0,0,8.86,9.06l.17.1a24.46,24.46,0,0,0,24.64,0l.17-.1A24.6,24.6,0,0,0,46.35,37l.09-.16a24.47,24.47,0,0,0,0-23.7Zm1.41,11H43.48a18.46,18.46,0,0,0-1.95-7.47l3.82-2.13A22.71,22.71,0,0,1,47.85,24.18Zm-3.3-11-3.82,2.13a18.58,18.58,0,0,0-5.67-5.8l2.21-3.78A22.93,22.93,0,0,1,44.55,13.16Zm-18.73-11a22.79,22.79,0,0,1,10,2.73L33.65,8.66a18.5,18.5,0,0,0-7.83-2.14Zm-1.64,0V6.52a18.5,18.5,0,0,0-7.83,2.14L14.13,4.88A22.79,22.79,0,0,1,24.18,2.15ZM12.73,5.71l2.21,3.78a18.58,18.58,0,0,0-5.67,5.8L5.45,13.16A22.93,22.93,0,0,1,12.73,5.71ZM4.65,14.58l3.82,2.13a18.46,18.46,0,0,0-2,7.47H2.15A22.71,22.71,0,0,1,4.65,14.58ZM2.15,25.82H6.52a18.46,18.46,0,0,0,2,7.47L4.65,35.42A22.71,22.71,0,0,1,2.15,25.82Zm3.3,11,3.82-2.13a18.58,18.58,0,0,0,5.67,5.8l-2.21,3.78A22.93,22.93,0,0,1,5.45,36.84Zm18.73,11a22.79,22.79,0,0,1-10-2.73l2.22-3.78a18.5,18.5,0,0,0,7.83,2.14Zm.82-6A16.86,16.86,0,1,1,41.86,25,16.87,16.87,0,0,1,25,41.86Zm.82,6V43.48a18.5,18.5,0,0,0,7.83-2.14l2.22,3.78A22.79,22.79,0,0,1,25.82,47.85Zm11.45-3.56-2.21-3.78a18.58,18.58,0,0,0,5.67-5.8l3.82,2.13A22.93,22.93,0,0,1,37.27,44.29Zm8.08-8.87-3.82-2.13a18.46,18.46,0,0,0,1.95-7.47h4.37A22.71,22.71,0,0,1,45.35,35.42Z"/></svg>