<svg id="Layer_1" data-name="Layer 1" xmlns="http://www.w3.org/2000/svg" viewBox="0 0 40 40"><defs><style>.cls-1{fill:#f7931e;}</style></defs><path class="cls-1" d="M20,34.5H3.2A2.6,2.6,0,0,1,.6,32.4a1.1,1.1,0,0,1-.1-.5V8.1A2.6,2.6,0,0,1,2.8,5.6h34a2.6,2.6,0,0,1,2.6,2.1,1.7,1.7,0,0,1,.1.7V31.7a2.7,2.7,0,0,1-2.7,2.8ZM37.3,9.7h-.2l-1.4,1.3-5.6,4.7-4.8,4c-1.2,1-2.3,1.9-3.4,3a2.6,2.6,0,0,1-1.1.7,2.4,2.4,0,0,1-2.3-.6l-.9-.8-1.9-1.5L9.9,15.7,3.5,10.3l-.8-.6V31.1h.2l1.6-1.7,3.8-4,4.1-4.4a1.3,1.3,0,0,1,1.3-.3,1.4,1.4,0,0,1,.7,2.2l-1.2,1.3L6,32.1H34.4l-2.7-3-4-4.4L26,22.8a1.4,1.4,0,0,1-.1-1.8,1.4,1.4,0,0,1,1.7-.3l.7.6,4.9,5.3,4,4.2V9.7ZM5.1,7.8h.1l3,2.7,5,4.2,4,3.4,2.7,2.4h.4l.5-.5,4-3.4,6-5.1L35,7.9H5.1Z"/></svg>