<svg xmlns="http://www.w3.org/2000/svg" width="17.238" height="17.442" viewBox="0 0 17.238 17.442">
  <g id="Group_618" data-name="Group 618" transform="translate(-199.056 -77.224)">
    <path id="Path_1" data-name="Path 1" d="M215.39,89.1a.642.642,0,0,0,.9-.548,21.758,21.758,0,0,0-2.2-9.929.64.64,0,0,0-.982-.123,2.334,2.334,0,0,0-.483.683,1.438,1.438,0,0,0-1.67-.794c-.053.018-.6-.457-.52-.046.028.135.019-.025-.107-.061-.024-.023.024.022,0,0-1.4-1.265-3.981-1.33-5.727-.562a.615.615,0,0,0-.283.683c.052.238.1.483.145.728-.02.009-.042.015-.063.023a4.646,4.646,0,0,0-1,.525,1.762,1.762,0,0,0-.872-.036.545.545,0,0,0-.389.377,10.814,10.814,0,0,0-.2,1.276l-.031.053a.5.5,0,0,0-.461.455c-.027.261-.044.533-.058.809a7.526,7.526,0,0,0-.2,3.2A8.152,8.152,0,0,0,202.52,89a6.568,6.568,0,0,0,.651,1.033,1.786,1.786,0,0,0,.93,1.01c1.553,3.241,5.828,3.683,8.718,1.656A6.935,6.935,0,0,0,215.39,89.1m-10.505.477a20.951,20.951,0,0,0-.855-5.7,3.367,3.367,0,0,1,.282-.563c.061.19.123.379.182.572.277,1.871.269,3.809.7,5.648a.982.982,0,0,1-.313.046m2.669-7.024c.01-.534.044-1.066.1-1.6.066-.012.134-.016.2-.022A14.632,14.632,0,0,0,208,83.018c.089.788.173,1.572.267,2.353l-.087.029c-.061-.054-.117-.111-.175-.168-.068-.422-.139-.847-.206-1.272-.076-.481-.156-.951-.249-1.4m2.872,3.8a37.855,37.855,0,0,0-.922-4.588,6.08,6.08,0,0,1,.7,1.007c.013,1.208.1,2.424.239,3.638a.424.424,0,0,1-.013-.057m-1.911.844c.047.329.1.655.155.982a1.558,1.558,0,0,1-.259.1c-.03-.427-.078-.853-.135-1.279.084.065.161.133.239.2m-5.232-4.768a4.87,4.87,0,0,0-.335-.4.227.227,0,0,1,.008-.069c.3-.952.571-.734.8-.219a4.856,4.856,0,0,0-.476.691m9.878,5.523a5.3,5.3,0,0,1-1.215-3.263,1.456,1.456,0,0,0-.007-.151c0-.038,0-.078,0-.119a9.075,9.075,0,0,0,1.038,1.962q.095.774.2,1.546l-.014.025m-5.954,2.956a.54.54,0,0,0,.143.255,5.031,5.031,0,0,1-.557-.126,6.887,6.887,0,0,0,.147-1.307c.078.4.164.79.267,1.178m6.37-.833a5.3,5.3,0,0,1-1.31,1.4c-.007-.946-.051-1.889-.112-2.831a5.227,5.227,0,0,0,.634.628.657.657,0,0,0,.61.139c.02.111.034.221.055.33a.5.5,0,0,0,.146.289c-.009.016-.015.032-.023.047m-2.161,1.938a6.49,6.49,0,0,1-.758.336.6.6,0,0,0,.081-.122,3.838,3.838,0,0,0,.273-.927c.006.064.013.127.021.19a.608.608,0,0,0,.383.523M206.5,92.1a3.587,3.587,0,0,1-.953-.9,5.5,5.5,0,0,0,2.552.655.3.3,0,0,0,0-.608h-.03a.633.633,0,0,0,.33-.489c.03-.314.048-.626.054-.934.017,0,.033-.008.048-.012a2.26,2.26,0,0,0,.479.029c.165.749.357,1.5.587,2.244a.7.7,0,0,0,.535.442,4.612,4.612,0,0,1-3.6-.427m-.888-13.472a3.428,3.428,0,0,1,2.574.139c-.072.03-.148.064-.22.1h-.022a1.405,1.405,0,0,0-.65.18,4.736,4.736,0,0,0-1.633-.165c-.014-.085-.032-.17-.049-.254m7.928,2.306a4.718,4.718,0,0,1,.02-.523c.1.23.181.462.266.7a2.275,2.275,0,0,0-.286-.174" fill="#faaf40"/>
    <path id="Path_18" data-name="Path 18" d="M207.083,90.947q-.805-.1-.556-.911c.328.137.654.275.981.413q.5.864-.809,1.309c-1.633.176-2.1-1.476-1.563-2.706.934-2.129,3.214-1.518,3.907.216a2.758,2.758,0,0,1-1,3.2c-2.447,1.878-5.213-2.511-5.291-4.493-.142-3.631,5.011-3.762,7.1-2.042s2.349,5.29.157,6.993c-3.349,2.6-8.312-.039-9.433-3.6-1.534-4.868,1.7-8.836,6.718-8.382,8.233.744,6.884,12.739-.935,12.822-.669.006-.9.865-.1.856,5.928-.062,10.408-6.925,6.541-12.041-1.924-2.545-5.851-2.925-8.72-2.236-3.5.839-5.3,3.977-4.986,7.433a7.025,7.025,0,0,0,6.088,6.76c2.7.465,5.879-.352,7.153-2.96,2.612-5.348-4.694-9.61-9-6.628-3.495,2.422-1.135,7.469,2.319,8.566a3.768,3.768,0,0,0,4.336-1.774c1.005-2.143-.11-4.927-2.668-5-2.2-.06-4.227,2.438-3.449,4.522.581,1.556,3.43,1.809,4.5.676a1.928,1.928,0,0,0-1.8-3.131,1.5,1.5,0,0,0,.1,2.979c.575.125,1.183-.682.406-.85Z" fill="#231f20"/>
  </g>
</svg>
