<svg xmlns="http://www.w3.org/2000/svg" width="11.54" height="11.54" viewBox="0 0 11.54 11.54">
  <g id="icon-search" transform="translate(-281.611 -259.061)">
    <path id="Path_37" data-name="Path 37" d="M287.933,265.382a3.7,3.7,0,1,1,0-5.238,3.708,3.708,0,0,1,0,5.238m-4.462-4.462a2.606,2.606,0,1,0,3.685,0,2.608,2.608,0,0,0-3.685,0" fill="#26265f"/>
    <path id="Path_38" data-name="Path 38" d="M292.911,270.36a.822.822,0,0,1-1.164,0l-3.3-3.3a.823.823,0,0,1,1.164-1.163l3.3,3.3a.826.826,0,0,1,0,1.164" fill="#26265f"/>
  </g>
</svg>
