<svg id="Layer_1" data-name="Layer 1" xmlns="http://www.w3.org/2000/svg" viewBox="0 0 9.99 10"><defs><style>.cls-1{fill:#58c6df;}</style></defs><path class="cls-1" d="M1.57,8.81C3.1,10,6.24,10.61,7.83,9.2A6.28,6.28,0,0,0,9.61,6.29a.27.27,0,0,0,.1-.11C10.81,3.85,8.26.89,6,.34A.19.19,0,0,0,5.93.29C1.26-1.56-2.15,6,1.57,8.81Zm.08-6.54A3.54,3.54,0,0,1,5.4.81a.25.25,0,0,0,.19.11A4.18,4.18,0,0,1,7.72,2.05a7.63,7.63,0,0,0-1.45-.62A4.11,4.11,0,0,0,3,2C1.58,3.33.89,6.59,3,7.8c1.8,1,4.39-.19,4.27-2.36C7.17,3.51,4.78,2.35,3.6,4.15a1.31,1.31,0,0,0-.1,1.21v0a.36.36,0,0,0,.25.4c.56.75,1.64,1.11,2.06.15S5.1,4.12,4.26,4.39a1.24,1.24,0,0,1,1.22-.45c1.49.3,1.37,2.38.4,3.13C4.09,8.44,2,6.62,2.38,4.64,2.6,3.54,3,2.43,4.24,2.15a4.18,4.18,0,0,1,2.43.12,4.25,4.25,0,0,1,2.11,1.6A3.71,3.71,0,0,1,8.65,7c-1.39,3.24-6,2.73-7.71.06C.09,5.75.88,3.46,1.65,2.27Z"/></svg>