<svg id="Layer_1" data-name="Layer 1" xmlns="http://www.w3.org/2000/svg" viewBox="0 0 21.89 15.34"><defs><style>.cls-1{fill:#5f9e45;}</style></defs><path class="cls-1" d="M6.46,3.22A5.56,5.56,0,0,0,4.3,7a5.27,5.27,0,0,0,1.75,4.05,1.14,1.14,0,0,0,1,.27c.21,0,.59-.28.33-.53A4.71,4.71,0,0,1,5.79,7.21,5,5,0,0,1,7.7,3.78c.55-.46-.84-.9-1.24-.56Z"/><path class="cls-1" d="M9.05,5.75a2.4,2.4,0,0,0-.88,1.46A2.06,2.06,0,0,0,8.6,8.78s.22,0,.23,0a4.24,4.24,0,0,0,.5-.18c.05,0,.7-.32.65-.38a2,2,0,0,1-.43-1.52,2.23,2.23,0,0,1,.85-1.44c.08-.07-.12,0-.1,0a3.09,3.09,0,0,0-.43.14,2.77,2.77,0,0,0-.82.42Z"/><path class="cls-1" d="M3.31.59A11.51,11.51,0,0,0,0,8.1a9.86,9.86,0,0,0,3.14,7c.47.46,1.82.09,1.16-.56A8.79,8.79,0,0,1,1.49,8.12a10.73,10.73,0,0,1,3-6.82C5.07.68,3.74.11,3.31.59Z"/><path class="cls-1" d="M15.43,12.12A5.6,5.6,0,0,0,17.59,8.3a5.3,5.3,0,0,0-1.75-4,1.14,1.14,0,0,0-1-.27c-.21,0-.6.27-.33.52A4.72,4.72,0,0,1,16.1,8.12a5,5,0,0,1-1.91,3.43c-.55.47.84.9,1.24.57Z"/><path class="cls-1" d="M12.84,9.59a2.4,2.4,0,0,0,.88-1.47,2,2,0,0,0-.44-1.56s-.21,0-.22,0a3,3,0,0,0-.5.18c-.05,0-.7.32-.66.38a2,2,0,0,1,.44,1.52,2.23,2.23,0,0,1-.85,1.44c-.08.06.12,0,.1,0A2.35,2.35,0,0,0,12,10a3,3,0,0,0,.82-.42Z"/><path class="cls-1" d="M18.58,14.74a11.47,11.47,0,0,0,3.31-7.5,9.9,9.9,0,0,0-3.14-7c-.48-.46-1.82-.08-1.16.56A8.82,8.82,0,0,1,20.4,7.22a10.76,10.76,0,0,1-3,6.81c-.56.62.76,1.19,1.2.71Z"/></svg>