<svg xmlns="http://www.w3.org/2000/svg" width="95.786" height="34.621" viewBox="0 0 95.786 34.621">
  <g id="Group_45" data-name="Group 45" transform="translate(-132.134 -15.374)">
    <g id="Group_43" data-name="Group 43">
      <path id="Path_25" data-name="Path 25" d="M134.113,27.555a1.282,1.282,0,0,1-.939-.394,1.252,1.252,0,0,1-.393-.939V25.01h2.2V21.027a1.25,1.25,0,0,1,.394-.939,1.282,1.282,0,0,1,.939-.394h1.333V25.01h4.983a1.345,1.345,0,0,1,1.333,1.333v1.212h-6.316v7.77a2.872,2.872,0,0,0,.939,2.5,4.942,4.942,0,0,0,2.7.545,11.544,11.544,0,0,0,1.711-.136q1.287,0,1.288,1.03V40.55a14.082,14.082,0,0,1-3,.334,7.591,7.591,0,0,1-4.635-1.121q-1.667-1.287-1.666-4.438v-7.77Z" fill="#27265f"/>
      <path id="Path_26" data-name="Path 26" d="M141.278,41.192a7.9,7.9,0,0,1-4.825-1.186c-1.184-.915-1.785-2.49-1.785-4.681V27.863h-.555a1.587,1.587,0,0,1-1.157-.484,1.552,1.552,0,0,1-.484-1.157V24.7h2.2V21.027a1.553,1.553,0,0,1,.489-1.161,1.582,1.582,0,0,1,1.153-.48h1.641V24.7h4.675a1.653,1.653,0,0,1,1.641,1.641v1.52h-6.316v7.462a2.614,2.614,0,0,0,.809,2.248,4.71,4.71,0,0,0,2.518.488,11.326,11.326,0,0,0,1.666-.133l.045,0c1.389,0,1.6.838,1.6,1.338V40.8l-.243.053a14.5,14.5,0,0,1-3.064.34m-8.189-15.874v.9a.947.947,0,0,0,.3.717.98.98,0,0,0,.725.307h1.172v8.079c0,1.99.52,3.4,1.546,4.194a7.351,7.351,0,0,0,4.447,1.056,13.708,13.708,0,0,0,2.69-.275V39.263c0-.354-.114-.716-.956-.722a11.8,11.8,0,0,1-1.734.136,5.163,5.163,0,0,1-2.872-.6,3.168,3.168,0,0,1-1.072-2.753V27.246h6.316v-.9a1.036,1.036,0,0,0-1.024-1.025h-5.292V20H136.31a.976.976,0,0,0-.721.3.949.949,0,0,0-.3.721v4.291Z" fill="#27265f"/>
      <path id="Path_27" data-name="Path 27" d="M141.278,40.976a7.706,7.706,0,0,1-4.692-1.141c-1.129-.872-1.7-2.389-1.7-4.51V27.647h-.772a1.377,1.377,0,0,1-1-.421,1.346,1.346,0,0,1-.421-1V25.01a.092.092,0,0,1,.092-.092h2.1V21.027a1.343,1.343,0,0,1,.422-1.005,1.375,1.375,0,0,1,1-.42h1.333a.092.092,0,0,1,.092.092v5.224h4.891a1.438,1.438,0,0,1,1.425,1.425v1.212a.092.092,0,0,1-.092.092h-6.224v7.678a2.8,2.8,0,0,0,.9,2.424,4.887,4.887,0,0,0,2.643.528,11.48,11.48,0,0,0,1.7-.135h.014c1.14,0,1.38.61,1.38,1.122V40.55a.093.093,0,0,1-.073.09,14.2,14.2,0,0,1-3.018.336m-8.4-15.874v1.12a1.149,1.149,0,0,0,.365.872,1.182,1.182,0,0,0,.875.369h.864a.092.092,0,0,1,.092.092v7.77c0,2.06.548,3.529,1.63,4.365a7.542,7.542,0,0,0,4.579,1.1,14.058,14.058,0,0,0,2.907-.316V39.263c0-.63-.389-.936-1.189-.938a11.761,11.761,0,0,1-1.718.136,5.049,5.049,0,0,1-2.749-.561,2.972,2.972,0,0,1-.978-2.575v-7.77a.092.092,0,0,1,.092-.092h6.224v-1.12a1.253,1.253,0,0,0-1.241-1.241h-4.983a.092.092,0,0,1-.092-.092V19.786H136.31a1.18,1.18,0,0,0-.874.367,1.151,1.151,0,0,0-.367.874V25.01a.092.092,0,0,1-.092.092Z" fill="#27265f"/>
      <path id="Path_28" data-name="Path 28" d="M141.031,41.284a7.987,7.987,0,0,1-4.881-1.206c-1.207-.932-1.82-2.532-1.82-4.753v-7.37h-.463a1.743,1.743,0,0,1-1.733-1.733V25.01a.4.4,0,0,1,.4-.4h1.8V21.027a1.646,1.646,0,0,1,.516-1.228,1.673,1.673,0,0,1,1.217-.5H137.4a.4.4,0,0,1,.4.4V24.61h4.583a1.745,1.745,0,0,1,1.733,1.733v1.212a.4.4,0,0,1-.4.4H137.8v7.37a2.531,2.531,0,0,0,.771,2.173,4.467,4.467,0,0,0,2.464.471,11.284,11.284,0,0,0,1.652-.132l.059,0h0a1.766,1.766,0,0,1,1.343.466,1.379,1.379,0,0,1,.345.964V40.55a.4.4,0,0,1-.315.392,14.561,14.561,0,0,1-3.084.342m-8.1-15.874v.812a.845.845,0,0,0,.271.65.884.884,0,0,0,.662.282h.863a.4.4,0,0,1,.4.4v7.77c0,1.96.508,3.347,1.51,4.121a7.269,7.269,0,0,0,4.39,1.037,13.6,13.6,0,0,0,2.6-.259v-.961c0-.323-.105-.622-.859-.63a11.886,11.886,0,0,1-1.74.137,5.312,5.312,0,0,1-2.924-.617A3.252,3.252,0,0,1,137,35.325v-7.77a.4.4,0,0,1,.4-.4h5.916v-.811a.946.946,0,0,0-.933-.933H137.4a.4.4,0,0,1-.4-.4V20.095h-.933a.876.876,0,0,0-.656.276.853.853,0,0,0-.276.656V25.01a.4.4,0,0,1-.4.4Z" fill="#27265f"/>
      <path id="Path_29" data-name="Path 29" d="M161.6,40.7h-1.333a1.282,1.282,0,0,1-.939-.394,1.247,1.247,0,0,1-.394-.939V30.433q0-3.09-3.3-3.09-3.726,0-4.862,3.2v8.83a1.247,1.247,0,0,1-.394.939,1.279,1.279,0,0,1-.939.394h-1.333V19.3h1.333a1.345,1.345,0,0,1,1.333,1.333v7.119q1.408-2.924,5.271-2.924,5.559,0,5.559,5.256Z" fill="#27265f"/>
      <path id="Path_30" data-name="Path 30" d="M161.912,41.01h-1.641a1.585,1.585,0,0,1-1.157-.484,1.548,1.548,0,0,1-.484-1.157V30.433c0-1.9-.951-2.782-2.994-2.782-2.341,0-3.831.962-4.553,2.941v8.777a1.552,1.552,0,0,1-.489,1.161,1.582,1.582,0,0,1-1.153.48H147.8V18.991h1.641a1.654,1.654,0,0,1,1.642,1.642v6.018a5.833,5.833,0,0,1,4.962-2.131c3.893,0,5.867,1.872,5.867,5.564Zm-6.276-13.976c2.362,0,3.61,1.175,3.61,3.4v8.936a.943.943,0,0,0,.3.717.981.981,0,0,0,.725.308H161.3V30.084c0-3.329-1.718-4.947-5.251-4.947-2.468,0-4.1.9-4.993,2.748l-.586,1.216V20.633a1.036,1.036,0,0,0-1.025-1.025h-1.024V40.394h1.024a.977.977,0,0,0,.721-.3.949.949,0,0,0,.3-.721V30.485l.018-.05c.8-2.256,2.536-3.4,5.152-3.4" fill="#27265f"/>
      <path id="Path_31" data-name="Path 31" d="M161.6,40.794h-1.333a1.377,1.377,0,0,1-1-.421,1.342,1.342,0,0,1-.421-1V30.433c0-2.018-1.05-3-3.21-3a4.575,4.575,0,0,0-4.77,3.119v8.815a1.343,1.343,0,0,1-.422,1.005,1.376,1.376,0,0,1-1,.42h-1.332a.093.093,0,0,1-.093-.092V19.3a.093.093,0,0,1,.093-.092h1.332a1.436,1.436,0,0,1,1.425,1.425v6.743c.989-1.752,2.73-2.64,5.179-2.64,3.75,0,5.651,1.8,5.651,5.348V40.7a.092.092,0,0,1-.092.092m-5.968-13.543c2.252,0,3.394,1.07,3.394,3.182v8.936a1.153,1.153,0,0,0,.366.873,1.184,1.184,0,0,0,.875.368h1.241V30.084a5.114,5.114,0,0,0-1.361-3.875,5.808,5.808,0,0,0-4.106-1.289c-2.524,0-4.27.966-5.188,2.872a.092.092,0,0,1-.175-.041V20.633a1.253,1.253,0,0,0-1.241-1.241H148.2V40.61h1.24a1.18,1.18,0,0,0,.874-.367,1.151,1.151,0,0,0,.367-.874v-8.83a.082.082,0,0,1,.006-.031c.768-2.162,2.433-3.257,4.948-3.257" fill="#27265f"/>
      <path id="Path_32" data-name="Path 32" d="M161.6,41.1h-1.333a1.675,1.675,0,0,1-1.222-.511,1.656,1.656,0,0,1-.511-1.222V30.433c0-1.835-.922-2.69-2.9-2.69a4.29,4.29,0,0,0-4.461,2.866v8.76a1.643,1.643,0,0,1-.517,1.228,1.669,1.669,0,0,1-1.217.505h-1.332a.4.4,0,0,1-.4-.4V19.3a.4.4,0,0,1,.4-.4h1.332a1.747,1.747,0,0,1,1.734,1.734v5.755a6.007,6.007,0,0,1,4.87-1.96c3.9,0,5.959,1.956,5.959,5.656V40.7a.4.4,0,0,1-.4.4m-5.968-14.16c2.422,0,3.7,1.207,3.7,3.491v8.936a.848.848,0,0,0,.271.65.884.884,0,0,0,.662.282h.933V30.084a4.824,4.824,0,0,0-1.265-3.651,5.518,5.518,0,0,0-3.894-1.2c-2.4,0-4.048.907-4.91,2.7a.4.4,0,0,1-.352.227l-.225.4v-.461a.4.4,0,0,1-.184-.338V20.633a.946.946,0,0,0-.933-.933h-.932V40.3h.932a.878.878,0,0,0,.656-.276.854.854,0,0,0,.277-.656v-8.83a.406.406,0,0,1,.023-.134c.817-2.3,2.579-3.463,5.239-3.463" fill="#27265f"/>
      <path id="Path_33" data-name="Path 33" d="M167.3,25.01h1.333a1.345,1.345,0,0,1,1.333,1.333v1.409a4.672,4.672,0,0,1,4.468-2.924,13.637,13.637,0,0,1,3,.349v1.287q0,1.03-1.287,1.03a14.659,14.659,0,0,0-2.121-.136q-2.924,0-4.059,3.2v8.815a1.32,1.32,0,0,1-1.333,1.333H167.3Z" fill="#27265f"/>
      <path id="Path_34" data-name="Path 34" d="M168.636,41.01h-1.641V24.7h1.641a1.653,1.653,0,0,1,1.641,1.641v.274a4.829,4.829,0,0,1,4.16-2.1,14.011,14.011,0,0,1,3.067.356l.24.054v1.534c0,.5-.207,1.338-1.6,1.338l-.045,0a14.494,14.494,0,0,0-2.076-.133c-1.806,0-3.033.962-3.751,2.941v8.762a1.627,1.627,0,0,1-1.641,1.641m-1.025-.616h1.025a1.013,1.013,0,0,0,1.025-1.025V30.5l.017-.05c.8-2.256,2.266-3.4,4.35-3.4a15.024,15.024,0,0,1,2.142.137c.843-.006.958-.368.958-.722V25.425a13.293,13.293,0,0,0-2.691-.288,4.352,4.352,0,0,0-4.19,2.748l-.586,1.216V26.343a1.038,1.038,0,0,0-1.025-1.025h-1.025Z" fill="#27265f"/>
      <path id="Path_35" data-name="Path 35" d="M168.636,40.794H167.3a.092.092,0,0,1-.092-.092V25.01a.092.092,0,0,1,.092-.092h1.333a1.438,1.438,0,0,1,1.425,1.425v1.028a4.709,4.709,0,0,1,4.376-2.635,13.758,13.758,0,0,1,3.019.351.092.092,0,0,1,.072.09v1.287c0,.745-.464,1.122-1.379,1.122h-.014a14.628,14.628,0,0,0-2.107-.135c-1.892,0-3.227,1.049-3.967,3.12v8.8a1.412,1.412,0,0,1-1.425,1.425M167.4,40.61h1.241a1.228,1.228,0,0,0,1.241-1.241V30.554a.106.106,0,0,1,.005-.031c.768-2.161,2.163-3.257,4.146-3.257a14.775,14.775,0,0,1,2.127.136c.8,0,1.189-.309,1.189-.938V25.25a13.559,13.559,0,0,0-2.907-.33,4.6,4.6,0,0,0-4.385,2.872.092.092,0,0,1-.1.049.09.09,0,0,1-.071-.09V26.343a1.253,1.253,0,0,0-1.241-1.241H167.4Z" fill="#27265f"/>
      <path id="Path_36" data-name="Path 36" d="M168.636,41.1H167.3a.4.4,0,0,1-.4-.4V25.01a.4.4,0,0,1,.4-.4h1.333a1.745,1.745,0,0,1,1.733,1.73,4.911,4.911,0,0,1,4.068-1.912,14.064,14.064,0,0,1,3.087.358.4.4,0,0,1,.312.391v1.287c0,.534-.219,1.43-1.687,1.43a.339.339,0,0,1-.064,0,14.469,14.469,0,0,0-2.057-.131c-1.733,0-2.964.964-3.659,2.866v8.745a1.719,1.719,0,0,1-1.733,1.733m-.933-.8h.933a.9.9,0,0,0,.662-.266.893.893,0,0,0,.271-.666V30.554a.4.4,0,0,1,.022-.134c.817-2.3,2.31-3.463,4.437-3.463a15.138,15.138,0,0,1,2.149.137c.754-.008.859-.307.859-.63V25.5a13.135,13.135,0,0,0-2.6-.271,4.318,4.318,0,0,0-4.108,2.7.4.4,0,0,1-.345.227l-.231.422v-.485a.4.4,0,0,1-.184-.338V26.343a.946.946,0,0,0-.933-.933H167.7Z" fill="#27265f"/>
      <path id="Path_37" data-name="Path 37" d="M181.582,26.343a1.25,1.25,0,0,1,.393-.939,1.282,1.282,0,0,1,.94-.394h1.332V39.369a1.25,1.25,0,0,1-.393.939,1.282,1.282,0,0,1-.939.394h-1.333Z" fill="#27265f"/>
      <path id="Path_38" data-name="Path 38" d="M182.915,41.01h-1.642V26.343a1.553,1.553,0,0,1,.489-1.161,1.582,1.582,0,0,1,1.153-.48h1.641V39.369a1.552,1.552,0,0,1-.489,1.161,1.58,1.58,0,0,1-1.152.48m-1.025-.616h1.025a.979.979,0,0,0,.721-.3.951.951,0,0,0,.3-.721V25.318h-1.024a.976.976,0,0,0-.721.3.949.949,0,0,0-.3.721Z" fill="#27265f"/>
      <path id="Path_39" data-name="Path 39" d="M182.915,40.794h-1.333a.092.092,0,0,1-.092-.092V26.343a1.347,1.347,0,0,1,.422-1.006,1.374,1.374,0,0,1,1-.419h1.332a.092.092,0,0,1,.092.092V39.369a1.339,1.339,0,0,1-.422,1.005,1.372,1.372,0,0,1-1,.42m-1.241-.184h1.241a1.183,1.183,0,0,0,.874-.367,1.153,1.153,0,0,0,.366-.874V25.1h-1.24a1.18,1.18,0,0,0-.874.367,1.151,1.151,0,0,0-.367.874Z" fill="#27265f"/>
      <path id="Path_40" data-name="Path 40" d="M182.915,41.1h-1.333a.4.4,0,0,1-.4-.4V26.343a1.643,1.643,0,0,1,.517-1.228,1.669,1.669,0,0,1,1.217-.5h1.332a.4.4,0,0,1,.4.4V39.369a1.643,1.643,0,0,1-.517,1.228,1.668,1.668,0,0,1-1.216.505m-.933-.8h.933a.881.881,0,0,0,.656-.276.853.853,0,0,0,.276-.656V25.41h-.932a.879.879,0,0,0-.657.277.853.853,0,0,0-.276.656Z" fill="#27265f"/>
      <path id="Path_41" data-name="Path 41" d="M189.858,26.343a1.247,1.247,0,0,1,.394-.939,1.279,1.279,0,0,1,.939-.394h1.333V39.369a1.251,1.251,0,0,1-.394.939,1.282,1.282,0,0,1-.939.394h-1.333Z" fill="#27265f"/>
      <path id="Path_42" data-name="Path 42" d="M191.191,41.01h-1.642V26.343a1.553,1.553,0,0,1,.489-1.161,1.582,1.582,0,0,1,1.153-.48h1.641V39.369a1.549,1.549,0,0,1-.489,1.161,1.58,1.58,0,0,1-1.152.48m-1.025-.616h1.025a.977.977,0,0,0,.721-.3.951.951,0,0,0,.3-.721V25.318h-1.024a.977.977,0,0,0-.721.3.949.949,0,0,0-.3.721Z" fill="#27265f"/>
      <path id="Path_43" data-name="Path 43" d="M191.191,40.794h-1.333a.092.092,0,0,1-.092-.092V26.343a1.347,1.347,0,0,1,.422-1.006,1.375,1.375,0,0,1,1-.419h1.333a.092.092,0,0,1,.092.092V39.369a1.343,1.343,0,0,1-.422,1.005,1.376,1.376,0,0,1-1,.42m-1.241-.184h1.241a1.183,1.183,0,0,0,.874-.367,1.154,1.154,0,0,0,.367-.874V25.1h-1.241a1.182,1.182,0,0,0-.874.367,1.154,1.154,0,0,0-.367.874Z" fill="#27265f"/>
      <path id="Path_44" data-name="Path 44" d="M190.991,41.1h-1.179a.38.38,0,0,1-.355-.4V26.343a1.752,1.752,0,0,1,.458-1.228,1.394,1.394,0,0,1,1.076-.5h1.179a.379.379,0,0,1,.354.4V39.369a1.756,1.756,0,0,1-.457,1.228,1.4,1.4,0,0,1-1.076.505m-.825-.8h.825a.737.737,0,0,0,.58-.276.911.911,0,0,0,.244-.656V25.41h-.824a.735.735,0,0,0-.581.277.911.911,0,0,0-.244.656Z" fill="#27265f"/>
      <path id="Path_45" data-name="Path 45" d="M197.755,25.01a1.669,1.669,0,0,1,1.772,1.363l3.681,12.36,3.681-12.36a1.669,1.669,0,0,1,1.772-1.363h1.363l-4.271,14.329A1.671,1.671,0,0,1,203.98,40.7h-1.545a1.671,1.671,0,0,1-1.772-1.363L196.392,25.01Z" fill="#27265f"/>
      <path id="Path_46" data-name="Path 46" d="M203.98,41.01h-1.545a1.978,1.978,0,0,1-2.07-1.592L195.979,24.7h1.776a1.977,1.977,0,0,1,2.07,1.592l3.383,11.359,3.385-11.368a1.974,1.974,0,0,1,2.068-1.583h1.776l-4.389,14.725a1.974,1.974,0,0,1-2.068,1.583m-7.174-15.692,4.153,13.933a1.37,1.37,0,0,0,1.476,1.143h1.545a1.367,1.367,0,0,0,1.475-1.135l4.155-13.941h-.949a1.365,1.365,0,0,0-1.474,1.135l-3.979,13.36-3.976-13.352a1.37,1.37,0,0,0-1.477-1.143Z" fill="#27265f"/>
      <path id="Path_47" data-name="Path 47" d="M203.98,40.794h-1.545a1.759,1.759,0,0,1-1.86-1.432L196.3,25.036a.093.093,0,0,1,.014-.081.094.094,0,0,1,.074-.037h1.363a1.759,1.759,0,0,1,1.861,1.431l3.592,12.061L206.8,26.347a1.76,1.76,0,0,1,1.861-1.429h1.363a.094.094,0,0,1,.074.037.093.093,0,0,1,.014.081l-4.271,14.329a1.76,1.76,0,0,1-1.861,1.429M196.516,25.1l4.236,14.21a1.576,1.576,0,0,0,1.683,1.3h1.545a1.576,1.576,0,0,0,1.684-1.3L209.9,25.1h-1.239a1.576,1.576,0,0,0-1.684,1.3L203.3,38.759a.092.092,0,0,1-.176,0L199.439,26.4a1.577,1.577,0,0,0-1.684-1.3Z" fill="#27265f"/>
      <path id="Path_48" data-name="Path 48" d="M203.98,41.1h-1.545a2.062,2.062,0,0,1-2.158-1.66l-4.268-14.318a.4.4,0,0,1,.383-.514h1.363a2.063,2.063,0,0,1,2.159,1.66l3.294,11.06,3.3-11.071a2.058,2.058,0,0,1,2.156-1.649h1.363a.4.4,0,0,1,.383.516l-4.271,14.327A2.058,2.058,0,0,1,203.98,41.1M196.929,25.41l4.118,13.814a1.276,1.276,0,0,0,1.388,1.077h1.545a1.271,1.271,0,0,0,1.386-1.066l4.121-13.825h-.826a1.272,1.272,0,0,0-1.386,1.066l-3.683,12.371a.4.4,0,0,1-.273.27l-.111.373-.111-.373a.4.4,0,0,1-.273-.27l-3.68-12.36a1.277,1.277,0,0,0-1.389-1.077Z" fill="#27265f"/>
      <path id="Path_49" data-name="Path 49" d="M223.882,37.974a13.075,13.075,0,0,1-3.143.4q-4.575,0-4.7-4.3H225.6q1.332,0,1.333-1.227a10.132,10.132,0,0,0-1.288-5.665q-1.59-2.348-5.362-2.348-6.967,0-6.967,8.028t7.422,8.028a14.542,14.542,0,0,0,3.143-.323ZM217,28.554a4.056,4.056,0,0,1,3.286-1.211,3.632,3.632,0,0,1,3.136,1.226,6.174,6.174,0,0,1,.787,2.954h-8.164A5.234,5.234,0,0,1,217,28.554" fill="#27265f"/>
      <path id="Path_50" data-name="Path 50" d="M220.739,41.192c-5.13,0-7.73-2.805-7.73-8.336s2.448-8.336,7.275-8.336c2.612,0,4.5.835,5.617,2.483a10.462,10.462,0,0,1,1.341,5.838,1.434,1.434,0,0,1-1.641,1.535h-9.234c.178,2.479,1.611,3.685,4.372,3.685a12.878,12.878,0,0,0,3.07-.386l.382-.094v3.227l-.242.054a14.916,14.916,0,0,1-3.21.33m-.455-16.055c-4.481,0-6.659,2.525-6.659,7.719s2.327,7.719,7.114,7.719a14.579,14.579,0,0,0,2.835-.264V38.362a13.277,13.277,0,0,1-2.835.316c-3.235,0-4.918-1.549-5-4.6l-.009-.317H225.6c.718,0,1.024-.274,1.024-.918a9.9,9.9,0,0,0-1.234-5.492c-.994-1.468-2.713-2.212-5.107-2.212m4.257,6.694h-8.83l.025-.331a5.546,5.546,0,0,1,1.024-3.142v0a4.364,4.364,0,0,1,3.523-1.322,3.93,3.93,0,0,1,3.385,1.354,6.381,6.381,0,0,1,.846,3.11Zm-8.16-.616h7.488a5.428,5.428,0,0,0-.7-2.468,3.365,3.365,0,0,0-2.884-1.1,3.789,3.789,0,0,0-3.05,1.1,4.649,4.649,0,0,0-.853,2.463" fill="#27265f"/>
      <path id="Path_51" data-name="Path 51" d="M223.882,40.466a14.438,14.438,0,0,1-3.143.326,7.163,7.163,0,0,1-5.5-1.978c-1.215-1.314-1.831-3.319-1.831-5.958s.578-4.646,1.719-5.96a6.489,6.489,0,0,1,5.156-1.976c2.47,0,4.249.777,5.286,2.308a10.091,10.091,0,0,1,1.272,5.613c0,.763-.406,1.135-1.241,1.135h-9.558a.092.092,0,0,0-.092.094c.082,2.914,1.693,4.391,4.788,4.391a13.26,13.26,0,0,0,3.143-.392v-.19a13.075,13.075,0,0,1-3.143.4c-2.984,0-4.49-1.347-4.6-4.117H225.6c.945,0,1.425-.444,1.425-1.319a10.267,10.267,0,0,0-1.3-5.717c-1.073-1.584-2.9-2.388-5.438-2.388-4.684,0-7.059,2.732-7.059,8.12s2.528,8.12,7.514,8.12a14.666,14.666,0,0,0,3.143-.323Z" fill="#27265f"/>
      <path id="Path_52" data-name="Path 52" d="M220.739,41.284a7.619,7.619,0,0,1-5.853-2.138c-1.307-1.412-1.969-3.529-1.969-6.29s.622-4.872,1.848-6.283a6.951,6.951,0,0,1,5.519-2.145c2.644,0,4.559.849,5.694,2.524a10.548,10.548,0,0,1,1.356,5.889,1.518,1.518,0,0,1-1.733,1.627h-9.135c.2,2.386,1.567,3.5,4.273,3.5a12.783,12.783,0,0,0,3.069-.39l.383-.094v.826l-.235.057a13.572,13.572,0,0,1-3.217.4c-3.247,0-5.01-1.622-5.1-4.691a.4.4,0,0,1,.4-.412H225.6c.662,0,.932-.239.932-.826a9.814,9.814,0,0,0-1.218-5.44c-.977-1.442-2.669-2.172-5.031-2.172a6.194,6.194,0,0,0-4.923,1.869c-1.091,1.256-1.644,3.194-1.644,5.758s.589,4.494,1.749,5.749a6.874,6.874,0,0,0,5.273,1.878,14.19,14.19,0,0,0,3.076-.318l.376-.084v.82l-.243.053a15.007,15.007,0,0,1-3.209.33" fill="#27265f"/>
      <path id="Path_53" data-name="Path 53" d="M224.207,31.615a.092.092,0,0,0,.092-.1,6.289,6.289,0,0,0-.8-3,3.73,3.73,0,0,0-3.21-1.264,4.158,4.158,0,0,0-3.357,1.245,5.338,5.338,0,0,0-.976,3.02.092.092,0,0,0,.092.1Zm-7.139-3a3.99,3.99,0,0,1,3.216-1.178,3.559,3.559,0,0,1,3.06,1.188,5.965,5.965,0,0,1,.763,2.808h-7.964a5.081,5.081,0,0,1,.925-2.818" fill="#27265f"/>
      <path id="Path_54" data-name="Path 54" d="M224.207,31.923h-8.164a.4.4,0,0,1-.4-.43,5.637,5.637,0,0,1,1.045-3.194,4.449,4.449,0,0,1,3.6-1.357,4.012,4.012,0,0,1,3.459,1.392,6.544,6.544,0,0,1,.863,3.157.4.4,0,0,1-.4.432m-7.723-.8h7.283a5.211,5.211,0,0,0-.674-2.323,3.283,3.283,0,0,0-2.809-1.057,3.7,3.7,0,0,0-2.979,1.068,4.452,4.452,0,0,0-.821,2.312" fill="#27265f"/>
      <g id="Group_42" data-name="Group 42">
        <g id="Group_36" data-name="Group 36">
          <g id="Group_27" data-name="Group 27">
            <path id="Path_55" data-name="Path 55" d="M188.018,16.633a3.815,3.815,0,0,0,.371,1.313c.213.35.746-.452.824-.6a4,4,0,0,0,.308-.912c.073-.288-.1-.4-.332-.224a1.721,1.721,0,0,0-.614.915c-.02.079-.038.159-.056.238-.029.132-.013.065.009.022l.824-.6a3.828,3.828,0,0,1-.372-1.314c-.058-.3-.546.2-.592.258a1.245,1.245,0,0,0-.37.906" fill="#58c7e1"/>
          </g>
          <g id="Group_28" data-name="Group 28">
            <path id="Path_56" data-name="Path 56" d="M188.513,17.016c.352.542.258,1.241.615,1.79s1.323-.66,1.023-1.123c-.352-.542-.259-1.241-.616-1.79s-1.323.661-1.022,1.123" fill="#58c7e1"/>
          </g>
          <g id="Group_35" data-name="Group 35">
            <g id="Group_29" data-name="Group 29">
              <path id="Path_57" data-name="Path 57" d="M189.842,17.9a7.069,7.069,0,0,0,.316,1.711c.132.335.444.335.722.171A2.194,2.194,0,0,0,191.8,18.3c.067-.3-.087-.639-.432-.6a.906.906,0,0,0-.7.721,1.591,1.591,0,0,1-.086.28c.018-.041.123-.094-.022-.009l.722.171a5.744,5.744,0,0,1-.272-1.408c-.112-.888-1.249-.2-1.167.45" fill="#58c7e1"/>
            </g>
            <g id="Group_30" data-name="Group 30">
              <path id="Path_58" data-name="Path 58" d="M191.09,18.77a14,14,0,0,0-.28,2.248c.022.332.343.13.486.014a18.147,18.147,0,0,0,1.7-1.9l-.608.114a2.95,2.95,0,0,1-.114,1.1c-.054.27.12.4.353.237.364-.256.678-.572,1.04-.827l-.295.057.239.273c.1.114.355-.1.415-.153a.9.9,0,0,1,.886-.169c.4.082,1.11-1.154.645-1.249a1.681,1.681,0,0,0-1.555.521l.416-.153-.239-.272c-.067-.077-.243.021-.294.057-.364.256-.678.572-1.04.828l.353.237a3.712,3.712,0,0,0,.139-1.36c-.068-.4-.465-.04-.608.113a15.535,15.535,0,0,1-1.453,1.649l.487.014a14.283,14.283,0,0,1,.28-2.248c.032-.342-.38-.111-.487-.014a1.4,1.4,0,0,0-.462.883" fill="#58c7e1"/>
            </g>
            <g id="Group_31" data-name="Group 31">
              <path id="Path_59" data-name="Path 59" d="M193.926,18.312c-.051.186.076-.109.078-.112a2.676,2.676,0,0,0,.17-.379l-.791.541a.171.171,0,0,1,.123.049.721.721,0,0,0,.918-.488c.165-.476.334-.951.523-1.419.106-.262.114-.69-.237-.768s-.674.252-.792.542c-.189.468-.358.942-.523,1.419l.918-.488a1.938,1.938,0,0,0-.377-.157.788.788,0,0,0-.791.542c-.1.29-.273.539-.355.836a.446.446,0,0,0,.433.6.914.914,0,0,0,.7-.722" fill="#58c7e1"/>
            </g>
            <g id="Group_32" data-name="Group 32">
              <path id="Path_60" data-name="Path 60" d="M189.422,23.007c.715-.313,1.493-.43,2.205-.749.763-.341,1.256-1.068,2-1.4a.949.949,0,0,0,.57-.85.418.418,0,0,0-.6-.4c-.768.346-1.268,1.022-2,1.405-.688.358-1.494.439-2.205.749a.946.946,0,0,0-.57.85.418.418,0,0,0,.6.4" fill="#58c7e1"/>
            </g>
            <g id="Group_33" data-name="Group 33">
              <path id="Path_61" data-name="Path 61" d="M191.6,18.71c.126.105-.042-.062.058.063,0,0,.092.155.05.065a1.125,1.125,0,0,1,.056.16c.01.036.019.073.026.111-.009-.059-.01-.053,0,.016a.432.432,0,0,0,.608.408.916.916,0,0,0,.571-.85,1.629,1.629,0,0,0-.56-1.175c-.275-.228-.685.091-.834.313a.662.662,0,0,0,.027.889" fill="#58c7e1"/>
            </g>
            <g id="Group_34" data-name="Group 34">
              <path id="Path_62" data-name="Path 62" d="M193.238,18.621c.06-.648.121-1.3.216-1.939l-.229.218a1.45,1.45,0,0,1,.254.19c.059.049.156-.054.182-.1a4.163,4.163,0,0,0,.457-1.521l-.248.2c.117.158.265.285.383.443.047.064.131.008.17-.038a3.788,3.788,0,0,0,.378-.452l-.2.076c.594,1.16-.721,2.021-.539,3.183.007.046.039.059.082.055.67-.069,1.547-.855,1.729.225l.175-.259c-1.175.224-1.939,1.2-2.965,1.729-.695.359-1.356.784-2.047,1.151-.328.174-1.614.994-1.958.6-.125-.144,1.013-.584,1.16-.645.475-.2,2.1-.792,1.495-1.58a1.922,1.922,0,0,0-.716-.479,8.536,8.536,0,0,1-1.307-.715,2.535,2.535,0,0,1-1.049-3.141l-.224.118a4.042,4.042,0,0,0,2.062,1.434c.883.312,2.572.488,2.8,1.573.036.17.282-.085.256-.2-.183-.873-1.056-1.083-1.8-1.322a5.436,5.436,0,0,1-3.077-1.741c-.068-.1-.2.056-.224.118a2.637,2.637,0,0,0,.217,2.649,6.423,6.423,0,0,0,2.458,1.693c.156.086.593.35.449.585a1.629,1.629,0,0,1-.678.448c-.553.268-1.153.443-1.683.757-.223.132-.561.428-.374.714.27.413,1.165-.087,1.464-.222.837-.378,1.626-.859,2.421-1.316.357-.2.717-.394,1.055-.631a5.815,5.815,0,0,1,2.176-1.258.262.262,0,0,0,.174-.259c-.057-.336-.184-.754-.606-.712a2.249,2.249,0,0,0-.61.178c-.258.1-.632.365-.615-.054a5.538,5.538,0,0,1,.6-1.5,1.7,1.7,0,0,0-.063-1.433c-.047-.091-.173.033-.2.076a3.269,3.269,0,0,1-.319.376l.17-.038c-.116-.158-.265-.285-.382-.443-.094-.127-.234.125-.248.2a3.5,3.5,0,0,1-.361,1.277l.182-.1a1.415,1.415,0,0,0-.255-.189c-.112-.06-.217.133-.229.218-.1.643-.157,1.291-.217,1.938-.019.208.247-.013.258-.135" fill="#0c0c0c"/>
            </g>
          </g>
        </g>
        <g id="Group_41" data-name="Group 41">
          <g id="Group_37" data-name="Group 37">
            <path id="Path_63" data-name="Path 63" d="M179.439,17.136a6.756,6.756,0,0,0-.022,2.373c.075.437.617.37.874.165a5.112,5.112,0,0,0,1.571-2.235l-1.306.4a18.962,18.962,0,0,1,.122,2.276c.059.649.7.621,1.069.2a7.255,7.255,0,0,0,1.3-2.012l-1.235.555a5.953,5.953,0,0,1,.6,2.409c.192.85,1.137-.052,1.307-.4a9.578,9.578,0,0,0,.686-1.538l-1.3.773c.216.219.483.371.7.587a.564.564,0,0,0,.8.01,5.266,5.266,0,0,0,1.639-2.582l-.612.671.173-.064-.505,0a.643.643,0,0,0,.2.226c.655.634,1.767-.8,1.225-1.324-.4-.392-.5-.618-1.11-.392-.839.313-.731,1.591-1.386,2.123l.8.01c-.215-.218-.483-.371-.7-.587-.542-.55-1.157.282-1.3.773a7.584,7.584,0,0,1-.554,1.1l1.307-.4a6.485,6.485,0,0,0-.74-2.721c-.4-.534-1.077.17-1.235.555a4.228,4.228,0,0,1-.772,1.187l1.069.2a21.716,21.716,0,0,0-.174-2.65c-.177-.824-1.158.015-1.306.4a2.439,2.439,0,0,1-.707,1.1l.875.166a4.509,4.509,0,0,1,.032-1.584c.206-1.191-1.233-.618-1.378.223" fill="#ee4445"/>
          </g>
          <g id="Group_38" data-name="Group 38">
            <path id="Path_64" data-name="Path 64" d="M179.3,17.879a6.771,6.771,0,0,0,.6,2.3c.187.4.693.2.887-.068a5.119,5.119,0,0,0,.935-2.567l-1.158.726a18.578,18.578,0,0,1,.711,2.165c.226.611.841.416,1.085-.085a7.236,7.236,0,0,0,.729-2.281l-1.047.858c.672.53.819,1.441,1.2,2.17.407.771,1.084-.345,1.158-.726a9.655,9.655,0,0,0,.262-1.664q-.528.543-1.055,1.085c.265.155.563.233.825.386a.564.564,0,0,0,.777-.2,5.253,5.253,0,0,0,.91-2.919l-.416.807.151-.107-.489.129a.651.651,0,0,0,.248.168c.8.442,1.5-1.231.837-1.6-.493-.274-.645-.467-1.173-.09-.729.521-.291,1.727-.785,2.412l.777-.2c-.265-.155-.564-.233-.825-.386-.667-.39-1.044.574-1.055,1.086a7.717,7.717,0,0,1-.247,1.209l1.157-.726c-.452-.857-.626-1.806-1.423-2.434-.523-.412-1,.444-1.048.857a4.227,4.227,0,0,1-.436,1.348l1.085-.086a21.759,21.759,0,0,0-.859-2.513c-.385-.749-1.114.316-1.157.726a2.428,2.428,0,0,1-.394,1.251l.887-.068a4.534,4.534,0,0,1-.381-1.537c-.111-1.2-1.352-.275-1.273.574" fill="#ee4445"/>
          </g>
          <g id="Group_39" data-name="Group 39">
            <path id="Path_65" data-name="Path 65" d="M183.8,18.015c-.675-2.026-4.377-3.89-5.185-.98-.3,1.1.651,2.188,1.321,2.939.872.977,1.964,1.747,2.809,2.743.089.105.462-.361.33-.517-1.222-1.439-2.893-2.436-3.827-4.129a1.8,1.8,0,0,1-.245-1.317c.246-.887,1.49-.778,2.118-.563a3.906,3.906,0,0,1,2.3,2.287c.051.15.434-.285.375-.463" fill="#0c0c0c"/>
          </g>
          <g id="Group_40" data-name="Group 40">
            <path id="Path_66" data-name="Path 66" d="M183.518,17.648c.276-1.012,1.432-2.242,2.459-1.258.885.848.3,2.181-.324,2.95-.966,1.185-2.383,1.937-3.219,3.237-.206.32.168.559.374.238,1.248-1.939,4.5-3.106,4.044-5.86a1.619,1.619,0,0,0-1.859-1.455c-1.076.154-1.709,1.263-1.965,2.2-.1.386.411.233.49-.055" fill="#0c0c0c"/>
          </g>
        </g>
      </g>
    </g>
    <g id="Group_44" data-name="Group 44">
      <path id="Path_67" data-name="Path 67" d="M133.966,46.327a1.3,1.3,0,0,1,.494-.521,1.353,1.353,0,0,1,.7-.185,1.279,1.279,0,0,1,.661.164,1.089,1.089,0,0,1,.418.412v-.529h.487v2.9h-.487v-.54a1.133,1.133,0,0,1-.426.421,1.272,1.272,0,0,1-.658.167,1.312,1.312,0,0,1-.7-.191,1.338,1.338,0,0,1-.492-.534,1.662,1.662,0,0,1-.18-.783,1.627,1.627,0,0,1,.18-.78m2.142.214a.937.937,0,0,0-.357-.373,1.017,1.017,0,0,0-.986,0,.921.921,0,0,0-.355.371,1.178,1.178,0,0,0-.132.571,1.207,1.207,0,0,0,.132.579.935.935,0,0,0,.355.376.96.96,0,0,0,.491.129.978.978,0,0,0,.5-.129.933.933,0,0,0,.357-.376,1.2,1.2,0,0,0,.132-.574,1.18,1.18,0,0,0-.132-.571" fill="#5a595c"/>
      <path id="Path_68" data-name="Path 68" d="M138.366,48.5a1.006,1.006,0,0,1-.417-.318.838.838,0,0,1-.17-.468h.5a.49.49,0,0,0,.2.355.78.78,0,0,0,.479.137.693.693,0,0,0,.434-.122.372.372,0,0,0,.158-.306.3.3,0,0,0-.169-.283,2.35,2.35,0,0,0-.524-.183,3.825,3.825,0,0,1-.526-.172.925.925,0,0,1-.349-.259.674.674,0,0,1-.145-.452.685.685,0,0,1,.132-.407.889.889,0,0,1,.375-.294,1.359,1.359,0,0,1,.556-.108,1.184,1.184,0,0,1,.777.243.878.878,0,0,1,.318.667h-.482a.5.5,0,0,0-.182-.366.81.81,0,0,0-.86-.026.343.343,0,0,0-.153.291.32.32,0,0,0,.092.235.68.68,0,0,0,.233.148,4.069,4.069,0,0,0,.389.125,4.282,4.282,0,0,1,.508.166.9.9,0,0,1,.336.246.664.664,0,0,1,.145.429.735.735,0,0,1-.132.428.882.882,0,0,1-.373.3,1.341,1.341,0,0,1-.553.108,1.518,1.518,0,0,1-.6-.113" fill="#5a595c"/>
      <path id="Path_69" data-name="Path 69" d="M141.683,46.065v1.708a.4.4,0,0,0,.09.3.444.444,0,0,0,.312.088h.354v.407h-.434a.862.862,0,0,1-.6-.185.8.8,0,0,1-.2-.609V46.065h-.376v-.4h.376v-.73h.481v.73h.756v.4Z" fill="#5a595c"/>
      <path id="Path_70" data-name="Path 70" d="M144.261,45.753a1.119,1.119,0,0,1,.574-.138v.5h-.127q-.808,0-.809.878v1.576h-.481v-2.9h.481v.471a.924.924,0,0,1,.362-.386" fill="#5a595c"/>
      <path id="Path_71" data-name="Path 71" d="M146.314,48.429a1.314,1.314,0,0,1-.519-.526,1.615,1.615,0,0,1-.188-.791,1.562,1.562,0,0,1,.194-.785,1.326,1.326,0,0,1,.526-.524,1.618,1.618,0,0,1,1.491,0,1.333,1.333,0,0,1,.527.521,1.573,1.573,0,0,1,.193.788,1.536,1.536,0,0,1-.2.791,1.375,1.375,0,0,1-.536.526,1.537,1.537,0,0,1-.752.185,1.475,1.475,0,0,1-.737-.185m1.224-.359a.929.929,0,0,0,.368-.365,1.332,1.332,0,0,0,0-1.185.9.9,0,0,0-.359-.363,1.048,1.048,0,0,0-.966,0,.879.879,0,0,0-.351.363,1.213,1.213,0,0,0-.133.592,1.262,1.262,0,0,0,.13.6.856.856,0,0,0,.347.362.963.963,0,0,0,.475.119,1.016,1.016,0,0,0,.487-.121" fill="#5a595c"/>
      <rect id="Rectangle_8" data-name="Rectangle 8" width="0.481" height="3.914" transform="translate(149.569 44.653)" fill="#5a595c"/>
      <path id="Path_72" data-name="Path 72" d="M151.793,48.429a1.318,1.318,0,0,1-.518-.526,1.615,1.615,0,0,1-.188-.791,1.572,1.572,0,0,1,.193-.785,1.328,1.328,0,0,1,.527-.524,1.618,1.618,0,0,1,1.491,0,1.34,1.34,0,0,1,.527.521,1.573,1.573,0,0,1,.193.788,1.536,1.536,0,0,1-.2.791,1.371,1.371,0,0,1-.537.526,1.531,1.531,0,0,1-.751.185,1.481,1.481,0,0,1-.738-.185m1.225-.359a.935.935,0,0,0,.368-.365,1.332,1.332,0,0,0,0-1.185.911.911,0,0,0-.36-.363,1.045,1.045,0,0,0-.965,0,.887.887,0,0,0-.352.363,1.225,1.225,0,0,0-.132.592,1.25,1.25,0,0,0,.13.6.86.86,0,0,0,.346.362.969.969,0,0,0,.476.119,1.019,1.019,0,0,0,.487-.121" fill="#5a595c"/>
      <path id="Path_73" data-name="Path 73" d="M156.9,45.785a1.1,1.1,0,0,1,.421.412v-.529h.486V48.63a1.449,1.449,0,0,1-.169.707,1.2,1.2,0,0,1-.484.483,1.48,1.48,0,0,1-.733.175,1.6,1.6,0,0,1-.952-.27,1.051,1.051,0,0,1-.449-.735h.476a.76.76,0,0,0,.328.426,1.076,1.076,0,0,0,.6.161.88.88,0,0,0,.648-.249.935.935,0,0,0,.252-.7v-.608a1.169,1.169,0,0,1-.424.423,1.242,1.242,0,0,1-.656.17,1.322,1.322,0,0,1-1.2-.725,1.662,1.662,0,0,1-.18-.783,1.627,1.627,0,0,1,.18-.78,1.3,1.3,0,0,1,.5-.521,1.347,1.347,0,0,1,.7-.185,1.284,1.284,0,0,1,.659.164m.288.756a.937.937,0,0,0-.357-.373,1.017,1.017,0,0,0-.986,0,.928.928,0,0,0-.355.371,1.178,1.178,0,0,0-.132.571,1.207,1.207,0,0,0,.132.579.941.941,0,0,0,.355.376.961.961,0,0,0,.492.129.974.974,0,0,0,.494-.129.933.933,0,0,0,.357-.376,1.2,1.2,0,0,0,.133-.574,1.18,1.18,0,0,0-.133-.571" fill="#5a595c"/>
      <path id="Path_74" data-name="Path 74" d="M161.518,45.668l-1.745,4.263h-.5l.571-1.4-1.169-2.867h.534l.91,2.348.9-2.348Z" fill="#5a595c"/>
      <path id="Path_75" data-name="Path 75" d="M162.893,47.9l-.592,1.423h-.323l.386-1.423Z" fill="#5a595c"/>
      <path id="Path_76" data-name="Path 76" d="M169.51,45.668l-.9,2.9h-.5l-.7-2.3-.7,2.3h-.5l-.91-2.9h.492l.666,2.433.719-2.433h.492l.7,2.438.656-2.438Z" fill="#5a595c"/>
      <path id="Path_77" data-name="Path 77" d="M173.012,47.3H170.7a.909.909,0,0,0,.941.91.889.889,0,0,0,.521-.145.766.766,0,0,0,.294-.389h.518a1.245,1.245,0,0,1-.465.68,1.409,1.409,0,0,1-.868.261,1.454,1.454,0,0,1-.737-.185,1.308,1.308,0,0,1-.511-.526,1.636,1.636,0,0,1-.185-.791,1.657,1.657,0,0,1,.18-.788,1.262,1.262,0,0,1,.505-.521,1.5,1.5,0,0,1,.748-.182,1.462,1.462,0,0,1,.73.179,1.248,1.248,0,0,1,.49.495,1.468,1.468,0,0,1,.172.712c0,.091-.006.188-.016.29m-.6-.864a.791.791,0,0,0-.331-.3,1.026,1.026,0,0,0-.463-.1.888.888,0,0,0-.621.233.949.949,0,0,0-.294.645h1.83a.887.887,0,0,0-.121-.473" fill="#5a595c"/>
      <rect id="Rectangle_9" data-name="Rectangle 9" width="0.481" height="3.914" transform="translate(174.059 44.653)" fill="#5a595c"/>
      <rect id="Rectangle_10" data-name="Rectangle 10" width="0.481" height="3.914" transform="translate(175.757 44.653)" fill="#5a595c"/>
      <path id="Path_78" data-name="Path 78" d="M179.724,45.935a1.235,1.235,0,0,1,.328.923v1.709h-.476v-1.64a.936.936,0,0,0-.217-.664.779.779,0,0,0-.593-.23.793.793,0,0,0-.605.238.973.973,0,0,0-.225.693v1.6h-.481v-2.9h.481v.413a.955.955,0,0,1,.389-.344,1.205,1.205,0,0,1,.542-.122,1.178,1.178,0,0,1,.857.32" fill="#5a595c"/>
      <path id="Path_79" data-name="Path 79" d="M183.865,47.3h-2.317a.911.911,0,0,0,.942.91.889.889,0,0,0,.521-.145.77.77,0,0,0,.293-.389h.519a1.252,1.252,0,0,1-.466.68,1.4,1.4,0,0,1-.867.261,1.46,1.46,0,0,1-.738-.185,1.305,1.305,0,0,1-.51-.526,1.625,1.625,0,0,1-.186-.791,1.669,1.669,0,0,1,.18-.788,1.264,1.264,0,0,1,.506-.521,1.5,1.5,0,0,1,.748-.182,1.465,1.465,0,0,1,.73.179,1.239,1.239,0,0,1,.489.495,1.457,1.457,0,0,1,.172.712,2.709,2.709,0,0,1-.016.29m-.6-.864a.788.788,0,0,0-.33-.3,1.032,1.032,0,0,0-.463-.1.889.889,0,0,0-.622.233.944.944,0,0,0-.293.645h1.83a.888.888,0,0,0-.122-.473" fill="#5a595c"/>
      <path id="Path_80" data-name="Path 80" d="M185.341,48.5a1.01,1.01,0,0,1-.418-.318.838.838,0,0,1-.169-.468h.5a.488.488,0,0,0,.2.355.777.777,0,0,0,.478.137.691.691,0,0,0,.434-.122.371.371,0,0,0,.159-.306.3.3,0,0,0-.169-.283,2.369,2.369,0,0,0-.524-.183,3.779,3.779,0,0,1-.526-.172.929.929,0,0,1-.35-.259.674.674,0,0,1-.145-.452.685.685,0,0,1,.132-.407.892.892,0,0,1,.376-.294,1.354,1.354,0,0,1,.555-.108,1.189,1.189,0,0,1,.778.243.877.877,0,0,1,.317.667h-.481a.5.5,0,0,0-.183-.366.808.808,0,0,0-.859-.026.342.342,0,0,0-.154.291.316.316,0,0,0,.093.235.67.67,0,0,0,.233.148,4.032,4.032,0,0,0,.388.125,4.222,4.222,0,0,1,.508.166.888.888,0,0,1,.336.246.659.659,0,0,1,.145.429.735.735,0,0,1-.132.428.876.876,0,0,1-.373.3,1.333,1.333,0,0,1-.552.108,1.511,1.511,0,0,1-.6-.113" fill="#5a595c"/>
      <path id="Path_81" data-name="Path 81" d="M188.5,48.5a1,1,0,0,1-.418-.318.83.83,0,0,1-.169-.468h.5a.49.49,0,0,0,.2.355.78.78,0,0,0,.479.137.693.693,0,0,0,.434-.122.37.37,0,0,0,.158-.306.3.3,0,0,0-.169-.283,2.357,2.357,0,0,0-.523-.183,3.8,3.8,0,0,1-.527-.172.925.925,0,0,1-.349-.259.674.674,0,0,1-.145-.452.685.685,0,0,1,.132-.407.889.889,0,0,1,.375-.294,1.362,1.362,0,0,1,.556-.108,1.184,1.184,0,0,1,.777.243.875.875,0,0,1,.318.667h-.482a.5.5,0,0,0-.182-.366.808.808,0,0,0-.859-.026.342.342,0,0,0-.154.291.316.316,0,0,0,.093.235.661.661,0,0,0,.233.148,3.941,3.941,0,0,0,.388.125,4.282,4.282,0,0,1,.508.166.9.9,0,0,1,.336.246.659.659,0,0,1,.145.429.735.735,0,0,1-.132.428.876.876,0,0,1-.373.3,1.338,1.338,0,0,1-.553.108,1.509,1.509,0,0,1-.6-.113" fill="#5a595c"/>
      <path id="Path_82" data-name="Path 82" d="M193.037,46.327a1.306,1.306,0,0,1,.494-.521,1.353,1.353,0,0,1,.7-.185,1.276,1.276,0,0,1,.661.164,1.089,1.089,0,0,1,.418.412v-.529h.487v2.9h-.487v-.54a1.133,1.133,0,0,1-.426.421,1.272,1.272,0,0,1-.658.167,1.314,1.314,0,0,1-.7-.191,1.338,1.338,0,0,1-.492-.534,1.662,1.662,0,0,1-.18-.783,1.627,1.627,0,0,1,.18-.78m2.142.214a.937.937,0,0,0-.357-.373,1.017,1.017,0,0,0-.986,0,.921.921,0,0,0-.355.371,1.178,1.178,0,0,0-.132.571,1.207,1.207,0,0,0,.132.579.935.935,0,0,0,.355.376.96.96,0,0,0,.491.129.978.978,0,0,0,.5-.129.933.933,0,0,0,.357-.376,1.2,1.2,0,0,0,.132-.574,1.18,1.18,0,0,0-.132-.571" fill="#5a595c"/>
      <path id="Path_83" data-name="Path 83" d="M199.278,45.935a1.231,1.231,0,0,1,.328.923v1.709h-.476v-1.64a.932.932,0,0,0-.217-.664.775.775,0,0,0-.592-.23.8.8,0,0,0-.606.238.973.973,0,0,0-.225.693v1.6h-.481v-2.9h.481v.413a.962.962,0,0,1,.389-.344,1.21,1.21,0,0,1,.543-.122,1.174,1.174,0,0,1,.856.32" fill="#5a595c"/>
      <path id="Path_84" data-name="Path 84" d="M200.791,46.327a1.3,1.3,0,0,1,.495-.521,1.358,1.358,0,0,1,.706-.185,1.309,1.309,0,0,1,.629.156,1.127,1.127,0,0,1,.445.41V44.653h.486v3.914h-.486v-.545a1.132,1.132,0,0,1-.424.426,1.258,1.258,0,0,1-.655.167,1.322,1.322,0,0,1-1.2-.725,1.662,1.662,0,0,1-.18-.783,1.627,1.627,0,0,1,.18-.78m2.142.214a.937.937,0,0,0-.357-.373,1.017,1.017,0,0,0-.986,0,.928.928,0,0,0-.355.371,1.178,1.178,0,0,0-.132.571,1.207,1.207,0,0,0,.132.579.941.941,0,0,0,.355.376.961.961,0,0,0,.492.129.974.974,0,0,0,.494-.129.933.933,0,0,0,.357-.376,1.2,1.2,0,0,0,.133-.574,1.181,1.181,0,0,0-.133-.571" fill="#5a595c"/>
      <path id="Path_85" data-name="Path 85" d="M207.487,45.785a1.28,1.28,0,0,1,.651-.164,1.345,1.345,0,0,1,.7.185,1.3,1.3,0,0,1,.492.521,1.627,1.627,0,0,1,.18.78,1.662,1.662,0,0,1-.18.783,1.319,1.319,0,0,1-1.195.725,1.287,1.287,0,0,1-.659-.165,1.114,1.114,0,0,1-.425-.417v.534h-.482V44.653h.482v1.555a1.129,1.129,0,0,1,.433-.423m1.4.751a.919.919,0,0,0-.357-.371,1,1,0,0,0-.495-.126.966.966,0,0,0-.489.129.944.944,0,0,0-.359.376,1.161,1.161,0,0,0-.135.568,1.174,1.174,0,0,0,.135.574.944.944,0,0,0,.359.376.966.966,0,0,0,.489.129.978.978,0,0,0,.495-.129.933.933,0,0,0,.357-.376,1.207,1.207,0,0,0,.132-.579,1.178,1.178,0,0,0-.132-.571" fill="#5a595c"/>
      <path id="Path_86" data-name="Path 86" d="M213.174,47.3h-2.317a.909.909,0,0,0,.941.91.889.889,0,0,0,.521-.145.772.772,0,0,0,.294-.389h.518a1.25,1.25,0,0,1-.465.68,1.409,1.409,0,0,1-.868.261,1.46,1.46,0,0,1-.738-.185,1.305,1.305,0,0,1-.51-.526,1.625,1.625,0,0,1-.185-.791,1.657,1.657,0,0,1,.18-.788,1.262,1.262,0,0,1,.505-.521,1.5,1.5,0,0,1,.748-.182,1.462,1.462,0,0,1,.73.179,1.248,1.248,0,0,1,.49.495,1.467,1.467,0,0,1,.171.712c0,.091,0,.188-.015.29m-.6-.864a.8.8,0,0,0-.331-.3,1.029,1.029,0,0,0-.463-.1.888.888,0,0,0-.621.233.949.949,0,0,0-.294.645h1.83a.888.888,0,0,0-.121-.473" fill="#5a595c"/>
      <path id="Path_87" data-name="Path 87" d="M216.717,45.668l-1.745,4.263h-.5l.571-1.4-1.169-2.867h.534l.91,2.348.9-2.348Z" fill="#5a595c"/>
      <path id="Path_88" data-name="Path 88" d="M218.122,48.429a1.314,1.314,0,0,1-.519-.526,1.615,1.615,0,0,1-.188-.791,1.572,1.572,0,0,1,.193-.785,1.334,1.334,0,0,1,.527-.524,1.618,1.618,0,0,1,1.491,0,1.333,1.333,0,0,1,.527.521,1.573,1.573,0,0,1,.193.788,1.536,1.536,0,0,1-.2.791,1.375,1.375,0,0,1-.536.526,1.537,1.537,0,0,1-.752.185,1.475,1.475,0,0,1-.737-.185m1.224-.359a.929.929,0,0,0,.368-.365,1.332,1.332,0,0,0,0-1.185.9.9,0,0,0-.359-.363,1.047,1.047,0,0,0-.966,0,.879.879,0,0,0-.351.363,1.213,1.213,0,0,0-.133.592,1.262,1.262,0,0,0,.13.6.856.856,0,0,0,.347.362.963.963,0,0,0,.475.119,1.019,1.019,0,0,0,.487-.121" fill="#5a595c"/>
      <path id="Path_89" data-name="Path 89" d="M223.646,45.935a1.231,1.231,0,0,1,.328.923v1.709H223.5v-1.64a.932.932,0,0,0-.217-.664.775.775,0,0,0-.592-.23.793.793,0,0,0-.6.238.969.969,0,0,0-.225.693v1.6h-.482v-2.9h.482v.413a.959.959,0,0,1,.388-.344,1.21,1.21,0,0,1,.543-.122,1.174,1.174,0,0,1,.856.32" fill="#5a595c"/>
      <path id="Path_90" data-name="Path 90" d="M225.159,46.327a1.3,1.3,0,0,1,.5-.521,1.358,1.358,0,0,1,.706-.185,1.309,1.309,0,0,1,.629.156,1.127,1.127,0,0,1,.445.41V44.653h.486v3.914h-.486v-.545a1.132,1.132,0,0,1-.424.426,1.256,1.256,0,0,1-.655.167,1.322,1.322,0,0,1-1.2-.725,1.662,1.662,0,0,1-.18-.783,1.627,1.627,0,0,1,.18-.78m2.142.214a.937.937,0,0,0-.357-.373,1.017,1.017,0,0,0-.986,0,.934.934,0,0,0-.355.371,1.178,1.178,0,0,0-.132.571,1.207,1.207,0,0,0,.132.579.948.948,0,0,0,.355.376.962.962,0,0,0,.492.129.974.974,0,0,0,.494-.129.933.933,0,0,0,.357-.376,1.184,1.184,0,0,0,.133-.574,1.169,1.169,0,0,0-.133-.571" fill="#5a595c"/>
    </g>
  </g>
</svg>
