<?xml version="1.0" encoding="utf-8"?>
<!-- Generator: Adobe Illustrator 24.3.0, SVG Export Plug-In . SVG Version: 6.00 Build 0)  -->
<svg version="1.1" id="ss-tw" xmlns="http://www.w3.org/2000/svg" xmlns:xlink="http://www.w3.org/1999/xlink" x="0px" y="0px"
	 viewBox="0 0 14.6 11.9" style="enable-background:new 0 0 14.6 11.9;" xml:space="preserve">
<style type="text/css">
	.st0{fill:#282560;}
</style>
<path id="Path_2252" class="st0" d="M14.1,0.3c-0.2,0.6-0.6,1.1-1,1.5c0.5-0.1,0.9-0.2,1.5-0.4c-0.2,0.3-0.5,0.6-0.7,0.8
	c-0.5,0.4-0.8,1-0.8,1.6c-0.1,2.2-1.1,4.3-2.8,5.8c-1.3,1.2-3,2-4.9,2.1c-1.8,0.2-3.5-0.2-5.1-1.1c-0.1-0.1-0.2-0.1-0.4-0.2
	c1.6,0.2,3.1-0.3,4.4-1.2C3.1,9.3,2,8.4,1.6,7.2h1.1l0-0.1C1.5,6.8,0.6,5.6,0.6,4.2C1,4.4,1.3,4.5,1.7,4.6l0.1-0.1
	C0.6,3.5,0.3,1.9,1,0.6c1.5,1.8,3.7,3,6.1,3.1c0-0.3,0-0.5,0-0.7c0-1.7,1.3-3,3-3c0.7,0,1.4,0.3,2,0.7c0.2,0.2,0.4,0.2,0.6,0.1
	L14.1,0.3z"/>
</svg>
