<?xml version="1.0" encoding="utf-8"?>
<!-- Generator: Adobe Illustrator 24.3.0, SVG Export Plug-In . SVG Version: 6.00 Build 0)  -->
<svg version="1.1" id="Layer_1" xmlns="http://www.w3.org/2000/svg" xmlns:xlink="http://www.w3.org/1999/xlink" x="0px" y="0px"
	 viewBox="0 0 42 42" style="enable-background:new 0 0 42 42;" xml:space="preserve">
<style type="text/css">
	.st0{fill:none;stroke:#FFFFFF;stroke-miterlimit:10;}
	.st1{clip-path:url(#SVGID_2_);}
	.st2{fill:#FFFFFF;}
</style>
<circle class="st0" cx="21" cy="21" r="20.1"/>
<g>
	<defs>
		<circle id="SVGID_1_" cx="21" cy="21" r="20.1"/>
	</defs>
	<clipPath id="SVGID_2_">
		<use xlink:href="#SVGID_1_"  style="overflow:visible;"/>
	</clipPath>
	<g class="st1">
		<path class="st2" d="M27,27.8c1.4-1.9,2.1-4.2,2.1-6.6c0-5.6-3.9-10.1-8.6-10.1s-8.6,4.5-8.6,10.1c0,2.4,0.7,4.7,2.1,6.6
			c-5.2,1.7-8.5,10.2-8.5,14v0.5h30.1v-0.5C35.6,38,32.2,29.5,27,27.8L27,27.8z M20.5,12.1c4.2,0,7.6,4.1,7.6,9.1
			c0,2.4-0.8,4.7-2.3,6.5c-1.3,1.6-3.3,2.6-5.3,2.6c-2.1,0-4-1-5.4-2.6c-1.5-1.8-2.3-4.2-2.3-6.5C12.8,16.2,16.3,12.1,20.5,12.1z
			 M6.4,41.4c0.3-3.4,3.4-11.3,8.2-12.8c0.1,0.1,0.2,0.2,0.2,0.2l0.3,0.3l0.4,0.3l0.3,0.2c0.1,0.1,0.3,0.2,0.4,0.3l0.3,0.2
			c0.1,0.1,0.3,0.2,0.4,0.2l0.3,0.2l0.5,0.2l0.3,0.1c0.2,0.1,0.3,0.1,0.5,0.1c0.1,0,0.2,0.1,0.3,0.1l0.5,0.1h0.3c0.3,0,0.6,0,0.8,0
			c0.3,0,0.6,0,0.8,0h0.3l0.5-0.1c0.1,0,0.2-0.1,0.3-0.1c0.2,0,0.3-0.1,0.5-0.1l0.3-0.1l0.4-0.2l0.3-0.2c0.1-0.1,0.3-0.1,0.4-0.2
			c0.1-0.1,0.2-0.1,0.3-0.2s0.3-0.2,0.4-0.3l0.3-0.2l0.4-0.3l0.3-0.3l0.2-0.2c4.8,1.4,7.9,9.3,8.2,12.8H6.4z"/>
	</g>
</g>
</svg>
