<?xml version="1.0" encoding="utf-8"?>
<!-- Generator: Adobe Illustrator 24.3.0, SVG Export Plug-In . SVG Version: 6.00 Build 0)  -->
<svg version="1.1" id="ss-yt" xmlns="http://www.w3.org/2000/svg" xmlns:xlink="http://www.w3.org/1999/xlink" x="0px" y="0px"
	 viewBox="0 0 17.6 11.4" style="enable-background:new 0 0 17.6 11.4;" xml:space="preserve">
<style type="text/css">
	.st0{fill:#282560;}
</style>
<path id="Path_2253" class="st0" d="M14.9,11.4H2.7c0,0-0.1,0-0.1,0c-0.4,0-0.7-0.1-1.1-0.3C0.6,10.6,0,9.6,0,8.5c0-1.9,0-3.8,0-5.7
	C0,2.5,0,2.3,0.1,2c0.3-1,1.2-1.8,2.2-1.9C2.5,0,2.6,0,2.7,0h12.2c0,0,0.1,0,0.1,0c0.3,0,0.7,0.1,1,0.3c0.8,0.4,1.4,1.1,1.6,2
	c0,0.1,0,0.2,0.1,0.3v6.2c0,0,0,0.1,0,0.1c0,0.2-0.1,0.4-0.2,0.6c-0.4,1-1.3,1.7-2.3,1.8C15,11.3,15,11.3,14.9,11.4z M12.5,5.7
	l-6-3.4v6.9C8.6,8,10.5,6.8,12.5,5.7L12.5,5.7z"/>
</svg>
