<?xml version="1.0" encoding="utf-8"?>
<!-- Generator: Adobe Illustrator 24.3.0, SVG Export Plug-In . SVG Version: 6.00 Build 0)  -->
<svg version="1.1" id="ss-in" xmlns="http://www.w3.org/2000/svg" xmlns:xlink="http://www.w3.org/1999/xlink" x="0px" y="0px"
	 viewBox="0 0 13.1 12.8" style="enable-background:new 0 0 13.1 12.8;" xml:space="preserve">
<style type="text/css">
	.st0{fill:#282560;}
</style>
<path id="Path_2249" class="st0" d="M7,5.1c1-1.1,2.4-1.5,3.8-1.2c1.3,0.2,2.2,1.3,2.2,2.6c0,2,0,4,0,6c0,0.3-0.1,0.3-0.4,0.3
	c-0.7,0-1.4,0-2,0c-0.3,0-0.4-0.1-0.4-0.4c0-1.4,0-2.9,0-4.3c0-0.2,0-0.5-0.1-0.7c-0.1-0.7-0.8-1.3-1.5-1.2C8.4,6.3,8.2,6.4,8,6.5
	c-0.6,0.3-1,1-1,1.7c0,1.4,0,2.8,0,4.2c0,0.4-0.1,0.5-0.5,0.5c-0.6,0-1.2,0-1.9,0c-0.4,0-0.5-0.2-0.5-0.5c0-2.3,0-4.6,0-7
	c0-0.4,0-0.8,0-1.2c0-0.3,0.1-0.4,0.4-0.4c0.7,0,1.4,0,2.1,0C6.9,3.8,7,3.9,7,4.2C7,4.4,7,4.7,7,5.1z"/>
<path id="Path_2250" class="st0" d="M3.1,8.3c0,1.4,0,2.7,0,4.1c0,0.3-0.1,0.4-0.4,0.4c-0.7,0-1.3,0-2,0c-0.3,0-0.4-0.1-0.4-0.4
	c0-2.8,0-5.5,0-8.3c0-0.3,0.1-0.4,0.4-0.4c0.7,0,1.4,0,2,0c0.4,0,0.4,0.1,0.4,0.5C3.1,5.6,3.1,7,3.1,8.3L3.1,8.3z"/>
<path id="Path_2251" class="st0" d="M1.7,0c1,0,1.7,0.8,1.7,1.7S2.7,3.5,1.7,3.5C0.8,3.4,0,2.7,0,1.7C0,0.8,0.8,0,1.7,0z"/>
</svg>
