<?xml version="1.0" encoding="utf-8"?>
<!-- Generator: Adobe Illustrator 24.3.0, SVG Export Plug-In . SVG Version: 6.00 Build 0)  -->
<svg version="1.1" id="ss-insta" xmlns="http://www.w3.org/2000/svg" xmlns:xlink="http://www.w3.org/1999/xlink" x="0px" y="0px"
	 viewBox="0 0 13.1 12.8" style="enable-background:new 0 0 13.1 12.8;" xml:space="preserve">
<style type="text/css">
	.st0{fill:#282560;}
</style>
<path id="Path_2246" class="st0" d="M3.4,0h6.4c0.1,0,0.3,0,0.4,0.1c1.4,0.2,2.5,1.3,2.8,2.6c0.1,0.2,0.1,0.4,0.1,0.6v6.3
	c0,0,0,0.1,0,0.1c-0.1,0.3-0.2,0.7-0.3,1c-0.6,1.3-1.9,2.2-3.3,2.1c-1.9,0-3.9,0-5.8,0c-0.7,0-1.5-0.2-2.1-0.6c-1-0.7-1.6-1.8-1.6-3
	c0-1.9,0-3.7,0-5.6c0-0.2,0-0.5,0.1-0.7c0.3-1.4,1.3-2.5,2.7-2.8C3,0.1,3.2,0,3.4,0z M1.2,6.4v2.8c0,0.3,0,0.6,0.1,0.9
	c0.4,1,1.3,1.7,2.4,1.6c1.9,0,3.8,0,5.7,0c0.3,0,0.6,0,0.9-0.1c1-0.3,1.7-1.3,1.7-2.3c0-1.9,0-3.7,0-5.6c0-0.3,0-0.6-0.1-0.8
	c-0.3-1-1.3-1.7-2.4-1.6c-1.9,0-3.8,0-5.8,0c-0.8,0-1.6,0.4-2.1,1C1.3,2.6,1.2,3.1,1.2,3.6C1.2,4.6,1.2,5.5,1.2,6.4L1.2,6.4z"/>
<path id="Path_2247" class="st0" d="M6.6,9.6C4.8,9.6,3.4,8.1,3.5,6.3s1.6-3.2,3.4-3.1c1.7,0.1,3.1,1.5,3.1,3.2
	C9.9,8.2,8.4,9.7,6.6,9.6z M8.8,6.4c0.1-1.2-0.9-2.3-2.1-2.3C5.4,4,4.4,5,4.3,6.2C4.3,7.4,5.2,8.5,6.5,8.5c0,0,0.1,0,0.1,0
	C7.8,8.6,8.7,7.6,8.8,6.4z"/>
<path id="Path_2248" class="st0" d="M10.1,2.1c0.5,0,0.8,0.4,0.8,0.9s-0.4,0.8-0.9,0.8C9.6,3.8,9.2,3.5,9.2,3c0,0,0,0,0,0
	C9.2,2.5,9.6,2.1,10.1,2.1z"/>
</svg>
