<?xml version="1.0" encoding="utf-8"?>
<!-- Generator: Adobe Illustrator 24.3.0, SVG Export Plug-In . SVG Version: 6.00 Build 0)  -->
<svg version="1.1" id="ss-fb" xmlns="http://www.w3.org/2000/svg" xmlns:xlink="http://www.w3.org/1999/xlink" x="0px" y="0px"
	 viewBox="0 0 6.6 12.9" style="enable-background:new 0 0 6.6 12.9;" xml:space="preserve">
<style type="text/css">
	.st0{fill:#282560;}
</style>
<path id="Path_2245" class="st0" d="M6.6,4.3L6.4,6.5c-0.1,0-0.1,0-0.2,0H4.7c-0.2,0-0.2,0-0.2,0.2v5.9c0,0.1,0,0.1,0,0.2
	c0,0.1,0,0.1-0.1,0.1c-0.9,0-1.7,0-2.6,0c-0.1,0-0.1-0.1-0.1-0.2c0-0.4,0-0.8,0-1.2c0-1.6,0-3.2,0-4.9c0-0.1,0-0.2-0.2-0.2
	c-0.4,0-0.8,0-1.2,0C0,6.5,0,6.4,0,6.3c0-0.6,0-1.2,0-1.9C0,4.3,0,4.3,0.2,4.3c0.4,0,0.8,0,1.2,0c0.1,0,0.2,0,0.2-0.2
	c0-0.5,0-0.9,0-1.4c0-0.3,0.1-0.7,0.1-1c0.2-0.8,0.9-1.5,1.7-1.6C3.8,0.1,4.1,0,4.5,0c0.7,0,1.3,0,2,0c0.1,0,0.2,0.1,0.2,0.2
	c0,0.6,0,1.2,0,1.8c0,0.1-0.1,0.2-0.2,0.2c-0.4,0-0.8,0-1.2,0c-0.1,0-0.2,0-0.3,0c-0.3,0-0.5,0.3-0.5,0.6c0,0.5,0,0.9,0,1.4
	c0,0.1,0.1,0.1,0.2,0.1c0.6,0,1.2,0,1.8,0L6.6,4.3z"/>
</svg>
