<svg id="Layer_1" data-name="Layer 1" xmlns="http://www.w3.org/2000/svg" viewBox="0 0 16.64 15.98"><defs><style>.cls-1{fill:#25a9e0;}</style></defs><path class="cls-1" d="M8.46.49c.06,5.05.49,10.09.11,15.13,0,.51,1.13.3,1.16-.13.39-5-.05-10.08-.11-15.13,0-.53-1.17-.29-1.16.13Z"/><path class="cls-1" d="M8.49.37C6.14,3.83,3.05,6.68.12,9.64,0,9.72-.06,9.91.05,10a35.42,35.42,0,0,0,8.33,5.84c.39.19,1.44-.35.91-.61a31.48,31.48,0,0,1-4.36-2.59C4,12,3.07,11.23,2.18,10.47c-1.05-.9-.46-1.23.34-2a56,56,0,0,0,7.07-8C9.92,0,8.73,0,8.49.37Z"/><path class="cls-1" d="M9,.67a83.48,83.48,0,0,1,6.55,11.15l.15-.51c-2,1.74-4.5,2.64-6.79,3.92-.69.38-.06,1,.51.66,2.38-1.33,5-2.27,7-4.07.17-.15.26-.3.15-.51A83.6,83.6,0,0,0,10.05.16C9.75-.25,8.63.19,9,.67Z"/></svg>