<svg id="Layer_1" data-name="Layer 1" xmlns="http://www.w3.org/2000/svg" viewBox="0 0 16.64 15.98"><defs><style>.cls-1{fill:#fff;}.cls-2{fill:#f9ae42;}.cls-3{fill:#221f1f;}</style></defs><path class="cls-1" d="M9.7,2.36A5.18,5.18,0,0,0,8.7,4c-.11.28.25.5.46.55a4.71,4.71,0,0,0,1.05.13l-.72-.58a6.91,6.91,0,0,1-.7,2c-.38.8.77.8,1.25.7a12.08,12.08,0,0,0,1.78-.51l-1.55-.6A16.07,16.07,0,0,0,8.93,8.47c-.16.52.71.63,1,.58.91-.15,1.8-.35,2.69-.57L11.3,8a18,18,0,0,1-1.88,3.3c-.49.89,1.13.81,1.55.59,1.23-.61,2.52-1.06,3.72-1.74l-1.81-.46c-1.24,1.82-3.28,2.86-4.53,4.69-.51.76.88.79,1.25.7a34.78,34.78,0,0,0,6.14-2.33c1.46-.64.13-1.55-1-1.07a31.39,31.39,0,0,1-5.53,2.12l1.25.7c1.24-1.83,3.28-2.86,4.53-4.7.67-1-1.46-.66-1.81-.45-1,.59-2.15.94-3.2,1.47l1.55.6a20.58,20.58,0,0,0,2-3.67c.21-.67-1-.6-1.32-.52-.69.18-1.37.34-2.07.46l1,.57a13.41,13.41,0,0,1,1.19-2.4c.5-.93-1.14-.76-1.55-.6a6.19,6.19,0,0,1-1.18.3c.41.24.83.47,1.25.7a8,8,0,0,0,.85-2.37c.06-.4-.39-.57-.72-.58l-.54-.06.46.55.57-.93c.9-1.07-1.32-1.13-1.87-.47Z"/><path class="cls-2" d="M6.32,1A15.81,15.81,0,0,1,4.5,2.88c-.85.74-.1,1.35.78,1.34h1.2l-1-1.07C4.65,4.3,3.32,4.85,2.19,5.64,1.52,6.11,1,7,2.19,7.19a16.09,16.09,0,0,0,4.8,0L5.72,5.86C4.24,7.34,2.18,8.07.52,9.33c-1,.73,0,1.31.78,1.34,1.6.07,3.18-.13,4.78-.18L5,9.41c-.66.8-1.32,1.57-1.92,2.41s1,1.13,1.52,1A9.26,9.26,0,0,1,7,12.72l-1.18-.8a2.74,2.74,0,0,0,.45,2.87c.75,1,4.51-.28,3.62-1.49a1.61,1.61,0,0,1-.18-1.9c.22-.66-.79-.77-1.17-.8a13.78,13.78,0,0,0-3.33.2l1.53,1c.6-.83,1.27-1.6,1.92-2.4s-.5-1.09-1-1.07c-1.6.06-3.18.25-4.78.18l.78,1.34c1.68-1.27,3.69-2,5.2-3.47,1-1-.34-1.42-1.27-1.31a9.48,9.48,0,0,1-3,0c0,.52,0,1,0,1.55C6.16,5.59,7.94,4.8,9.05,3.17c.52-.75-.43-1.08-1-1.07H6.82L7.6,3.45A20.94,20.94,0,0,0,9.93,1.07C10.54.35,9.42,0,8.9,0A3.4,3.4,0,0,0,6.32,1Z"/><path class="cls-3" d="M8.46.49c.06,5.05.49,10.09.11,15.14,0,.5,1.13.29,1.16-.14.39-5-.05-10.08-.11-15.13,0-.53-1.17-.29-1.16.13Z"/><path class="cls-3" d="M8.49.37C6.14,3.83,3.05,6.68.12,9.64,0,9.72-.06,9.91.05,10a35.42,35.42,0,0,0,8.33,5.84c.39.19,1.44-.35.91-.61a31.48,31.48,0,0,1-4.36-2.59C4,12,3.07,11.23,2.18,10.47c-1.05-.9-.46-1.23.34-2a55.46,55.46,0,0,0,7.07-8C9.92,0,8.73,0,8.49.37Z"/><path class="cls-3" d="M9,.67a83.48,83.48,0,0,1,6.55,11.15l.15-.51c-2,1.74-4.5,2.64-6.79,3.92-.69.38-.06,1,.51.66,2.38-1.33,5-2.27,7-4.07.17-.15.26-.3.15-.51A83.6,83.6,0,0,0,10.05.16C9.75-.25,8.63.19,9,.67Z"/></svg>