<svg xmlns="http://www.w3.org/2000/svg" width="16.64" height="15.978" viewBox="0 0 16.64 15.978">
  <g id="mind_active" transform="translate(-16.815 -15.811)">
    <path id="Path_2" data-name="Path 2" d="M26.517,18.166a5.354,5.354,0,0,0-1,1.657c-.106.282.249.5.463.546a4.666,4.666,0,0,0,1.054.132l-.722-.583a6.783,6.783,0,0,1-.7,2c-.376.8.774.8,1.25.7a11.019,11.019,0,0,0,1.784-.512l-1.552-.6a15.993,15.993,0,0,0-1.343,2.772c-.164.519.711.624,1.013.575.909-.146,1.8-.344,2.688-.571L28.12,23.77a18.607,18.607,0,0,1-1.884,3.3c-.494.894,1.131.808,1.552.6,1.228-.616,2.519-1.061,3.714-1.749l-1.807-.457c-1.237,1.821-3.282,2.857-4.528,4.691-.513.758.881.786,1.251.7a34.817,34.817,0,0,0,6.133-2.328c1.461-.641.137-1.548-.943-1.075a31.38,31.38,0,0,1-5.532,2.118l1.251.7c1.236-1.822,3.281-2.859,4.525-4.692.671-.986-1.454-.66-1.808-.457-1.021.588-2.149.945-3.2,1.472l1.551.6a20.262,20.262,0,0,0,2.032-3.668c.21-.666-1.022-.593-1.325-.515-.687.174-1.364.34-2.064.453l1.013.575a14.017,14.017,0,0,1,1.2-2.4c.5-.929-1.137-.755-1.551-.6a7.333,7.333,0,0,1-1.183.3l1.25.7a7.958,7.958,0,0,0,.854-2.371c.054-.407-.389-.577-.723-.584l-.536-.056.463.546c.187-.311.376-.621.564-.931.9-1.071-1.319-1.127-1.867-.474" fill="#fff"/>
    <path id="Path_3" data-name="Path 3" d="M23.138,16.855a15.726,15.726,0,0,1-1.821,1.838c-.857.739-.1,1.346.782,1.339l1.194-.009q-.516-.536-1.035-1.071c-.8,1.163-2.124,1.708-3.25,2.5-.671.469-1.193,1.341-.009,1.551a15.967,15.967,0,0,0,4.806-.022q-.638-.652-1.271-1.308c-1.478,1.48-3.542,2.208-5.2,3.473-.954.727-.011,1.306.782,1.339,1.6.066,3.177-.127,4.777-.186-.347-.356-.691-.713-1.037-1.07-.655.794-1.321,1.566-1.923,2.4-.69.96.954,1.131,1.526,1.04a9.506,9.506,0,0,1,2.345-.139l-1.174-.8a2.742,2.742,0,0,0,.448,2.876c.748,1.016,4.51-.288,3.624-1.5a1.61,1.61,0,0,1-.185-1.9c.218-.659-.786-.767-1.173-.8a13.629,13.629,0,0,0-3.325.2l1.524,1.04c.6-.837,1.268-1.61,1.925-2.4.591-.715-.5-1.091-1.036-1.072-1.6.057-3.179.252-4.776.185q.388.668.78,1.339c1.677-1.279,3.688-1.959,5.2-3.472,1.029-1.031-.343-1.424-1.271-1.308a9.6,9.6,0,0,1-2.959.034c0,.518-.006,1.035-.008,1.55,1.579-1.1,3.353-1.9,4.471-3.529.515-.75-.433-1.076-1.036-1.072l-1.194.009q.389.671.78,1.338a19.926,19.926,0,0,0,2.329-2.373c.609-.726-.514-1.066-1.036-1.071a3.4,3.4,0,0,0-2.574,1.044" fill="#f9ae42"/>
    <path id="Path_4" data-name="Path 4" d="M25.271,16.3c.06,5.049.5,10.092.109,15.138-.039.509,1.135.291,1.167-.133.387-5.047-.05-10.087-.109-15.136-.007-.521-1.172-.282-1.167.131" fill="#221f1f"/>
    <path id="Path_5" data-name="Path 5" d="M25.307,16.179c-2.352,3.464-5.445,6.312-8.376,9.271-.085.086-.178.267-.061.373a35.645,35.645,0,0,0,8.322,5.839c.391.19,1.442-.356.913-.612a31.624,31.624,0,0,1-4.356-2.59c-.96-.674-1.866-1.424-2.756-2.183-1.051-.894-.459-1.221.34-2.02a55.781,55.781,0,0,0,7.069-8c.331-.488-.853-.435-1.1-.075" fill="#221f1f"/>
    <path id="Path_6" data-name="Path 6" d="M25.8,16.48a83.164,83.164,0,0,1,6.546,11.148c.051-.169.1-.337.15-.506-2,1.734-4.5,2.638-6.781,3.917-.691.386-.062.978.509.659,2.372-1.327,4.961-2.269,7.038-4.069.169-.146.259-.293.15-.506a83.1,83.1,0,0,0-6.546-11.148c-.3-.414-1.412.029-1.066.5" fill="#221f1f"/>
  </g>
</svg>
