<?xml version="1.0" encoding="utf-8"?>
<!-- Generator: Adobe Illustrator 16.0.0, SVG Export Plug-In . SVG Version: 6.00 Build 0)  -->
<!DOCTYPE svg PUBLIC "-//W3C//DTD SVG 1.1//EN" "http://www.w3.org/Graphics/SVG/1.1/DTD/svg11.dtd">
<svg version="1.1" id="Layer_1" xmlns="http://www.w3.org/2000/svg" xmlns:xlink="http://www.w3.org/1999/xlink" x="0px" y="0px"
	 width="5.973px" height="6.32px" viewBox="0 0 5.973 6.32" enable-background="new 0 0 5.973 6.32" xml:space="preserve">
<g>
	<polygon fill="#652064" points="0.485,6.321 0.484,6.321 0.482,6.321 	"/>
	<path fill="#652064" d="M5.907,3.053L5.78,2.923l-0.177-0.2c-0.617-0.549-1.275-1.05-1.969-1.5c-0.5-0.345-1.017-0.701-1.487-1.092
		c-0.17-0.135-0.397-0.17-0.6-0.092C1.367,0.1,1.208,0.208,1.085,0.353C0.977,0.471,0.918,0.626,0.921,0.785
		C0.926,0.923,0.99,1.052,1.096,1.14c0.5,0.416,1.036,0.786,1.557,1.142c0.442,0.311,0.91,0.626,1.343,0.973
		C3.602,3.472,3.221,3.712,2.854,3.972c-0.628,0.502-1.356,0.863-2.136,1.06c-0.313,0.089-0.564,0.32-0.68,0.623
		C0.005,5.725-0.01,5.802-0.007,5.879c0.014,0.258,0.234,0.454,0.49,0.441c0.043,0,0.085-0.004,0.128-0.012
		C1.51,6.095,2.351,5.687,3.076,5.115c0.628-0.503,1.356-0.865,2.138-1.062c0.323-0.076,0.594-0.298,0.731-0.6
		C5.989,3.32,5.975,3.175,5.907,3.053z"/>
</g>
</svg>
