<svg xmlns="http://www.w3.org/2000/svg" width="47.6" height="47.63" viewBox="0 0 47.6 47.63">
  <g id="private" transform="translate(-714.872 -2453.776)">
    <path id="Path_591" data-name="Path 591" d="M202.321,2480.591a21.649,21.649,0,1,1-21.649-21.649,21.648,21.648,0,0,1,21.649,21.649" transform="translate(558 -3)" fill="#a156a0"/>
    <path id="Path_592" data-name="Path 592" d="M158.011,2473.034a23.638,23.638,0,0,0,.044,14.634,25.14,25.14,0,0,0,7.568,11.034,23.513,23.513,0,0,0,38.181-23.433,24.8,24.8,0,0,0-19.954-18.239,23.717,23.717,0,0,0-24.422,12.571,24.1,24.1,0,0,0-1.417,3.433c-.043.13.644.493.6.613a23.505,23.505,0,0,1,34.832-12.686,22.084,22.084,0,0,1,8.883,10.929,23.508,23.508,0,0,1-32.78,29.262,21.281,21.281,0,0,1-6.025-4.505,23.541,23.541,0,0,1-5.75-19.546,24.422,24.422,0,0,1,.84-3.454c.043-.132-.643-.492-.6-.613" transform="translate(558 -3)" fill="#a156a0"/>
    <path id="Path_597" data-name="Path 597" d="M194.068,2474.085a.511.511,0,0,0,.513-.513v-3.555a1.9,1.9,0,0,0-1.8-1.9c-6.081-.308-9.349-2.8-10.756-4.25a1.89,1.89,0,0,0-2.713,0c-1.406,1.454-4.675,3.942-10.756,4.251a1.9,1.9,0,0,0-1.8,1.9v14.294a11.593,11.593,0,0,0,5.782,10.012l5.8,3.349a4.669,4.669,0,0,0,4.656,0l5.8-3.349a11.592,11.592,0,0,0,5.781-10.012v-8.346a.512.512,0,1,0-1.025,0v8.346a10.566,10.566,0,0,1-5.268,9.124l-5.8,3.348a3.637,3.637,0,0,1-3.63,0l-5.8-3.348a10.566,10.566,0,0,1-5.268-9.124v-14.294a.871.871,0,0,1,.824-.874c6.432-.328,9.929-3,11.44-4.562a.865.865,0,0,1,1.24,0c1.511,1.563,5.007,4.234,11.439,4.562a.871.871,0,0,1,.825.874v3.555a.511.511,0,0,0,.512.513" transform="translate(558 -3)" fill="#fff"/>
    <path id="Path_598" data-name="Path 598" d="M175.147,2479.8a1.205,1.205,0,0,0-1.2,1.2v7.6a1.2,1.2,0,0,0,1.2,1.2H186.2a1.2,1.2,0,0,0,1.2-1.2v-3.706a.513.513,0,1,0-1.025,0v3.706a.177.177,0,0,1-.179.177H175.147a.177.177,0,0,1-.177-.177V2481a.178.178,0,0,1,.177-.178H186.2a.178.178,0,0,1,.179.178v1.5a.513.513,0,0,0,1.025,0V2481a1.206,1.206,0,0,0-.966-1.18v-3.792a5.761,5.761,0,0,0-11.522,0v3.769c0,.284.23.754.513.754h2.21c.282,0,.512-.47.512-.754v-3.769a2.525,2.525,0,1,1,5.05,0v3.769Zm5.525-7.319a3.554,3.554,0,0,0-3.551,3.55v3.769h-1.185v-3.769a4.735,4.735,0,1,1,9.47,0v3.769h-1.182v-3.769a3.555,3.555,0,0,0-3.552-3.55" transform="translate(558 -3)" fill="#fff"/>
    <path id="Path_599" data-name="Path 599" d="M180.672,2487.59a.513.513,0,0,0,.513-.513V2485.3a1.687,1.687,0,1,0-1.026,0v1.777a.513.513,0,0,0,.513.513m0-4.558a.661.661,0,1,1-.661.661.662.662,0,0,1,.661-.661" transform="translate(558 -3)" fill="#fff"/>
  </g>
</svg>
