<svg xmlns="http://www.w3.org/2000/svg" width="38.263" height="35.225" viewBox="0 0 38.263 35.225">
  <g id="select_expert" data-name="select expert" transform="translate(-614.644 -2016.816)">
    <path id="Path_602" data-name="Path 602" d="M58.433,2051.666a17.375,17.375,0,0,1-16.387-11.532,17.355,17.355,0,0,1,26.338-19.829,2.444,2.444,0,0,1,1.2,2.174,1.762,1.762,0,0,1-2.319,1.768,4.619,4.619,0,0,1-1.323-.632,13.3,13.3,0,0,0-20.1,6.827,13.219,13.219,0,1,0,25.355,7.482c.2-.7.292-1.43.45-2.143a3.486,3.486,0,0,1,.705-1.537,1.791,1.791,0,0,1,2.834.018,2.679,2.679,0,0,1,.519,2.208,17.362,17.362,0,0,1-17.269,15.2" transform="translate(574)" fill="#5f9e45"/>
    <path id="Path_603" data-name="Path 603" d="M58.433,2051.666a17.375,17.375,0,0,1-16.387-11.532,17.355,17.355,0,0,1,26.338-19.829,2.444,2.444,0,0,1,1.2,2.174,1.762,1.762,0,0,1-2.319,1.768,4.619,4.619,0,0,1-1.323-.632,13.3,13.3,0,0,0-20.1,6.827,13.219,13.219,0,1,0,25.355,7.482c.2-.7.292-1.43.45-2.143a3.486,3.486,0,0,1,.705-1.537,1.791,1.791,0,0,1,2.834.018,2.679,2.679,0,0,1,.519,2.208,17.362,17.362,0,0,1-17.269,15.2Z" transform="translate(574)" fill="none" stroke="#fff" stroke-miterlimit="10" stroke-width="0.75"/>
    <path id="Path_604" data-name="Path 604" d="M58.84,2036.813l1.224-1.1q7.448-6.723,14.891-13.455a2.1,2.1,0,0,1,3.479.855,1.968,1.968,0,0,1-.623,2.126c-1,.91-2.006,1.812-3.009,2.718q-7.281,6.569-14.56,13.139a2.087,2.087,0,0,1-2.461.429,2.4,2.4,0,0,1-.621-.477q-3.446-3.71-6.875-7.433a2.039,2.039,0,0,1,.053-2.924,2.069,2.069,0,0,1,2.968.141q2.55,2.745,5.088,5.505c.143.155.288.309.446.478" transform="translate(574)" fill="#5f9e45"/>
    <path id="Path_605" data-name="Path 605" d="M58.84,2036.813l1.224-1.1q7.448-6.723,14.891-13.455a2.1,2.1,0,0,1,3.479.855,1.968,1.968,0,0,1-.623,2.126c-1,.91-2.006,1.812-3.009,2.718q-7.281,6.569-14.56,13.139a2.087,2.087,0,0,1-2.461.429,2.4,2.4,0,0,1-.621-.477q-3.446-3.71-6.875-7.433a2.039,2.039,0,0,1,.053-2.924,2.069,2.069,0,0,1,2.968.141q2.55,2.745,5.088,5.505C58.537,2036.49,58.682,2036.644,58.84,2036.813Z" transform="translate(574)" fill="none" stroke="#fff" stroke-miterlimit="10" stroke-width="0.75"/>
  </g>
</svg>
