<?xml version="1.0" encoding="utf-8"?>
<!-- Generator: Adobe Illustrator 16.0.0, SVG Export Plug-In . SVG Version: 6.00 Build 0)  -->
<!DOCTYPE svg PUBLIC "-//W3C//DTD SVG 1.1//EN" "http://www.w3.org/Graphics/SVG/1.1/DTD/svg11.dtd">
<svg version="1.1" id="Layer_1" xmlns="http://www.w3.org/2000/svg" xmlns:xlink="http://www.w3.org/1999/xlink" x="0px" y="0px"
	 width="5.973px" height="6.32px" viewBox="0 0 5.973 6.32" enable-background="new 0 0 5.973 6.32" xml:space="preserve">
<path fill="#5F9E45" d="M5.908,3.055l-0.128-0.13l-0.178-0.2c-0.617-0.549-1.275-1.05-1.968-1.5c-0.5-0.345-1.018-0.701-1.487-1.092
	c-0.17-0.134-0.397-0.169-0.6-0.092C1.368,0.102,1.209,0.21,1.086,0.355C0.978,0.473,0.919,0.628,0.922,0.788
	C0.927,0.925,0.99,1.054,1.097,1.142c0.5,0.416,1.036,0.786,1.556,1.142c0.448,0.311,0.91,0.627,1.343,0.973
	C3.602,3.474,3.222,3.714,2.855,3.974C2.227,4.476,1.498,4.837,0.719,5.034C0.406,5.122,0.154,5.354,0.038,5.657
	c-0.071,0.166-0.046,0.358,0.067,0.5C0.201,6.266,0.34,6.325,0.485,6.321L0.482,6.323c0.044,0,0.088-0.004,0.131-0.012
	C1.511,6.097,2.352,5.69,3.076,5.117c0.628-0.504,1.358-0.866,2.14-1.063c0.323-0.076,0.592-0.298,0.729-0.6
	C5.99,3.323,5.976,3.177,5.908,3.055z"/>
</svg>
