<svg xmlns="http://www.w3.org/2000/svg" width="198.361" height="12.08" viewBox="0 0 198.361 12.08">
  <g id="Group_620" data-name="Group 620" transform="translate(-82.366 -319.829)">
    <g id="Group_48" data-name="Group 48">
      <g id="Group_47" data-name="Group 47">
        <g id="Group_46" data-name="Group 46">
          <path id="Path_91" data-name="Path 91" d="M177.568,327.8c-.393,0-.788-.013-1.176-.026s-.77-.026-1.147-.026H89.631a.252.252,0,0,1-.187-.075.643.643,0,0,1-.141-.443c0-.334.159-.585.37-.585h.052a.618.618,0,0,0,.086,0,17.589,17.589,0,0,1,2.342-.026c.379.013.77.026,1.147.026h85.614a.249.249,0,0,1,.187.075.641.641,0,0,1,.141.442c0,.334-.16.586-.371.586h-.051a.844.844,0,0,0-.087,0A11.223,11.223,0,0,1,177.568,327.8Z" fill="#ee4347"/>
        </g>
      </g>
    </g>
    <g id="Group_51" data-name="Group 51">
      <g id="Group_50" data-name="Group 50">
        <g id="Group_49" data-name="Group 49">
          <path id="Path_92" data-name="Path 92" d="M274.483,327.8c-.379,0-.76-.013-1.134-.026s-.743-.026-1.106-.026h-82.56a.241.241,0,0,1-.18-.075.658.658,0,0,1-.135-.443c0-.334.153-.585.357-.585h.05a.578.578,0,0,0,.083,0,16.349,16.349,0,0,1,2.258-.026c.365.013.742.026,1.1.026h82.56a.237.237,0,0,1,.18.075.655.655,0,0,1,.136.442c0,.334-.154.586-.357.586h-.05a.787.787,0,0,0-.084,0A10.426,10.426,0,0,1,274.483,327.8Z" fill="#ee4347"/>
        </g>
      </g>
    </g>
    <g id="Group_62" data-name="Group 62">
      <g id="Group_56" data-name="Group 56">
        <g id="Group_53" data-name="Group 53">
          <g id="Group_52" data-name="Group 52">
            <path id="Path_93" data-name="Path 93" d="M227.709,325.59c.861.716,1.875,1.235,2.667,2.033l.3-.371c-1.3.231-2.092,1.423-3.367,1.65-.2.035-.48.467-.168.412,1.3-.231,2.092-1.423,3.367-1.65.1-.018.443-.227.3-.371-.794-.8-1.806-1.316-2.667-2.033-.174-.145-.585.2-.432.33Z" fill="#ee4347"/>
            <path id="Path_94" data-name="Path 94" d="M227.092,329.451a.2.2,0,0,1-.219-.165c-.035-.2.22-.48.413-.515a4.185,4.185,0,0,0,1.615-.8,7.415,7.415,0,0,1,1-.607c-.364-.308-.761-.581-1.149-.848s-.768-.528-1.128-.828a.262.262,0,0,1,.009-.388c.132-.158.412-.3.593-.145.351.292.736.557,1.108.812A11.644,11.644,0,0,1,230.8,327.1l.206-.037-.107.134.007.007a.24.24,0,0,1,.061.247.664.664,0,0,1-.432.348,4.189,4.189,0,0,0-1.616.8,4.553,4.553,0,0,1-1.751.853A.476.476,0,0,1,227.092,329.451Zm1.351-.861a3.29,3.29,0,0,1-1.111.443.36.36,0,0,0-.162.14A3.594,3.594,0,0,0,228.443,328.59Zm1.676-1.031a4.724,4.724,0,0,0-.745.417,3.683,3.683,0,0,1,.8-.367Zm-2.305-2.055c.345.286.723.545,1.089.8a13.624,13.624,0,0,1,1.272.952,2.977,2.977,0,0,1,.308-.094,14.015,14.015,0,0,0-1.3-.969c-.377-.259-.767-.527-1.127-.827-.006-.005-.032-.008-.075.008A.347.347,0,0,0,227.814,325.5Z" fill="#ee4347"/>
          </g>
        </g>
        <g id="Group_55" data-name="Group 55">
          <g id="Group_54" data-name="Group 54">
            <path id="Path_95" data-name="Path 95" d="M227.092,329.451a.2.2,0,0,1-.219-.165c-.035-.2.22-.48.413-.515a4.2,4.2,0,0,0,1.616-.8,7.343,7.343,0,0,1,1-.607c-.364-.308-.761-.581-1.149-.848s-.768-.528-1.128-.828a.262.262,0,0,1,.009-.388c.132-.158.411-.3.593-.145.351.292.736.557,1.108.812A11.644,11.644,0,0,1,230.8,327.1l.206-.037-.107.134.007.007a.24.24,0,0,1,.061.247.664.664,0,0,1-.432.348,4.189,4.189,0,0,0-1.616.8,4.553,4.553,0,0,1-1.751.853A.476.476,0,0,1,227.092,329.451Zm1.351-.861a3.29,3.29,0,0,1-1.111.443.36.36,0,0,0-.162.14A3.594,3.594,0,0,0,228.443,328.59Zm1.676-1.031a4.724,4.724,0,0,0-.745.417,3.683,3.683,0,0,1,.8-.367Zm-2.305-2.055c.345.286.723.545,1.089.8a13.624,13.624,0,0,1,1.272.952,2.977,2.977,0,0,1,.308-.094,14.015,14.015,0,0,0-1.3-.969c-.377-.259-.767-.527-1.127-.827-.006-.005-.032-.008-.075.008A.347.347,0,0,0,227.814,325.5Z" fill="#ee4347"/>
            <path id="Path_96" data-name="Path 96" d="M227.092,329.584a.339.339,0,0,1-.35-.275.693.693,0,0,1,.52-.668,4.119,4.119,0,0,0,1.565-.776,8.658,8.658,0,0,1,.833-.525c-.316-.253-.654-.486-.982-.711-.381-.262-.773-.531-1.139-.836a.351.351,0,0,1-.128-.258.458.458,0,0,1,.12-.317.578.578,0,0,1,.78-.163c.348.291.729.553,1.1.806a12.089,12.089,0,0,1,1.43,1.093l.49-.087-.267.33a.367.367,0,0,1,.027.29.784.784,0,0,1-.535.438,4.112,4.112,0,0,0-1.563.776,4.655,4.655,0,0,1-1.8.874A.536.536,0,0,1,227.092,329.584Zm.153-.291-.049.01-.018,0Zm1.131-.816.14.224c.109-.072.216-.145.323-.218.2-.138.4-.273.6-.394l-.14-.224c-.11.072-.218.146-.325.219C228.775,328.221,228.578,328.356,228.376,328.477Zm1.771-1.073.282.265-.175.053c.083-.023.167-.043.253-.058a.551.551,0,0,0,.329-.257.107.107,0,0,0-.028-.114l-.063-.063-.231.057a2.6,2.6,0,0,0-.294.09Zm-.005,0-.119.056.044-.019.079-.034Zm-2.164-1.6c.278.213.567.412.849.606a14.181,14.181,0,0,1,1.16.856l.031.026a14.018,14.018,0,0,0-1.191-.882C228.545,326.215,228.255,326.017,227.978,325.8Zm2.089,1.183c.046.037.092.076.137.114h0C230.162,327.062,230.115,327.024,230.067,326.987Zm-.842-.931.032.022.093.064-.088-.06Z" fill="#ee4347"/>
          </g>
        </g>
      </g>
      <g id="Group_61" data-name="Group 61">
        <g id="Group_58" data-name="Group 58">
          <g id="Group_57" data-name="Group 57">
            <path id="Path_97" data-name="Path 97" d="M223.81,325.566c.86.716,1.874,1.235,2.666,2.033l.3-.371c-1.3.231-2.092,1.423-3.367,1.65-.194.035-.48.467-.168.412,1.3-.231,2.092-1.423,3.367-1.65.1-.018.443-.227.3-.371-.794-.8-1.806-1.316-2.667-2.033-.174-.145-.585.2-.431.33Z" fill="#ee4347"/>
            <path id="Path_98" data-name="Path 98" d="M223.192,329.427a.216.216,0,0,1-.176-.073.227.227,0,0,1-.026-.236.624.624,0,0,1,.4-.37,4.206,4.206,0,0,0,1.616-.8,7.342,7.342,0,0,1,1-.607c-.364-.308-.761-.581-1.149-.848s-.767-.527-1.127-.828h0a.261.261,0,0,1,.008-.388c.131-.158.41-.3.593-.146.351.293.735.557,1.107.813a11.468,11.468,0,0,1,1.463,1.126l.205-.037-.107.133.008.008a.239.239,0,0,1,.061.247.67.67,0,0,1-.432.348,4.2,4.2,0,0,0-1.616.8,4.536,4.536,0,0,1-1.751.852A.382.382,0,0,1,223.192,329.427Zm1.35-.86a3.3,3.3,0,0,1-1.11.442.36.36,0,0,0-.162.14A3.6,3.6,0,0,0,224.542,328.567Zm1.677-1.032a4.834,4.834,0,0,0-.744.416,3.675,3.675,0,0,1,.8-.366Zm-2.3-2.054c.345.285.722.544,1.088.8a13.434,13.434,0,0,1,1.272.951,2.757,2.757,0,0,1,.308-.094,13.831,13.831,0,0,0-1.3-.969c-.377-.26-.767-.527-1.127-.828a.108.108,0,0,0-.075.009A.339.339,0,0,0,223.915,325.481Zm-.02-.017Z" fill="#ee4347"/>
          </g>
        </g>
        <g id="Group_60" data-name="Group 60">
          <g id="Group_59" data-name="Group 59">
            <path id="Path_99" data-name="Path 99" d="M223.192,329.427a.216.216,0,0,1-.176-.073.227.227,0,0,1-.026-.236.624.624,0,0,1,.4-.37,4.206,4.206,0,0,0,1.616-.8,7.342,7.342,0,0,1,1-.607c-.364-.308-.761-.581-1.149-.848s-.767-.527-1.127-.828h0a.261.261,0,0,1,.008-.388c.131-.158.411-.3.593-.146.351.293.735.557,1.107.813a11.468,11.468,0,0,1,1.463,1.126l.206-.037-.107.134.007.007a.239.239,0,0,1,.061.247.67.67,0,0,1-.432.348,4.2,4.2,0,0,0-1.616.8,4.536,4.536,0,0,1-1.751.852A.382.382,0,0,1,223.192,329.427Zm1.348-.859a3.291,3.291,0,0,1-1.108.441.36.36,0,0,0-.162.14A3.594,3.594,0,0,0,224.54,328.568Zm1.679-1.033a4.779,4.779,0,0,0-.743.416,3.6,3.6,0,0,1,.8-.366Zm-2.3-2.054c.345.285.722.544,1.088.8a13.434,13.434,0,0,1,1.272.951,2.757,2.757,0,0,1,.308-.094,13.831,13.831,0,0,0-1.3-.969c-.377-.26-.767-.527-1.127-.828a.108.108,0,0,0-.075.009A.339.339,0,0,0,223.915,325.481Zm-.02-.017Z" fill="#ee4347"/>
            <path id="Path_100" data-name="Path 100" d="M223.192,329.56a.354.354,0,0,1-.277-.12.359.359,0,0,1-.05-.367.757.757,0,0,1,.5-.456,4.118,4.118,0,0,0,1.563-.776,9.11,9.11,0,0,1,.834-.525c-.316-.253-.654-.485-.982-.711-.38-.261-.773-.531-1.139-.836a.355.355,0,0,1-.128-.258.463.463,0,0,1,.12-.317.764.764,0,0,1,.338-.23.452.452,0,0,1,.442.067c.343.286.722.547,1.088.8a11.979,11.979,0,0,1,1.44,1.1l.489-.087-.266.33a.366.366,0,0,1,.027.29.786.786,0,0,1-.534.438,4.093,4.093,0,0,0-1.565.777,4.652,4.652,0,0,1-1.8.873A.58.58,0,0,1,223.192,329.56Zm.167-.294-.062.013-.02,0Zm1.114-.812.14.225c.11-.072.219-.147.327-.22.2-.139.4-.274.6-.4l-.14-.224c-.11.072-.218.146-.324.218C224.875,328.2,224.676,328.333,224.473,328.454Zm1.772-1.074.283.266-.172.052a2.493,2.493,0,0,1,.252-.058.556.556,0,0,0,.328-.257.106.106,0,0,0-.028-.114l-.063-.063-.231.056a2.741,2.741,0,0,0-.293.091l-.075.027,0,0-.118.056.043-.019Zm-1.025-.792c.294.2.59.419.867.654l.016.013C225.821,327.015,225.52,326.8,225.22,326.588Zm.939.369q.073.059.144.12h.006C226.259,327.035,226.21,327,226.159,326.957Zm-1.569-1.446c.25.188.508.365.761.539l.307.212-.3-.207C225.1,325.878,224.84,325.7,224.59,325.511Zm-.455.312c.158.119.319.234.48.347C224.453,326.057,224.292,325.942,224.135,325.823Zm-.267-.494a.356.356,0,0,0-.033.035h0Q223.85,325.347,223.868,325.329Zm.274-.128a.16.16,0,0,1,.086.024A.166.166,0,0,0,224.142,325.2Z" fill="#ee4347"/>
          </g>
        </g>
      </g>
    </g>
    <g id="Group_73" data-name="Group 73">
      <g id="Group_67" data-name="Group 67">
        <g id="Group_64" data-name="Group 64">
          <g id="Group_63" data-name="Group 63">
            <path id="Path_101" data-name="Path 101" d="M141.656,325.462c.86.716,1.875,1.236,2.666,2.033q.151-.184.3-.371c-1.3.232-2.092,1.424-3.367,1.65-.194.035-.479.467-.168.412,1.3-.231,2.092-1.423,3.367-1.65.1-.018.443-.227.3-.371-.794-.8-1.8-1.316-2.666-2.033-.175-.145-.586.2-.432.33Z" fill="#ee4347"/>
            <path id="Path_102" data-name="Path 102" d="M141.039,329.323a.2.2,0,0,1-.219-.165c-.036-.2.219-.48.412-.514a4.206,4.206,0,0,0,1.616-.8,7.352,7.352,0,0,1,1-.607c-.364-.308-.762-.581-1.149-.848s-.768-.527-1.128-.827a.226.226,0,0,1-.078-.217.547.547,0,0,1,.345-.355.329.329,0,0,1,.335.038c.35.292.735.557,1.107.812a11.655,11.655,0,0,1,1.463,1.126l.206-.036-.108.133.007.007a.238.238,0,0,1,.061.247.664.664,0,0,1-.432.348,4.225,4.225,0,0,0-1.616.8,4.524,4.524,0,0,1-1.751.853A.45.45,0,0,1,141.039,329.323Zm1.35-.861a3.294,3.294,0,0,1-1.11.443.36.36,0,0,0-.162.14A3.581,3.581,0,0,0,142.389,328.462Zm1.676-1.031a4.92,4.92,0,0,0-.744.416,3.709,3.709,0,0,1,.8-.366Zm-2.3-2.054c.345.285.723.544,1.088.8a13.183,13.183,0,0,1,1.272.951,3.143,3.143,0,0,1,.308-.094,13.864,13.864,0,0,0-1.3-.969c-.377-.259-.767-.527-1.127-.827-.007-.006-.033-.008-.075.008A.342.342,0,0,0,141.761,325.377Z" fill="#ee4347"/>
          </g>
        </g>
        <g id="Group_66" data-name="Group 66">
          <g id="Group_65" data-name="Group 65">
            <path id="Path_103" data-name="Path 103" d="M141.039,329.323a.2.2,0,0,1-.219-.165c-.036-.2.219-.48.412-.514a4.206,4.206,0,0,0,1.616-.8,7.352,7.352,0,0,1,1-.607c-.364-.308-.762-.581-1.149-.848s-.768-.527-1.128-.827a.262.262,0,0,1,.008-.389c.132-.158.412-.3.593-.145.351.292.736.557,1.108.812a11.655,11.655,0,0,1,1.463,1.126l.206-.036-.108.133.007.007a.238.238,0,0,1,.061.247.664.664,0,0,1-.432.348,4.225,4.225,0,0,0-1.616.8,4.524,4.524,0,0,1-1.751.853A.45.45,0,0,1,141.039,329.323Zm1.351-.861a3.307,3.307,0,0,1-1.111.443.36.36,0,0,0-.162.14A3.61,3.61,0,0,0,142.39,328.462Zm1.675-1.031a4.9,4.9,0,0,0-.745.417,3.693,3.693,0,0,1,.8-.367Zm-2.3-2.054c.345.285.723.544,1.088.8a13.183,13.183,0,0,1,1.272.951,3.143,3.143,0,0,1,.308-.094,13.864,13.864,0,0,0-1.3-.969c-.377-.259-.767-.527-1.127-.827-.006-.005-.032-.008-.075.008A.348.348,0,0,0,141.761,325.377Z" fill="#ee4347"/>
            <path id="Path_104" data-name="Path 104" d="M141.039,329.456a.338.338,0,0,1-.35-.274.694.694,0,0,1,.52-.669,4.115,4.115,0,0,0,1.564-.776,8.776,8.776,0,0,1,.833-.525c-.316-.253-.653-.485-.982-.711-.38-.261-.773-.531-1.138-.835a.356.356,0,0,1-.129-.259.465.465,0,0,1,.12-.317.578.578,0,0,1,.78-.162c.349.29.73.552,1.1.8a12.08,12.08,0,0,1,1.429,1.093l.491-.087-.267.33a.371.371,0,0,1,.027.29.785.785,0,0,1-.536.438,4.125,4.125,0,0,0-1.563.776,4.644,4.644,0,0,1-1.8.874A.466.466,0,0,1,141.039,329.456Zm.153-.291-.049.01-.019,0Zm1.13-.816.14.224c.109-.071.217-.145.323-.218.2-.138.4-.273.6-.394l-.141-.224c-.109.072-.217.146-.324.219C142.721,328.094,142.524,328.228,142.322,328.349Zm1.771-1.073.283.265-.175.054a2.274,2.274,0,0,1,.253-.059.554.554,0,0,0,.329-.257.107.107,0,0,0-.029-.114l-.063-.062-.23.056a2.828,2.828,0,0,0-.294.09Zm0,0-.119.057.043-.02.079-.034Zm-2.164-1.6c.277.213.567.412.849.606a14.359,14.359,0,0,1,1.16.856l.031.026a14.178,14.178,0,0,0-1.191-.882C142.491,326.088,142.2,325.889,141.925,325.676Zm2.089,1.183.136.114h.005C144.108,326.934,144.062,326.9,144.014,326.859Zm-.842-.93.031.021.093.064-.088-.06Z" fill="#ee4347"/>
          </g>
        </g>
      </g>
      <g id="Group_72" data-name="Group 72">
        <g id="Group_69" data-name="Group 69">
          <g id="Group_68" data-name="Group 68">
            <path id="Path_105" data-name="Path 105" d="M137.756,325.438c.86.716,1.875,1.236,2.667,2.033l.3-.371c-1.3.231-2.092,1.423-3.367,1.65-.2.035-.48.467-.169.412,1.3-.231,2.092-1.423,3.367-1.65.1-.018.443-.227.3-.371-.794-.8-1.805-1.316-2.666-2.033-.175-.145-.585.2-.432.33Z" fill="#ee4347"/>
            <path id="Path_106" data-name="Path 106" d="M137.139,329.3a.2.2,0,0,1-.219-.165c-.036-.2.219-.48.412-.514a4.206,4.206,0,0,0,1.616-.8,7.357,7.357,0,0,1,1-.607c-.364-.308-.761-.581-1.148-.847s-.769-.528-1.129-.828h0a.262.262,0,0,1,.009-.389c.132-.158.41-.3.592-.145.351.292.736.557,1.108.812a11.659,11.659,0,0,1,1.463,1.126l.206-.036-.108.133.007.007a.237.237,0,0,1,.061.248.665.665,0,0,1-.432.347,4.21,4.21,0,0,0-1.616.8,4.527,4.527,0,0,1-1.75.853A.476.476,0,0,1,137.139,329.3Zm1.352-.861a3.324,3.324,0,0,1-1.112.443.357.357,0,0,0-.162.141A3.644,3.644,0,0,0,138.491,328.438Zm1.674-1.031a4.914,4.914,0,0,0-.746.418,3.7,3.7,0,0,1,.8-.368Zm-2.3-2.055c.345.286.723.546,1.089.8a13.3,13.3,0,0,1,1.271.951,3.135,3.135,0,0,1,.308-.094,13.87,13.87,0,0,0-1.3-.969c-.377-.259-.767-.527-1.127-.827-.006-.005-.032-.008-.075.008A.353.353,0,0,0,137.861,325.352Z" fill="#ee4347"/>
          </g>
        </g>
        <g id="Group_71" data-name="Group 71">
          <g id="Group_70" data-name="Group 70">
            <path id="Path_107" data-name="Path 107" d="M137.138,329.3a.22.22,0,0,1-.176-.072.23.23,0,0,1-.026-.237.626.626,0,0,1,.4-.37,4.22,4.22,0,0,0,1.616-.8,7.345,7.345,0,0,1,1-.607c-.364-.308-.762-.581-1.149-.848s-.768-.527-1.128-.827h0c-.093-.077-.126-.227.009-.389s.41-.3.592-.145c.351.292.736.556,1.108.812a11.472,11.472,0,0,1,1.463,1.126l.206-.036-.108.133.007.007a.237.237,0,0,1,.061.247.666.666,0,0,1-.431.348,4.222,4.222,0,0,0-1.617.8,4.527,4.527,0,0,1-1.75.853A.5.5,0,0,1,137.138,329.3Zm1.349-.859a3.309,3.309,0,0,1-1.108.441.36.36,0,0,0-.162.14A3.584,3.584,0,0,0,138.487,328.44Zm1.678-1.032a4.784,4.784,0,0,0-.743.415,3.628,3.628,0,0,1,.8-.366Zm-2.3-2.055c.345.285.723.545,1.088.8a13.189,13.189,0,0,1,1.272.951,3.135,3.135,0,0,1,.308-.094,13.823,13.823,0,0,0-1.3-.969c-.377-.259-.767-.527-1.127-.827-.006-.005-.033-.008-.075.008A.343.343,0,0,0,137.861,325.353Zm-.02-.017Z" fill="#ee4347"/>
            <path id="Path_108" data-name="Path 108" d="M137.138,329.432a.352.352,0,0,1-.277-.12.357.357,0,0,1-.049-.367.753.753,0,0,1,.5-.456,4.123,4.123,0,0,0,1.564-.776,9.238,9.238,0,0,1,.833-.525c-.315-.253-.653-.485-.981-.711-.381-.261-.773-.531-1.139-.836a.348.348,0,0,1-.128-.258.453.453,0,0,1,.12-.317.764.764,0,0,1,.338-.23.448.448,0,0,1,.441.068c.344.286.722.546,1.089.8a12.153,12.153,0,0,1,1.439,1.1l.49-.087-.267.33a.367.367,0,0,1,.028.29.792.792,0,0,1-.535.439,4.105,4.105,0,0,0-1.565.776,4.646,4.646,0,0,1-1.8.873A.574.574,0,0,1,137.138,329.432Zm.167-.294-.062.013-.019,0Zm1.114-.811.141.224c.11-.072.219-.147.326-.22.2-.138.4-.274.6-.394l-.141-.225c-.109.072-.217.146-.324.219C138.822,328.07,138.623,328.206,138.419,328.327Zm1.773-1.075.282.266-.172.053a2.569,2.569,0,0,1,.252-.059.551.551,0,0,0,.329-.257.107.107,0,0,0-.029-.114l-.063-.063-.23.057a2.592,2.592,0,0,0-.294.09l-.074.027,0,0-.119.055.043-.019Zm-1.025-.791c.295.2.59.419.867.653l.016.014A10.989,10.989,0,0,0,139.167,326.461Zm.939.368c.048.039.1.08.144.121l.005,0Zm-1.578-1.452c.253.19.514.37.769.545.1.07.2.139.3.21l-.3-.2C139.043,325.748,138.781,325.567,138.528,325.377Zm-.446.319c.157.119.318.233.478.345C138.4,325.929,138.239,325.814,138.082,325.7Zm-.268-.5c-.011.012-.022.023-.032.035h0Q137.8,325.219,137.814,325.2Zm.275-.128a.156.156,0,0,1,.085.025A.16.16,0,0,0,138.089,325.073Z" fill="#ee4347"/>
          </g>
        </g>
      </g>
    </g>
    <g id="Group_84" data-name="Group 84">
      <g id="Group_78" data-name="Group 78">
        <g id="Group_75" data-name="Group 75">
          <g id="Group_74" data-name="Group 74">
            <path id="Path_109" data-name="Path 109" d="M87.239,325.533c.86.717,1.875,1.236,2.666,2.033.1-.123.2-.247.3-.37-1.3.231-2.092,1.423-3.367,1.649-.194.035-.479.468-.168.412,1.3-.231,2.092-1.423,3.367-1.65.1-.018.443-.226.3-.37-.794-.8-1.805-1.317-2.667-2.034-.174-.145-.585.2-.431.33Z" fill="#ee4347"/>
            <path id="Path_110" data-name="Path 110" d="M86.622,329.394a.2.2,0,0,1-.219-.165c-.036-.2.219-.48.412-.514a4.206,4.206,0,0,0,1.616-.8,7.459,7.459,0,0,1,1-.607,14.146,14.146,0,0,0-1.149-.847c-.377-.26-.768-.528-1.128-.828a.225.225,0,0,1-.078-.216.547.547,0,0,1,.345-.356.329.329,0,0,1,.334.038c.351.292.736.557,1.108.812a11.659,11.659,0,0,1,1.463,1.126l.206-.036-.108.133.007.007a.241.241,0,0,1,.061.248.665.665,0,0,1-.432.347,4.22,4.22,0,0,0-1.616.8,4.54,4.54,0,0,1-1.75.852A.476.476,0,0,1,86.622,329.394Zm1.351-.861a3.29,3.29,0,0,1-1.111.443.36.36,0,0,0-.162.14A3.577,3.577,0,0,0,87.973,328.533Zm1.675-1.03a4.869,4.869,0,0,0-.747.417,3.725,3.725,0,0,1,.8-.368Zm-2.3-2.055c.345.285.723.545,1.088.8a13.2,13.2,0,0,1,1.272.952,2.818,2.818,0,0,1,.308-.1,14,14,0,0,0-1.3-.969c-.377-.259-.767-.527-1.128-.827,0-.005-.032-.008-.074.008A.348.348,0,0,0,87.344,325.448Zm-.02-.017Z" fill="#ee4347"/>
          </g>
        </g>
        <g id="Group_77" data-name="Group 77">
          <g id="Group_76" data-name="Group 76">
            <path id="Path_111" data-name="Path 111" d="M86.622,329.395a.2.2,0,0,1-.219-.165c-.036-.2.219-.481.412-.515a4.218,4.218,0,0,0,1.616-.8,7.261,7.261,0,0,1,1-.608c-.365-.308-.762-.581-1.149-.848s-.768-.527-1.128-.827a.261.261,0,0,1,.008-.388c.132-.159.412-.3.593-.146.351.292.736.557,1.108.813a11.556,11.556,0,0,1,1.463,1.125l.206-.036-.108.133.007.007a.239.239,0,0,1,.061.248.665.665,0,0,1-.432.347,4.225,4.225,0,0,0-1.616.8,4.532,4.532,0,0,1-1.751.853A.362.362,0,0,1,86.622,329.395Zm1.35-.861a3.313,3.313,0,0,1-1.11.442.363.363,0,0,0-.162.141A3.616,3.616,0,0,0,87.972,328.534Zm1.676-1.031a4.894,4.894,0,0,0-.745.416,3.692,3.692,0,0,1,.8-.367Zm-2.3-2.055c.345.285.723.545,1.088.8a13.314,13.314,0,0,1,1.272.951,3.134,3.134,0,0,1,.308-.094,14,14,0,0,0-1.3-.969c-.377-.259-.767-.527-1.127-.827-.006-.005-.032-.008-.075.008A.348.348,0,0,0,87.344,325.448Z" fill="#ee4347"/>
            <path id="Path_112" data-name="Path 112" d="M86.622,329.527a.337.337,0,0,1-.35-.274.694.694,0,0,1,.52-.669,4.116,4.116,0,0,0,1.564-.776,8.99,8.99,0,0,1,.833-.525c-.316-.253-.654-.485-.982-.711-.38-.261-.773-.531-1.138-.835a.356.356,0,0,1-.129-.258.462.462,0,0,1,.12-.317.577.577,0,0,1,.78-.163c.349.29.73.552,1.1.8a12.008,12.008,0,0,1,1.43,1.093l.49-.087-.266.33a.373.373,0,0,1,.027.291.79.79,0,0,1-.536.438,4.123,4.123,0,0,0-1.563.775,4.646,4.646,0,0,1-1.8.875A.547.547,0,0,1,86.622,329.527Zm.153-.291-.049.011-.019,0Zm1.13-.816.14.224c.109-.071.217-.144.323-.217.2-.138.4-.274.6-.394l-.141-.225c-.11.073-.217.146-.324.219C88.3,328.165,88.107,328.3,87.9,328.42Zm1.771-1.073.283.265-.175.054a2.523,2.523,0,0,1,.253-.059.555.555,0,0,0,.329-.256.108.108,0,0,0-.029-.114l-.063-.063-.23.056a2.814,2.814,0,0,0-.294.09Zm0,0-.119.056.043-.019.079-.034Zm-2.164-1.6c.277.213.567.411.849.605.389.268.79.544,1.16.856l.031.026a14.178,14.178,0,0,0-1.191-.882C88.074,326.159,87.785,325.96,87.508,325.748ZM89.6,326.93l.136.115,0,0Zm-.843-.93.032.022.093.063-.088-.06Z" fill="#ee4347"/>
          </g>
        </g>
      </g>
      <g id="Group_83" data-name="Group 83">
        <g id="Group_80" data-name="Group 80">
          <g id="Group_79" data-name="Group 79">
            <path id="Path_113" data-name="Path 113" d="M83.339,325.509c.86.717,1.875,1.236,2.667,2.033l.3-.37c-1.3.231-2.091,1.423-3.366,1.649-.195.035-.48.468-.169.412,1.3-.231,2.092-1.423,3.367-1.65.1-.018.443-.226.3-.37-.794-.8-1.8-1.317-2.666-2.034-.175-.145-.586.2-.432.33Z" fill="#ee4347"/>
            <path id="Path_114" data-name="Path 114" d="M82.722,329.371a.2.2,0,0,1-.219-.165c-.035-.2.219-.481.412-.515a4.206,4.206,0,0,0,1.616-.8,7.353,7.353,0,0,1,1-.607c-.365-.308-.762-.581-1.15-.848s-.767-.527-1.127-.827h0a.262.262,0,0,1,.008-.389c.132-.157.411-.3.593-.145.351.292.736.556,1.108.812a11.559,11.559,0,0,1,1.463,1.126l.2-.036-.107.133.007.007a.238.238,0,0,1,.061.247.664.664,0,0,1-.432.348,4.232,4.232,0,0,0-1.616.8,4.527,4.527,0,0,1-1.75.853A.382.382,0,0,1,82.722,329.371Zm1.353-.863a3.29,3.29,0,0,1-1.113.444.363.363,0,0,0-.162.141A3.616,3.616,0,0,0,84.075,328.508Zm1.674-1.029A4.731,4.731,0,0,0,85,327.9a3.687,3.687,0,0,1,.8-.368Zm-2.305-2.055c.345.285.722.544,1.087.795a13.382,13.382,0,0,1,1.273.952,3.143,3.143,0,0,1,.308-.094,13.877,13.877,0,0,0-1.3-.969c-.376-.259-.766-.527-1.127-.827a.1.1,0,0,0-.074.008A.348.348,0,0,0,83.444,325.424Zm-.02-.017Z" fill="#ee4347"/>
          </g>
        </g>
        <g id="Group_82" data-name="Group 82">
          <g id="Group_81" data-name="Group 81">
            <path id="Path_115" data-name="Path 115" d="M82.721,329.371a.22.22,0,0,1-.176-.073.23.23,0,0,1-.026-.237.629.629,0,0,1,.4-.37,4.217,4.217,0,0,0,1.617-.8,7.442,7.442,0,0,1,1-.607c-.364-.308-.762-.581-1.149-.847s-.768-.528-1.128-.828h0a.26.26,0,0,1,.009-.388c.131-.159.41-.3.592-.146.351.292.736.556,1.108.812a11.559,11.559,0,0,1,1.463,1.126l-.125.248.137-.133s.059.042.094-.054.046.238.018.328a.538.538,0,0,1-.39.31,4.213,4.213,0,0,0-1.616.8,4.54,4.54,0,0,1-1.75.852A.511.511,0,0,1,82.721,329.371Zm1.349-.86a3.287,3.287,0,0,1-1.108.441.367.367,0,0,0-.162.14A3.584,3.584,0,0,0,84.07,328.511Zm1.678-1.032a4.816,4.816,0,0,0-.743.415,3.67,3.67,0,0,1,.8-.365Zm-2.3-2.055c.345.285.723.545,1.088.8a13.036,13.036,0,0,1,1.272.952,2.9,2.9,0,0,1,.308-.1,13.877,13.877,0,0,0-1.3-.969c-.376-.259-.766-.527-1.126-.827-.006-.005-.033-.008-.075.008A.348.348,0,0,0,83.444,325.424Zm-.02-.017Z" fill="#ee4347"/>
            <path id="Path_116" data-name="Path 116" d="M82.721,329.5a.354.354,0,0,1-.277-.119.362.362,0,0,1-.05-.368.757.757,0,0,1,.5-.456,4.1,4.1,0,0,0,1.564-.775,8.677,8.677,0,0,1,.833-.525c-.316-.253-.653-.486-.981-.711-.381-.262-.774-.532-1.139-.836a.352.352,0,0,1-.128-.259.451.451,0,0,1,.12-.316.768.768,0,0,1,.338-.231.45.45,0,0,1,.441.068c.343.286.722.546,1.089.8a11.594,11.594,0,0,1,1.488,1.147l.008.006.062.009c.18.061.091.5.089.509a.665.665,0,0,1-.492.4,4.119,4.119,0,0,0-1.565.776,4.633,4.633,0,0,1-1.8.874A.563.563,0,0,1,82.721,329.5Zm.167-.294-.062.014-.019,0ZM84,328.4l.14.224c.111-.072.219-.146.327-.22.2-.138.4-.273.6-.394l-.14-.224c-.109.071-.217.145-.324.218C84.4,328.141,84.206,328.277,84,328.4Zm1.974-.784-.091.028c.029-.009.059-.016.089-.024Zm.453-.291-.259.252a.4.4,0,0,0,.253-.211A.171.171,0,0,0,86.429,327.323Zm-.654,0,.236.222.175-.349-.042.01a2.757,2.757,0,0,0-.294.09l-.074.028,0,0-.118.056.043-.019Zm-1.025-.791c.295.2.59.419.867.653l.016.014C85.351,326.959,85.05,326.741,84.75,326.532Zm.939.368c.048.039.1.08.144.121l0,0Zm-1.572-1.447c.251.188.51.366.763.54l.308.213c-.1-.07-.2-.139-.3-.207C84.629,325.821,84.368,325.641,84.117,325.453Zm-.453.314c.158.119.319.234.48.346C83.982,326,83.821,325.885,83.664,325.767Zm-.267-.495c-.011.012-.023.023-.032.035h0Q83.379,325.29,83.4,325.272Zm.274-.128a.168.168,0,0,1,.086.025A.161.161,0,0,0,83.671,325.144Z" fill="#ee4347"/>
          </g>
        </g>
      </g>
    </g>
    <g id="Group_95" data-name="Group 95">
      <g id="Group_89" data-name="Group 89">
        <g id="Group_86" data-name="Group 86">
          <g id="Group_85" data-name="Group 85">
            <path id="Path_117" data-name="Path 117" d="M277.33,325.756c.86.717,1.875,1.236,2.667,2.033.1-.123.12-.187.22-.311-1.3.231-2.012,1.364-3.287,1.591-.2.034-.48.467-.169.411,1.3-.231,2.092-1.423,3.367-1.65.1-.018.443-.226.3-.37-.794-.8-1.805-1.317-2.666-2.034-.174-.145-.585.2-.432.33Z" fill="#ee4347"/>
            <path id="Path_118" data-name="Path 118" d="M276.713,329.618a.2.2,0,0,1-.219-.165c-.035-.2.219-.481.412-.515a4.07,4.07,0,0,0,1.577-.768,6.457,6.457,0,0,1,1.056-.623,14.327,14.327,0,0,0-1.165-.861c-.378-.259-.769-.528-1.129-.828h0a.261.261,0,0,1,.009-.388c.131-.159.411-.3.593-.146.35.292.735.557,1.108.813a11.192,11.192,0,0,1,1.5,1.164l.086-.016-.045.057.024.024a.24.24,0,0,1,.062.248.667.667,0,0,1-.433.347,4.232,4.232,0,0,0-1.616.8,4.527,4.527,0,0,1-1.75.853A.38.38,0,0,1,276.713,329.618Zm1.306-.832a3.22,3.22,0,0,1-1.066.413.364.364,0,0,0-.162.141A3.525,3.525,0,0,0,278.019,328.786Zm1.74-1.043a3.964,3.964,0,0,0-.667.343,3.5,3.5,0,0,1,.7-.311Zm-2.324-2.072c.345.285.723.545,1.089.8a13.142,13.142,0,0,1,1.3.974,2.722,2.722,0,0,1,.32-.083,13.542,13.542,0,0,0-1.337-1c-.377-.259-.767-.527-1.127-.827-.006-.005-.032-.008-.075.008A.348.348,0,0,0,277.435,325.671Z" fill="#ee4347"/>
          </g>
        </g>
        <g id="Group_88" data-name="Group 88">
          <g id="Group_87" data-name="Group 87">
            <path id="Path_119" data-name="Path 119" d="M276.713,329.618a.2.2,0,0,1-.219-.165c-.035-.2.219-.481.412-.515a4.218,4.218,0,0,0,1.616-.8,7.362,7.362,0,0,1,1-.608c-.364-.308-.762-.581-1.149-.847s-.768-.528-1.128-.828a.262.262,0,0,1,.008-.388c.132-.159.412-.3.594-.146.35.292.735.557,1.108.813a9.258,9.258,0,0,1,1.3,1.015l.213.166.052.041.007.007a.242.242,0,0,1,.062.248.667.667,0,0,1-.433.347,4.232,4.232,0,0,0-1.616.8,4.527,4.527,0,0,1-1.75.853A.38.38,0,0,1,276.713,329.618Zm1.351-.861a3.317,3.317,0,0,1-1.111.442.364.364,0,0,0-.162.141A3.611,3.611,0,0,0,278.064,328.757Zm1.676-1.031a4.854,4.854,0,0,0-.746.416,3.693,3.693,0,0,1,.8-.367Zm-2.3-2.055c.345.285.723.545,1.088.8a13.319,13.319,0,0,1,1.273.951,2.976,2.976,0,0,1,.308-.094,14.01,14.01,0,0,0-1.3-.969c-.377-.259-.767-.527-1.127-.827-.006-.005-.032-.008-.075.008A.354.354,0,0,0,277.435,325.671Z" fill="#ee4347"/>
            <path id="Path_120" data-name="Path 120" d="M276.713,329.75a.338.338,0,0,1-.35-.274.694.694,0,0,1,.52-.669,4.108,4.108,0,0,0,1.564-.776,9.119,9.119,0,0,1,.833-.525c-.316-.253-.653-.485-.981-.711-.381-.261-.774-.531-1.139-.835a.355.355,0,0,1-.128-.258.452.452,0,0,1,.12-.317.575.575,0,0,1,.779-.163c.349.29.73.552,1.1.805a9.3,9.3,0,0,1,1.312,1.029l.255.2a.383.383,0,0,1,.113.4.789.789,0,0,1-.536.438,4.108,4.108,0,0,0-1.563.775,4.633,4.633,0,0,1-1.8.875A.547.547,0,0,1,276.713,329.75Zm.153-.291-.049.011-.019,0Zm1.13-.816.141.224c.108-.071.216-.145.323-.217.2-.139.4-.274.6-.394l-.14-.225c-.11.072-.218.146-.325.219C278.4,328.388,278.2,328.523,278,328.643Zm1.771-1.073.283.265-.175.054a2.589,2.589,0,0,1,.253-.059.554.554,0,0,0,.329-.257.1.1,0,0,0-.029-.113l-.076-.06-.217.053a2.813,2.813,0,0,0-.294.09Zm0,0-.119.057.043-.019.08-.034Zm-2.164-1.6c.278.212.567.411.849.6.389.268.791.544,1.16.856l.031.026a14.19,14.19,0,0,0-1.191-.882C278.165,326.382,277.876,326.183,277.6,325.971Zm2.089,1.182.136.115.005,0C279.783,327.228,279.736,327.19,279.688,327.153Zm-.847-.934.036.026.045.03-.043-.029Z" fill="#ee4347"/>
          </g>
        </g>
      </g>
      <g id="Group_94" data-name="Group 94">
        <g id="Group_91" data-name="Group 91">
          <g id="Group_90" data-name="Group 90">
            <path id="Path_121" data-name="Path 121" d="M273.43,325.732c.86.717,1.875,1.236,2.667,2.033.1-.123.1-.18.2-.3-1.3.231-1.992,1.356-3.267,1.583-.2.034-.48.467-.168.411,1.3-.231,2.091-1.423,3.366-1.65.1-.018.443-.226.3-.37-.793-.8-1.805-1.317-2.666-2.034-.174-.145-.585.2-.432.33Z" fill="#ee4347"/>
            <path id="Path_122" data-name="Path 122" d="M272.813,329.594a.2.2,0,0,1-.219-.166c-.035-.2.22-.48.412-.514a4.015,4.015,0,0,0,1.567-.764,6.159,6.159,0,0,1,1.065-.627,14.1,14.1,0,0,0-1.165-.861c-.377-.26-.768-.528-1.128-.828a.223.223,0,0,1-.077-.216.541.541,0,0,1,.344-.355.328.328,0,0,1,.335.037c.351.292.735.557,1.107.812a11.194,11.194,0,0,1,1.506,1.168l.062-.011-.032.04.032.033a.238.238,0,0,1,.062.247.667.667,0,0,1-.432.348,4.206,4.206,0,0,0-1.616.8,4.551,4.551,0,0,1-1.751.852A.485.485,0,0,1,272.813,329.594Zm1.323-.843a3.213,3.213,0,0,1-1.083.424.367.367,0,0,0-.162.14A3.546,3.546,0,0,0,274.136,328.751Zm1.723-1.032a3.929,3.929,0,0,0-.742.386,3.607,3.607,0,0,1,.776-.353Zm.571-.211-.03.037-.022.029a.175.175,0,0,0,.053-.065Zm-2.895-1.861c.345.285.723.545,1.089.8a13.433,13.433,0,0,1,1.3.974,3.116,3.116,0,0,1,.323-.081,13.617,13.617,0,0,0-1.341-1.005c-.377-.259-.767-.527-1.127-.827-.006-.005-.032-.008-.075.008A.348.348,0,0,0,273.535,325.647Zm-.02-.017Z" fill="#ee4347"/>
          </g>
        </g>
        <g id="Group_93" data-name="Group 93">
          <g id="Group_92" data-name="Group 92">
            <path id="Path_123" data-name="Path 123" d="M272.813,329.594a.217.217,0,0,1-.176-.073.23.23,0,0,1-.027-.237.631.631,0,0,1,.4-.37,4.212,4.212,0,0,0,1.616-.8,7.447,7.447,0,0,1,1-.607,14.149,14.149,0,0,0-1.149-.847c-.377-.26-.768-.528-1.128-.828h0a.262.262,0,0,1,.009-.388c.131-.159.411-.3.593-.146.35.292.735.556,1.107.812a11.563,11.563,0,0,1,1.463,1.126l.046.052.052.045.007.007a.238.238,0,0,1,.062.247.664.664,0,0,1-.432.348,4.217,4.217,0,0,0-1.617.8,4.54,4.54,0,0,1-1.75.852A.4.4,0,0,1,272.813,329.594Zm1.348-.86a3.28,3.28,0,0,1-1.108.441.373.373,0,0,0-.162.14A3.576,3.576,0,0,0,274.161,328.734Zm1.679-1.032a4.828,4.828,0,0,0-.744.415,3.669,3.669,0,0,1,.8-.365Zm-2.3-2.055c.345.285.723.545,1.089.8a13.144,13.144,0,0,1,1.271.952,2.842,2.842,0,0,1,.309-.1,14.151,14.151,0,0,0-1.3-.969c-.377-.259-.767-.527-1.127-.827-.006-.005-.033-.008-.075.008A.348.348,0,0,0,273.535,325.647Zm-.02-.017Z" fill="#ee4347"/>
            <path id="Path_124" data-name="Path 124" d="M272.813,329.726a.356.356,0,0,1-.278-.119.365.365,0,0,1-.049-.368.753.753,0,0,1,.5-.456,4.119,4.119,0,0,0,1.564-.775,9.033,9.033,0,0,1,.833-.526c-.315-.252-.653-.485-.981-.71-.381-.262-.773-.532-1.139-.836a.355.355,0,0,1-.128-.259.456.456,0,0,1,.12-.316.774.774,0,0,1,.338-.231.45.45,0,0,1,.441.068c.344.286.722.546,1.089.8a11.688,11.688,0,0,1,1.489,1.146l.092.092a.381.381,0,0,1,.109.395.792.792,0,0,1-.535.439,4.119,4.119,0,0,0-1.565.776,4.632,4.632,0,0,1-1.8.873A.481.481,0,0,1,272.813,329.726Zm.167-.294-.063.014-.019,0Zm1.114-.811.14.224c.11-.072.219-.146.327-.22.2-.138.4-.273.6-.394l-.141-.224c-.109.071-.217.145-.323.218C274.5,328.364,274.3,328.5,274.094,328.621Zm1.772-1.075.282.266-.171.053a2.486,2.486,0,0,1,.251-.059.553.553,0,0,0,.329-.256.1.1,0,0,0-.029-.114l-.067-.062-.226.055a2.822,2.822,0,0,0-.294.09l-.074.027,0,0-.119.056.043-.019Zm-1.024-.791c.294.2.589.419.866.653l.016.014C275.442,327.182,275.142,326.964,274.842,326.755Zm.938.368c.049.039.1.08.144.121l0,0Zm-1.572-1.448c.251.189.51.367.763.541.113.078.226.155.338.234q-.165-.116-.33-.228C274.72,326.043,274.459,325.864,274.208,325.675Zm-.452.315c.157.119.318.234.479.346C274.074,326.223,273.913,326.108,273.756,325.99Zm-.267-.495c-.012.012-.023.023-.033.035h0A.376.376,0,0,1,273.489,325.495Zm.274-.128a.165.165,0,0,1,.085.025A.16.16,0,0,0,273.763,325.367Z" fill="#ee4347"/>
          </g>
        </g>
      </g>
    </g>
    <g id="Group_96" data-name="Group 96">
      <path id="Path_125" data-name="Path 125" d="M185,328.835q-.666-.084-.459-.752l.81.341q.412.714-.668,1.082c-1.35.145-1.738-1.22-1.292-2.236.772-1.76,2.656-1.255,3.228.178a2.277,2.277,0,0,1-.824,2.645c-2.022,1.552-4.307-2.075-4.371-3.713-.118-3,4.14-3.108,5.866-1.687a3.81,3.81,0,0,1,.129,5.778c-2.767,2.149-6.868-.032-7.794-2.971-1.268-4.023,1.406-7.3,5.551-6.926,6.8.615,5.688,10.527-.773,10.6-.553.005-.745.714-.086.707,4.9-.051,8.6-5.722,5.4-9.949-1.589-2.1-4.835-2.417-7.205-1.848a5.488,5.488,0,0,0-4.12,6.142,5.8,5.8,0,0,0,5.03,5.586c2.232.384,4.858-.291,5.911-2.446,2.158-4.419-3.879-7.941-7.435-5.477-2.888,2-.938,6.172,1.916,7.079A3.116,3.116,0,0,0,187.4,329.5a2.782,2.782,0,0,0-2.2-4.128,3,3,0,0,0-2.851,3.737c.481,1.285,2.835,1.494,3.718.558a1.593,1.593,0,0,0-1.485-2.587,1.244,1.244,0,0,0,.085,2.462c.476.1.978-.564.336-.7Z" fill="#ee4347"/>
    </g>
  </g>
</svg>
