<svg id="Layer_1" data-name="Layer 1" xmlns="http://www.w3.org/2000/svg" viewBox="0 0 100 100"><defs><style>.cls-1{fill:#009b91;}</style></defs><title>Icons</title><path class="cls-1" d="M75.17,52.62c0-.32,0-.63,0-.95,0-.16.13-.17.25-.2a1.13,1.13,0,0,0,.89-.85,1.25,1.25,0,0,0-.55-1.33,2.13,2.13,0,0,0-2.85.53,2.69,2.69,0,0,0,0,3.12,3.08,3.08,0,0,0,3.17,1.24,3.81,3.81,0,0,0,3.07-4.34A4.41,4.41,0,0,0,75.89,46a4.63,4.63,0,0,0-4.63.85A5.76,5.76,0,0,0,69.46,50c-.08.35-.14.71-.2,1.07,0,.16-.1.22-.27.2s-.6,0-.94-.07c.09-.45.15-.87.25-1.28a7.08,7.08,0,0,1,1.9-3.61,5.54,5.54,0,0,1,4.11-1.68,6.13,6.13,0,0,1,4.55,1.92,5.52,5.52,0,0,1,.79,6.54A4.85,4.85,0,0,1,74,55.16a4,4,0,0,1-2.48-5.11,3.36,3.36,0,0,1,4.49-2,2.53,2.53,0,0,1,1.44,1.61,2.28,2.28,0,0,1-2.23,3Z"/><path class="cls-1" d="M66.25,49c-1.63-.37-3.27-.72-4.5-2A.48.48,0,0,0,61,47a.5.5,0,0,0,0,.75c.42.38.88.72,1.32,1.07l.29.21h-.31L55,49.1c-4.17,0-8.34.06-12.51.13a4.35,4.35,0,0,1-3.24-1,.44.44,0,0,0-.65,0,1.38,1.38,0,0,0-.15.65c0,.08.1.16.21.33H36.62l-4.51.06c-.59,0-1.27-.6-1.22-1.07,0-.21,0-.4-.22-.39s-.27.19-.32.33a.77.77,0,0,0,0,.47,6.58,6.58,0,0,0,.37.66,2.44,2.44,0,0,1-1.28-.75c-.11-.14-.11-.37-.18-.55a3.12,3.12,0,0,0-.2-.35c-.11.09-.29.16-.33.27a1.05,1.05,0,0,0,.32,1l.34.35a2.31,2.31,0,0,1-.53,0,4.38,4.38,0,0,1-2.34-1.46,1.14,1.14,0,0,1-.25-1c0-.11-.09-.25-.14-.37-.13.08-.32.13-.36.24A1.2,1.2,0,0,0,26,47.93a16,16,0,0,0,1.14,1.19c.09.08.19.13.28.2l0,.1H23.61v1.14h0c1,0,2,0,3.05,0-.16.09-.26.14-.36.21a15.63,15.63,0,0,0-1.37,1.06,2.24,2.24,0,0,0-.45.85c0,.1.12.26.18.39.11-.08.29-.14.32-.25a1.8,1.8,0,0,1,.84-1.08,13.34,13.34,0,0,1,2.36-1.18,5.5,5.5,0,0,1,1.67,0c-.2.31-.43.61-.6.94,0,.08.09.26.15.39a1.2,1.2,0,0,0,.34-.21c.12-.14.18-.34.32-.45a2.85,2.85,0,0,1,1.85-.74c1.91,0,3.82,0,5.73,0h1c0,.07,0,.1,0,.12a.55.55,0,0,0,0,.81c.24.22.51.18.83-.1a3.69,3.69,0,0,1,2.46-.87c6.24-.09,12.48-.14,18.72-.2h1.78c-.43.34-.85.66-1.24,1s-.4.67-.16.92.55.18.93-.11a8.33,8.33,0,0,1,1.71-1.08,18.68,18.68,0,0,1,2.58-.76c.34-.09.62-.2.63-.58S66.6,49,66.25,49Z"/><path class="cls-1" d="M22.36,48.6c.67.56,1.46,1,2.08,1.58a3.25,3.25,0,0,0,.23-.29c-1,.18-1.63,1.11-2.62,1.29-.15,0-.37.36-.13.32,1-.18,1.63-1.11,2.62-1.29.08,0,.35-.17.24-.28-.62-.63-1.41-1-2.08-1.59-.14-.11-.46.16-.34.26Z"/><path class="cls-1" d="M21.88,51.61a.16.16,0,0,1-.17-.13.43.43,0,0,1,.32-.4,3.38,3.38,0,0,0,1.26-.62,5.62,5.62,0,0,1,.78-.48c-.28-.24-.59-.45-.89-.66s-.6-.41-.88-.64a.18.18,0,0,1-.06-.17.44.44,0,0,1,.27-.28.29.29,0,0,1,.26,0,10.65,10.65,0,0,0,.86.64,8.59,8.59,0,0,1,1.14.87l.16,0-.09.11h0a.21.21,0,0,1,0,.2.57.57,0,0,1-.34.27,3.23,3.23,0,0,0-1.26.62,3.45,3.45,0,0,1-1.36.66Zm1.06-.67a2.87,2.87,0,0,1-.87.34.32.32,0,0,0-.13.11A2.91,2.91,0,0,0,22.94,50.94Zm1.3-.81a3.74,3.74,0,0,0-.58.33,2.7,2.7,0,0,1,.62-.29Zm-1.79-1.6a10.1,10.1,0,0,0,.84.62,10.19,10.19,0,0,1,1,.74l.24-.07a9.44,9.44,0,0,0-1-.75c-.29-.21-.6-.41-.88-.65h-.05A.2.2,0,0,0,22.45,48.53Zm0,0Z"/><path class="cls-1" d="M21.88,51.61a.16.16,0,0,1-.17-.13.43.43,0,0,1,.32-.4,3.38,3.38,0,0,0,1.26-.62,5.62,5.62,0,0,1,.78-.48c-.28-.24-.59-.45-.89-.66s-.6-.41-.88-.64a.21.21,0,0,1,0-.3c.11-.13.32-.24.47-.12a10.65,10.65,0,0,0,.86.64,8.59,8.59,0,0,1,1.14.87l.16,0-.09.11h0a.21.21,0,0,1,0,.2.57.57,0,0,1-.34.27,3.23,3.23,0,0,0-1.26.62,3.45,3.45,0,0,1-1.36.66Zm1.06-.67a2.87,2.87,0,0,1-.87.34.32.32,0,0,0-.13.11A2.91,2.91,0,0,0,22.94,50.94Zm1.3-.81a3.74,3.74,0,0,0-.58.33,2.91,2.91,0,0,1,.62-.29Zm-1.79-1.6a10.1,10.1,0,0,0,.84.62,10.19,10.19,0,0,1,1,.74l.24-.07a9.44,9.44,0,0,0-1-.75c-.29-.21-.6-.41-.88-.65h-.05A.2.2,0,0,0,22.45,48.53Z"/><path class="cls-1" d="M21.88,51.71a.27.27,0,0,1-.27-.21A.52.52,0,0,1,22,51a3.15,3.15,0,0,0,1.21-.61c.21-.14.42-.28.65-.41-.24-.19-.51-.38-.76-.55s-.6-.42-.89-.65a.26.26,0,0,1-.1-.2.38.38,0,0,1,.09-.25.46.46,0,0,1,.61-.13,10.52,10.52,0,0,0,.86.63,9.9,9.9,0,0,1,1.11.85l.38-.07-.2.26a.36.36,0,0,1,0,.23.63.63,0,0,1-.42.34,3.23,3.23,0,0,0-1.22.6,3.46,3.46,0,0,1-1.4.68Zm.12-.23h0Zm.88-.63L23,51a2.2,2.2,0,0,0,.25-.17l.47-.3-.11-.18-.25.17ZM24.26,50l.22.21-.13,0,.19,0a.38.38,0,0,0,.26-.2.08.08,0,0,0,0-.08l-.05,0-.18,0-.23.07Zm0,0-.09,0h0l.06,0Zm-1.69-1.24.66.47c.31.21.62.42.91.66l0,0a8.86,8.86,0,0,0-.93-.68Zm1.63.92.11.09h0ZM23.54,49l0,0,.07.05L23.57,49Z"/><path class="cls-1" d="M19.33,48.58c.67.56,1.46,1,2.07,1.58l.24-.28c-1,.18-1.63,1.1-2.63,1.28-.15,0-.37.36-.13.32,1-.18,1.63-1.11,2.63-1.28.08,0,.34-.18.23-.29-.62-.63-1.41-1-2.08-1.59-.13-.11-.45.16-.33.26Z"/><path class="cls-1" d="M18.84,51.59a.18.18,0,0,1-.17-.13c0-.15.18-.37.33-.4a3.41,3.41,0,0,0,1.25-.62A7.77,7.77,0,0,1,21,50c-.28-.24-.59-.45-.89-.66s-.6-.41-.88-.64h0a.2.2,0,0,1,0-.3c.1-.13.32-.23.46-.12a10.65,10.65,0,0,0,.86.64,8.59,8.59,0,0,1,1.14.87l.16,0-.08.1h0a.21.21,0,0,1,.05.2.57.57,0,0,1-.34.27,3.23,3.23,0,0,0-1.26.62,3.45,3.45,0,0,1-1.36.66Zm1.06-.67a2.63,2.63,0,0,1-.87.34.3.3,0,0,0-.12.11A2.86,2.86,0,0,0,19.9,50.92Zm1.3-.81a4.79,4.79,0,0,0-.58.33,2.91,2.91,0,0,1,.62-.29Zm-1.79-1.6a9.54,9.54,0,0,0,.84.62,10,10,0,0,1,1,.75l.24-.08a10.7,10.7,0,0,0-1-.75c-.29-.21-.59-.41-.87-.65h-.06A.24.24,0,0,0,19.41,48.51Zm0,0Z"/><path class="cls-1" d="M18.84,51.59a.15.15,0,0,1-.13-.06.15.15,0,0,1,0-.18.47.47,0,0,1,.31-.29,3.41,3.41,0,0,0,1.25-.62A6.78,6.78,0,0,1,21,50c-.28-.24-.59-.45-.89-.66s-.6-.41-.88-.64h0a.2.2,0,0,1,0-.3c.1-.13.32-.23.46-.12a10.65,10.65,0,0,0,.86.64,8.59,8.59,0,0,1,1.14.87l-.1.2.11-.11s.05,0,.07,0,0,.19,0,.26a.47.47,0,0,1-.31.24,3.23,3.23,0,0,0-1.26.62,3.45,3.45,0,0,1-1.36.66Zm1.05-.67a2.32,2.32,0,0,1-.86.34.3.3,0,0,0-.12.11A2.81,2.81,0,0,0,19.89,50.92Zm1.31-.81a3.74,3.74,0,0,0-.58.33,2.91,2.91,0,0,1,.62-.29Zm-1.79-1.6a8.37,8.37,0,0,0,.85.62,11.21,11.21,0,0,1,1,.75l.24-.08a10.7,10.7,0,0,0-1-.75c-.29-.21-.59-.41-.87-.65h-.06A.24.24,0,0,0,19.41,48.51Zm0,0Z"/><path class="cls-1" d="M18.84,51.69a.27.27,0,0,1-.21-.09.3.3,0,0,1,0-.29A.6.6,0,0,1,19,51a3.26,3.26,0,0,0,1.22-.61c.2-.14.42-.28.64-.41-.24-.19-.5-.37-.76-.55a10.6,10.6,0,0,1-.89-.65.3.3,0,0,1-.1-.2.35.35,0,0,1,.1-.25.53.53,0,0,1,.26-.18.36.36,0,0,1,.34,0c.27.23.57.43.85.63a8.93,8.93,0,0,1,1.16.89h.06c.14.05.07.39.07.4a.51.51,0,0,1-.39.31,3.23,3.23,0,0,0-1.22.6,3.46,3.46,0,0,1-1.4.68Zm.13-.23h-.06Zm.87-.63L20,51l.26-.18c.15-.1.31-.21.47-.3l-.11-.18-.26.17A4.76,4.76,0,0,1,19.84,50.83Zm1.54-.61-.07,0,.07,0Zm.35-.23-.2.2a.35.35,0,0,0,.2-.16Zm-.51,0,.19.18.13-.28h0l-.23.07-.06,0h0l-.09,0h0Zm-.8-.61a8,8,0,0,1,.68.51h0A6.92,6.92,0,0,0,20.42,49.38Zm.74.28.11.1h0Zm-1.23-1.12.6.42.24.16L20.53,49Zm-.35.24.37.27Zm-.21-.38a0,0,0,0,0,0,0h0Zm.21-.1a.08.08,0,0,1,.07,0A.08.08,0,0,0,19.58,48.3Z"/></svg>