<svg xmlns="http://www.w3.org/2000/svg" width="198.361" height="13.966" viewBox="0 0 198.361 13.966">
  <g id="seprator_mind" transform="translate(-73.708 -416.929)">
    <path id="Path_7" data-name="Path 7" d="M168.353,425.267c-.392,0-.784-.014-1.168-.026s-.767-.026-1.141-.026H80.969a.247.247,0,0,1-.185-.076.645.645,0,0,1-.139-.442c0-.334.157-.585.367-.585h.053a.587.587,0,0,0,.084,0,17.549,17.549,0,0,1,2.328-.027c.375.013.765.027,1.139.027H169.69a.246.246,0,0,1,.185.074.643.643,0,0,1,.14.443c0,.334-.158.586-.367.586H169.6a.5.5,0,0,0-.086,0,11.351,11.351,0,0,1-1.157.053" fill="#ed4347"/>
    <path id="Path_8" data-name="Path 8" d="M265.828,425.267c-.379,0-.76-.014-1.133-.026s-.741-.026-1.1-.026H181.183a.238.238,0,0,1-.18-.076.661.661,0,0,1-.135-.442c0-.334.152-.585.356-.585h.05a.572.572,0,0,0,.083,0,16.452,16.452,0,0,1,2.254-.027c.364.013.741.027,1.1.027h82.408a.24.24,0,0,1,.18.074.658.658,0,0,1,.134.443c0,.334-.152.586-.355.586h-.05a.463.463,0,0,0-.083,0,10.667,10.667,0,0,1-1.121.053" fill="#ed4347"/>
    <path id="Path_9" data-name="Path 9" d="M219.051,423.054c.86.717,1.875,1.236,2.667,2.034.1-.124.2-.248.3-.371-1.3.232-2.092,1.423-3.368,1.65-.194.035-.479.467-.168.412,1.3-.232,2.091-1.423,3.367-1.65.1-.018.443-.227.3-.371-.794-.8-1.805-1.316-2.667-2.033-.173-.146-.585.2-.431.329" fill="#ed4347"/>
    <path id="Path_10" data-name="Path 10" d="M218.433,426.916a.2.2,0,0,1-.218-.165c-.036-.2.219-.48.412-.514a4.241,4.241,0,0,0,1.616-.8,7.4,7.4,0,0,1,1-.608c-.364-.307-.762-.581-1.15-.847s-.767-.528-1.127-.828a.261.261,0,0,1,.008-.388c.132-.158.411-.3.593-.146.351.292.735.557,1.109.813a11.617,11.617,0,0,1,1.461,1.126l.207-.037-.108.133.007.007a.24.24,0,0,1,.061.248.662.662,0,0,1-.432.347,4.206,4.206,0,0,0-1.616.8,4.554,4.554,0,0,1-1.75.852.39.39,0,0,1-.073.007m1.351-.861a3.312,3.312,0,0,1-1.11.442.372.372,0,0,0-.163.141,3.6,3.6,0,0,0,1.273-.583m1.676-1.031a4.9,4.9,0,0,0-.745.417,3.662,3.662,0,0,1,.8-.368l-.053-.049m-2.3-2.055c.345.285.723.545,1.088.8a13.2,13.2,0,0,1,1.272.952,3.129,3.129,0,0,1,.308-.1,13.855,13.855,0,0,0-1.3-.968c-.378-.259-.767-.528-1.128-.828a.112.112,0,0,0-.075.008.355.355,0,0,0-.166.135" fill="#ed4347"/>
    <path id="Path_11" data-name="Path 11" d="M218.433,426.916a.2.2,0,0,1-.218-.165c-.036-.2.219-.48.412-.514a4.241,4.241,0,0,0,1.616-.8,7.4,7.4,0,0,1,1-.608c-.364-.307-.762-.581-1.15-.847s-.767-.528-1.127-.828a.261.261,0,0,1,.008-.388c.132-.158.411-.3.593-.146.351.292.735.557,1.109.813a11.617,11.617,0,0,1,1.461,1.126l.207-.036-.108.132.007.007a.24.24,0,0,1,.061.248.662.662,0,0,1-.432.347,4.206,4.206,0,0,0-1.616.8,4.554,4.554,0,0,1-1.75.852.39.39,0,0,1-.073.007m1.351-.861a3.3,3.3,0,0,1-1.11.442.372.372,0,0,0-.163.141,3.6,3.6,0,0,0,1.273-.583m1.677-1.031a4.862,4.862,0,0,0-.746.417,3.662,3.662,0,0,1,.8-.368Zm-2.3-2.055c.345.285.723.545,1.088.8a13.2,13.2,0,0,1,1.272.952,3.129,3.129,0,0,1,.308-.1,13.855,13.855,0,0,0-1.3-.968c-.378-.259-.767-.528-1.128-.828a.112.112,0,0,0-.075.008.355.355,0,0,0-.166.135" fill="#ed4347"/>
    <path id="Path_12" data-name="Path 12" d="M218.434,427.049a.338.338,0,0,1-.35-.276.692.692,0,0,1,.52-.667,4.129,4.129,0,0,0,1.564-.776A8.59,8.59,0,0,1,221,424.8c-.316-.253-.653-.486-.982-.711-.38-.261-.773-.531-1.139-.836a.353.353,0,0,1-.127-.259.455.455,0,0,1,.119-.316.578.578,0,0,1,.78-.163c.349.291.729.552,1.1.806a12.167,12.167,0,0,1,1.43,1.092l.489-.086-.267.33a.367.367,0,0,1,.028.29.786.786,0,0,1-.536.438,4.1,4.1,0,0,0-1.563.776,4.645,4.645,0,0,1-1.8.875.675.675,0,0,1-.1.008m.153-.291-.049.01-.019,0,.068-.014m1.129-.817.141.225c.108-.072.217-.145.324-.219.2-.137.4-.273.6-.393l-.139-.224c-.111.071-.219.146-.325.218-.2.138-.4.272-.6.393m1.772-1.072.282.265-.174.052c.082-.022.167-.042.253-.058a.549.549,0,0,0,.329-.256.107.107,0,0,0-.029-.114l-.063-.064-.23.057a2.743,2.743,0,0,0-.294.09Zm-.005,0-.118.056c.013-.006.029-.012.043-.02l.079-.033Zm-2.164-1.6c.279.212.568.412.85.6.389.268.79.544,1.16.857l.03.025a14,14,0,0,0-1.19-.882c-.284-.194-.572-.393-.85-.6m2.09,1.183.136.113h0c-.046-.039-.092-.077-.14-.113m-.843-.931.032.022.093.063-.088-.06c-.013-.007-.024-.017-.037-.025" fill="#ed4347"/>
    <path id="Path_13" data-name="Path 13" d="M215.151,423.03c.86.717,1.875,1.236,2.666,2.034q.151-.186.3-.372c-1.3.232-2.092,1.424-3.366,1.652-.2.034-.481.466-.169.41,1.3-.231,2.091-1.423,3.367-1.649.1-.019.444-.227.3-.372-.794-.8-1.806-1.314-2.666-2.033-.175-.145-.585.2-.432.33" fill="#ed4347"/>
    <path id="Path_14" data-name="Path 14" d="M214.533,426.892a.216.216,0,0,1-.176-.073.23.23,0,0,1-.026-.237.627.627,0,0,1,.4-.37,4.178,4.178,0,0,0,1.616-.8,7.5,7.5,0,0,1,1-.606c-.364-.309-.761-.581-1.148-.848s-.769-.528-1.128-.828a.262.262,0,0,1,.008-.389c.131-.158.411-.3.593-.145.352.293.736.557,1.108.812a11.482,11.482,0,0,1,1.462,1.126l.206-.036-.107.133.006.007a.238.238,0,0,1,.062.248.672.672,0,0,1-.431.348,4.205,4.205,0,0,0-1.617.8,4.511,4.511,0,0,1-1.751.853.38.38,0,0,1-.072.007m1.35-.86a3.291,3.291,0,0,1-1.109.442.355.355,0,0,0-.162.14,3.609,3.609,0,0,0,1.271-.582M217.56,425a4.882,4.882,0,0,0-.744.416,3.7,3.7,0,0,1,.8-.366l-.053-.05m-2.3-2.054c.346.285.722.544,1.088.795a13.325,13.325,0,0,1,1.272.952,2.987,2.987,0,0,1,.308-.1,14.015,14.015,0,0,0-1.3-.969c-.376-.259-.766-.527-1.126-.827-.007-.005-.033-.008-.075.009a.337.337,0,0,0-.167.135" fill="#ed4347"/>
    <path id="Path_15" data-name="Path 15" d="M214.533,426.892a.216.216,0,0,1-.176-.073.23.23,0,0,1-.026-.237.627.627,0,0,1,.4-.37,4.178,4.178,0,0,0,1.616-.8,7.5,7.5,0,0,1,1-.606c-.364-.309-.761-.581-1.148-.848s-.769-.528-1.128-.828a.262.262,0,0,1,.008-.389c.132-.158.411-.3.593-.145.352.293.736.557,1.108.812a11.482,11.482,0,0,1,1.462,1.126l.206-.036-.107.133.006.007a.238.238,0,0,1,.062.248.672.672,0,0,1-.431.348,4.205,4.205,0,0,0-1.617.8,4.518,4.518,0,0,1-1.751.853.38.38,0,0,1-.072.007m1.349-.86a3.281,3.281,0,0,1-1.108.442.355.355,0,0,0-.162.14,3.612,3.612,0,0,0,1.27-.582M217.56,425a4.819,4.819,0,0,0-.743.415,3.684,3.684,0,0,1,.8-.365l-.053-.05m-2.3-2.054c.346.285.722.544,1.088.795a13.325,13.325,0,0,1,1.272.952,2.987,2.987,0,0,1,.308-.1,14.015,14.015,0,0,0-1.3-.969c-.376-.259-.766-.526-1.126-.827-.007-.005-.033-.008-.075.009a.337.337,0,0,0-.167.135" fill="#ed4347"/>
    <path id="Path_16" data-name="Path 16" d="M214.533,427.024a.359.359,0,0,1-.278-.12.363.363,0,0,1-.048-.367.753.753,0,0,1,.5-.456,4.12,4.12,0,0,0,1.564-.775,9.116,9.116,0,0,1,.834-.526c-.317-.253-.654-.485-.982-.711-.381-.26-.773-.531-1.139-.836a.352.352,0,0,1-.129-.257.466.466,0,0,1,.121-.318.773.773,0,0,1,.337-.229.452.452,0,0,1,.442.067c.344.286.723.546,1.088.8a12.084,12.084,0,0,1,1.44,1.1l.489-.086-.266.33a.365.365,0,0,1,.028.289.787.787,0,0,1-.535.439,4.089,4.089,0,0,0-1.564.777,4.65,4.65,0,0,1-1.8.873.563.563,0,0,1-.1.008m.167-.293-.062.012-.019,0,.081-.016m1.114-.812.14.225c.111-.073.219-.147.327-.221.2-.138.4-.274.6-.394l-.14-.224c-.11.071-.218.145-.324.218-.2.139-.4.275-.606.4m1.773-1.075.282.266-.172.053a2.567,2.567,0,0,1,.252-.058.553.553,0,0,0,.328-.257.108.108,0,0,0-.028-.115l-.063-.062-.23.056a2.689,2.689,0,0,0-.294.09l-.075.028,0,0-.12.056.043-.019Zm-1.026-.792c.295.206.59.42.868.654l.015.014c-.282-.24-.583-.459-.883-.668m.94.369c.047.039.1.08.143.121l.006,0-.149-.119m-1.569-1.446c.25.188.507.366.76.54.1.07.205.14.308.212-.1-.07-.2-.139-.3-.208-.259-.177-.518-.356-.768-.544m-.455.313c.156.119.318.234.479.346-.162-.112-.323-.228-.479-.346m-.268-.495-.033.035h0l.034-.036m.274-.128a.168.168,0,0,1,.086.025.161.161,0,0,0-.086-.025" fill="#ed4347"/>
    <path id="Path_17" data-name="Path 17" d="M133,422.926c.86.717,1.875,1.236,2.667,2.034l.3-.371c-1.3.232-2.092,1.423-3.367,1.65-.2.035-.48.467-.168.412,1.3-.232,2.091-1.423,3.367-1.65.1-.018.442-.227.3-.371-.794-.8-1.806-1.316-2.667-2.033-.174-.146-.585.2-.432.329" fill="#ed4347"/>
    <path id="Path_18" data-name="Path 18" d="M132.38,426.788a.2.2,0,0,1-.219-.165c-.036-.2.219-.48.413-.514a4.237,4.237,0,0,0,1.615-.8,7.293,7.293,0,0,1,1-.607c-.364-.308-.762-.582-1.149-.848s-.768-.528-1.126-.828a.222.222,0,0,1-.08-.216.549.549,0,0,1,.345-.355.329.329,0,0,1,.335.037c.351.292.735.557,1.109.813a11.534,11.534,0,0,1,1.46,1.126l.207-.036-.108.132.007.007a.24.24,0,0,1,.061.248.665.665,0,0,1-.432.347,4.2,4.2,0,0,0-1.615.8,4.558,4.558,0,0,1-1.751.852.38.38,0,0,1-.072.007m1.35-.861a3.255,3.255,0,0,1-1.11.442.372.372,0,0,0-.163.141,3.6,3.6,0,0,0,1.273-.583m1.677-1.031a4.733,4.733,0,0,0-.743.416,3.66,3.66,0,0,1,.795-.367Zm-2.3-2.055c.345.285.723.545,1.088.8a13.37,13.37,0,0,1,1.272.952,3.146,3.146,0,0,1,.308-.1,13.729,13.729,0,0,0-1.3-.968c-.377-.259-.766-.528-1.128-.828-.006-.005-.032-.007-.074.008a.359.359,0,0,0-.167.135" fill="#ed4347"/>
    <path id="Path_19" data-name="Path 19" d="M132.38,426.788a.2.2,0,0,1-.219-.165c-.036-.2.219-.48.413-.514a4.237,4.237,0,0,0,1.615-.8,7.4,7.4,0,0,1,1-.608c-.364-.307-.762-.581-1.149-.847s-.768-.528-1.127-.828a.261.261,0,0,1,.007-.388c.132-.158.411-.3.593-.146.352.292.736.557,1.11.813a11.534,11.534,0,0,1,1.46,1.126l.207-.036-.108.132.007.007a.24.24,0,0,1,.061.248.662.662,0,0,1-.432.347,4.2,4.2,0,0,0-1.615.8,4.558,4.558,0,0,1-1.751.852.38.38,0,0,1-.072.007m1.351-.861a3.289,3.289,0,0,1-1.111.442.372.372,0,0,0-.163.141,3.607,3.607,0,0,0,1.274-.583m1.676-1.031a4.749,4.749,0,0,0-.744.417,3.672,3.672,0,0,1,.8-.368Zm-2.3-2.055c.345.285.723.545,1.088.8a13.37,13.37,0,0,1,1.272.952,3.146,3.146,0,0,1,.308-.1,13.729,13.729,0,0,0-1.3-.968c-.377-.259-.766-.528-1.128-.828a.109.109,0,0,0-.074.008.359.359,0,0,0-.167.135" fill="#ed4347"/>
    <path id="Path_20" data-name="Path 20" d="M132.38,426.921a.336.336,0,0,1-.349-.274.691.691,0,0,1,.52-.669,4.122,4.122,0,0,0,1.564-.776,8.656,8.656,0,0,1,.833-.525c-.317-.253-.655-.486-.983-.711-.381-.261-.773-.531-1.138-.836a.348.348,0,0,1-.127-.257.452.452,0,0,1,.119-.318.578.578,0,0,1,.78-.162c.349.29.729.551,1.1.8a11.98,11.98,0,0,1,1.428,1.092l.491-.085-.266.329a.369.369,0,0,1,.025.291.785.785,0,0,1-.534.437,4.081,4.081,0,0,0-1.562.777,4.662,4.662,0,0,1-1.8.874.676.676,0,0,1-.1.008m.154-.291-.05.01-.019,0,.069-.014m1.13-.816.14.225c.109-.073.216-.146.322-.219.2-.138.4-.273.6-.394l-.141-.224c-.109.071-.217.146-.323.219-.2.138-.4.272-.6.393m1.771-1.073.282.265-.175.054a2.272,2.272,0,0,1,.253-.059.545.545,0,0,0,.328-.256.108.108,0,0,0-.027-.115l-.063-.063-.23.056a3.018,3.018,0,0,0-.294.091Zm0-.005-.12.057a.417.417,0,0,0,.043-.02l.08-.032Zm-2.164-1.6c.276.213.566.412.849.606a14.166,14.166,0,0,1,1.159.856l.032.025a14.39,14.39,0,0,0-1.191-.881c-.284-.2-.574-.393-.849-.606m2.088,1.183c.046.037.092.075.137.114l0,0c-.046-.038-.093-.076-.141-.112m-.842-.93.031.021.094.064-.088-.061c-.013-.007-.025-.017-.037-.024" fill="#ed4347"/>
    <path id="Path_21" data-name="Path 21" d="M129.1,422.9c.859.717,1.875,1.236,2.666,2.034l.3-.371c-1.3.231-2.092,1.423-3.367,1.651-.2.033-.48.466-.168.411,1.3-.231,2.092-1.424,3.366-1.65.1-.018.443-.226.3-.371-.793-.8-1.8-1.315-2.666-2.034-.174-.144-.585.2-.431.33" fill="#ed4347"/>
    <path id="Path_22" data-name="Path 22" d="M128.48,426.764a.2.2,0,0,1-.219-.165c-.036-.2.22-.481.413-.514a4.231,4.231,0,0,0,1.616-.8,7.05,7.05,0,0,1,1-.608,14.161,14.161,0,0,0-1.15-.847c-.376-.261-.767-.528-1.127-.829a.262.262,0,0,1,.008-.389c.132-.156.411-.3.593-.145.351.293.735.557,1.108.812a11.84,11.84,0,0,1,1.462,1.126l.206-.035-.107.131.007.009a.238.238,0,0,1,.06.247.661.661,0,0,1-.431.347,4.218,4.218,0,0,0-1.616.8,4.541,4.541,0,0,1-1.75.853.39.39,0,0,1-.073.007m1.352-.862a3.292,3.292,0,0,1-1.111.444.362.362,0,0,0-.163.14,3.592,3.592,0,0,0,1.274-.584m1.675-1.029a4.778,4.778,0,0,0-.746.417,3.652,3.652,0,0,1,.8-.369l-.053-.048m-2.3-2.056c.345.286.723.545,1.088.8a13.322,13.322,0,0,1,1.272.952,2.822,2.822,0,0,1,.308-.094,13.527,13.527,0,0,0-1.3-.968c-.377-.261-.766-.528-1.127-.829a.108.108,0,0,0-.075.009.338.338,0,0,0-.166.134" fill="#ed4347"/>
    <path id="Path_23" data-name="Path 23" d="M128.479,426.764a.222.222,0,0,1-.176-.072.233.233,0,0,1-.026-.237.628.628,0,0,1,.4-.371,4.2,4.2,0,0,0,1.617-.8,7.407,7.407,0,0,1,1-.607c-.364-.309-.761-.581-1.148-.848s-.768-.527-1.128-.828c-.094-.077-.127-.226.008-.388s.411-.3.593-.146c.35.293.736.557,1.108.812a11.8,11.8,0,0,1,1.463,1.126l.206-.036-.109.133.008.008a.243.243,0,0,1,.061.247.672.672,0,0,1-.433.348,4.2,4.2,0,0,0-1.616.8,4.523,4.523,0,0,1-1.751.852.38.38,0,0,1-.072.007m1.35-.859a3.326,3.326,0,0,1-1.108.441.351.351,0,0,0-.162.14,3.61,3.61,0,0,0,1.27-.581m1.677-1.033a4.894,4.894,0,0,0-.742.415,3.664,3.664,0,0,1,.8-.365l-.054-.05m-2.3-2.054c.343.285.721.545,1.086.8a12.952,12.952,0,0,1,1.272.952,2.833,2.833,0,0,1,.309-.094,13.842,13.842,0,0,0-1.3-.97c-.377-.259-.766-.526-1.127-.827-.006-.005-.032-.007-.074.009a.334.334,0,0,0-.166.135" fill="#ed4347"/>
    <path id="Path_24" data-name="Path 24" d="M128.48,426.9a.353.353,0,0,1-.278-.121.358.358,0,0,1-.049-.367.756.756,0,0,1,.5-.455,4.133,4.133,0,0,0,1.563-.776,9.258,9.258,0,0,1,.834-.526c-.315-.253-.653-.485-.981-.711-.381-.26-.774-.531-1.138-.835a.361.361,0,0,1-.13-.258.462.462,0,0,1,.12-.317.764.764,0,0,1,.34-.23.448.448,0,0,1,.441.067c.342.286.721.547,1.088.8a12,12,0,0,1,1.44,1.1l.49-.086-.266.33a.371.371,0,0,1,.026.29.785.785,0,0,1-.535.438,4.121,4.121,0,0,0-1.565.777,4.642,4.642,0,0,1-1.8.873.58.58,0,0,1-.1.009m.166-.294-.062.013-.019,0,.081-.017m1.115-.812.14.225c.111-.073.219-.147.326-.221.2-.138.4-.273.6-.394l-.141-.224c-.109.072-.216.145-.322.219-.205.138-.4.274-.607.395m1.773-1.074.281.265-.171.053c.082-.023.166-.043.251-.058a.556.556,0,0,0,.33-.257.107.107,0,0,0-.029-.114l-.063-.063-.231.056a2.606,2.606,0,0,0-.294.091l-.073.027,0,0-.12.056.044-.019Zm-1.025-.792c.295.205.59.419.865.653l.018.015c-.283-.241-.583-.459-.883-.668m.939.368.144.121.005,0-.149-.119m-1.579-1.452c.253.19.515.37.77.546.1.069.2.138.3.21-.1-.07-.2-.137-.3-.206-.261-.179-.524-.36-.777-.55m-.446.319c.158.119.319.234.479.346-.161-.112-.322-.228-.479-.346m-.266-.494a.363.363,0,0,0-.034.034h0l.035-.035m.274-.129a.162.162,0,0,1,.085.026.164.164,0,0,0-.085-.026" fill="#ed4347"/>
    <path id="Path_25" data-name="Path 25" d="M78.58,423c.86.717,1.875,1.236,2.667,2.034l.3-.371c-1.3.232-2.092,1.423-3.367,1.651-.195.034-.48.466-.168.411,1.3-.232,2.091-1.423,3.367-1.65.1-.018.442-.227.3-.371-.794-.8-1.806-1.316-2.667-2.033-.174-.145-.585.2-.432.329" fill="#ed4347"/>
    <path id="Path_26" data-name="Path 26" d="M77.964,426.859a.2.2,0,0,1-.22-.166c-.035-.2.22-.479.412-.513a4.22,4.22,0,0,0,1.616-.8,7.633,7.633,0,0,1,1-.608c-.364-.307-.761-.581-1.148-.846s-.769-.529-1.129-.828a.226.226,0,0,1-.077-.217.545.545,0,0,1,.345-.355.331.331,0,0,1,.334.037c.35.293.735.558,1.107.813a11.494,11.494,0,0,1,1.463,1.126l.206-.037-.107.134.006.006a.241.241,0,0,1,.062.249.667.667,0,0,1-.433.347,4.24,4.24,0,0,0-1.615.8,4.547,4.547,0,0,1-1.751.854.66.66,0,0,1-.071.006m1.35-.86a3.258,3.258,0,0,1-1.111.441.373.373,0,0,0-.162.142A3.63,3.63,0,0,0,79.314,426m1.676-1.032a4.92,4.92,0,0,0-.748.418,3.685,3.685,0,0,1,.8-.368Zm-2.3-2.054c.344.284.722.545,1.088.8a13.277,13.277,0,0,1,1.272.952,3.042,3.042,0,0,1,.307-.1,13.977,13.977,0,0,0-1.3-.968c-.378-.259-.768-.528-1.128-.827-.006-.006-.033-.008-.075.007a.351.351,0,0,0-.166.136" fill="#ed4347"/>
    <path id="Path_27" data-name="Path 27" d="M77.963,426.859a.2.2,0,0,1-.219-.165c-.036-.2.219-.48.412-.514a4.245,4.245,0,0,0,1.617-.8,7.34,7.34,0,0,1,1-.608c-.365-.307-.763-.581-1.15-.847s-.768-.528-1.127-.828a.26.26,0,0,1,.007-.388c.132-.158.412-.3.593-.146.351.292.737.557,1.11.813a11.618,11.618,0,0,1,1.461,1.126l.206-.036-.108.133.008.006a.243.243,0,0,1,.06.249.66.66,0,0,1-.432.346,4.223,4.223,0,0,0-1.615.8,4.574,4.574,0,0,1-1.751.853.487.487,0,0,1-.072.006M79.315,426a3.3,3.3,0,0,1-1.112.442.371.371,0,0,0-.162.141A3.615,3.615,0,0,0,79.315,426m1.675-1.031a4.831,4.831,0,0,0-.744.417,3.674,3.674,0,0,1,.8-.368Zm-2.305-2.055c.345.285.723.545,1.088.8a13.073,13.073,0,0,1,1.272.952,3.077,3.077,0,0,1,.309-.1,13.873,13.873,0,0,0-1.3-.968c-.377-.259-.766-.528-1.128-.827-.006,0-.031-.008-.074.007a.371.371,0,0,0-.167.135" fill="#ed4347"/>
    <path id="Path_28" data-name="Path 28" d="M77.962,426.992a.335.335,0,0,1-.348-.274.692.692,0,0,1,.52-.669,4.13,4.13,0,0,0,1.564-.776,8.536,8.536,0,0,1,.833-.525c-.317-.253-.654-.485-.983-.711-.381-.261-.773-.531-1.138-.836a.347.347,0,0,1-.127-.257.452.452,0,0,1,.119-.318.578.578,0,0,1,.78-.162c.349.29.729.552,1.1.805a11.979,11.979,0,0,1,1.428,1.092l.491-.085-.267.329a.364.364,0,0,1,.026.291.785.785,0,0,1-.534.437,4.11,4.11,0,0,0-1.564.777,4.647,4.647,0,0,1-1.8.874.689.689,0,0,1-.1.008m.155-.291-.05.01-.019,0,.069-.014m1.13-.816.14.225.322-.218c.2-.139.4-.274.6-.395l-.142-.224c-.11.072-.217.146-.323.219-.2.138-.4.273-.6.393m1.771-1.073.282.265-.176.054a2.5,2.5,0,0,1,.253-.059.545.545,0,0,0,.33-.256.11.11,0,0,0-.028-.115l-.063-.062-.23.055a3,3,0,0,0-.294.091Zm0,0-.119.056.043-.019.079-.033Zm-2.164-1.6c.277.213.566.412.849.606a14.161,14.161,0,0,1,1.159.856l.031.026a14,14,0,0,0-1.19-.882c-.283-.2-.573-.393-.849-.606m2.089,1.183.136.114h0l-.14-.113m-.843-.93.031.021.094.064-.088-.061c-.013-.007-.025-.016-.037-.024" fill="#ed4347"/>
    <path id="Path_29" data-name="Path 29" d="M74.681,422.974c.86.716,1.875,1.235,2.666,2.033.1-.123.2-.247.3-.371-1.3.232-2.093,1.424-3.367,1.651-.2.034-.481.466-.17.411,1.3-.231,2.093-1.424,3.368-1.65.1-.018.442-.226.3-.371-.795-.8-1.805-1.315-2.666-2.033-.175-.146-.586.2-.432.33" fill="#ed4347"/>
    <path id="Path_30" data-name="Path 30" d="M74.064,426.835a.2.2,0,0,1-.22-.165c-.034-.2.22-.48.412-.515a4.2,4.2,0,0,0,1.617-.8,7.439,7.439,0,0,1,1-.606c-.365-.309-.762-.582-1.149-.849s-.768-.527-1.127-.827c-.094-.077-.127-.227.009-.389s.41-.3.592-.145c.35.293.736.557,1.108.813a11.614,11.614,0,0,1,1.463,1.126l.205-.037-.108.133.008.008a.241.241,0,0,1,.061.247.669.669,0,0,1-.432.348,4.2,4.2,0,0,0-1.617.8,4.537,4.537,0,0,1-1.751.852.36.36,0,0,1-.07.007m1.352-.862a3.306,3.306,0,0,1-1.112.444.35.35,0,0,0-.162.14,3.609,3.609,0,0,0,1.274-.584m1.673-1.03a4.909,4.909,0,0,0-.746.417,3.652,3.652,0,0,1,.8-.367Zm-2.3-2.054c.343.284.72.544,1.086.795a13.2,13.2,0,0,1,1.272.952,2.908,2.908,0,0,1,.309-.094,14.16,14.16,0,0,0-1.3-.97c-.377-.258-.766-.526-1.127-.827a.1.1,0,0,0-.074.009.329.329,0,0,0-.166.135" fill="#ed4347"/>
    <path id="Path_31" data-name="Path 31" d="M74.063,426.835a.224.224,0,0,1-.177-.072.234.234,0,0,1-.026-.238.632.632,0,0,1,.4-.37,4.193,4.193,0,0,0,1.617-.8,7.4,7.4,0,0,1,1-.607c-.364-.309-.761-.581-1.148-.848s-.769-.528-1.128-.828c-.094-.077-.127-.226.009-.387s.41-.3.592-.147c.35.293.736.557,1.108.813a11.52,11.52,0,0,1,1.463,1.126l-.125.248.136-.133s.059.042.094-.055.046.238.019.328a.541.541,0,0,1-.39.311,4.189,4.189,0,0,0-1.617.8,4.535,4.535,0,0,1-1.751.851.377.377,0,0,1-.071.007m1.349-.86a3.306,3.306,0,0,1-1.108.442.35.35,0,0,0-.162.14,3.612,3.612,0,0,0,1.27-.582m1.677-1.032a4.809,4.809,0,0,0-.742.415,3.661,3.661,0,0,1,.8-.365Zm-2.3-2.054c.343.285.721.544,1.086.8a12.946,12.946,0,0,1,1.272.951,2.839,2.839,0,0,1,.309-.094,14.025,14.025,0,0,0-1.3-.97c-.377-.258-.766-.526-1.127-.827-.006-.005-.032-.007-.074.009a.339.339,0,0,0-.166.135" fill="#ed4347"/>
    <path id="Path_32" data-name="Path 32" d="M74.063,426.968a.355.355,0,0,1-.278-.12.362.362,0,0,1-.049-.367.76.76,0,0,1,.5-.456,4.111,4.111,0,0,0,1.563-.776,9.179,9.179,0,0,1,.834-.525c-.315-.253-.653-.486-.981-.711-.38-.26-.773-.532-1.138-.836a.359.359,0,0,1-.13-.258.457.457,0,0,1,.121-.316.75.75,0,0,1,.338-.23.447.447,0,0,1,.442.067c.342.286.721.546,1.088.8a11.666,11.666,0,0,1,1.489,1.146l.008.007.061.008c.18.062.092.5.09.509a.67.67,0,0,1-.493.4,4.119,4.119,0,0,0-1.565.776,4.629,4.629,0,0,1-1.8.874.7.7,0,0,1-.1.008m.167-.294-.063.014-.019,0,.082-.017m1.114-.812.14.225c.111-.072.219-.147.326-.221.2-.137.4-.273.6-.393l-.141-.224c-.109.071-.216.145-.323.218-.2.139-.4.274-.606.395m1.973-.782-.09.026c.028-.008.058-.016.088-.022Zm.454-.292-.259.252a.4.4,0,0,0,.253-.211.18.18,0,0,0,.006-.041m-.654,0,.235.222.177-.35-.044.012a2.4,2.4,0,0,0-.294.089l-.074.028,0-.005-.12.056a.332.332,0,0,0,.043-.019ZM76.092,424c.294.2.59.419.866.652l.017.015c-.283-.241-.583-.458-.883-.667m.939.367.144.121,0,0-.149-.119m-1.573-1.446c.25.188.511.366.764.541.1.069.205.14.308.211l-.3-.208c-.26-.177-.522-.356-.772-.544m-.453.313c.159.12.32.235.48.348-.16-.114-.322-.229-.48-.348m-.265-.494a.276.276,0,0,0-.034.035h0a.291.291,0,0,1,.035-.036m.273-.129a.16.16,0,0,1,.086.026.156.156,0,0,0-.086-.026" fill="#ed4347"/>
    <path id="Path_33" data-name="Path 33" d="M268.672,423.221c.86.717,1.875,1.235,2.666,2.033.1-.123.121-.187.221-.311-1.3.231-2.013,1.364-3.288,1.591-.194.034-.48.466-.169.411,1.3-.231,2.092-1.423,3.368-1.65.1-.018.443-.226.3-.371-.793-.8-1.8-1.315-2.666-2.033-.174-.145-.584.2-.431.33" fill="#ed4347"/>
    <path id="Path_34" data-name="Path 34" d="M268.054,427.082a.2.2,0,0,1-.219-.165c-.036-.2.219-.481.413-.514a4.092,4.092,0,0,0,1.577-.768,6.338,6.338,0,0,1,1.055-.623,13.946,13.946,0,0,0-1.166-.861c-.376-.26-.767-.529-1.127-.829a.26.26,0,0,1,.007-.387c.133-.159.412-.3.594-.147.351.293.735.558,1.108.813a11.064,11.064,0,0,1,1.5,1.165l.087-.016-.045.057.025.024a.24.24,0,0,1,.06.247.666.666,0,0,1-.431.348,4.189,4.189,0,0,0-1.616.8,4.537,4.537,0,0,1-1.751.852.367.367,0,0,1-.072.007m1.306-.832a3.18,3.18,0,0,1-1.065.413.372.372,0,0,0-.163.141,3.49,3.49,0,0,0,1.228-.554m1.741-1.042a3.85,3.85,0,0,0-.667.342,3.522,3.522,0,0,1,.7-.31l-.033-.032m-2.325-2.073c.346.286.724.546,1.089.8a13.02,13.02,0,0,1,1.3.974,2.747,2.747,0,0,1,.321-.084,13.278,13.278,0,0,0-1.338-1c-.376-.259-.766-.527-1.126-.828a.111.111,0,0,0-.076.009.352.352,0,0,0-.167.134" fill="#ed4347"/>
    <path id="Path_35" data-name="Path 35" d="M268.054,427.082a.2.2,0,0,1-.219-.165c-.036-.2.219-.481.413-.514a4.232,4.232,0,0,0,1.616-.8,7.25,7.25,0,0,1,1-.608,13.915,13.915,0,0,0-1.149-.847c-.377-.26-.768-.529-1.127-.828a.261.261,0,0,1,.007-.388c.133-.159.412-.3.594-.147.351.293.735.558,1.108.813a9.218,9.218,0,0,1,1.3,1.015l.213.166.052.041.008.008a.24.24,0,0,1,.06.247.666.666,0,0,1-.431.348,4.189,4.189,0,0,0-1.616.8,4.537,4.537,0,0,1-1.751.852.367.367,0,0,1-.072.007m1.351-.861a3.293,3.293,0,0,1-1.11.443.357.357,0,0,0-.163.14,3.6,3.6,0,0,0,1.273-.583m1.676-1.03a4.8,4.8,0,0,0-.745.416,3.639,3.639,0,0,1,.8-.367l-.053-.049m-2.3-2.055c.346.285.723.544,1.089.8a13.61,13.61,0,0,1,1.272.951,2.976,2.976,0,0,1,.308-.094,13.7,13.7,0,0,0-1.3-.969c-.376-.259-.766-.527-1.126-.828a.111.111,0,0,0-.076.009.347.347,0,0,0-.167.135" fill="#ed4347"/>
    <path id="Path_36" data-name="Path 36" d="M268.055,427.215a.338.338,0,0,1-.351-.275.693.693,0,0,1,.521-.668,4.1,4.1,0,0,0,1.563-.776,9.035,9.035,0,0,1,.833-.525c-.315-.253-.652-.486-.981-.711-.38-.262-.773-.531-1.139-.836a.358.358,0,0,1-.129-.258.465.465,0,0,1,.121-.317.578.578,0,0,1,.779-.163c.349.291.73.553,1.1.806a9.188,9.188,0,0,1,1.314,1.029l.254.2a.383.383,0,0,1,.114.4.786.786,0,0,1-.536.437,4.122,4.122,0,0,0-1.564.776,4.638,4.638,0,0,1-1.8.874.539.539,0,0,1-.094.009m.152-.291-.049.011-.018,0,.067-.014m1.131-.817.14.225c.109-.072.216-.146.323-.217.2-.139.4-.274.6-.395l-.139-.224c-.111.071-.218.146-.326.219-.2.138-.4.273-.6.392m1.771-1.071.283.264-.175.054a2.514,2.514,0,0,1,.253-.059.556.556,0,0,0,.329-.257.106.106,0,0,0-.03-.114l-.076-.059-.216.052a2.831,2.831,0,0,0-.294.091Zm-.005,0-.119.055.044-.019.079-.033Zm-2.164-1.6c.278.212.568.411.849.6a14.191,14.191,0,0,1,1.16.856l.031.026a13.971,13.971,0,0,0-1.191-.882c-.282-.194-.571-.393-.849-.6m2.089,1.183c.046.037.091.074.136.113h.006c-.048-.039-.094-.075-.142-.112m-.847-.935.037.025c.015.01.029.021.045.031a.459.459,0,0,1-.043-.03c-.014-.008-.026-.018-.039-.026" fill="#ed4347"/>
    <path id="Path_37" data-name="Path 37" d="M264.771,423.2c.86.717,1.875,1.237,2.667,2.034.1-.124.1-.18.2-.305-1.3.232-1.993,1.357-3.268,1.585-.194.034-.479.467-.168.411,1.3-.231,2.091-1.423,3.367-1.65.1-.018.443-.227.3-.371-.794-.8-1.806-1.315-2.667-2.034-.174-.144-.585.2-.432.33" fill="#ed4347"/>
    <path id="Path_38" data-name="Path 38" d="M264.155,427.058a.2.2,0,0,1-.22-.165c-.035-.2.22-.48.413-.515a4,4,0,0,0,1.566-.763,6.2,6.2,0,0,1,1.065-.627,14.33,14.33,0,0,0-1.164-.862c-.378-.259-.769-.527-1.129-.828a.225.225,0,0,1-.077-.216.549.549,0,0,1,.345-.355.328.328,0,0,1,.334.038c.351.292.735.557,1.107.812a11.126,11.126,0,0,1,1.506,1.167l.062-.01-.031.04.031.033a.236.236,0,0,1,.062.247.671.671,0,0,1-.431.348,4.215,4.215,0,0,0-1.617.8,4.534,4.534,0,0,1-1.75.853.5.5,0,0,1-.072.006m1.322-.843a3.185,3.185,0,0,1-1.083.425.368.368,0,0,0-.162.141,3.55,3.55,0,0,0,1.245-.566m1.723-1.031a3.863,3.863,0,0,0-.741.386,3.6,3.6,0,0,1,.775-.354l-.034-.032m.571-.211-.03.037-.022.028a.155.155,0,0,0,.053-.064Zm-2.894-1.861c.345.285.723.545,1.088.8a13.324,13.324,0,0,1,1.3.975,3.3,3.3,0,0,1,.322-.081,13.591,13.591,0,0,0-1.339-1.005c-.378-.26-.768-.527-1.128-.827-.006-.005-.033-.008-.075.008a.339.339,0,0,0-.166.135" fill="#ed4347"/>
    <path id="Path_39" data-name="Path 39" d="M264.154,427.059a.217.217,0,0,1-.176-.073.231.231,0,0,1-.026-.237.626.626,0,0,1,.4-.37,4.2,4.2,0,0,0,1.614-.8,7.625,7.625,0,0,1,1-.607,14.217,14.217,0,0,0-1.149-.848c-.377-.259-.768-.527-1.128-.828-.092-.076-.125-.226.009-.388s.411-.3.593-.145c.351.292.735.557,1.107.812a11.492,11.492,0,0,1,1.463,1.126l.046.052.053.045.006.007a.236.236,0,0,1,.062.247.671.671,0,0,1-.431.348,4.215,4.215,0,0,0-1.617.8,4.541,4.541,0,0,1-1.75.853.524.524,0,0,1-.073.007m1.348-.86a3.272,3.272,0,0,1-1.108.441.368.368,0,0,0-.162.141,3.6,3.6,0,0,0,1.27-.582m1.68-1.033a4.883,4.883,0,0,0-.745.416,3.7,3.7,0,0,1,.8-.366Zm-2.3-2.054c.345.285.723.545,1.087.8a13.179,13.179,0,0,1,1.273.953,2.6,2.6,0,0,1,.307-.095,13.566,13.566,0,0,0-1.3-.969c-.377-.26-.767-.527-1.127-.827-.006-.005-.033-.008-.075.008a.339.339,0,0,0-.166.135" fill="#ed4347"/>
    <path id="Path_40" data-name="Path 40" d="M264.154,427.19a.341.341,0,0,1-.327-.486.757.757,0,0,1,.5-.456,4.114,4.114,0,0,0,1.564-.776,9.1,9.1,0,0,1,.833-.525c-.316-.253-.654-.485-.982-.711-.38-.261-.772-.531-1.138-.836a.348.348,0,0,1-.128-.258.452.452,0,0,1,.12-.317.763.763,0,0,1,.338-.23.452.452,0,0,1,.441.067c.344.286.722.547,1.088.8a11.684,11.684,0,0,1,1.489,1.145l.092.092a.38.38,0,0,1,.109.4.785.785,0,0,1-.534.438,4.1,4.1,0,0,0-1.565.777,4.646,4.646,0,0,1-1.8.873.478.478,0,0,1-.1.008m.167-.293-.062.013-.02,0,.082-.017m1.114-.812.14.225.327-.22c.2-.139.4-.274.6-.395l-.139-.224q-.165.108-.324.219c-.2.138-.4.274-.606.395m1.773-1.074.282.265-.172.053a2.5,2.5,0,0,1,.252-.058.55.55,0,0,0,.328-.257.106.106,0,0,0-.028-.114l-.068-.062-.225.056a2.468,2.468,0,0,0-.294.089l-.075.028,0,0-.119.057.043-.02Zm-1.024-.791c.293.2.588.419.866.653l.015.013c-.282-.239-.582-.458-.881-.666m.938.368c.047.039.1.079.144.12l0,0c-.048-.04-.1-.079-.148-.118m-1.572-1.448c.251.189.51.367.763.541l.337.233q-.165-.115-.33-.228c-.259-.178-.519-.357-.77-.546m-.453.314c.157.119.319.235.48.347-.162-.113-.324-.229-.48-.347m-.267-.494c-.012.012-.022.022-.033.035h0c.011-.012.021-.023.034-.035m.274-.128a.152.152,0,0,1,.085.024.157.157,0,0,0-.085-.024" fill="#ed4347"/>
    <path id="Path_41" data-name="Path 41" d="M175.9,417.355c.053,4.414.435,8.822.1,13.231-.035.445.991.255,1.019-.115.338-4.411-.043-8.818-.1-13.232,0-.454-1.024-.244-1.02.116" fill="#ed4347"/>
    <path id="Path_42" data-name="Path 42" d="M175.935,417.25a59.249,59.249,0,0,1-7.321,8.1c-.074.075-.156.234-.053.326a31.138,31.138,0,0,0,7.274,5.1c.343.166,1.262-.31.8-.535a27.319,27.319,0,0,1-3.808-2.265c-.84-.587-1.631-1.244-2.411-1.907-.917-.782-.4-1.067.3-1.765a48.825,48.825,0,0,0,6.18-7c.289-.425-.746-.379-.959-.065" fill="#ed4347"/>
    <path id="Path_43" data-name="Path 43" d="M176.362,417.514a72.74,72.74,0,0,1,5.722,9.744l.132-.443c-1.749,1.516-3.931,2.306-5.928,3.425-.6.337-.055.855.444.575,2.075-1.159,4.337-1.982,6.152-3.556.148-.128.227-.257.133-.442a72.711,72.711,0,0,0-5.723-9.744c-.262-.363-1.234.025-.932.441" fill="#ed4347"/>
  </g>
</svg>
