<svg xmlns="http://www.w3.org/2000/svg" width="198.361" height="12.932" viewBox="0 0 198.361 12.932">
  <g id="seprator_body" transform="translate(-541 -164)">
    <g id="Group_57" data-name="Group 57" transform="translate(460.181 -865.274)">
      <path id="Path_39" data-name="Path 39" d="M174.877,1035.677c-.389,0-.778-.013-1.161-.025s-.76-.027-1.132-.027h-84.5a.243.243,0,0,1-.184-.075.646.646,0,0,1-.14-.442c0-.334.158-.587.366-.587l.051,0a.6.6,0,0,0,.085,0,17.288,17.288,0,0,1,2.311-.027c.374.013.761.025,1.132.025h84.505a.248.248,0,0,1,.185.077.645.645,0,0,1,.138.442c0,.334-.157.585-.365.585h-.051a.611.611,0,0,0-.086,0,11.213,11.213,0,0,1-1.149.052" fill="#ee4445"/>
      <path id="Path_40" data-name="Path 40" d="M272.939,1035.677c-.379,0-.759-.013-1.133-.025s-.741-.027-1.1-.027H188.294a.237.237,0,0,1-.18-.075.661.661,0,0,1-.135-.442c0-.334.153-.587.356-.587l.05,0a.567.567,0,0,0,.083,0,16.447,16.447,0,0,1,2.254-.027c.364.013.741.025,1.1.025h82.408a.241.241,0,0,1,.181.077.66.66,0,0,1,.134.442c0,.334-.153.585-.356.585h-.05a.569.569,0,0,0-.083,0,10.684,10.684,0,0,1-1.121.052" fill="#ee4445"/>
      <path id="Path_41" data-name="Path 41" d="M226.162,1033.465c.859.717,1.875,1.236,2.667,2.033.1-.123.2-.247.3-.37-1.3.231-2.092,1.423-3.367,1.65-.2.035-.48.467-.168.412,1.3-.232,2.091-1.423,3.367-1.651.1-.018.441-.226.3-.37-.794-.8-1.806-1.316-2.667-2.034-.174-.145-.585.2-.432.33" fill="#ee4445"/>
      <path id="Path_42" data-name="Path 42" d="M225.544,1037.326a.2.2,0,0,1-.218-.165c-.036-.2.219-.479.413-.514a4.214,4.214,0,0,0,1.615-.8,7.208,7.208,0,0,1,1-.608,13.987,13.987,0,0,0-1.15-.847c-.377-.26-.767-.528-1.127-.828a.262.262,0,0,1,.008-.388c.133-.158.412-.3.594-.146.351.292.735.557,1.108.813a11.384,11.384,0,0,1,1.461,1.126l.207-.037-.107.133.006.007a.239.239,0,0,1,.061.247.664.664,0,0,1-.432.348,4.187,4.187,0,0,0-1.615.8,4.557,4.557,0,0,1-1.751.852.486.486,0,0,1-.073.006m1.352-.86a3.308,3.308,0,0,1-1.111.442.359.359,0,0,0-.163.141,3.615,3.615,0,0,0,1.274-.583m1.676-1.031a4.8,4.8,0,0,0-.745.416,3.681,3.681,0,0,1,.8-.367Zm-2.3-2.055c.344.285.722.545,1.087.8a13.057,13.057,0,0,1,1.272.952,2.868,2.868,0,0,1,.308-.1,14,14,0,0,0-1.3-.968c-.377-.26-.768-.528-1.129-.828a.105.105,0,0,0-.073.008.343.343,0,0,0-.167.135" fill="#ee4445"/>
      <path id="Path_43" data-name="Path 43" d="M225.544,1037.326a.2.2,0,0,1-.218-.165c-.036-.2.219-.479.413-.514a4.214,4.214,0,0,0,1.615-.8,7.208,7.208,0,0,1,1-.608,13.987,13.987,0,0,0-1.15-.847c-.377-.26-.767-.528-1.127-.828a.262.262,0,0,1,.008-.388c.133-.158.411-.3.594-.146.351.292.735.557,1.108.813a11.384,11.384,0,0,1,1.461,1.126l.207-.037-.107.133.006.007a.239.239,0,0,1,.061.247.664.664,0,0,1-.432.348,4.187,4.187,0,0,0-1.615.8,4.557,4.557,0,0,1-1.751.852.486.486,0,0,1-.073.006m1.352-.86a3.308,3.308,0,0,1-1.111.442.359.359,0,0,0-.163.141,3.615,3.615,0,0,0,1.274-.583m1.676-1.031a4.8,4.8,0,0,0-.745.416,3.681,3.681,0,0,1,.8-.367Zm-2.3-2.055c.344.285.722.545,1.087.8a13.057,13.057,0,0,1,1.272.952,2.868,2.868,0,0,1,.308-.1,14,14,0,0,0-1.3-.968c-.377-.26-.768-.528-1.129-.828a.105.105,0,0,0-.073.008.343.343,0,0,0-.167.135" fill="#ee4445"/>
      <path id="Path_44" data-name="Path 44" d="M225.544,1037.458a.337.337,0,0,1-.349-.273.692.692,0,0,1,.521-.668,4.146,4.146,0,0,0,1.563-.776,8.726,8.726,0,0,1,.833-.525c-.315-.254-.654-.486-.981-.713-.382-.259-.774-.53-1.14-.835a.347.347,0,0,1-.127-.257.452.452,0,0,1,.12-.317.576.576,0,0,1,.78-.163c.348.291.728.552,1.1.8a11.915,11.915,0,0,1,1.429,1.093l.49-.086-.266.33a.364.364,0,0,1,.026.289.789.789,0,0,1-.534.439,4.085,4.085,0,0,0-1.564.776,4.656,4.656,0,0,1-1.8.874.569.569,0,0,1-.1.007m.154-.29-.049.011-.018,0Zm1.13-.815.141.224c.108-.072.216-.145.322-.219.2-.137.4-.274.6-.393l-.141-.224c-.109.072-.218.145-.323.217-.2.139-.4.273-.6.4m1.772-1.074.282.264-.176.055c.083-.023.167-.043.254-.059a.547.547,0,0,0,.328-.256.109.109,0,0,0-.027-.115l-.064-.063-.229.057a2.623,2.623,0,0,0-.294.09Zm0,0-.119.057a.413.413,0,0,1,.042-.019l.08-.035Zm-2.164-1.595c.276.213.565.411.848.606a14.391,14.391,0,0,1,1.16.855l.031.026a13.651,13.651,0,0,0-1.191-.881c-.283-.2-.573-.394-.848-.606m2.088,1.182c.046.038.091.076.136.115l0,0-.14-.113m-.842-.93.031.021c.03.022.062.043.094.065-.03-.021-.06-.04-.088-.061s-.025-.017-.037-.025" fill="#ee4445"/>
      <path id="Path_45" data-name="Path 45" d="M222.263,1033.441c.859.716,1.875,1.235,2.666,2.034l.3-.371c-1.3.232-2.091,1.422-3.366,1.65-.195.034-.48.466-.168.412,1.3-.231,2.091-1.424,3.366-1.65.1-.019.443-.227.3-.371-.793-.8-1.8-1.317-2.666-2.034-.175-.146-.585.2-.431.33" fill="#ee4445"/>
      <path id="Path_46" data-name="Path 46" d="M221.644,1037.3a.218.218,0,0,1-.175-.073.227.227,0,0,1-.027-.237.628.628,0,0,1,.4-.37,4.194,4.194,0,0,0,1.615-.8,7.635,7.635,0,0,1,1-.606,13.736,13.736,0,0,0-1.147-.848c-.378-.26-.77-.528-1.128-.828-.094-.077-.126-.227.008-.389s.411-.3.593-.145c.35.292.736.557,1.108.812a11.623,11.623,0,0,1,1.463,1.126l.2-.036-.108.133.007.007a.242.242,0,0,1,.062.247.673.673,0,0,1-.433.349,4.2,4.2,0,0,0-1.615.8,4.541,4.541,0,0,1-1.75.853.416.416,0,0,1-.074.007m1.35-.86a3.279,3.279,0,0,1-1.108.441.364.364,0,0,0-.162.141,3.613,3.613,0,0,0,1.27-.582m1.678-1.032a4.659,4.659,0,0,0-.744.416,3.722,3.722,0,0,1,.8-.367l-.053-.049m-2.3-2.055c.344.286.723.545,1.087.8a12.922,12.922,0,0,1,1.272.952,2.824,2.824,0,0,1,.308-.095,13.854,13.854,0,0,0-1.3-.969c-.377-.26-.766-.527-1.127-.827a.1.1,0,0,0-.075.008.35.35,0,0,0-.166.135" fill="#ee4445"/>
      <path id="Path_47" data-name="Path 47" d="M221.644,1037.3a.218.218,0,0,1-.175-.073.227.227,0,0,1-.027-.237.628.628,0,0,1,.4-.37,4.194,4.194,0,0,0,1.615-.8,7.635,7.635,0,0,1,1-.606,13.736,13.736,0,0,0-1.147-.848c-.378-.26-.77-.528-1.128-.828-.094-.077-.126-.227.008-.389s.411-.3.593-.145c.35.292.736.557,1.108.812a11.623,11.623,0,0,1,1.463,1.126l.206-.036-.109.133.007.007a.242.242,0,0,1,.062.247.673.673,0,0,1-.433.349,4.2,4.2,0,0,0-1.615.8,4.541,4.541,0,0,1-1.75.853.416.416,0,0,1-.074.007m1.349-.86a3.27,3.27,0,0,1-1.107.441.364.364,0,0,0-.162.141,3.6,3.6,0,0,0,1.269-.582m1.679-1.032a4.72,4.72,0,0,0-.743.415,3.655,3.655,0,0,1,.8-.365l-.053-.05m-2.3-2.055c.344.286.723.545,1.087.8a12.922,12.922,0,0,1,1.272.952,2.824,2.824,0,0,1,.308-.095,13.854,13.854,0,0,0-1.3-.969c-.377-.26-.766-.527-1.127-.827-.006-.005-.033-.008-.075.008a.35.35,0,0,0-.166.135" fill="#ee4445"/>
      <path id="Path_48" data-name="Path 48" d="M221.644,1037.435a.341.341,0,0,1-.326-.487.758.758,0,0,1,.5-.456,4.122,4.122,0,0,0,1.563-.775,8.728,8.728,0,0,1,.835-.526c-.316-.253-.653-.485-.982-.711-.38-.261-.774-.531-1.138-.836a.352.352,0,0,1-.129-.257.457.457,0,0,1,.119-.318.781.781,0,0,1,.34-.23.446.446,0,0,1,.44.068c.343.285.722.546,1.088.8a12.165,12.165,0,0,1,1.441,1.1l.489-.087-.266.33a.371.371,0,0,1,.028.29.786.786,0,0,1-.536.438,4.132,4.132,0,0,0-1.565.778,4.645,4.645,0,0,1-1.8.873.689.689,0,0,1-.1.008m.167-.294-.062.013-.019,0,.081-.017m1.115-.811.14.225c.111-.073.218-.148.327-.221.2-.138.4-.274.6-.4l-.14-.223c-.11.071-.216.145-.324.217-.2.139-.4.276-.605.4m1.772-1.075.282.266-.171.053c.082-.023.166-.044.251-.059.067-.012.29-.129.329-.256a.107.107,0,0,0-.029-.115l-.062-.062-.231.056a2.758,2.758,0,0,0-.294.09l-.075.028,0,0-.119.055.042-.018Zm-1.025-.792c.295.2.59.42.866.654l.017.014c-.283-.242-.583-.459-.883-.668m.939.369c.048.039.1.08.145.121l0,0-.15-.119m-1.57-1.446c.25.188.51.366.762.54.1.069.205.14.307.212-.1-.071-.2-.139-.3-.208-.258-.177-.519-.356-.769-.544m-.454.312c.157.119.318.234.479.347-.161-.114-.323-.228-.479-.347m-.267-.494-.034.035h0l.034-.036m.274-.128a.172.172,0,0,1,.086.024.175.175,0,0,0-.086-.024" fill="#ee4445"/>
      <path id="Path_49" data-name="Path 49" d="M140.108,1033.337c.861.717,1.875,1.236,2.667,2.033l.3-.37c-1.3.231-2.092,1.423-3.367,1.65-.194.035-.48.467-.168.412,1.3-.232,2.092-1.423,3.367-1.651.1-.017.443-.226.3-.37-.793-.8-1.8-1.316-2.666-2.034-.174-.145-.584.2-.432.33" fill="#ee4445"/>
      <path id="Path_50" data-name="Path 50" d="M139.492,1037.2a.2.2,0,0,1-.22-.165c-.035-.2.22-.48.413-.514a4.241,4.241,0,0,0,1.616-.8,7.2,7.2,0,0,1,1-.608c-.365-.307-.762-.581-1.15-.847s-.767-.528-1.128-.828a.225.225,0,0,1-.077-.216.552.552,0,0,1,.344-.356.329.329,0,0,1,.335.038c.352.292.735.557,1.108.813a11.562,11.562,0,0,1,1.463,1.126l.205-.037-.107.133.007.007a.238.238,0,0,1,.061.247.664.664,0,0,1-.432.348,4.213,4.213,0,0,0-1.616.8,4.536,4.536,0,0,1-1.751.852.457.457,0,0,1-.071.007m1.35-.861a3.3,3.3,0,0,1-1.111.442.362.362,0,0,0-.162.141,3.6,3.6,0,0,0,1.273-.583m1.677-1.031a4.893,4.893,0,0,0-.746.416,3.713,3.713,0,0,1,.8-.367l-.053-.049m-2.306-2.055c.346.285.723.545,1.089.8a13.6,13.6,0,0,1,1.273.952,2.961,2.961,0,0,1,.307-.095,13.989,13.989,0,0,0-1.3-.968c-.376-.259-.767-.528-1.126-.828a.109.109,0,0,0-.076.008.348.348,0,0,0-.167.135" fill="#ee4445"/>
      <path id="Path_51" data-name="Path 51" d="M139.492,1037.2a.2.2,0,0,1-.22-.165c-.035-.2.22-.48.413-.515a4.225,4.225,0,0,0,1.616-.8,7.2,7.2,0,0,1,1-.608c-.365-.307-.762-.581-1.15-.847s-.767-.528-1.128-.828a.262.262,0,0,1,.009-.388c.132-.158.411-.3.593-.146.351.292.735.557,1.108.813a11.472,11.472,0,0,1,1.463,1.126l.205-.037-.107.133.007.007a.238.238,0,0,1,.061.247.664.664,0,0,1-.432.348,4.213,4.213,0,0,0-1.616.8,4.536,4.536,0,0,1-1.751.852.457.457,0,0,1-.071.007m1.351-.861a3.316,3.316,0,0,1-1.112.442.362.362,0,0,0-.162.141,3.616,3.616,0,0,0,1.274-.583m1.676-1.031a4.772,4.772,0,0,0-.746.417,3.627,3.627,0,0,1,.8-.368l-.053-.049m-2.306-2.055c.346.285.723.545,1.089.8a13.454,13.454,0,0,1,1.272.952,3.056,3.056,0,0,1,.308-.095,13.989,13.989,0,0,0-1.3-.968c-.376-.259-.767-.528-1.126-.828a.115.115,0,0,0-.076.008.354.354,0,0,0-.167.135" fill="#ee4445"/>
      <path id="Path_52" data-name="Path 52" d="M139.492,1037.332a.338.338,0,0,1-.35-.275.692.692,0,0,1,.52-.668,4.145,4.145,0,0,0,1.564-.776,8.77,8.77,0,0,1,.833-.525c-.316-.254-.654-.486-.982-.711-.381-.261-.773-.531-1.139-.836a.355.355,0,0,1-.128-.258.463.463,0,0,1,.12-.317.578.578,0,0,1,.779-.163c.35.291.73.552,1.1.805a12.086,12.086,0,0,1,1.43,1.093l.49-.086-.267.33a.36.36,0,0,1,.027.289.788.788,0,0,1-.535.439,4.1,4.1,0,0,0-1.563.776,4.655,4.655,0,0,1-1.8.874.534.534,0,0,1-.094.009m.153-.292-.05.011-.018,0,.068-.015m1.13-.815.14.224c.109-.072.216-.145.323-.219.2-.137.4-.273.6-.393l-.14-.224c-.11.072-.218.146-.325.218-.2.138-.4.273-.6.394m1.771-1.074.282.265-.174.054c.082-.023.166-.043.253-.059a.547.547,0,0,0,.328-.256.107.107,0,0,0-.028-.114l-.063-.063-.23.056a2.729,2.729,0,0,0-.294.09Zm-.005,0-.119.056.044-.019.079-.035Zm-2.164-1.6c.278.213.567.412.85.606.389.267.79.543,1.159.855l.031.026a14,14,0,0,0-1.19-.881c-.283-.195-.573-.394-.85-.606m2.089,1.182.137.115h0c-.046-.038-.093-.077-.141-.114m-.842-.93.032.022.093.064-.088-.061a.293.293,0,0,1-.037-.025" fill="#ee4445"/>
      <path id="Path_53" data-name="Path 53" d="M136.208,1033.314c.861.715,1.875,1.234,2.667,2.033.1-.124.2-.247.3-.371-1.3.232-2.092,1.423-3.366,1.651-.2.033-.48.465-.168.411,1.3-.231,2.09-1.424,3.366-1.65.1-.019.443-.227.3-.371-.794-.8-1.806-1.317-2.666-2.034-.175-.146-.585.2-.433.331" fill="#ee4445"/>
      <path id="Path_54" data-name="Path 54" d="M135.592,1037.174a.2.2,0,0,1-.22-.164c-.035-.2.22-.481.413-.514a4.2,4.2,0,0,0,1.615-.8,7.422,7.422,0,0,1,1-.607,14.115,14.115,0,0,0-1.148-.846c-.378-.261-.769-.53-1.128-.829a.262.262,0,0,1,.008-.389c.132-.157.411-.3.593-.146.351.293.736.559,1.108.813a11.675,11.675,0,0,1,1.462,1.126l.206-.036-.107.133.007.006a.243.243,0,0,1,.061.248.664.664,0,0,1-.432.348,4.22,4.22,0,0,0-1.616.8,4.559,4.559,0,0,1-1.751.853.45.45,0,0,1-.071.006m1.351-.861a3.248,3.248,0,0,1-1.111.442.378.378,0,0,0-.163.141,3.556,3.556,0,0,0,1.274-.583m1.675-1.031a5.051,5.051,0,0,0-.746.418,3.722,3.722,0,0,1,.8-.368c-.018-.017-.035-.034-.053-.05m-2.3-2.054c.345.286.723.546,1.088.8a13.149,13.149,0,0,1,1.272.951,2.983,2.983,0,0,1,.308-.1,13.793,13.793,0,0,0-1.3-.967c-.377-.26-.767-.528-1.128-.829a.126.126,0,0,0-.074.01.342.342,0,0,0-.167.134" fill="#ee4445"/>
      <path id="Path_55" data-name="Path 55" d="M135.591,1037.175a.218.218,0,0,1-.176-.073.23.23,0,0,1-.026-.237.626.626,0,0,1,.4-.37,4.184,4.184,0,0,0,1.614-.8,7.582,7.582,0,0,1,1-.606,13.6,13.6,0,0,0-1.149-.848c-.377-.26-.768-.528-1.128-.828a.263.263,0,0,1,.01-.389c.131-.158.41-.3.593-.145.35.293.734.557,1.106.812a11.432,11.432,0,0,1,1.463,1.126l.206-.036-.107.133.006.007a.235.235,0,0,1,.061.248.668.668,0,0,1-.43.348,4.213,4.213,0,0,0-1.617.8,4.525,4.525,0,0,1-1.75.853.4.4,0,0,1-.073.007m1.348-.86a3.251,3.251,0,0,1-1.108.441.375.375,0,0,0-.162.141,3.586,3.586,0,0,0,1.27-.582m1.68-1.032a4.794,4.794,0,0,0-.745.415,3.711,3.711,0,0,1,.8-.365c-.016-.018-.034-.034-.051-.05m-2.305-2.054c.345.285.723.544,1.087.8a13.154,13.154,0,0,1,1.273.952,2.808,2.808,0,0,1,.307-.095,13.973,13.973,0,0,0-1.3-.969c-.377-.259-.768-.527-1.127-.827a.1.1,0,0,0-.076.009.334.334,0,0,0-.166.135" fill="#ee4445"/>
      <path id="Path_56" data-name="Path 56" d="M135.591,1037.307a.358.358,0,0,1-.278-.12.362.362,0,0,1-.049-.367.757.757,0,0,1,.5-.456,4.131,4.131,0,0,0,1.563-.775,8.707,8.707,0,0,1,.834-.525c-.316-.254-.654-.486-.982-.712-.38-.261-.773-.531-1.138-.836a.349.349,0,0,1-.129-.257.464.464,0,0,1,.12-.318.773.773,0,0,1,.339-.229.445.445,0,0,1,.441.067c.343.286.722.546,1.088.8a12.084,12.084,0,0,1,1.44,1.1l.49-.086-.267.329a.363.363,0,0,1,.027.29.788.788,0,0,1-.534.44,4.082,4.082,0,0,0-1.565.776,4.646,4.646,0,0,1-1.8.873.7.7,0,0,1-.1.008m.167-.294c-.021.005-.042.01-.062.013l-.02,0,.082-.017m1.114-.811.14.225c.111-.073.219-.148.327-.221.2-.138.4-.274.6-.4l-.14-.223c-.11.071-.218.145-.324.217-.2.14-.4.276-.606.4m1.773-1.075.282.266-.172.053c.081-.023.165-.043.252-.059a.554.554,0,0,0,.328-.256.109.109,0,0,0-.028-.115l-.063-.062-.23.056a2.688,2.688,0,0,0-.294.09l-.075.028,0,0-.119.055c.015-.005.029-.012.044-.018Zm-1.025-.791c.295.2.589.419.866.653l.017.014c-.282-.241-.583-.458-.883-.667m.939.368c.048.039.1.08.144.121l0,0-.149-.119m-1.579-1.452c.253.19.515.37.77.546.1.069.2.138.3.209l-.3-.2c-.261-.179-.524-.36-.777-.55m-.445.319c.157.119.318.233.478.346-.161-.114-.322-.228-.478-.346m-.268-.495c-.012.012-.023.023-.033.035h0l.034-.036m.274-.128a.171.171,0,0,1,.086.025.161.161,0,0,0-.086-.025" fill="#ee4445"/>
      <path id="Path_57" data-name="Path 57" d="M85.691,1033.408c.861.717,1.875,1.236,2.667,2.033l.3-.37c-1.3.231-2.092,1.423-3.366,1.65-.195.035-.481.467-.169.412,1.3-.232,2.091-1.423,3.367-1.65.1-.018.443-.227.3-.371-.794-.8-1.807-1.316-2.667-2.034-.174-.145-.584.2-.432.33" fill="#ee4445"/>
      <path id="Path_58" data-name="Path 58" d="M85.075,1037.27a.2.2,0,0,1-.22-.165c-.035-.2.22-.48.413-.515a4.2,4.2,0,0,0,1.616-.8,7.3,7.3,0,0,1,1-.607,14.216,14.216,0,0,0-1.15-.849c-.377-.258-.767-.526-1.128-.827a.226.226,0,0,1-.077-.217.551.551,0,0,1,.344-.354.328.328,0,0,1,.335.038c.351.292.735.557,1.107.812a11.412,11.412,0,0,1,1.464,1.126l.205-.038-.107.135.007.007a.237.237,0,0,1,.061.248.664.664,0,0,1-.432.346,4.237,4.237,0,0,0-1.615.8,4.534,4.534,0,0,1-1.752.852.363.363,0,0,1-.071.007m1.351-.861a3.344,3.344,0,0,1-1.111.443.351.351,0,0,0-.162.141,3.642,3.642,0,0,0,1.273-.584m1.676-1.032a5.01,5.01,0,0,0-.748.418,3.721,3.721,0,0,1,.8-.367Zm-2.305-2.053c.345.284.723.545,1.089.8a13.61,13.61,0,0,1,1.271.952,2.8,2.8,0,0,1,.308-.094,14.256,14.256,0,0,0-1.3-.969c-.377-.26-.768-.528-1.127-.827-.006-.006-.034-.009-.076.008a.334.334,0,0,0-.166.135" fill="#ee4445"/>
      <path id="Path_59" data-name="Path 59" d="M85.075,1037.27a.2.2,0,0,1-.22-.166c-.035-.2.22-.479.413-.514a4.2,4.2,0,0,0,1.616-.8,7.2,7.2,0,0,1,1-.608c-.364-.307-.762-.581-1.15-.847s-.767-.528-1.128-.828a.262.262,0,0,1,.009-.388c.132-.158.411-.3.593-.146.351.292.735.557,1.108.813a11.472,11.472,0,0,1,1.463,1.126l.205-.037-.107.133.007.007a.239.239,0,0,1,.061.247.664.664,0,0,1-.432.348,4.216,4.216,0,0,0-1.617.8,4.525,4.525,0,0,1-1.75.852.458.458,0,0,1-.071.007m1.35-.861a3.305,3.305,0,0,1-1.11.442.358.358,0,0,0-.162.141,3.6,3.6,0,0,0,1.272-.583m1.677-1.031a4.826,4.826,0,0,0-.747.417,3.67,3.67,0,0,1,.8-.368Zm-2.306-2.055c.346.285.724.545,1.089.8a13.305,13.305,0,0,1,1.272.952,3.09,3.09,0,0,1,.308-.1,13.994,13.994,0,0,0-1.3-.968c-.377-.26-.768-.528-1.127-.828a.111.111,0,0,0-.076.009.347.347,0,0,0-.167.134" fill="#ee4445"/>
      <path id="Path_60" data-name="Path 60" d="M85.074,1037.4a.337.337,0,0,1-.349-.275.691.691,0,0,1,.52-.668,4.15,4.15,0,0,0,1.564-.776,8.669,8.669,0,0,1,.833-.525c-.316-.253-.654-.485-.982-.711-.381-.261-.773-.531-1.139-.836a.352.352,0,0,1-.128-.258.457.457,0,0,1,.12-.317.576.576,0,0,1,.779-.163c.35.291.73.553,1.1.806a12.076,12.076,0,0,1,1.43,1.092l.49-.086-.267.33a.362.362,0,0,1,.027.29.787.787,0,0,1-.535.438,4.11,4.11,0,0,0-1.563.776,4.658,4.658,0,0,1-1.8.875.651.651,0,0,1-.1.008m.154-.292-.05.011-.018,0,.068-.015m1.129-.815.141.224c.109-.072.216-.145.323-.218.2-.138.4-.274.6-.394l-.14-.224c-.11.072-.218.145-.325.218-.2.138-.4.273-.6.394m1.771-1.073.283.264-.175.054c.083-.023.167-.043.253-.059a.546.546,0,0,0,.329-.256.107.107,0,0,0-.028-.114l-.063-.063-.23.056a2.715,2.715,0,0,0-.294.09Zm0,0-.119.056.043-.019.08-.034Zm-2.164-1.6c.278.213.567.412.849.606a14.392,14.392,0,0,1,1.16.855l.031.026a14.011,14.011,0,0,0-1.191-.881c-.283-.195-.572-.394-.849-.606m2.089,1.183.137.114h0c-.046-.038-.093-.076-.141-.113m-.842-.931.032.022.093.064-.088-.061a.306.306,0,0,1-.037-.025" fill="#ee4445"/>
      <path id="Path_61" data-name="Path 61" d="M81.792,1033.385c.86.716,1.875,1.235,2.666,2.033.1-.124.2-.247.3-.371-1.3.232-2.091,1.423-3.366,1.651-.195.033-.48.466-.169.411,1.3-.231,2.092-1.423,3.367-1.65.1-.019.443-.226.3-.371-.794-.8-1.807-1.317-2.666-2.033-.175-.146-.585.2-.432.33" fill="#ee4445"/>
      <path id="Path_62" data-name="Path 62" d="M81.175,1037.246a.2.2,0,0,1-.219-.165c-.037-.2.219-.481.412-.515a4.194,4.194,0,0,0,1.615-.8,7.581,7.581,0,0,1,1-.606,13.845,13.845,0,0,0-1.15-.849c-.376-.26-.767-.527-1.126-.827a.262.262,0,0,1,.008-.389c.132-.157.411-.3.593-.145.351.293.735.557,1.108.812a11.391,11.391,0,0,1,1.461,1.126l.207-.036-.107.133.006.007a.235.235,0,0,1,.061.248.663.663,0,0,1-.431.347,4.221,4.221,0,0,0-1.615.8,4.538,4.538,0,0,1-1.751.853.379.379,0,0,1-.072.007m1.353-.862a3.308,3.308,0,0,1-1.113.443.372.372,0,0,0-.163.141,3.628,3.628,0,0,0,1.276-.584m1.674-1.031a4.846,4.846,0,0,0-.746.418,3.723,3.723,0,0,1,.8-.368ZM81.9,1033.3c.346.285.723.545,1.087.8a13.077,13.077,0,0,1,1.274.953,2.759,2.759,0,0,1,.308-.095,13.853,13.853,0,0,0-1.3-.969c-.377-.259-.768-.527-1.127-.827a.109.109,0,0,0-.075.009.35.35,0,0,0-.168.134m-.019-.017" fill="#ee4445"/>
      <path id="Path_63" data-name="Path 63" d="M81.174,1037.246a.22.22,0,0,1-.176-.073.23.23,0,0,1-.026-.237.626.626,0,0,1,.4-.37,4.183,4.183,0,0,0,1.614-.8,7.646,7.646,0,0,1,1-.606,13.6,13.6,0,0,0-1.149-.848c-.376-.26-.768-.528-1.127-.828-.093-.077-.125-.227.009-.389s.411-.3.592-.145c.351.293.735.557,1.108.812a11.47,11.47,0,0,1,1.462,1.126l-.125.247.138-.132s.059.043.093-.054.047.238.018.328a.538.538,0,0,1-.389.311,4.216,4.216,0,0,0-1.616.8,4.534,4.534,0,0,1-1.75.853.4.4,0,0,1-.073.007m1.349-.86a3.289,3.289,0,0,1-1.108.442.362.362,0,0,0-.163.14,3.582,3.582,0,0,0,1.271-.582m1.678-1.032a4.765,4.765,0,0,0-.743.415,3.691,3.691,0,0,1,.795-.365.6.6,0,0,0-.052-.05m-2.3-2.054c.344.285.722.544,1.086.795a13.054,13.054,0,0,1,1.273.952,2.759,2.759,0,0,1,.308-.095,13.985,13.985,0,0,0-1.3-.969c-.377-.259-.768-.527-1.127-.827a.106.106,0,0,0-.075.008.335.335,0,0,0-.166.136" fill="#ee4445"/>
      <path id="Path_64" data-name="Path 64" d="M81.174,1037.378a.355.355,0,0,1-.278-.12.36.36,0,0,1-.049-.366.754.754,0,0,1,.5-.456,4.145,4.145,0,0,0,1.563-.775,8.912,8.912,0,0,1,.834-.526c-.316-.254-.654-.485-.982-.712-.381-.26-.773-.53-1.138-.836a.345.345,0,0,1-.129-.256.463.463,0,0,1,.12-.318.773.773,0,0,1,.338-.23.447.447,0,0,1,.442.068c.343.286.722.545,1.088.8a11.588,11.588,0,0,1,1.489,1.146l.007.007.062.009c.181.062.091.5.09.508a.668.668,0,0,1-.492.4,4.065,4.065,0,0,0-1.565.777,4.66,4.66,0,0,1-1.8.873.688.688,0,0,1-.1.007m.166-.294-.061.014-.02,0c.028-.005.054-.012.081-.018m1.115-.81.14.225c.111-.074.219-.148.327-.222.2-.137.4-.274.6-.4l-.14-.223c-.11.071-.218.146-.324.218-.2.14-.4.275-.606.4m1.974-.785-.091.029a.9.9,0,0,1,.088-.024Zm.453-.291-.26.252a.4.4,0,0,0,.254-.211.181.181,0,0,0,.006-.041m-.654,0,.235.222.176-.349-.043.011a2.7,2.7,0,0,0-.293.089l-.075.028,0,0-.119.056.043-.018Zm-1.025-.791c.294.205.589.419.866.654l.016.013c-.282-.241-.583-.458-.882-.667m.938.368c.049.039.1.08.145.121h0c-.05-.04-.1-.081-.15-.12m-1.571-1.446c.25.188.51.365.762.541.1.069.206.14.309.212-.1-.07-.2-.14-.3-.208-.259-.178-.52-.357-.77-.545m-.453.313c.157.12.319.234.48.346-.162-.112-.323-.227-.48-.346m-.267-.494a.285.285,0,0,0-.033.035h0a.238.238,0,0,1,.034-.036m.274-.128a.153.153,0,0,1,.086.025.147.147,0,0,0-.086-.025" fill="#ee4445"/>
      <path id="Path_65" data-name="Path 65" d="M275.783,1033.631c.86.717,1.875,1.236,2.666,2.034.1-.124.121-.187.221-.311-1.3.231-2.013,1.363-3.287,1.59-.2.035-.48.467-.168.412,1.3-.231,2.091-1.423,3.366-1.65.1-.018.442-.226.3-.371-.793-.8-1.805-1.316-2.666-2.033-.174-.146-.585.2-.432.329" fill="#ee4445"/>
      <path id="Path_66" data-name="Path 66" d="M275.165,1037.493a.2.2,0,0,1-.218-.165c-.036-.2.218-.48.412-.514a4.073,4.073,0,0,0,1.577-.769,6.339,6.339,0,0,1,1.056-.622,14.122,14.122,0,0,0-1.166-.861c-.377-.26-.767-.529-1.128-.829a.261.261,0,0,1,.008-.388c.131-.158.411-.3.594-.146.35.293.734.557,1.107.813a11.141,11.141,0,0,1,1.5,1.165l.086-.016-.044.056a.285.285,0,0,0,.025.024.242.242,0,0,1,.059.248.657.657,0,0,1-.431.347,4.212,4.212,0,0,0-1.616.8,4.55,4.55,0,0,1-1.751.852.373.373,0,0,1-.072.007m1.307-.832a3.2,3.2,0,0,1-1.066.413.372.372,0,0,0-.163.141,3.51,3.51,0,0,0,1.229-.554m1.739-1.042a3.992,3.992,0,0,0-.667.342,3.587,3.587,0,0,1,.7-.311l-.034-.031m-2.322-2.073c.344.286.722.546,1.088.8a13.125,13.125,0,0,1,1.3.974,2.645,2.645,0,0,1,.322-.084,13.5,13.5,0,0,0-1.338-1c-.378-.259-.767-.528-1.128-.828a.106.106,0,0,0-.074.009.343.343,0,0,0-.166.134" fill="#ee4445"/>
      <path id="Path_67" data-name="Path 67" d="M275.165,1037.493a.2.2,0,0,1-.218-.165c-.037-.2.218-.48.412-.514a4.253,4.253,0,0,0,1.617-.8,7.108,7.108,0,0,1,1-.607c-.366-.308-.763-.582-1.151-.848s-.767-.528-1.127-.828a.261.261,0,0,1,.008-.388c.132-.158.411-.3.594-.146.35.293.734.557,1.107.813a9.224,9.224,0,0,1,1.295,1.015l.213.166.054.041.007.007a.242.242,0,0,1,.059.248.657.657,0,0,1-.431.347,4.212,4.212,0,0,0-1.616.8,4.55,4.55,0,0,1-1.751.852.373.373,0,0,1-.072.007m1.352-.861a3.3,3.3,0,0,1-1.111.442.372.372,0,0,0-.163.141,3.6,3.6,0,0,0,1.274-.583m1.675-1.031a4.96,4.96,0,0,0-.745.417,3.714,3.714,0,0,1,.8-.368l-.053-.049m-2.3-2.055c.344.286.722.545,1.088.8a13.347,13.347,0,0,1,1.271.952c.1-.036.2-.068.309-.095a14.165,14.165,0,0,0-1.3-.968c-.378-.259-.767-.528-1.128-.828a.106.106,0,0,0-.074.009.343.343,0,0,0-.166.134" fill="#ee4445"/>
      <path id="Path_68" data-name="Path 68" d="M275.166,1037.626a.339.339,0,0,1-.351-.274.694.694,0,0,1,.521-.669,4.1,4.1,0,0,0,1.563-.776,9.037,9.037,0,0,1,.833-.525c-.314-.253-.652-.486-.98-.711-.381-.262-.774-.531-1.14-.836a.354.354,0,0,1-.129-.258.47.47,0,0,1,.121-.317.579.579,0,0,1,.781-.162c.347.29.728.552,1.1.8a9.067,9.067,0,0,1,1.314,1.029l.256.2a.383.383,0,0,1,.111.4.781.781,0,0,1-.535.437,4.131,4.131,0,0,0-1.563.775,4.63,4.63,0,0,1-1.8.875.551.551,0,0,1-.1.009m.152-.291-.048.01-.018,0,.066-.014m1.13-.816.142.223c.107-.071.216-.144.321-.217.2-.138.4-.273.6-.394l-.14-.224c-.11.072-.219.146-.325.219-.2.137-.4.272-.6.393m1.773-1.073.282.265-.176.054a2.257,2.257,0,0,1,.254-.059.558.558,0,0,0,.328-.257.1.1,0,0,0-.027-.114l-.076-.06-.218.053c-.1.025-.2.055-.294.091Zm-.005-.005-.119.057c.013-.007.029-.012.044-.019l.079-.033Zm-2.164-1.6c.278.213.566.412.848.605.39.268.79.544,1.161.857l.031.025a14.091,14.091,0,0,0-1.192-.882c-.283-.194-.572-.392-.848-.605m2.089,1.183.135.114h.005c-.047-.038-.093-.077-.14-.113m-.847-.934c.012.008.023.017.036.025s.029.021.045.03l-.043-.029Z" fill="#ee4445"/>
      <path id="Path_69" data-name="Path 69" d="M271.884,1033.608c.858.716,1.874,1.234,2.666,2.033.1-.123.1-.179.2-.3-1.3.231-1.992,1.356-3.268,1.583-.2.035-.479.466-.168.413,1.3-.232,2.091-1.425,3.368-1.651.1-.019.443-.227.3-.371-.794-.8-1.8-1.316-2.667-2.034-.173-.145-.585.2-.43.331" fill="#ee4445"/>
      <path id="Path_70" data-name="Path 70" d="M271.267,1037.469a.2.2,0,0,1-.22-.165c-.035-.2.22-.48.412-.515a4.007,4.007,0,0,0,1.566-.763,6.1,6.1,0,0,1,1.066-.627,14.084,14.084,0,0,0-1.164-.862c-.378-.259-.77-.527-1.129-.828a.22.22,0,0,1-.077-.216.541.541,0,0,1,.344-.355.328.328,0,0,1,.334.038c.351.292.736.557,1.109.811a11.325,11.325,0,0,1,1.505,1.168l.061-.01-.032.04a.246.246,0,0,1,.032.033.238.238,0,0,1,.063.247.672.672,0,0,1-.433.348,4.214,4.214,0,0,0-1.615.8,4.531,4.531,0,0,1-1.751.852.385.385,0,0,1-.071.007m1.323-.843a3.215,3.215,0,0,1-1.084.425.36.36,0,0,0-.162.14,3.552,3.552,0,0,0,1.246-.565m1.721-1.031a3.924,3.924,0,0,0-.741.386,3.6,3.6,0,0,1,.776-.354l-.035-.032m.572-.211-.03.036a.237.237,0,0,1-.023.029.178.178,0,0,0,.054-.064h0m-2.895-1.861c.344.285.722.545,1.088.8a12.978,12.978,0,0,1,1.3.975,3.173,3.173,0,0,1,.323-.081,13.289,13.289,0,0,0-1.34-1.005c-.377-.26-.767-.527-1.128-.827-.005-.006-.032-.008-.074.008a.342.342,0,0,0-.167.135" fill="#ee4445"/>
      <path id="Path_71" data-name="Path 71" d="M271.266,1037.469a.216.216,0,0,1-.176-.072.231.231,0,0,1-.027-.237.629.629,0,0,1,.4-.371,4.18,4.18,0,0,0,1.616-.8,7.471,7.471,0,0,1,1-.607c-.364-.309-.761-.581-1.147-.848s-.77-.527-1.129-.828c-.093-.077-.125-.226.009-.388s.411-.3.592-.146c.351.293.736.557,1.108.812a11.713,11.713,0,0,1,1.463,1.126l.046.053.052.044.006.008a.238.238,0,0,1,.063.247.672.672,0,0,1-.433.348,4.186,4.186,0,0,0-1.615.8,4.538,4.538,0,0,1-1.751.852.4.4,0,0,1-.072.007m1.348-.859a3.288,3.288,0,0,1-1.108.441.355.355,0,0,0-.162.14,3.6,3.6,0,0,0,1.27-.581m1.678-1.033a4.883,4.883,0,0,0-.742.415,3.646,3.646,0,0,1,.8-.365Zm-2.3-2.054c.344.285.722.545,1.087.8a13.226,13.226,0,0,1,1.274.952,2.738,2.738,0,0,1,.307-.094,13.706,13.706,0,0,0-1.3-.97c-.377-.259-.766-.526-1.127-.827-.005-.005-.032-.007-.074.009a.337.337,0,0,0-.167.135" fill="#ee4445"/>
      <path id="Path_72" data-name="Path 72" d="M271.266,1037.6a.342.342,0,0,1-.328-.487.76.76,0,0,1,.5-.455,4.152,4.152,0,0,0,1.564-.776,8.9,8.9,0,0,1,.832-.525c-.314-.254-.652-.486-.98-.712-.38-.26-.774-.531-1.139-.835a.359.359,0,0,1-.128-.258.458.458,0,0,1,.119-.317.762.762,0,0,1,.339-.23.445.445,0,0,1,.441.067c.343.286.721.547,1.088.8a11.464,11.464,0,0,1,1.489,1.145l.092.092a.378.378,0,0,1,.11.4.786.786,0,0,1-.535.438,4.113,4.113,0,0,0-1.566.777,4.633,4.633,0,0,1-1.8.873.686.686,0,0,1-.1.008m.167-.294-.064.014-.018,0Zm1.114-.811.139.225c.111-.073.219-.147.328-.221.2-.138.4-.274.6-.394l-.139-.224c-.111.072-.218.145-.325.218-.2.139-.4.275-.605.4m1.772-1.075.283.266-.172.053c.082-.023.165-.043.252-.059a.549.549,0,0,0,.328-.256.109.109,0,0,0-.029-.115l-.068-.061-.225.056a2.518,2.518,0,0,0-.294.089l-.075.028,0,0-.119.055a.284.284,0,0,0,.043-.018Zm-1.024-.791c.294.206.59.42.865.653l.017.014c-.282-.241-.582-.458-.882-.667m.938.368.144.121.006,0-.15-.119m-1.573-1.447c.251.188.511.367.765.541l.337.233-.33-.229c-.259-.177-.521-.357-.772-.545m-.451.314c.156.119.318.234.479.347-.162-.114-.324-.229-.479-.347m-.268-.494-.033.034h0l.034-.035m.275-.129a.178.178,0,0,1,.086.025.17.17,0,0,0-.086-.025" fill="#ee4445"/>
      <path id="Path_73" data-name="Path 73" d="M183.94,1033.651c-1.166-3.5-7.56-6.719-8.956-1.692-.526,1.9,1.125,3.779,2.282,5.077,1.506,1.687,3.392,3.017,4.852,4.739.154.18.8-.625.57-.9-2.11-2.485-5-4.208-6.611-7.131a3.11,3.11,0,0,1-.423-2.277c.425-1.532,2.573-1.343,3.659-.971a6.754,6.754,0,0,1,3.981,3.95c.086.261.749-.492.646-.8" fill="#ee4445"/>
      <path id="Path_74" data-name="Path 74" d="M183.447,1033.018c.478-1.748,2.475-3.873,4.248-2.173,1.528,1.465.525,3.767-.559,5.1-1.668,2.046-4.117,3.347-5.56,5.591-.357.554.291.965.646.412,2.156-3.349,7.771-5.364,6.986-10.124a2.8,2.8,0,0,0-3.211-2.513c-1.86.266-2.952,2.181-3.395,3.805-.182.668.708.4.845-.094" fill="#ee4445"/>
    </g>
  </g>
</svg>
