<svg id="Layer_1" data-name="Layer 1" xmlns="http://www.w3.org/2000/svg" xmlns:xlink="http://www.w3.org/1999/xlink" viewBox="0 0 40 40"><defs><style>.cls-1{fill:url(#purple);}</style><linearGradient id="purple" x1="31.92" y1="5.76" x2="-0.86" y2="38.53" gradientUnits="userSpaceOnUse"><stop offset="0" stop-color="#ec008c"/><stop offset="1" stop-color="#602d91"/></linearGradient></defs><path class="cls-1" d="M39.1,19.1a2.4,2.4,0,0,0-1.1-.6,2.3,2.3,0,0,0,.4-1.4A2.4,2.4,0,0,0,36,14.9H31.4V8.1a2.7,2.7,0,1,0-5.3,0V9.9a3.1,3.1,0,0,1-.3,1.3,6.3,6.3,0,0,1-6.1-6.4V4a1,1,0,0,0-1-.9H8.8a.9.9,0,0,0-1,.9v.7A6.4,6.4,0,0,1,1.4,11H1.3a1.1,1.1,0,0,0-1,1V23.5a13.4,13.4,0,0,0,25.6,5.7H34a2,2,0,0,0,1.4-.6,2.4,2.4,0,0,0,.5-1.4,1.5,1.5,0,0,0-.1-.7H36a2.4,2.4,0,0,0,2.4-2.3,2.2,2.2,0,0,0-.4-1.3,2.3,2.3,0,0,0,1.8-2.1A2.1,2.1,0,0,0,39.1,19.1ZM13.7,35.8A12.3,12.3,0,0,1,1.5,23.5V12.2A7.6,7.6,0,0,0,9,4.7V4.2h9.5v.6A7.6,7.6,0,0,0,25,12.3l-.5.3-3.1,2a1.7,1.7,0,0,1-1,.3h-.7a1.6,1.6,0,0,0-1.6-1.2H14.8a1.8,1.8,0,0,0-1.6,1.1H10.4a1.5,1.5,0,0,0-1.5,1.5v10a1.5,1.5,0,0,0,1.5,1.5h2.7v5.7a9.9,9.9,0,0,1-9.3-9.9V14a7.9,7.9,0,0,0,7.3-7.5h2v5.1a.6.6,0,0,0,1.2,0V5.9a.6.6,0,0,0-.6-.6H10.5a.6.6,0,0,0-.6.6v.2a6.7,6.7,0,0,1-6.7,6.8.6.6,0,0,0-.6.6V23.6a11.1,11.1,0,0,0,11.1,11,.6.6,0,0,0,.6-.5V28.9h3.8a1.7,1.7,0,0,0,1.4-.7l.6.4a4,4,0,0,0,2.2.6h2.3A12.4,12.4,0,0,1,13.7,35.8Zm-.6-9.2H10.4c-.2,0-.4-.1-.4-.3v-10c0-.2.2-.3.4-.3h2.7Zm24.3-4.8H32.9a.6.6,0,0,0,0,1.2h3.2a.9.9,0,0,1,.8.4,1.1,1.1,0,0,1-.9,1.9H32.9a.6.6,0,1,0,0,1.2H34a.8.8,0,0,1,.8.7.9.9,0,0,1-.3.6L34,28H22.3a2.7,2.7,0,0,1-1.6-.4l-.9-.5V25.8a.6.6,0,0,0-.6-.6.6.6,0,0,0-.5.6v1.4a.6.6,0,0,1-.6.6H14.7a.4.4,0,0,1-.4-.4v-12a.6.6,0,0,1,.5-.6h3.3a.6.6,0,0,1,.6.6v7.7a.6.6,0,0,0,.5.6.6.6,0,0,0,.6-.6v-7h.6a3,3,0,0,0,1.6-.5l3.2-2a4.5,4.5,0,0,0,2-3.7V8.1a1.6,1.6,0,0,1,1.5-1.6,1.6,1.6,0,0,1,1.6,1.6v7a1,1,0,0,0,1,1H36a1.1,1.1,0,0,1,.9,1.9.9.9,0,0,1-.8.4H32.9a.6.6,0,0,0-.6.6.6.6,0,0,0,.6.5h4.6a1.2,1.2,0,0,1,.8.4,1.1,1.1,0,0,1,.3.8A1.2,1.2,0,0,1,37.4,21.8Z"/></svg>