<svg id="Layer_1" data-name="Layer 1" xmlns="http://www.w3.org/2000/svg" viewBox="0 0 40 40"><defs><style>.cls-1{fill:#1b75bb;}</style></defs><path id="Graphic_Element" data-name="Graphic Element" class="cls-1" d="M39.7,6.4a.2.2,0,0,0-.3-.1,43.9,43.9,0,0,0-7.7,2.9c-.1-.6-.1-1.1-.2-1.7s-.4-.8-.8-.8a27.4,27.4,0,0,1-8.1-1.6,34.5,34.5,0,0,1-6.1-3.6.7.7,0,0,0-1,0A34.5,34.5,0,0,1,9.4,5.1,27.4,27.4,0,0,1,1.3,6.7c-.4,0-.7.4-.8.8C-.8,18.8,3.3,26.6,7,31.2a30.9,30.9,0,0,0,8.6,7.4h.8a29.8,29.8,0,0,0,8.5-7.4,29.7,29.7,0,0,0,6.8-19.9,32.1,32.1,0,0,1,7.9-4.5C39.7,6.7,39.8,6.6,39.7,6.4ZM16,10.3a3.1,3.1,0,1,1-3.1,3.1A3.1,3.1,0,0,1,16,10.3Zm7.6,8c-4.9,5.8-6.9,9.1-7.6,10.4a36.2,36.2,0,0,0-3.4-6c-2.9-4.2-5.3-6.4-6.8-7.4a19.3,19.3,0,0,1,5.3,2.2,28.2,28.2,0,0,1,4.7,3.8h.4s3.6-3.5,8.1-7A42,42,0,0,1,35.5,8.2,46.9,46.9,0,0,0,23.6,18.3Z"/></svg>