<svg id="Layer_1" data-name="Layer 1" xmlns="http://www.w3.org/2000/svg" viewBox="0 0 40 40"><defs><style>.cls-1{fill:#2d4356;}.cls-2{fill:#0bceb2;}</style></defs><path class="cls-1" d="M14.2,18.2l5.5,4h.6l5.5-4c2-1.6,4-3.8,4.3-6.4a5.6,5.6,0,0,0-2.9-5.6,5.2,5.2,0,0,0-2.5-.7c-1.6,0-3.3.8-4.7,3-1.4-2.2-3.1-3-4.7-3a5.2,5.2,0,0,0-2.5.7,5.6,5.6,0,0,0-2.9,5.6C10.2,14.4,12.2,16.6,14.2,18.2Zm-.8-11a3.4,3.4,0,0,1,1.9-.5c1.5,0,2.7.8,3.7,2.5a1.2,1.2,0,0,0,2,0c1-1.7,2.2-2.5,3.7-2.5a3.4,3.4,0,0,1,1.9.5A4.6,4.6,0,0,1,29,11.7c-.3,2.4-2.6,4.5-3.9,5.5L20,21l-5.1-3.8c-1.3-1-3.6-3.1-3.9-5.5A4.6,4.6,0,0,1,13.4,7.2Z"/><path class="cls-1" d="M33.5,35.9h-.2v-2a2.3,2.3,0,0,0-2.2-2.4H31v-.2a2.6,2.6,0,0,1,.5-1.7,17.4,17.4,0,0,1,2.8-3.4,37.3,37.3,0,0,0,2.6-3,12.4,12.4,0,0,0,1.7-7.3c0-1.9-.4-7-.5-8V7.4c-.2-1.5-.4-4.5-2.5-4.5h0a1.8,1.8,0,0,0-1.7,1.8c0,.1-.6,6.4-1,10.1-.1.4.2.6.5.7a.6.6,0,0,0,.6-.5c.4-3.5,1-10,1.1-10.1s.2-.8.5-.8,1.2,2.4,1.3,3.4a4.3,4.3,0,0,0,.1.5c.1,1,.5,6,.5,7.9a11.5,11.5,0,0,1-1.6,6.6,22.6,22.6,0,0,1-2.5,2.9,21.6,21.6,0,0,0-2.9,3.7,3.6,3.6,0,0,0-.6,2.4H24.6V27.4a8.1,8.1,0,0,1,2.2-5.3v-.2l2.4-2.3c0-.1.1-.2.2-.3s1.8-1.9,2.5-1.8a.4.4,0,0,1,.4.2c.2.3-.1,1.3-2.4,4.7a4.6,4.6,0,0,0-.7,1,.6.6,0,0,0,.2.7.5.5,0,0,0,.8-.2l.6-.9c1.9-2.6,3.3-4.9,2.5-6a1.9,1.9,0,0,0-1.3-.7c-1.3,0-2.7,1.4-3.4,2.2l-.3.2-2.3,2.4H26a9.5,9.5,0,0,0-2.5,6.2v4.1h-.1a2.3,2.3,0,0,0-2.2,2.4v2H18.8v-2a2.3,2.3,0,0,0-2.2-2.4h-.1V27.4A9.5,9.5,0,0,0,14,21.2h-.1l-2.3-2.4-.3-.2c-.7-.8-2.1-2.2-3.4-2.2a1.9,1.9,0,0,0-1.3.7c-.8,1.1.6,3.4,2.5,6l.6.9a.5.5,0,0,0,.8.2.6.6,0,0,0,.2-.7,4.6,4.6,0,0,0-.7-1C7.7,19,7.4,18,7.6,17.7a.4.4,0,0,1,.4-.2c.7-.1,1.9,1.2,2.5,1.8s.2.2.2.3l2.4,2.3v.2a8.1,8.1,0,0,1,2.2,5.3v4.1H10.2a3.6,3.6,0,0,0-.6-2.4,21.6,21.6,0,0,0-2.9-3.7,22.6,22.6,0,0,1-2.5-2.9,11.5,11.5,0,0,1-1.6-6.6C2.6,14,3,9,3.1,8a4.3,4.3,0,0,0,.1-.5c.1-1,.3-3.4,1.3-3.4h0c.3,0,.5.5.5.8S5.7,11.5,6.1,15a.6.6,0,0,0,.6.5c.3-.1.6-.3.5-.7-.4-3.7-1-10-1-10.1A1.8,1.8,0,0,0,4.5,2.9h0c-2.1,0-2.3,3-2.5,4.5v.5c-.1,1-.5,6.1-.5,8a12.4,12.4,0,0,0,1.7,7.3,37.3,37.3,0,0,0,2.6,3,17.4,17.4,0,0,1,2.8,3.4,2.6,2.6,0,0,1,.5,1.7v.2H8.9a2.3,2.3,0,0,0-2.2,2.4v2H6.5a.6.6,0,1,0,0,1.2h27a.6.6,0,0,0,0-1.2Zm-25.7,0v-2a1.1,1.1,0,0,1,1.1-1.2h7.7a1.1,1.1,0,0,1,1.1,1.2v2Zm14.5,0v-2a1.1,1.1,0,0,1,1.1-1.2h7.7a1.1,1.1,0,0,1,1.1,1.2v2Z"/><path class="cls-2" d="M13.7,12A2.5,2.5,0,0,1,14,9.9a1.3,1.3,0,0,1,1.1-.6c.3-.1.6-.3.5-.7a.6.6,0,0,0-.6-.5,2.7,2.7,0,0,0-1.9,1.1,3.7,3.7,0,0,0-.5,3.1.6.6,0,0,0,.6.5h.1C13.6,12.7,13.8,12.3,13.7,12Z"/><circle class="cls-2" cx="14.2" cy="13.9" r="0.6"/></svg>