<svg id="Layer_1" data-name="Layer 1" xmlns="http://www.w3.org/2000/svg" viewBox="0 0 100 100"><defs><style>.cls-1{fill:#825295;}.cls-2{fill:#231f20;opacity:0.4;}.cls-3{fill:#fff;}</style></defs><title>Icons</title><rect class="cls-1" y="0.2" width="99.8" height="99.8"/><rect class="cls-2" width="99.8" height="99.8"/><path class="cls-3" d="M74.34,34.68v4.53H79.5l-.43.46q-3.31,3.3-6.61,6.62a1.23,1.23,0,0,0-.32.62c-.31,1.61-.59,3.23-.91,4.83a1,1,0,0,0,.22.94,19.34,19.34,0,0,1,1.26,23.63c-4.77,6.76-11.42,9.39-19.54,8.25a17.14,17.14,0,0,1-8.27-3.65c-5.7-4.49-8.38-10.37-7.66-17.62a20.32,20.32,0,0,1,.43-2.63,19.08,19.08,0,0,0,5.52.89,27.21,27.21,0,0,0,8.08-.83A24,24,0,0,0,68.65,37.93a23.3,23.3,0,0,0-6.79-17,23,23,0,0,0-18.68-7.28A23.25,23.25,0,0,0,25,23.68,23.38,23.38,0,0,0,20.9,41.55a24.53,24.53,0,0,0,4.63,10.74c.47.65.49.7-.07,1.27-1.47,1.51-3,3-4.44,4.52-.5.5-1,1-1.51,1.6L16.1,56.23C15,57.3,14,58.34,12.89,59.44l3.48,3.43-3.9,3.81,3.2,3.24L19.55,66l3.81,3.84,3.23-3.19L22.7,62.79l.36-.38c1.89-1.9,3.78-3.79,5.65-5.7a1.33,1.33,0,0,0,.35-.7c.29-1.46.49-2.94.84-4.38A1.74,1.74,0,0,0,29.51,50a18.94,18.94,0,0,1-4.39-12.28,19,19,0,0,1,7.49-15.39A18.74,18.74,0,0,1,45.9,18.19a19.25,19.25,0,0,1,18,22.06c-.1.71-.22,1.4-.38,2.08-.62-.19-1.25-.36-1.88-.51a27.59,27.59,0,0,0-6-.41,18.52,18.52,0,0,0-5.18.68,23.9,23.9,0,0,0-17.9,22.16,23.14,23.14,0,0,0,.8,7.5c3.08,9.7,9.54,15.78,19.65,17.3,9.72,1.46,17.65-2.15,23.33-10.14a23.58,23.58,0,0,0,.63-26.17c-.48-.79-1-1.55-1.54-2.31a.5.5,0,0,1,0-.7c.14-.16.27-.33.42-.48q3.33-3.37,6.68-6.74s.1,0,.21-.09V47.2h4.51V34.68Zm-29,14.76a17.74,17.74,0,0,1,8.11-3.33,20.71,20.71,0,0,1,8.55.46,19.38,19.38,0,0,1-6.16,7,19,19,0,0,1-16.61,2.82A19.5,19.5,0,0,1,45.34,49.44Z"/></svg>