<svg xmlns="http://www.w3.org/2000/svg" width="47.401" height="47.109" viewBox="0 0 47.401 47.109">
  <g id="signup" transform="translate(-694.74 -2011.051)">
    <path id="Path_608" data-name="Path 608" d="M144.391,2051.486H120.8a7.521,7.521,0,0,1,1.859-6.052,13.392,13.392,0,0,1,5.07-3.316c1.545-.659,3.092-1.317,4.624-2.006a4.726,4.726,0,0,0,.993-.676,1.825,1.825,0,0,0,.777-1.544c-.026-.787.028-1.576.026-2.364a.863.863,0,0,0-.153-.507,10.321,10.321,0,0,1-1.851-3.8,1.309,1.309,0,0,0-.417-.611,3.621,3.621,0,0,1-1.2-1.986,3.819,3.819,0,0,1,.29-3.342.816.816,0,0,0,.013-.565,19.772,19.772,0,0,1-.544-5.418,9.065,9.065,0,0,1,1.455-4.765,7.539,7.539,0,0,1,4.683-3.082,11.836,11.836,0,0,1,5.1-.213,5.128,5.128,0,0,1,2.846,1.435.721.721,0,0,0,.352.184c2.682.634,4.065,2.743,4.405,5.337a16.741,16.741,0,0,1-.613,6.549.872.872,0,0,0,.1.77,4.549,4.549,0,0,1-1.21,5.219.773.773,0,0,0-.226.425,10.173,10.173,0,0,1-1.828,3.863.8.8,0,0,0-.139.465c-.012.619.022,1.237,0,1.854a2.237,2.237,0,0,0,1.02,2.293l-1.13,1.526a3.341,3.341,0,0,1-1.7-2.415c-.143-1.393-.091-2.808-.111-4.212a.491.491,0,0,1,.134-.362,6.251,6.251,0,0,0,1.885-3.475,2.459,2.459,0,0,0,.1-.546c.038-.555.129-1.026.858-1.039.151,0,.381-.248.433-.422a8.022,8.022,0,0,0,.363-1.747,1.176,1.176,0,0,0-.443-.8.715.715,0,0,1-.253-.905,18.084,18.084,0,0,0,.946-5.127,7.581,7.581,0,0,0-.545-3.354,3.434,3.434,0,0,0-2.71-2.076,1.489,1.489,0,0,1-1.09-.646,2.656,2.656,0,0,0-1.992-.949,9.347,9.347,0,0,0-6.05,1.017,5.661,5.661,0,0,0-2.671,4.532,18.135,18.135,0,0,0,.685,6.686.617.617,0,0,1-.253.786,1.112,1.112,0,0,0-.466,1.26c.085.391.174.781.293,1.162a.816.816,0,0,0,.795.659c.39,0,.479.235.517.557a7.523,7.523,0,0,0,.992,3.059,13.161,13.161,0,0,0,1.026,1.29.738.738,0,0,1,.2.377c0,1.251-.031,2.5-.041,3.752a3.291,3.291,0,0,1-1.556,2.749,21.648,21.648,0,0,1-3.059,1.706c-1.658.785-3.393,1.41-5.022,2.245a6.459,6.459,0,0,0-3.615,4.4c-.015.075-.026.15-.051.294h.557q10.01,0,20.024-.008c.381,0,.582.089.669.483.105.463.279.908.435,1.4" transform="translate(574)" fill="#1079aa"/>
    <path id="Path_609" data-name="Path 609" d="M145.338,2046.755a11.4,11.4,0,1,1,11.371,11.406,11.452,11.452,0,0,1-11.371-11.406m20.881-.014a9.476,9.476,0,1,0-9.465,9.505,9.462,9.462,0,0,0,9.465-9.505" transform="translate(574)" fill="#1079aa"/>
    <path id="Path_610" data-name="Path 610" d="M157.693,2052.452h-1.881v-4.727h-4.735v-1.9h4.714V2041.1h1.9v4.711h4.72v1.912h-4.082c-.634,0-.635,0-.635.612q0,1.786,0,3.569Z" transform="translate(574)" fill="#1079aa"/>
  </g>
</svg>
