<svg xmlns="http://www.w3.org/2000/svg" width="17.529" height="15.46" viewBox="0 0 17.529 15.46">
  <g id="Group_4" data-name="Group 4" transform="translate(-319.419 -25.015)">
    <path id="Path_3" data-name="Path 3" d="M336.947,32.751a7.731,7.731,0,0,1-13.131,5.517,7.433,7.433,0,0,1-1.614-2.277.8.8,0,0,1,.259-1.03.784.784,0,0,1,1.017.116,1.013,1.013,0,0,1,.161.249,6.113,6.113,0,0,0,4.124,3.389,5.932,5.932,0,0,0,2.578.073,6.147,6.147,0,0,0,2.09-11.288,6.148,6.148,0,0,0-8.79,2.663.792.792,0,1,1-1.452-.633,7.661,7.661,0,0,1,2.238-2.85,7.736,7.736,0,0,1,12.328,4.336A6.933,6.933,0,0,1,336.947,32.751Z" fill="#808184"/>
    <path id="Path_4" data-name="Path 4" d="M323.688,32.574c.021.1.005.174-.1.171-.028,0-.082-.054-.079-.078C323.522,32.561,323.608,32.578,323.688,32.574Z" fill="#808184"/>
    <path id="Path_5" data-name="Path 5" d="M319.871,33.459a1.193,1.193,0,0,0,.541.075H329.6l.016.034a.423.423,0,0,0-.065.046c-.3.3-.6.594-.894.895a.759.759,0,0,0-.195.826.783.783,0,0,0,1.294.307c.321-.308.631-.628.945-.942q.774-.772,1.546-1.545a.528.528,0,0,0,.019-.8q-1.244-1.247-2.49-2.489a.79.79,0,1,0-1.122,1.113c.143.149.292.293.439.439.171.17.343.339.514.508l-.016.031h-9.214c-.077,0-.154,0-.23,0a.783.783,0,0,0-.711.633A.794.794,0,0,0,319.871,33.459Z" fill="#808184"/>
  </g>
</svg>
