<?xml version="1.0" encoding="utf-8"?>
<!-- Generator: Adobe Illustrator 16.0.0, SVG Export Plug-In . SVG Version: 6.00 Build 0)  -->
<!DOCTYPE svg PUBLIC "-//W3C//DTD SVG 1.1//EN" "http://www.w3.org/Graphics/SVG/1.1/DTD/svg11.dtd">
<svg version="1.1" id="Layer_1" xmlns="http://www.w3.org/2000/svg" xmlns:xlink="http://www.w3.org/1999/xlink" x="0px" y="0px"
	 width="5.973px" height="6.32px" viewBox="0 0 5.973 6.32" enable-background="new 0 0 5.973 6.32" xml:space="preserve">
<path fill="#1079AA" d="M5.908,3.055L5.78,2.925l-0.176-0.2c-0.618-0.548-1.276-1.05-1.969-1.5C3.134,0.88,2.617,0.524,2.148,0.133
	c-0.17-0.134-0.397-0.169-0.6-0.092c-0.18,0.061-0.34,0.169-0.463,0.313C0.977,0.473,0.918,0.628,0.921,0.788
	C0.927,0.925,0.99,1.054,1.096,1.142c0.5,0.416,1.037,0.786,1.557,1.142c0.448,0.311,0.91,0.627,1.342,0.973
	C3.602,3.474,3.222,3.713,2.856,3.974C2.227,4.476,1.498,4.837,0.718,5.034c-0.313,0.089-0.564,0.319-0.68,0.623
	c-0.071,0.166-0.046,0.358,0.067,0.5C0.201,6.266,0.34,6.326,0.485,6.321L0.482,6.323c0.044,0,0.087-0.004,0.13-0.012
	C1.51,6.097,2.351,5.69,3.075,5.117c0.629-0.504,1.358-0.865,2.14-1.063c0.323-0.076,0.592-0.298,0.729-0.6
	C5.99,3.323,5.976,3.177,5.908,3.055z"/>
</svg>
