<svg id="Layer_1" data-name="Layer 1" xmlns="http://www.w3.org/2000/svg" viewBox="0 0 15.19 14.62"><defs><style>.cls-1{fill:#4f2773;}</style></defs><path class="cls-1" d="M8,10.9c-.54-.07-.73-.37-.56-.91l1,.41c.34.58.07,1-.81,1.31C6,11.89,5.54,10.24,6.08,9,7,6.88,9.29,7.49,10,9.22a2.77,2.77,0,0,1-1,3.2C6.54,14.3,3.78,9.91,3.7,7.93c-.14-3.63,5-3.76,7.1-2s2.35,5.29.16,7c-3.35,2.6-8.32,0-9.44-3.6C0,4.42,3.22.45,8.24.9c8.23.75,6.88,12.74-.94,12.82-.66,0-.9.87-.1.86,5.93-.06,10.41-6.92,6.54-12C11.82,0,7.89-.39,5,.3c-3.5.84-5.3,4-5,7.44A7,7,0,0,0,6.12,14.5c2.7.46,5.88-.36,7.16-3,2.61-5.35-4.7-9.61-9-6.63C.78,7.33,3.14,12.38,6.6,13.47a3.75,3.75,0,0,0,4.33-1.77c1-2.14-.11-4.93-2.66-5C6.07,6.64,4,9.14,4.82,11.23c.58,1.55,3.43,1.81,4.5.67a1.93,1.93,0,0,0-1.8-3.13,1.51,1.51,0,0,0,.1,3c.58.13,1.18-.68.41-.85Z"/></svg>