<svg id="Layer_1" data-name="Layer 1" xmlns="http://www.w3.org/2000/svg" viewBox="0 0 17.24 17.44"><defs><style>.cls-1{fill:#faaf40;}.cls-2{fill:#231f20;}</style></defs><path class="cls-1" d="M16.33,11.88a.65.65,0,0,0,.91-.55A21.84,21.84,0,0,0,15,1.4a.64.64,0,0,0-1-.12,2.21,2.21,0,0,0-.49.68c-.35-.5-.82-1-1.67-.79-.05,0-.6-.46-.52,0,0,.14,0,0-.1-.06h0C9.87-.2,7.29-.27,5.55.5a.6.6,0,0,0-.28.68c.05.24.09.49.14.73l-.06,0a4.53,4.53,0,0,0-1,.53,1.79,1.79,0,0,0-.87,0,.55.55,0,0,0-.39.38,9.45,9.45,0,0,0-.2,1.28l0,0a.49.49,0,0,0-.46.45c0,.26,0,.54-.06.81a7.55,7.55,0,0,0-.2,3.2,8,8,0,0,0,1.32,3.18,6,6,0,0,0,.66,1,1.72,1.72,0,0,0,.93,1c1.55,3.25,5.82,3.69,8.71,1.66a6.92,6.92,0,0,0,2.57-3.59m-10.5.48A20.93,20.93,0,0,0,5,6.65a3.31,3.31,0,0,1,.29-.56l.18.57c.28,1.87.27,3.81.7,5.65a.84.84,0,0,1-.31,0m2.67-7c0-.53,0-1.06.1-1.6l.21,0A13.14,13.14,0,0,0,9,5.79c.09.79.17,1.58.27,2.36l-.09,0L9,8c-.07-.42-.14-.85-.2-1.27s-.16-1-.25-1.41m2.87,3.8a37.88,37.88,0,0,0-.92-4.58,6.14,6.14,0,0,1,.69,1c0,1.21.11,2.43.24,3.64,0,0,0,0,0-.06M9.46,10l.15,1a1.63,1.63,0,0,1-.25.1c0-.43-.08-.85-.14-1.28l.24.2M4.23,5.21a4.47,4.47,0,0,0-.34-.4s0-.06,0-.07c.3-1,.57-.74.8-.22a4.43,4.43,0,0,0-.47.69m9.87,5.52a5.36,5.36,0,0,1-1.21-3.26.76.76,0,0,0,0-.15V7.2a9.21,9.21,0,0,0,1,2c.06.52.13,1,.2,1.55l0,0m-5.95,3a.55.55,0,0,0,.14.25,4.88,4.88,0,0,1-.55-.12,6.48,6.48,0,0,0,.14-1.31c.08.4.17.79.27,1.18m6.37-.83a5.22,5.22,0,0,1-1.31,1.39c0-.94-.05-1.89-.11-2.83a4.69,4.69,0,0,0,.63.63.66.66,0,0,0,.61.14l.06.33a.53.53,0,0,0,.14.29l0,0m-2.16,1.93a6.51,6.51,0,0,1-.76.34.5.5,0,0,0,.08-.12,3.83,3.83,0,0,0,.28-.93,1.23,1.23,0,0,0,0,.19.58.58,0,0,0,.38.52m-4.91.08a3.52,3.52,0,0,1-1-.9,5.52,5.52,0,0,0,2.56.66.31.31,0,0,0,0-.61H9a.67.67,0,0,0,.33-.49c0-.31,0-.63.05-.93l0,0a1.94,1.94,0,0,0,.48,0c.16.75.35,1.5.58,2.25a.72.72,0,0,0,.54.44,4.61,4.61,0,0,1-3.6-.43M6.56,1.4a3.38,3.38,0,0,1,2.57.14l-.22.1h0a1.45,1.45,0,0,0-.65.18,4.72,4.72,0,0,0-1.63-.17c0-.08,0-.17-.05-.25m7.93,2.31a3.09,3.09,0,0,1,0-.53c.09.23.18.46.26.7a1.61,1.61,0,0,0-.28-.17"/><path class="cls-2" d="M8,13.72c-.54-.07-.73-.37-.56-.91l1,.41c.34.58.07,1-.81,1.31-1.63.18-2.1-1.47-1.56-2.7C7,9.7,9.29,10.31,10,12a2.76,2.76,0,0,1-1,3.2c-2.45,1.88-5.21-2.51-5.29-4.49-.14-3.63,5-3.76,7.1-2s2.35,5.29.15,7c-3.34,2.6-8.31,0-9.43-3.59C0,7.24,3.22,3.27,8.24,3.72c8.23.75,6.88,12.74-.94,12.83-.66,0-.9.86-.1.85,5.93-.06,10.41-6.92,6.54-12C11.82,2.82,7.89,2.44,5,3.13c-3.5.83-5.3,4-5,7.43a7,7,0,0,0,6.08,6.76c2.7.46,5.88-.35,7.16-3,2.61-5.35-4.7-9.61-9-6.63C.78,10.15,3.14,15.2,6.6,16.3a3.77,3.77,0,0,0,4.33-1.78c1-2.14-.11-4.92-2.66-5C6.07,9.47,4,12,4.82,14.05c.58,1.55,3.43,1.81,4.49.67a1.93,1.93,0,0,0-1.79-3.13,1.51,1.51,0,0,0,.1,3c.58.13,1.18-.68.41-.85Z"/></svg>