<svg id="ss-fb" xmlns="http://www.w3.org/2000/svg" width="6.638" height="12.918" viewBox="0 0 6.638 12.918">
  <path id="Path_2245" data-name="Path 2245" d="M262.689,2677.711l-.262,2.166c-.068,0-.129.01-.189.01h-1.505c-.232,0-.232,0-.232.22v5.934c0,.054,0,.109,0,.166,0,.092-.044.125-.134.125q-1.312,0-2.623,0c-.12,0-.136-.06-.136-.155q0-.612,0-1.223c0-1.626,0-3.25,0-4.876,0-.15-.038-.2-.2-.193-.393.01-.789,0-1.184,0-.12,0-.171-.031-.171-.155q.008-.934,0-1.868c0-.126.054-.157.173-.155.407.007.812,0,1.219.005.129,0,.162-.04.161-.16-.005-.469-.019-.938,0-1.4a4.907,4.907,0,0,1,.143-1.01,2.131,2.131,0,0,1,1.743-1.585,5.6,5.6,0,0,1,1.051-.132c.655-.021,1.308,0,1.963-.01.147,0,.183.054.182.184,0,.611,0,1.224,0,1.834,0,.14-.054.181-.19.179-.412,0-.824,0-1.234.007a1.381,1.381,0,0,0-.3.041.549.549,0,0,0-.463.554c-.01.457,0,.915-.009,1.372,0,.123.065.128.159.128.6,0,1.207,0,1.811,0Z" transform="translate(-256.058 -2673.413)" fill="#fff"/>
</svg>
