<svg id="ss-in" xmlns="http://www.w3.org/2000/svg" width="13.105" height="12.831" viewBox="0 0 13.105 12.831">
  <path id="Path_2249" data-name="Path 2249" d="M288.278,2677.09a4.032,4.032,0,0,1,3.815-1.215,2.645,2.645,0,0,1,2.233,2.588c.038,2,.009,4,.017,6,0,.286-.129.347-.381.344-.676-.011-1.35-.018-2.025,0-.335.011-.416-.127-.414-.435.012-1.44.009-2.881,0-4.322a2.7,2.7,0,0,0-.08-.691,1.362,1.362,0,0,0-2.177-.889,1.764,1.764,0,0,0-1,1.678c.016,1.388-.007,2.778.01,4.166.005.361-.079.51-.47.491a17.533,17.533,0,0,0-1.868,0c-.405.021-.466-.156-.466-.5.009-2.324,0-4.648,0-6.971,0-.389.009-.779,0-1.168-.005-.257.08-.374.36-.368.7.016,1.4.014,2.1,0,.25,0,.354.084.342.339C288.267,2676.423,288.278,2676.708,288.278,2677.09Z" transform="translate(-281.241 -2671.977)" fill="#fff"/>
  <path id="Path_2250" data-name="Path 2250" d="M286.047,2680.3c0,1.362-.009,2.722.005,4.084,0,.319-.094.433-.419.422-.672-.021-1.348-.016-2.022,0-.267,0-.37-.089-.37-.358q.005-4.143-.005-8.285c0-.267.1-.365.37-.36.674.014,1.35.022,2.022,0,.361-.014.431.134.428.456-.014,1.348-.005,2.7-.005,4.046Z" transform="translate(-282.913 -2671.978)" fill="#fff"/>
  <path id="Path_2251" data-name="Path 2251" d="M284.778,2673.438a1.728,1.728,0,1,1,0,3.456,1.762,1.762,0,0,1-1.725-1.713A1.739,1.739,0,0,1,284.778,2673.438Z" transform="translate(-283.051 -2673.438)" fill="#fff"/>
</svg>
