<svg id="ss-insta" xmlns="http://www.w3.org/2000/svg" width="13.124" height="12.83" viewBox="0 0 13.124 12.83">
  <path id="Path_2246" data-name="Path 2246" d="M271.58,2673.438h6.406c.134.022.271.036.4.065a3.543,3.543,0,0,1,2.848,2.641c.052.188.072.384.107.575v6.261a1.209,1.209,0,0,1-.024.135,5.92,5.92,0,0,1-.276,1,3.509,3.509,0,0,1-3.338,2.143c-1.947.028-3.9.009-5.842.007a3.554,3.554,0,0,1-2.071-.63,3.461,3.461,0,0,1-1.57-2.977q-.005-2.805,0-5.609a3.442,3.442,0,0,1,.066-.722,3.518,3.518,0,0,1,2.7-2.779C271.182,2673.491,271.382,2673.472,271.58,2673.438Zm-2.195,6.411v2.779a2.492,2.492,0,0,0,.133.862,2.45,2.45,0,0,0,2.392,1.633c1.914,0,3.827.007,5.739-.005a2.85,2.85,0,0,0,.856-.128,2.377,2.377,0,0,0,1.676-2.343c0-1.865.005-3.731-.005-5.6a2.69,2.69,0,0,0-.131-.834,2.424,2.424,0,0,0-2.382-1.641q-2.878,0-5.753,0a2.454,2.454,0,0,0-2.067,1.013,2.365,2.365,0,0,0-.457,1.469C269.387,2677.988,269.385,2678.919,269.385,2679.849Z" transform="translate(-268.22 -2673.438)" fill="#fff"/>
  <path id="Path_2247" data-name="Path 2247" d="M273.426,2681.722a3.235,3.235,0,1,1,3.379-3.236A3.323,3.323,0,0,1,273.426,2681.722Zm2.212-3.228a2.217,2.217,0,1,0-2.218,2.114A2.168,2.168,0,0,0,275.638,2678.494Z" transform="translate(-266.86 -2672.08)" fill="#fff"/>
  <path id="Path_2248" data-name="Path 2248" d="M274.359,2674.7a.85.85,0,1,1-.852.845A.856.856,0,0,1,274.359,2674.7Z" transform="translate(-264.275 -2672.557)" fill="#fff"/>
</svg>
