<svg id="ss-tw" xmlns="http://www.w3.org/2000/svg" width="14.567" height="11.89" viewBox="0 0 14.567 11.89">
  <path id="Path_2252" data-name="Path 2252" d="M328.934,2675.125a3.764,3.764,0,0,1-1.041,1.547c.456-.122.911-.243,1.486-.395a5.292,5.292,0,0,1-.728.849,1.98,1.98,0,0,0-.787,1.634,8.378,8.378,0,0,1-2.776,5.781,8.045,8.045,0,0,1-4.857,2.1,8.524,8.524,0,0,1-5.055-1.067c-.1-.054-.185-.121-.363-.237a6.2,6.2,0,0,0,4.36-1.21,3.121,3.121,0,0,1-2.743-2.088h1.077l.045-.092a3.089,3.089,0,0,1-2.186-2.907c.4.113.76.215,1.116.314l.068-.064a3.156,3.156,0,0,1-.765-3.944,8.676,8.676,0,0,0,6.127,3.143c0-.255,0-.459,0-.665a2.991,2.991,0,0,1,4.936-2.288.576.576,0,0,0,.627.129Z" transform="translate(-314.812 -2674.794)" fill="#fff"/>
</svg>
