<svg id="ss-yt" xmlns="http://www.w3.org/2000/svg" width="17.603" height="11.354" viewBox="0 0 17.603 11.354">
  <path id="Path_2253" data-name="Path 2253" d="M312.112,2686.3H299.961a.807.807,0,0,0-.092-.021,2.957,2.957,0,0,1-1.072-.322,2.713,2.713,0,0,1-1.557-2.512q-.008-2.85,0-5.7a2.618,2.618,0,0,1,.119-.789,2.851,2.851,0,0,1,2.233-1.947c.12-.026.244-.043.367-.064h12.151a1,1,0,0,0,.1.021,3.066,3.066,0,0,1,.955.268,2.8,2.8,0,0,1,1.613,1.985c.021.093.037.187.054.281v6.246c-.009.035-.016.07-.024.1a4.165,4.165,0,0,1-.159.609,2.891,2.891,0,0,1-2.291,1.8C312.279,2686.274,312.2,2686.287,312.112,2686.3Zm-2.328-5.688-5.982-3.427v6.893C305.8,2682.92,307.778,2681.776,309.784,2680.613Z" transform="translate(-297.235 -2674.947)" fill="#fff"/>
</svg>
