<svg id="Layer_1" data-name="Layer 1" xmlns="http://www.w3.org/2000/svg" viewBox="0 0 100 100"><defs><style>.cls-1{fill:#528ac9;}.cls-2{fill:#231f20;opacity:0.4;}.cls-3,.cls-4{fill:#fff;}.cls-3{stroke:#fff;stroke-miterlimit:10;stroke-width:0.1px;}</style></defs><title>Icons</title><rect class="cls-1" y="0.2" width="99.8" height="99.8"/><rect class="cls-2" width="99.8" height="99.8"/><path class="cls-3" d="M13.26,50.88q0-14.44,0-28.87A5.52,5.52,0,0,1,17.1,16.6a6.58,6.58,0,0,1,2.07-.31q14.43,0,28.87,0a.71.71,0,0,0,.75-.46c.47-1,1-2,1.5-3a5.66,5.66,0,0,1,7.87-2.53q8,4.06,15.92,8.08,8.22,4.17,16.44,8.34A5.62,5.62,0,0,1,93,34.34c-2.12,4.23-4.28,8.45-6.42,12.68Q77.25,65.4,67.94,83.77a27.52,27.52,0,0,1-1.56,2.88,5.55,5.55,0,0,1-7.15,1.78c-1.82-.92-3.63-1.85-5.46-2.76a2.16,2.16,0,0,0-.9-.21H19.05a5.63,5.63,0,0,1-5.72-4.72,7.58,7.58,0,0,1-.07-1.17Q13.25,65.22,13.26,50.88Zm45,0v-29a2.81,2.81,0,0,0-2.84-2.73H18.91a3.42,3.42,0,0,0-.71.07,2.82,2.82,0,0,0-2.12,2.92V79.64a2.79,2.79,0,0,0,2.88,3H55.35a3.13,3.13,0,0,0,.75-.08,2.83,2.83,0,0,0,2.13-2.92Zm0,33.84c.81.42,1.55.8,2.3,1.17a2.8,2.8,0,0,0,3.86-1.29L77,59.56,90.28,33.45c1-1.92.48-3.41-1.45-4.38s-4.14-2.1-6.22-3.15L65.13,17.06l-8.42-4.27a2.67,2.67,0,0,0-3.42.66,26.16,26.16,0,0,0-1.6,2.83h3.54a5.63,5.63,0,0,1,5.82,5.83V79.69A6.54,6.54,0,0,1,61,80.77,5.7,5.7,0,0,1,58.18,84.71Z"/><path class="cls-4" d="M73.25,47.08A1.42,1.42,0,0,1,72,46.25c-.78-1.44-1.55-2.88-2.36-4.3A1.79,1.79,0,0,0,69,41.3q-2.1-1.19-4.22-2.31a1.47,1.47,0,0,1,0-2.75c1.43-.77,2.85-1.54,4.26-2.34a1.53,1.53,0,0,0,.55-.55c.8-1.42,1.58-2.86,2.35-4.3a1.45,1.45,0,0,1,1.32-.85,1.43,1.43,0,0,1,1.37.84c.78,1.46,1.57,2.9,2.38,4.34a1.44,1.44,0,0,0,.52.52c1.43.8,2.86,1.59,4.3,2.35a1.5,1.5,0,0,1,.93,1.38A1.47,1.47,0,0,1,81.87,39c-1.4.75-2.8,1.51-4.18,2.3A2,2,0,0,0,77,42c-.8,1.4-1.57,2.83-2.34,4.25A1.45,1.45,0,0,1,73.25,47.08Zm-5-9.47c.66.36,1.21.72,1.81,1a4.12,4.12,0,0,1,2.29,2.27,19.88,19.88,0,0,0,1,1.84c.53-1,1-1.88,1.52-2.75a2.66,2.66,0,0,1,.84-.83c.77-.48,1.59-.89,2.39-1.33a2.09,2.09,0,0,0,.3-.21c-.92-.5-1.8-1-2.64-1.47a3,3,0,0,1-.93-.92c-.52-.85-1-1.75-1.48-2.68-.52.95-1,1.86-1.51,2.73a2.75,2.75,0,0,1-.87.86C70.08,36.63,69.18,37.08,68.21,37.61Z"/><path class="cls-4" d="M37.54,62.49a1.76,1.76,0,0,1-1.56-1C35,59.66,34,57.87,33,56.09a2.17,2.17,0,0,0-.79-.8Q29.63,53.8,27,52.4a1.91,1.91,0,0,1-1.19-1.69A1.88,1.88,0,0,1,27,49q2.67-1.42,5.31-2.91a1.88,1.88,0,0,0,.68-.69q1.5-2.65,2.93-5.36A1.81,1.81,0,0,1,37.57,39a1.79,1.79,0,0,1,1.71,1q1.45,2.73,3,5.41a1.76,1.76,0,0,0,.65.65c1.77,1,3.56,2,5.35,2.93a1.82,1.82,0,0,1,0,3.38c-1.75.93-3.49,1.87-5.21,2.86a2.41,2.41,0,0,0-.91.91c-1,1.75-2,3.53-2.92,5.3A1.82,1.82,0,0,1,37.54,62.49Zm-6.29-11.8c.82.45,1.51.89,2.26,1.22a5.17,5.17,0,0,1,2.85,2.83A25.07,25.07,0,0,0,37.61,57c.66-1.21,1.23-2.34,1.89-3.42a3.26,3.26,0,0,1,1-1c1-.6,2-1.11,3-1.66a3.75,3.75,0,0,0,.38-.26c-1.15-.63-2.26-1.18-3.3-1.83a3.64,3.64,0,0,1-1.15-1.16c-.66-1.06-1.22-2.18-1.86-3.33-.64,1.18-1.22,2.31-1.88,3.39a3.38,3.38,0,0,1-1.08,1.08C33.57,49.46,32.46,50,31.25,50.69Z"/></svg>