<svg id="Layer_1" data-name="Layer 1" xmlns="http://www.w3.org/2000/svg" viewBox="0 0 50 50"><defs><style>.cls-1{fill:#2b3990;}</style></defs><title>therapy icon</title><path class="cls-1" d="M25.58,44c-1.71,0-3.43-.06-5.15,0-1,0-1.33-.33-1.48-1.23a19.11,19.11,0,0,0-.73-2.89,2,2,0,0,0-2.35-1.69c-1.09,0-2.18.15-3.27.19-2.16.08-2.84-.52-3.1-2.69-.08-.71-.17-1.42-.25-2.14a3.88,3.88,0,0,0-1.9-3c-1-.58-1-1.21-.25-2.09C8.15,27.23,9.22,26,9.26,24.31a24.56,24.56,0,0,0-.11-2.71A10.21,10.21,0,0,1,15.6,11.3a39.87,39.87,0,0,1,5-1.4,1.42,1.42,0,0,0,.74-.41,3.72,3.72,0,0,1,6.2,0c2.39,3.39,4.65,6.87,6.85,10.38a12.7,12.7,0,0,1,1.8,5.65,10.31,10.31,0,0,1-3.92,9.24,2.08,2.08,0,0,0-.7,1.3A19.13,19.13,0,0,0,32,42.8c.24.87,0,1.2-1,1.2H25.58Zm.77-27.65c.8,0,1,.19,1.63,1.18a24.71,24.71,0,0,1,3.48,10.74c.22,1.87.25,3.76.37,5.77a9.27,9.27,0,0,0,3.58-6.27,12.42,12.42,0,0,0-2-8c-2.06-3.33-4.3-6.57-6.51-9.81a3,3,0,0,0-3.74-1c-1.22.56-1.58,1.7-1.36,3.33.31,2.22.51,4.45.64,6.69.07,1.36-.18,2.74-.11,4.11a12.83,12.83,0,0,0,3.57,8.89,9.18,9.18,0,0,0,5,2.53C31,28,30.2,21.8,26.35,16.36Zm2.45,22.3c-.68-1.58-1.42-3-2.93-3.67a1.48,1.48,0,0,0-1.4.19,2,2,0,0,0-.15,1.5,2,2,0,0,0,.83,1A6.24,6.24,0,0,0,28.8,38.66Z"/><path class="cls-1" d="M42.58,16.38c0-1.89-1.36-2.69-2.84-1.77a17.92,17.92,0,0,0-2.36,2.1c-.76.7-1.5,1.41-2.29,2.07-.13.11-.43,0-.66,0,.06-.21,0-.49.17-.62,1.15-1.15,2.29-2.3,3.5-3.37A6,6,0,0,1,40,13.64a2.47,2.47,0,0,1,3.42,2.78c-.23,1.6-.64,3.18-.84,4.78-.25,2-.26,4.11-.59,6.14-.74,4.59-4.45,7.56-8.92,8.4-.26,0-.56-.18-.84-.27A2.37,2.37,0,0,1,33,35c5.42-1.11,8.34-4.75,8.5-10.26a65,65,0,0,1,.95-7C42.48,17.18,42.55,16.65,42.58,16.38Z"/><path class="cls-1" d="M36.93,37c1.23,0,2,1.11,1.44,1.93a4,4,0,0,1-1.57,1.39,15.7,15.7,0,0,0-3.4,1.89c-.2.16-.59.08-.89.11.15-.25.25-.59.47-.73a4.5,4.5,0,0,0,1.9-2.22A6.22,6.22,0,0,1,36,37.59,2.88,2.88,0,0,1,36.93,37Zm-1.48,2.81.29.26a17.24,17.24,0,0,0,1.77-1.27c.15-.13,0-.58,0-.88-.28,0-.68,0-.82.12C36.24,38.6,35.86,39.22,35.45,39.82Z"/><path class="cls-1" d="M18.3,6c.09.09.56.34.59.64A1.55,1.55,0,0,1,17.15,8.2c-.33,0-.89-.34-.91-.57C16.15,6.7,17,6,18.3,6Z"/><path class="cls-1" d="M34.21,12.78c-1.3,0-2.12-.78-2.07-1.67,0-.73.67-.53,1.06-.55a1.55,1.55,0,0,1,1.65,1.61C34.82,12.46,34.31,12.69,34.21,12.78Z"/></svg>