<svg id="Layer_1" data-name="Layer 1" xmlns="http://www.w3.org/2000/svg" xmlns:xlink="http://www.w3.org/1999/xlink" viewBox="0 0 50 50"><defs><style>.cls-1{fill:none;}.cls-2{fill:#8f6bdd;}.cls-3{fill:#ff5a9a;}.cls-4{clip-path:url(#clip-path);}.cls-5{fill:#ffc751;}.cls-6{fill:#ffde55;}</style><clipPath id="clip-path"><rect class="cls-1" x="0.1" width="49.8" height="50"/></clipPath></defs><title>Thriive-Icons</title><path class="cls-2" d="M49.82,10.73a10.74,10.74,0,0,1-2.37,6.72,1.5,1.5,0,1,1-2.34-1.89,7.63,7.63,0,0,0,1.7-4.83,7.72,7.72,0,1,0-7.72,7.72,1.51,1.51,0,0,1,0,3A10.73,10.73,0,1,1,49.82,10.73Zm0,0"/><path class="cls-3" d="M37.81,13.44H42a1.51,1.51,0,0,1,0,3H36.22a1.5,1.5,0,0,1-1.5-1.5V14A4.81,4.81,0,0,1,39.09,9.2a3.1,3.1,0,0,1,.43,0h.59a.34.34,0,0,0,.34-.34V8.25a.34.34,0,0,0-.34-.33H36.22a1.51,1.51,0,0,1,0-3h3.89a3.34,3.34,0,0,1,3.34,3.34v.59a3.33,3.33,0,0,1-3.34,3.34h-.59a1.54,1.54,0,0,0-.43.06,1.78,1.78,0,0,0-1.28,1.2Zm0,0"/><g class="cls-4"><path class="cls-5" d="M3.27,12.25A7.64,7.64,0,0,1,4.92,5.74,1.5,1.5,0,0,0,2.62,3.8a10.62,10.62,0,0,0-2.3,9.06,1.51,1.51,0,0,0,3-.61Zm0,0"/></g><path class="cls-6" d="M17.39,19.09a10.69,10.69,0,0,1-14.21-.9,1.5,1.5,0,1,1,2.14-2.11,7.69,7.69,0,0,0,10.21.65,1.5,1.5,0,1,1,1.86,2.36Zm0,0"/><path class="cls-5" d="M21,13.91A1.51,1.51,0,0,1,18.11,13,7.69,7.69,0,0,0,11,3h-.25a1.51,1.51,0,1,1,0-3H11A10.71,10.71,0,0,1,21,13.91Zm0,0"/><path class="cls-2" d="M14.58,10.69a3.53,3.53,0,0,1,.67,2.07,3.59,3.59,0,0,1-3.58,3.58H8.35a1.51,1.51,0,1,1,0-3h3.32a.57.57,0,0,0,0-1.14H8.35a1.51,1.51,0,1,1,0-3h3.32a.57.57,0,0,0,.57-.57A.58.58,0,0,0,11.67,8H8.35a1.5,1.5,0,1,1,0-3h3.32a3.57,3.57,0,0,1,2.91,5.65Zm0,0"/><path class="cls-3" d="M35.94,45.45a1.5,1.5,0,0,1-2.13-2.12A12.52,12.52,0,0,0,25,22h0a12.52,12.52,0,0,0,0,25h.43a1.5,1.5,0,1,1,.09,3h-.52a15.53,15.53,0,1,1,11-4.55Zm0,0"/><path class="cls-3" d="M29,39.13a1.51,1.51,0,0,1-1.5,1.51H22.34a1.51,1.51,0,1,1,0-3h1.11v-5l-.23.17a1.51,1.51,0,0,1-1.76-2.45l2.62-1.88a1.52,1.52,0,0,1,1.56-.12,1.5,1.5,0,0,1,.82,1.34v7.92h1a1.5,1.5,0,0,1,1.5,1.5Zm0,0"/><path class="cls-3" d="M7.37,24.64a1.5,1.5,0,0,0-2.13,2.12L6.52,28a1.5,1.5,0,1,0,2.12-2.13Zm0,0"/><path class="cls-3" d="M6.52,41.84,5.35,43a1.5,1.5,0,0,0,2.13,2.12L8.64,44a1.5,1.5,0,0,0-2.12-2.13Zm0,0"/><path class="cls-2" d="M43.4,28l1.27-1.28a1.5,1.5,0,0,0-2.12-2.12l-1.28,1.27A1.51,1.51,0,1,0,43.4,28Zm0,0"/><path class="cls-2" d="M43.4,41.84a1.5,1.5,0,0,0-2.13,0,1.52,1.52,0,0,0,0,2.13l1.17,1.16A1.5,1.5,0,0,0,44.57,43Zm0,0"/><path class="cls-3" d="M48.6,34.91a1.52,1.52,0,0,1-1.51,1.51H43.74a1.51,1.51,0,1,1,0-3h3.35a1.51,1.51,0,0,1,1.51,1.5Zm0,0"/><path class="cls-2" d="M7.68,34.91a1.51,1.51,0,0,1-1.5,1.51H2.83a1.51,1.51,0,1,1,0-3H6.18a1.5,1.5,0,0,1,1.5,1.5Zm0,0"/></svg>