<svg id="Layer_1" data-name="Layer 1" xmlns="http://www.w3.org/2000/svg" xmlns:xlink="http://www.w3.org/1999/xlink" viewBox="0 0 50 50"><defs><style>.cls-1{fill:none;}.cls-2{fill:#d60000;}.cls-3{fill:#7c1616;}.cls-4{fill:#ff7f00;}.cls-5{fill:#ff4800;}.cls-6{fill:#b0b9bf;}.cls-7{fill:#96a3aa;}.cls-8{clip-path:url(#clip-path);}</style><clipPath id="clip-path"><rect class="cls-1" x="1.48" width="47.04" height="50"/></clipPath></defs><title>Thriive-Icons</title><path class="cls-2" d="M29.72,28.91l-16.87,9,9-16.88,16.88-9Zm0,0"/><polyline class="cls-3" points="38.74 12.03 29.72 28.91 12.85 37.93"/><path class="cls-3" d="M21.86,28.91,12.84,12l16.88,9,9,16.88Zm0,0"/><polyline class="cls-2" points="38.74 37.93 21.86 28.91 12.84 12.03"/><path class="cls-4" d="M31.35,25,25.79,43.29,20.23,25,25.79,6.67Zm0,0"/><path class="cls-4" d="M25.79,30.54,7.48,25l18.31-5.56L44.1,25Zm0,0"/><polyline class="cls-5" points="44.1 24.98 25.79 30.54 7.48 24.98"/><polyline class="cls-5" points="25.79 6.67 31.35 24.98 25.79 43.29"/><path class="cls-6" d="M41.23,10.36a.82.82,0,1,1-.82-.82.82.82,0,0,1,.82.82Zm0,0"/><path class="cls-6" d="M12,39.59a.82.82,0,1,1-1.64,0,.82.82,0,0,1,1.64,0Zm0,0"/><path class="cls-6" d="M41.23,39.59a.82.82,0,0,1-1.64,0,.82.82,0,0,1,1.64,0Zm0,0"/><path class="cls-6" d="M12,10.36a.82.82,0,1,1-1.64,0,.82.82,0,0,1,1.64,0Zm0,0"/><path class="cls-6" d="M16.28,7.08a.83.83,0,1,1-.82-.82.82.82,0,0,1,.82.82Zm0,0"/><path class="cls-6" d="M37,42.88a.83.83,0,1,1-.82-.82.82.82,0,0,1,.82.82Zm0,0"/><path class="cls-6" d="M32,5a.82.82,0,1,1-.82-.82A.82.82,0,0,1,32,5Zm0,0"/><path class="cls-6" d="M21.24,45.16a.82.82,0,1,1-.58-1,.82.82,0,0,1,.58,1Zm0,0"/><path class="cls-6" d="M44.52,14.64a.83.83,0,1,1-.82-.82.83.83,0,0,1,.82.82Zm0,0"/><path class="cls-6" d="M8.3,36a.82.82,0,1,1,.31-1.13A.83.83,0,0,1,8.3,36Zm0,0"/><path class="cls-6" d="M46.58,30.33a.83.83,0,1,1-.82-.83.82.82,0,0,1,.82.83Zm0,0"/><path class="cls-6" d="M5.62,20.42a.81.81,0,0,1-.59-1,.82.82,0,0,1,1-.57.81.81,0,0,1,.58,1,.82.82,0,0,1-1,.58Zm0,0"/><path class="cls-6" d="M8.71,14.64a.82.82,0,1,1-.82-.82.82.82,0,0,1,.82.82Zm0,0"/><path class="cls-6" d="M44.52,35.31a.83.83,0,1,1-.82-.82.83.83,0,0,1,.82.82Zm0,0"/><path class="cls-6" d="M21.24,4.8a.82.82,0,1,1-1-.58.83.83,0,0,1,1,.58Zm0,0"/><path class="cls-6" d="M32,45a.82.82,0,1,1-.82-.82A.82.82,0,0,1,32,45Zm0,0"/><path class="cls-6" d="M36.84,7.49a.83.83,0,0,1-1.13.3.82.82,0,1,1,1.13-.3Zm0,0"/><path class="cls-6" d="M16.17,43.29a.82.82,0,1,1-.3-1.12.82.82,0,0,1,.3,1.12Zm0,0"/><path class="cls-6" d="M46,20.42a.82.82,0,1,1,.58-1,.81.81,0,0,1-.58,1Zm0,0"/><path class="cls-6" d="M6,31.12a.82.82,0,0,1-1-.58.82.82,0,1,1,1,.58Zm0,0"/><path class="cls-7" d="M27.42.08h-.53a.29.29,0,0,0-.29.29V2.71c-.06-.1-.12-.21-.19-.31L25,.21a.31.31,0,0,0-.25-.13h-.61a.29.29,0,0,0-.29.29V4.69a.29.29,0,0,0,.29.29h.53A.29.29,0,0,0,25,4.69V2.84c0-.21,0-.41,0-.59l.25.4L26.6,4.84a.3.3,0,0,0,.25.14h.57a.3.3,0,0,0,.29-.29V.37a.3.3,0,0,0-.29-.29Zm0,0"/><g class="cls-8"><path class="cls-7" d="M27,48.83H25.43v-1h1.39a.29.29,0,0,0,.29-.3V47.1a.29.29,0,0,0-.29-.29H25.43V46h1.48a.29.29,0,0,0,.29-.29v-.47a.29.29,0,0,0-.29-.29H24.58a.29.29,0,0,0-.29.29v4.32a.29.29,0,0,0,.29.29H27a.29.29,0,0,0,.29-.29v-.47a.29.29,0,0,0-.29-.29Zm0,0"/><path class="cls-7" d="M7.05,22.53H6.48a.29.29,0,0,0-.28.22l-.57,2.18,0,.07,0,.13a1.05,1.05,0,0,1,0-.19L5,22.75a.3.3,0,0,0-.29-.22H4.14a.29.29,0,0,0-.28.22l-.58,2.17c0,.09,0,.17-.07.25,0-.07,0-.15,0-.23l-.51-2.19a.29.29,0,0,0-.29-.22H1.77a.3.3,0,0,0-.23.11.31.31,0,0,0-.05.25l1.1,4.32a.29.29,0,0,0,.28.22h.58a.29.29,0,0,0,.28-.21L4.35,25l0-.13,0,.12L5,27.21a.29.29,0,0,0,.28.22h.58a.28.28,0,0,0,.28-.21L7.33,22.9a.31.31,0,0,0,0-.26.28.28,0,0,0-.23-.11Zm0,0"/></g><path class="cls-7" d="M47.17,24.42c-.63-.24-.67-.38-.67-.56s.13-.36.52-.36a1.48,1.48,0,0,1,.68.17.28.28,0,0,0,.25,0,.3.3,0,0,0,.17-.18l.15-.45a.29.29,0,0,0-.13-.35,2.3,2.3,0,0,0-1.1-.25,1.54,1.54,0,0,0-1.69,1.46c0,1,1,1.39,1.33,1.5.58.23.62.39.62.59,0,.4-.42.44-.61.44a1.66,1.66,0,0,1-.84-.23.3.3,0,0,0-.26,0,.31.31,0,0,0-.18.19l-.14.47a.29.29,0,0,0,.12.32,2.45,2.45,0,0,0,1.26.33A1.59,1.59,0,0,0,48.46,26a1.66,1.66,0,0,0-1.29-1.54Zm0,0"/></svg>