<svg id="Layer_1" data-name="Layer 1" xmlns="http://www.w3.org/2000/svg" viewBox="0 0 50 50"><defs><style>.cls-1{fill:#ff5a9a;}.cls-2{fill:#fff;}.cls-3{fill:#8f6bdd;}</style></defs><title>Thriive-Icons</title><path class="cls-1" d="M46.43,42.25H15.86V0H46.43ZM17.32,40.8H45V1.46H17.32Z"/><path class="cls-1" d="M31.11,31.11a9.79,9.79,0,1,1,9.78-9.79A9.8,9.8,0,0,1,31.11,31.11Zm0-18.12a8.33,8.33,0,1,0,8.33,8.33A8.34,8.34,0,0,0,31.11,13Z"/><path class="cls-1" d="M34.39,25.85l-3.28-1.07-3.28,1.07V22.4l-2-2.79,3.28-1.07,2-2.79,2,2.79,3.27,1.07-2,2.79Zm-3.28-2.6,1.82.59V21.92l1.13-1.55-1.82-.59-1.13-1.56L30,19.78l-1.83.59,1.13,1.55v1.92Z"/><path class="cls-1" d="M16.59,9.37h-.73V0h9.37V.73A8.66,8.66,0,0,1,16.59,9.37Zm.73-7.91V7.88a7.2,7.2,0,0,0,6.42-6.42Z"/><path class="cls-1" d="M46.43,9.37H45.7A8.65,8.65,0,0,1,37.07.73V0h9.36ZM38.56,1.46A7.22,7.22,0,0,0,45,7.88V1.46Z"/><path class="cls-1" d="M25.24,42.25H15.86v-9.2h.73a8.7,8.7,0,0,1,8.64,8.46ZM17.32,40.8h6.39a7.23,7.23,0,0,0-6.39-6.26Z"/><path class="cls-1" d="M46.43,42.25H37.06v-.74a8.7,8.7,0,0,1,8.63-8.46h.73ZM38.58,40.8H45V34.55A7.24,7.24,0,0,0,38.58,40.8Z"/><rect class="cls-2" x="4.3" y="8.48" width="29.11" height="40.8"/><path class="cls-3" d="M34.14,50H3.57V7.75H34.14ZM5,48.54H32.68V9.2H5Z"/><path class="cls-3" d="M18.82,38.85a9.79,9.79,0,1,1,9.78-9.78A9.8,9.8,0,0,1,18.82,38.85Zm0-18.11a8.33,8.33,0,1,0,8.33,8.33A8.33,8.33,0,0,0,18.82,20.74Z"/><path class="cls-3" d="M22.1,33.59l-3.28-1.06-3.28,1.06V30.14l-2-2.79,3.28-1.07,2-2.78,2,2.78,3.27,1.07-2,2.79Zm-6.24-5.47L17,29.67v1.92L18.82,31l1.82.59V29.67l1.12-1.55L20,27.52,18.82,26l-1.13,1.55Z"/><path class="cls-3" d="M4.3,17.12H3.57V7.75h9.37v.73A8.66,8.66,0,0,1,4.3,17.12ZM5,9.2v6.42A7.19,7.19,0,0,0,11.45,9.2Z"/><path class="cls-3" d="M34.14,17.12h-.73a8.66,8.66,0,0,1-8.63-8.64V7.75h9.36ZM26.27,9.2a7.2,7.2,0,0,0,6.41,6.42V9.2Z"/><path class="cls-3" d="M13,50H3.57V40.8H4.3a8.69,8.69,0,0,1,8.64,8.46ZM5,48.54h6.4A7.24,7.24,0,0,0,5,42.29Z"/><path class="cls-3" d="M34.14,50H24.77v-.74a8.69,8.69,0,0,1,8.63-8.46h.73Zm-7.85-1.46h6.39V42.29A7.26,7.26,0,0,0,26.29,48.54Z"/></svg>