<svg id="Layer_1" data-name="Layer 1" xmlns="http://www.w3.org/2000/svg" xmlns:xlink="http://www.w3.org/1999/xlink" viewBox="0 0 50 50"><defs><style>.cls-1{fill:none;}.cls-2{fill:#fe2544;}.cls-3{fill:#b6f0ff;}.cls-4{fill:#e00e36;}.cls-5{fill:#5cceff;}.cls-6{clip-path:url(#clip-path);}.cls-7{fill:#c4002f;}.cls-8{fill:#dcfeff;}.cls-9{fill:#73e1ff;}.cls-10{fill:#fc708a;}.cls-11{fill:#f7a6b7;}</style><clipPath id="clip-path"><rect class="cls-1" x="0.53" y="1.29" width="48.95" height="47.42"/></clipPath></defs><title>Thriive-Icons</title><path class="cls-2" d="M12.84,48.65a3,3,0,0,1-2.57-1.19c-1.18-1.57-.83-4.35.84-6.59a16.56,16.56,0,0,1,4.52-3.67c3-1.92,5.82-3.73,5.19-7.28a.47.47,0,0,1,.38-.55.48.48,0,0,1,.56.39C22.5,33.93,19.27,36,16.15,38a16.06,16.06,0,0,0-4.28,3.43c-1.39,1.88-1.75,4.23-.83,5.45.66.89,2,1,3.66.42a2.76,2.76,0,0,0,2-2.16,1.68,1.68,0,0,0-.53-1.59,1.39,1.39,0,0,0-1.47,0,.48.48,0,0,1-.64-.23.48.48,0,0,1,.24-.63,2.32,2.32,0,0,1,2.45.11,2.62,2.62,0,0,1,.89,2.5A3.76,3.76,0,0,1,15,48.21a6.31,6.31,0,0,1-2.19.44Zm0,0"/><path class="cls-3" d="M36.83,48.34c-4.72,0-10.28-1.67-12.92-5l0,0a60.65,60.65,0,0,1-10.71,2.48c-1.6.28-3.58.42-4.74-1a2.8,2.8,0,0,1,0-3.55.53.53,0,0,1,.8.69,1.76,1.76,0,0,0,0,2.18c.81,1,2.44.82,3.76.59h0a57.82,57.82,0,0,0,10.22-2.34A7.7,7.7,0,0,1,23,35.68c.45-1.25,1.16-2,2-2.15a.53.53,0,1,1,.18,1c-.62.1-1,.86-1.23,1.48a6.51,6.51,0,0,0,.37,6.05l.5-.15c5.88-1.79,12-3.64,18.13-2.81h0c1.74.32,3.82,1.44,3.92,3.52v.08a5.18,5.18,0,0,1-3,4,13.66,13.66,0,0,1-4.79,1.45,17.24,17.24,0,0,1-2.31.15ZM25,43c2.94,3.32,9.47,4.74,14,4.15,5.88-.75,6.72-3.57,6.84-4.48-.07-.91-.9-2.09-3.05-2.49-5.94-.79-11.91,1-17.68,2.78L25,43Zm0,0"/><path class="cls-4" d="M11.13,47a4.89,4.89,0,0,1-1.21-.15,4,4,0,0,1-.32-1.27,2.56,2.56,0,0,0,1,.33,2.38,2.38,0,0,0,.43,1l.09.12Zm0,0"/><path class="cls-5" d="M26.4,35.24l-.95-2.58-2.74.24a.77.77,0,0,0-.35,1.41l2.91,1.85a.77.77,0,0,0,1.13-.92Zm0,0"/><g class="cls-6"><path class="cls-7" d="M23.46,29.4,21,28.25l-1.77,2.11a.76.76,0,0,0,.75,1.24l3.36-.75a.77.77,0,0,0,.16-1.45Zm0,0"/><path class="cls-2" d="M29,2.66A8.64,8.64,0,0,0,17.05,5.44l-1.37,2.2-2.2-1.37A8.65,8.65,0,0,0,1.57,9.05c-2.52,4.06-1,14.2,18.09,20.53a2.1,2.1,0,0,0,2.17-.51C40.91,9.74,29,2.66,29,2.66Zm0,0"/><path class="cls-4" d="M19.66,29.58c-1.27-.44-2.45-.89-3.56-1.34A14.95,14.95,0,0,0,22.78,1.51,8.55,8.55,0,0,1,29,2.66s11.95,7.08-7.13,26.41a2.1,2.1,0,0,1-2.17.51Zm0,0"/><path class="cls-8" d="M49.26,19.06a8.64,8.64,0,0,0-10.67-6l-2.49.7-.7-2.49a8.66,8.66,0,0,0-10.68-6c-4.6,1.29-10.62,8.82-.48,27.35a2.08,2.08,0,0,0,1.94,1.09c27.12-1.4,23.08-14.69,23.08-14.69Zm0,0"/><path class="cls-3" d="M24.24,32.66h0a13.46,13.46,0,0,0,1.69.1A13.8,13.8,0,0,0,38.43,13.12l.16,0a8.64,8.64,0,0,1,10.67,6s4,13.29-23.08,14.69a2.08,2.08,0,0,1-1.94-1.09Zm0,0"/><path class="cls-9" d="M24.24,32.66c-.68-1.24-1.28-2.43-1.82-3.57A15.3,15.3,0,0,0,45.05,15.67a14,14,0,0,0-.13-1.94,8.63,8.63,0,0,1,4.34,5.33s4,13.29-23.08,14.69a2.08,2.08,0,0,1-1.94-1.09Zm0,0"/></g><path class="cls-10" d="M22.22,28.67c-6-13-3.3-18.94-.56-21.52a7.88,7.88,0,0,1,3.06-1.84A8.63,8.63,0,0,1,32,6.53c1.53,3.88,1.15,10.92-9.78,22.14Zm0,0"/><path class="cls-2" d="M14.87,48.24a.47.47,0,0,1-.45-.32.48.48,0,0,1,.28-.61,2.76,2.76,0,0,0,2-2.16,1.68,1.68,0,0,0-.53-1.59,1.39,1.39,0,0,0-1.47,0,.48.48,0,1,1-.4-.87,2.34,2.34,0,0,1,2.45.12,2.62,2.62,0,0,1,.89,2.5A3.76,3.76,0,0,1,15,48.21a.45.45,0,0,1-.16,0Zm0,0"/><path class="cls-9" d="M26,44,25,44.44a9.6,9.6,0,0,1-1-1.08L25,43a7.8,7.8,0,0,0,1,1Zm0,0"/><path class="cls-9" d="M24.31,42.1l-1,.32a7.52,7.52,0,0,1-.64-1.49l1-.2a6.34,6.34,0,0,0,.65,1.37Zm0,0"/><path class="cls-10" d="M1.94,12.51a1.17,1.17,0,0,0,1.15-.89,4.89,4.89,0,0,1,.48-1.26l0,0A6.21,6.21,0,0,1,7.68,7.48a1.17,1.17,0,0,0,.94-1.22v0a1.17,1.17,0,0,0-1.4-1.09A8.61,8.61,0,0,0,1.57,9.05a7.11,7.11,0,0,0-.79,2,1.18,1.18,0,0,0,1.13,1.47Zm0,0"/><path class="cls-11" d="M19.92,15.64A1.18,1.18,0,0,0,21,14.52,8,8,0,0,1,23.3,8.89a6.87,6.87,0,0,1,.87-.69,1.19,1.19,0,0,0,.47-1.4v0a1.18,1.18,0,0,0-1.76-.58,8.61,8.61,0,0,0-1.21,1,10.3,10.3,0,0,0-3,7.27,1.19,1.19,0,0,0,1.28,1.23Zm0,0"/><path class="cls-11" d="M21.22,18.09a1.2,1.2,0,1,1-1.2-1.2,1.2,1.2,0,0,1,1.2,1.2Zm0,0"/></svg>