<svg id="Layer_1" data-name="Layer 1" xmlns="http://www.w3.org/2000/svg" xmlns:xlink="http://www.w3.org/1999/xlink" viewBox="0 0 50 50"><defs><style>.cls-1{fill:url(#linear-gradient);}.cls-2{fill:url(#linear-gradient-2);}.cls-3{fill:url(#linear-gradient-3);}.cls-4{fill:url(#linear-gradient-4);}.cls-5{fill:url(#linear-gradient-5);}.cls-6{fill:url(#linear-gradient-6);}.cls-7{fill:url(#linear-gradient-7);}.cls-8{fill:url(#linear-gradient-8);}.cls-9{fill:url(#linear-gradient-9);}</style><linearGradient id="linear-gradient" x1="43.48" y1="40.96" x2="40.91" y2="38.39" gradientUnits="userSpaceOnUse"><stop offset="0" stop-color="#edd089"/><stop offset="0.23" stop-color="#ebcd86"/><stop offset="0.43" stop-color="#e7c57b"/><stop offset="0.61" stop-color="#deb76a"/><stop offset="0.79" stop-color="#d3a351"/><stop offset="0.96" stop-color="#c48a31"/><stop offset="1" stop-color="#c08329"/></linearGradient><linearGradient id="linear-gradient-2" x1="32.03" y1="46.47" x2="29.45" y2="43.89" xlink:href="#linear-gradient"/><linearGradient id="linear-gradient-3" x1="9.8" y1="47.17" x2="5.81" y2="43.18" xlink:href="#linear-gradient"/><linearGradient id="linear-gradient-4" x1="23.83" y1="32.31" x2="16.4" y2="24.88" xlink:href="#linear-gradient"/><linearGradient id="linear-gradient-5" x1="45.52" y1="45.52" x2="4.48" y2="4.49" xlink:href="#linear-gradient"/><linearGradient id="linear-gradient-6" x1="44.19" y1="6.82" x2="40.2" y2="2.83" xlink:href="#linear-gradient"/><linearGradient id="linear-gradient-7" x1="26.47" y1="34.96" x2="12.07" y2="20.55" xlink:href="#linear-gradient"/><linearGradient id="linear-gradient-8" x1="32.74" y1="12.32" x2="28.75" y2="8.33" xlink:href="#linear-gradient"/><linearGradient id="linear-gradient-9" x1="9.09" y1="11.62" x2="6.51" y2="9.04" xlink:href="#linear-gradient"/></defs><title>Thriive-Icons[6]</title><path class="cls-1" d="M42.91,36.75a.82.82,0,0,0-.82.82v2h-2a.82.82,0,1,0,0,1.64h2.81a.82.82,0,0,0,.82-.82V37.57a.82.82,0,0,0-.82-.82Z"/><path class="cls-2" d="M31.45,42.25a.82.82,0,0,0-.82.82v2h-2a.82.82,0,0,0,0,1.64h2.81a.82.82,0,0,0,.82-.82V43.07a.82.82,0,0,0-.82-.82Z"/><path class="cls-3" d="M6.27,45.88a.82.82,0,0,0,.82.82H9.9a.82.82,0,1,0,0-1.64h-2v-2a.82.82,0,0,0-1.64,0Z"/><path class="cls-4" d="M21.11,33.92a6.44,6.44,0,0,0-.75-12.52.82.82,0,0,0-.82,1.26A4.79,4.79,0,0,1,18.61,29,4.77,4.77,0,0,1,14.7,30a.83.83,0,0,0-.82,1.27A6.44,6.44,0,0,0,21.11,33.92Zm-.2-5.1a6.44,6.44,0,0,0,.84-5.18,4.77,4.77,0,0,1,2.32,4.11h0a4.8,4.8,0,0,1-7.59,3.91A6.39,6.39,0,0,0,20.91,28.82Z"/><path class="cls-5" d="M47,37.35V.82a.81.81,0,0,0-.36-.66H20.27a.82.82,0,0,0,.48,1.48H45.38V42.86H35.57V31.21a10.18,10.18,0,0,0,0-17.92v-7a.82.82,0,0,0-.82-.82H19.37V4.94h2a.82.82,0,0,0,0-1.64H18.55a.82.82,0,0,0-.82.82V5.5H16.07V1.64h.76A.82.82,0,0,0,17.31.16h-.8V0H15.25a.82.82,0,0,0-.82.82V5.5H3.8A.82.82,0,0,0,3,6.32v21a.82.82,0,1,0,1.64,0V7.14H33.93V43.68h0v4.67H4.62V31.42a.82.82,0,0,0-1.64,0V49.18A.82.82,0,0,0,3.8,50h31a.82.82,0,0,0,.82-.82V44.5H46.2a.82.82,0,0,0,.82-.82V37.35ZM35.57,15.21a8.53,8.53,0,0,1,0,14.08Z"/><path class="cls-6" d="M43.73,6.93V4.12a.82.82,0,0,0-.82-.82H40.1a.82.82,0,1,0,0,1.64h2v2A.82.82,0,0,0,43.73,6.93Z"/><path class="cls-7" d="M19.27,17.56A10.19,10.19,0,1,0,29.46,27.75,10.2,10.2,0,0,0,19.27,17.56Zm0,18.74a8.55,8.55,0,1,1,8.55-8.55A8.54,8.54,0,0,1,19.27,36.3Z"/><path class="cls-8" d="M32.27,12.43V9.62a.82.82,0,0,0-.82-.82H28.64a.82.82,0,0,0,0,1.64h2v2A.82.82,0,0,0,32.27,12.43Z"/><path class="cls-9" d="M9.9,8.8H7.09a.82.82,0,0,0-.82.82v2.81a.82.82,0,0,0,1.64,0v-2h2A.82.82,0,1,0,9.9,8.8Z"/></svg>