<svg id="Layer_1" data-name="Layer 1" xmlns="http://www.w3.org/2000/svg" xmlns:xlink="http://www.w3.org/1999/xlink" viewBox="0 0 50 50"><defs><style>.cls-1{fill:url(#linear-gradient);}.cls-2{fill:#897bd6;}.cls-3{fill:#3dbddc;}.cls-4{fill:url(#linear-gradient-2);}.cls-5{fill:url(#linear-gradient-3);}.cls-6{fill:#5ea1d9;}.cls-7{fill:#36c3dc;}.cls-8{fill:none;}.cls-9{fill:url(#linear-gradient-4);}</style><linearGradient id="linear-gradient" x1="22.49" y1="46.48" x2="24.16" y2="46.48" gradientTransform="translate(1.28 -0.66) rotate(0.02)" gradientUnits="userSpaceOnUse"><stop offset="0" stop-color="#9663bd"/><stop offset="0.06" stop-color="#9267bf"/><stop offset="0.68" stop-color="#728cd2"/><stop offset="1" stop-color="#659ad9"/></linearGradient><linearGradient id="linear-gradient-2" x1="26.92" y1="15.04" x2="35.57" y2="15.04" gradientTransform="matrix(1, 0, 0, 1, 0, 0)" xlink:href="#linear-gradient"/><linearGradient id="linear-gradient-3" x1="11.08" y1="34.18" x2="24.75" y2="34.18" gradientTransform="matrix(1, 0, 0, 1, 0, 0)" xlink:href="#linear-gradient"/><linearGradient id="linear-gradient-4" x1="7.08" y1="25" x2="42.92" y2="25" gradientTransform="matrix(1, 0, 0, 1, 0, 0)" xlink:href="#linear-gradient"/></defs><title>Thriive-Icons-2</title><rect class="cls-1" x="23.75" y="45" width="1.67" height="1.67" transform="translate(-0.32 0.18) rotate(-0.41)"/><rect class="cls-2" x="10.42" y="45" width="1.67" height="1.67"/><path class="cls-3" d="M34.58,5h3.34V8.33h1.66V4.17a.84.84,0,0,0-.83-.84H34.58Zm0-1.67"/><path class="cls-4" d="M31.25,22.1a1.56,1.56,0,0,1-1.4-.86L27.09,15.7a1.55,1.55,0,0,1,0-1.39l2.77-5.54a1.61,1.61,0,0,1,2.74-.06l2.81,5.6a1.61,1.61,0,0,1,0,1.39l-2.77,5.54A1.55,1.55,0,0,1,31.25,22.1ZM29,15l2.28,4.54L33.52,15l-2.28-4.55Z"/><path class="cls-5" d="M17.92,40.17a1.84,1.84,0,0,1-1.24-.48l-4.14-3.77a4.34,4.34,0,0,1-.33-6.17v0l.34-.31a5.13,5.13,0,0,1,5.37-.79,5.1,5.1,0,0,1,5.36.8,4.34,4.34,0,0,1,0,6.51l-4.13,3.76A1.81,1.81,0,0,1,17.92,40.17Zm-4-9.32-.08.07a2.34,2.34,0,0,0,0,3.51l4.05,3.68,4-3.67a2.35,2.35,0,0,0,0-3.52,3.08,3.08,0,0,0-3.53-.31l-.51.31-.52-.31A3.07,3.07,0,0,0,14,30.85Z"/><rect class="cls-6" x="24.58" y="3.33" width="1.67" height="1.67"/><rect class="cls-7" x="37.92" y="26.67" width="1.67" height="1.67"/><rect class="cls-8" x="8.75" y="20" width="18.33" height="28.33" rx="0.83" ry="0.83"/><path class="cls-8" d="M22.92,18.33V2.5a.83.83,0,0,1,.83-.83H40.42a.83.83,0,0,1,.83.83V29.17a.83.83,0,0,1-.83.83H28.75V20.83a2.5,2.5,0,0,0-2.5-2.5Z"/><path class="cls-9" d="M7.11,38.53h0v9A2.5,2.5,0,0,0,9.58,50H26.25a2.5,2.5,0,0,0,2.5-2.5V31.67H40.42a2.5,2.5,0,0,0,2.5-2.5V2.5A2.5,2.5,0,0,0,40.42,0H23.75a2.5,2.5,0,0,0-2.5,2.5V18.33H7.84s-.65,1.18-.73,1.23Zm19.14-20.2H22.92V2.5a.83.83,0,0,1,.83-.83H40.42a.83.83,0,0,1,.83.83V29.17a.83.83,0,0,1-.83.83H28.75V20.83A2.5,2.5,0,0,0,26.25,18.33Zm-17.5,2.5A.83.83,0,0,1,9.58,20H26.25a.83.83,0,0,1,.83.83V47.5a.83.83,0,0,1-.83.83H9.58a.83.83,0,0,1-.83-.83Z"/></svg>