<svg id="Layer_1" data-name="Layer 1" xmlns="http://www.w3.org/2000/svg" xmlns:xlink="http://www.w3.org/1999/xlink" viewBox="0 0 50 50"><defs><style>.cls-1{fill:none;}.cls-2{clip-path:url(#clip-path);}.cls-3{fill:#d866d3;}.cls-4{fill:#c152c1;}.cls-5{fill:#fff;}.cls-6{fill:#48709b;}.cls-7{fill:#f96058;}.cls-8{fill:#ffa511;}.cls-9{fill:#e94141;}.cls-10{fill:#f48500;}.cls-11{fill:#ffe059;}.cls-12{fill:#ffc751;}</style><clipPath id="clip-path"><rect class="cls-1" y="1.08" width="50" height="47.85"/></clipPath></defs><title>Thriive-Icons</title><g class="cls-2"><path class="cls-3" d="M22.55,22A11.33,11.33,0,1,1,11.23,10.65,11.32,11.32,0,0,1,22.55,22Zm0,0"/></g><path class="cls-4" d="M17.48,12.54a11.17,11.17,0,0,1,2,6.37A11.32,11.32,0,0,1,1.87,28.35,11.32,11.32,0,1,0,17.48,12.54Zm0,0"/><path class="cls-5" d="M17.61,20a6.38,6.38,0,1,1-6.38-6.38A6.38,6.38,0,0,1,17.61,20Zm0,0"/><path class="cls-6" d="M11.45,19.22a.05.05,0,0,0,0,.09A1.5,1.5,0,0,1,13,20.84a1.74,1.74,0,0,1-1.86,1.78,1.73,1.73,0,0,1-1.68-.94.43.43,0,0,1,.24-.61.42.42,0,0,1,.58.17.87.87,0,0,0,.88.53.81.81,0,0,0,.84-.86c0-.82-.73-.93-1.39-.85a.38.38,0,0,1-.41-.27.5.5,0,0,1,.12-.52l.71-.75a1.54,1.54,0,0,1,.29-.28H9.84c-.25,0-.32-.22-.32-.44s.07-.45.32-.45h2.55c.25,0,.3.2.29.45a.57.57,0,0,1-.2.4Zm0,0"/><path class="cls-7" d="M34.41,37.56A11.33,11.33,0,1,1,23.08,26.24,11.33,11.33,0,0,1,34.41,37.56Zm0,0"/><path class="cls-8" d="M49.9,12.5A11.32,11.32,0,1,1,38.58,1.17,11.32,11.32,0,0,1,49.9,12.5Zm0,0"/><path class="cls-9" d="M29.34,28.13A11.32,11.32,0,0,1,13.73,43.94,11.32,11.32,0,1,0,29.34,28.13Zm0,0"/><path class="cls-10" d="M44.84,3.06a11.33,11.33,0,0,1-9.36,17.7,11.24,11.24,0,0,1-6.26-1.89A11.32,11.32,0,1,0,44.84,3.06Zm0,0"/><path class="cls-5" d="M29.46,37.56a6.38,6.38,0,1,1-6.38-6.38,6.37,6.37,0,0,1,6.38,6.38Zm0,0"/><path class="cls-5" d="M45,14.53a6.38,6.38,0,1,1-6.38-6.38A6.38,6.38,0,0,1,45,14.53Zm0,0"/><path class="cls-8" d="M36.88,20.67a6.34,6.34,0,0,0,7.94-4.83,11.27,11.27,0,0,1-7.94,4.83Zm0,0"/><path class="cls-6" d="M19.34,39.42a.88.88,0,0,1,.24-.59A9.63,9.63,0,0,1,21,37.56c.42-.33.86-.74.86-1.18a.73.73,0,0,0-.82-.78.75.75,0,0,0-.76.62.43.43,0,0,1-.53.31c-.25,0-.37-.12-.37-.38a1.54,1.54,0,0,1,1.66-1.42c1,0,1.81.48,1.81,1.54a2.23,2.23,0,0,1-1,1.73,16,16,0,0,0-1.24,1s0,.09,0,.09h2c.25,0,.32.22.32.44s-.07.45-.32.45H19.84c-.39,0-.5-.13-.5-.57Zm0,0"/><path class="cls-6" d="M23.41,37.73a3,3,0,0,1,2.29-3,.53.53,0,0,1,.63.24c.14.24,0,.43-.22.51a2.23,2.23,0,0,0-1.62,1.3,1.46,1.46,0,0,1,.89-.27A1.65,1.65,0,0,1,27,38.24a1.77,1.77,0,0,1-1.81,1.82c-1.34,0-1.81-1.1-1.81-2.33Zm1,.56c0,.45.26,1,.79,1s.83-.51.83-1-.23-.94-.81-.94a.85.85,0,0,0-.81,1Zm0,0"/><path class="cls-6" d="M39.64,11.89c.25,0,.31.22.31.44s-.06.45-.31.45H38.1c-.11,0-.11,0-.14.15l-.09.63c0,.18.06.21.21.18,1.25-.23,2.3.26,2.28,1.64a1.71,1.71,0,0,1-1.83,1.78,1.73,1.73,0,0,1-1.69-1,.37.37,0,0,1,.22-.55.45.45,0,0,1,.62.14.92.92,0,0,0,.87.53.82.82,0,0,0,.82-.9c0-.91-.93-1.14-1.7-.86-.4.14-.88,0-.81-.54l.19-1.46c.07-.5.16-.67.59-.67Zm0,0"/><path class="cls-11" d="M27.11,15.53a.46.46,0,0,0-.76,0,12.85,12.85,0,0,1-1.63,2,12.68,12.68,0,0,1-2,1.64.46.46,0,0,0,0,.77,13.26,13.26,0,0,1,2,1.64,12.85,12.85,0,0,1,1.63,2,.46.46,0,0,0,.76,0,12.78,12.78,0,0,1,1.62-2,13.33,13.33,0,0,1,2-1.64.47.47,0,0,0,0-.77,12.86,12.86,0,0,1-3.61-3.64Zm0,0"/><path class="cls-12" d="M27.11,15.53a12.86,12.86,0,0,0,3.61,3.64.47.47,0,0,1,0,.77,12.74,12.74,0,0,0-2,1.64l-.23.24c0-.11,0-.22,0-.33a3.94,3.94,0,0,0-3.79-3.95h0a12.85,12.85,0,0,0,1.63-2,.46.46,0,0,1,.76,0Zm0,0"/><path class="cls-11" d="M37,39.22a.24.24,0,0,0-.4,0,6.86,6.86,0,0,1-1.9,1.92.24.24,0,0,0,0,.41,6.48,6.48,0,0,1,1.05.86,6.59,6.59,0,0,1,.85,1.06.24.24,0,0,0,.4,0,7.25,7.25,0,0,1,.86-1.06,6.48,6.48,0,0,1,1-.86.25.25,0,0,0,0-.41,7.05,7.05,0,0,1-1-.86A7.82,7.82,0,0,1,37,39.22Zm0,0"/><path class="cls-12" d="M37,39.22a7.82,7.82,0,0,0,.86,1.06,7.05,7.05,0,0,0,1,.86.25.25,0,0,1,0,.41,6.48,6.48,0,0,0-1,.86l-.12.13v-.18a2.08,2.08,0,0,0-2-2.08h0a6.55,6.55,0,0,0,.86-1.06.24.24,0,0,1,.4,0Zm0,0"/><path class="cls-11" d="M10.79,43.36a.31.31,0,0,0-.51,0,8.78,8.78,0,0,1-1.1,1.35,8.32,8.32,0,0,1-1.34,1.11.31.31,0,0,0,0,.51,8.32,8.32,0,0,1,1.34,1.11,8.78,8.78,0,0,1,1.1,1.35.31.31,0,0,0,.51,0,8.23,8.23,0,0,1,1.1-1.35,8.7,8.7,0,0,1,1.33-1.11.3.3,0,0,0,0-.51,8.7,8.7,0,0,1-1.33-1.11,8.23,8.23,0,0,1-1.1-1.35Zm0,0"/><path class="cls-12" d="M10.79,43.36a8.23,8.23,0,0,0,1.1,1.35,8.7,8.7,0,0,0,1.33,1.11.3.3,0,0,1,0,.51,8.7,8.7,0,0,0-1.33,1.11l-.16.16v-.22a2.66,2.66,0,0,0-2.55-2.67h0a8.78,8.78,0,0,0,1.1-1.35.31.31,0,0,1,.51,0Zm0,0"/><path class="cls-11" d="M15.78,17a.25.25,0,0,0-.41,0,7.05,7.05,0,0,1-.85,1.06,7.74,7.74,0,0,1-1,.86.23.23,0,0,0,0,.4,7.13,7.13,0,0,1,1,.87,6.59,6.59,0,0,1,.85,1.06.25.25,0,0,0,.41,0,6.59,6.59,0,0,1,.85-1.06,7.13,7.13,0,0,1,1.05-.87.24.24,0,0,0,0-.4,7.74,7.74,0,0,1-1.05-.86A7.05,7.05,0,0,1,15.78,17Zm0,0"/><path class="cls-12" d="M15.78,17a6.51,6.51,0,0,0,.85,1.05,7.13,7.13,0,0,0,1.05.87.24.24,0,0,1,0,.4,7.13,7.13,0,0,0-1.05.87l-.12.13v-.18a2.07,2.07,0,0,0-2-2.08h0A6.51,6.51,0,0,0,15.37,17a.25.25,0,0,1,.41,0Zm0,0"/></svg>