<svg id="Layer_1" data-name="Layer 1" xmlns="http://www.w3.org/2000/svg" xmlns:xlink="http://www.w3.org/1999/xlink" viewBox="0 0 50 50"><defs><style>.cls-1{fill:url(#linear-gradient);}.cls-2{fill:none;}.cls-3{fill:url(#linear-gradient-2);}.cls-4{fill:url(#linear-gradient-3);}.cls-5{fill:url(#linear-gradient-4);}.cls-6{fill:url(#linear-gradient-5);}</style><linearGradient id="linear-gradient" x1="25" y1="32.23" x2="25" gradientUnits="userSpaceOnUse"><stop offset="0" stop-color="#b3e7fa"/><stop offset="0.11" stop-color="#bae9fa"/><stop offset="0.68" stop-color="#d8f3fc"/><stop offset="1" stop-color="#e4f7fd"/></linearGradient><linearGradient id="linear-gradient-2" x1="25" y1="5.38" x2="25" y2="52.28" gradientUnits="userSpaceOnUse"><stop offset="0" stop-color="#00aeef"/><stop offset="1" stop-color="#2b3990"/></linearGradient><linearGradient id="linear-gradient-3" x1="25" y1="5.38" x2="25" y2="52.28" xlink:href="#linear-gradient-2"/><linearGradient id="linear-gradient-4" x1="41.89" y1="5.38" x2="41.89" y2="52.28" xlink:href="#linear-gradient-2"/><linearGradient id="linear-gradient-5" x1="8.11" y1="5.38" x2="8.11" y2="52.28" xlink:href="#linear-gradient-2"/></defs><title>Thriive-Icons-angel[2]</title><path class="cls-1" d="M48.54,17.58H32.17a10.25,10.25,0,1,0-14.34,0H1.46A1.44,1.44,0,0,0,0,19a7.33,7.33,0,0,0,1.46,4.4l4.4,1.46L6,26.37a7.32,7.32,0,0,0,7.17,5.86h3.65a1.49,1.49,0,0,0,1.43-1.12c2.51-10,2.33-10.27,2.93-11.28a1.63,1.63,0,0,0,.22-.55,1.58,1.58,0,0,0,.45-.33,4.38,4.38,0,0,1,6.28,0,1.58,1.58,0,0,0,.45.33,1.63,1.63,0,0,0,.22.55c.64,1.07.47,1.49,2.93,11.28a1.49,1.49,0,0,0,1.43,1.12h3.65A7.32,7.32,0,0,0,44,26.37l.15-1.47,4.4-1.46A7.33,7.33,0,0,0,50,19a1.44,1.44,0,0,0-1.46-1.46Zm0,0"/><rect class="cls-2" width="50" height="50"/><path class="cls-3" d="M25,14.65a4.4,4.4,0,1,0-4.39-4.4A4.4,4.4,0,0,0,25,14.65Z"/><path class="cls-4" d="M32.1,20.22a7.32,7.32,0,0,0-12.31-3.34,7,7,0,0,0-1.9,3.37l-6,25a1.44,1.44,0,0,0,.39,1.38C12.59,47,15.87,50,25,50s12.41-3,12.75-3.36a1.46,1.46,0,0,0,.39-1.38Z"/><path class="cls-5" d="M36.72,23.44a1.47,1.47,0,1,0,0,2.93H44s0-.09,0-.12a7.58,7.58,0,0,0,4.52-2.81Z"/><path class="cls-6" d="M14.75,24.9a1.45,1.45,0,0,0-1.47-1.46H1.46A7.58,7.58,0,0,0,6,26.25s0,.09,0,.12h7.27a1.46,1.46,0,0,0,1.47-1.47Z"/></svg>