<svg id="Layer_1" data-name="Layer 1" xmlns="http://www.w3.org/2000/svg" xmlns:xlink="http://www.w3.org/1999/xlink" viewBox="0 0 50 50"><defs><style>.cls-1{fill:url(#linear-gradient);}.cls-2{fill:url(#linear-gradient-2);}.cls-3{fill:url(#linear-gradient-3);}.cls-4{fill:url(#linear-gradient-4);}.cls-5{fill:url(#linear-gradient-5);}.cls-6{fill:url(#linear-gradient-6);}.cls-7{fill:url(#linear-gradient-7);}.cls-8{fill:url(#linear-gradient-8);}.cls-9{fill:url(#linear-gradient-9);}.cls-10{fill:url(#linear-gradient-10);}.cls-11{fill:url(#linear-gradient-11);}.cls-12{fill:url(#linear-gradient-12);}.cls-13{fill:url(#linear-gradient-13);}.cls-14{fill:url(#linear-gradient-14);}.cls-15{fill:url(#linear-gradient-15);}.cls-16{fill:url(#linear-gradient-16);}.cls-17{fill:url(#linear-gradient-17);}.cls-18{fill:url(#linear-gradient-18);}.cls-19{fill:url(#linear-gradient-19);}.cls-20{fill:url(#linear-gradient-20);}</style><linearGradient id="linear-gradient" x1="2.72" y1="-2.87" x2="64.71" y2="53.8" gradientUnits="userSpaceOnUse"><stop offset="0.01" stop-color="#ebc17d"/><stop offset="0.19" stop-color="#dfb77c"/><stop offset="0.6" stop-color="#c08329"/><stop offset="0.87" stop-color="#eabe81"/><stop offset="1" stop-color="#ee6831"/></linearGradient><linearGradient id="linear-gradient-2" x1="-4.74" y1="5.32" x2="57.23" y2="61.96" xlink:href="#linear-gradient"/><linearGradient id="linear-gradient-3" x1="-4.43" y1="4.96" x2="57.55" y2="61.61" xlink:href="#linear-gradient"/><linearGradient id="linear-gradient-4" x1="2.4" y1="-2.51" x2="64.38" y2="54.14" xlink:href="#linear-gradient"/><linearGradient id="linear-gradient-5" x1="-7.75" y1="8.6" x2="54.22" y2="65.25" xlink:href="#linear-gradient"/><linearGradient id="linear-gradient-6" x1="5.73" y1="-6.14" x2="67.7" y2="50.5" xlink:href="#linear-gradient"/><linearGradient id="linear-gradient-7" x1="-1.32" y1="1.56" x2="60.66" y2="58.21" xlink:href="#linear-gradient"/><linearGradient id="linear-gradient-8" x1="-0.72" y1="0.89" x2="61.28" y2="57.56" xlink:href="#linear-gradient"/><linearGradient id="linear-gradient-9" x1="-8.92" y1="9.86" x2="53.07" y2="66.53" xlink:href="#linear-gradient"/><linearGradient id="linear-gradient-10" x1="-16.35" y1="17.99" x2="45.65" y2="74.65" xlink:href="#linear-gradient"/><linearGradient id="linear-gradient-11" x1="-17.15" y1="18.87" x2="44.84" y2="75.53" xlink:href="#linear-gradient"/><linearGradient id="linear-gradient-12" x1="-10.89" y1="12.01" x2="51.11" y2="68.68" xlink:href="#linear-gradient"/><linearGradient id="linear-gradient-13" x1="4.91" y1="-5.27" x2="66.91" y2="51.39" xlink:href="#linear-gradient"/><linearGradient id="linear-gradient-14" x1="14.25" y1="-15.49" x2="76.25" y2="41.18" xlink:href="#linear-gradient"/><linearGradient id="linear-gradient-15" x1="10.48" y1="-11.36" x2="72.48" y2="45.31" xlink:href="#linear-gradient"/><linearGradient id="linear-gradient-16" x1="15.94" y1="-17.34" x2="77.94" y2="39.33" xlink:href="#linear-gradient"/><linearGradient id="linear-gradient-17" x1="-3.45" y1="3.87" x2="58.55" y2="60.54" xlink:href="#linear-gradient"/><linearGradient id="linear-gradient-18" x1="-17.14" y1="18.85" x2="44.87" y2="75.52" xlink:href="#linear-gradient"/><linearGradient id="linear-gradient-19" x1="-11.5" y1="12.69" x2="50.49" y2="69.35" xlink:href="#linear-gradient"/><linearGradient id="linear-gradient-20" x1="10.09" y1="-10.93" x2="72.08" y2="45.73" xlink:href="#linear-gradient"/></defs><title>Thriive-Icons</title><rect class="cls-1" x="24.17" y="15.83" width="1.67" height="3.33"/><rect class="cls-2" x="24.17" y="30.83" width="1.67" height="3.33"/><rect class="cls-3" x="15.83" y="24.17" width="3.33" height="1.67"/><rect class="cls-4" x="30.83" y="24.17" width="3.33" height="1.67"/><path class="cls-5" d="M16.74,32.07l1.18-1.18,1.18,1.18-1.18,1.18Zm0,0"/><path class="cls-6" d="M30.89,17.93l1.17-1.18,1.18,1.18-1.18,1.18Zm0,0"/><path class="cls-7" d="M30.88,32.07l1.18-1.18,1.18,1.18-1.18,1.18Zm0,0"/><path d="M20.29,19.11l-1.18,1.17,2.41,2.42a4.16,4.16,0,0,0,0,4.59l-2.41,2.42,1.18,1.18,2.41-2.42a4.12,4.12,0,0,0,4.59,0l2.42,2.42,1.18-1.18-2.42-2.42a4.12,4.12,0,0,0,0-4.59l2.42-2.42-1.18-1.17-2.42,2.41a4.16,4.16,0,0,0-4.59,0ZM25,22.5A2.5,2.5,0,1,1,22.5,25,2.51,2.51,0,0,1,25,22.5Zm0,0"/><path class="cls-8" d="M16.75,17.93l1.17-1.18,1.18,1.18L17.92,19.1Zm0,0"/><path d="M22.59,41.49a2.5,2.5,0,0,0,4.82,0A16.59,16.59,0,0,0,38.31,35l.82.48a.84.84,0,0,0,1.23-.94l-.61-2.28a.85.85,0,0,0-.39-.5.87.87,0,0,0-.63-.09l-2.28.61a.84.84,0,0,0-.2,1.53l.61.35a15,15,0,0,1-9.57,5.64,2.5,2.5,0,0,0-4.58,0A14.92,14.92,0,0,1,14,35.14l-1.23,1.13a16.64,16.64,0,0,0,9.87,5.22ZM25,40a.83.83,0,1,1-.83.83A.83.83,0,0,1,25,40Zm0,0"/><path d="M41.67,25a16.66,16.66,0,0,0-1.18-6.16,2.51,2.51,0,0,0-2.42-4.18,16.59,16.59,0,0,0-11.4-6.24V7.5a.84.84,0,0,0-1.43-.59L23.58,8.58a.82.82,0,0,0-.25.59.83.83,0,0,0,.25.59l1.66,1.66a.84.84,0,0,0,1.43-.59v-.74a14.88,14.88,0,0,1,10,5.52,2.5,2.5,0,0,0,2,4H39a15.08,15.08,0,0,1,.23,10.24l1.58.54A16.76,16.76,0,0,0,41.67,25ZM38,17.5a.84.84,0,0,1,1.23-1.08A.84.84,0,1,1,38,17.5Zm0,0"/><path d="M8.79,33.66a.82.82,0,0,0,.61.7l2.27.61a.84.84,0,0,0,.64-.08.87.87,0,0,0,.39-.51l.6-2.28a.81.81,0,0,0-.29-.87.83.83,0,0,0-.93-.06l-.6.34A15,15,0,0,1,11,19.57h.27a3,3,0,0,0,.66-.08,2.54,2.54,0,0,0,1.71-1.59,2.49,2.49,0,0,0-.35-2.3,15,15,0,0,1,8.54-5.28L21.49,8.7a16.64,16.64,0,0,0-9.56,6,2.5,2.5,0,0,0-2.42,4.18A16.66,16.66,0,0,0,10,32.35l-.84.48a.81.81,0,0,0-.41.83Zm1.78-17a.83.83,0,0,1,.72-.42.83.83,0,1,1-.72.42Zm0,0"/><path class="cls-9" d="M2,29a23.54,23.54,0,0,1-.34-4A23.18,23.18,0,0,1,5.54,12.13l-1.39-.92A25.05,25.05,0,0,0,.37,29.31Zm0,0"/><path class="cls-10" d="M3.6,37.93,5,37.07a22.37,22.37,0,0,1-1.28-2.42l-1.52.69A26.61,26.61,0,0,0,3.6,37.93Zm0,0"/><path class="cls-11" d="M8.1,41.09,6.9,42.24a25.08,25.08,0,0,0,5.42,4.31l.85-1.44a23.44,23.44,0,0,1-5.07-4Zm0,0"/><path class="cls-12" d="M25,48.33a23.35,23.35,0,0,1-6.44-.9L18.1,49a25,25,0,0,0,19.58-2.48l-.85-1.44A23.33,23.33,0,0,1,25,48.33Zm0,0"/><path class="cls-13" d="M48.28,23.39c0,.53,0,1.07,0,1.61a23.19,23.19,0,0,1-6.44,16.09l1.21,1.15A24.88,24.88,0,0,0,50,25c0-.57,0-1.16-.06-1.72Zm0,0"/><path class="cls-14" d="M44.31,11.9a23.2,23.2,0,0,1,2.41,4.57l1.55-.61A24.38,24.38,0,0,0,45.69,11Zm0,0"/><path class="cls-15" d="M25,1.67A23.12,23.12,0,0,1,39.21,6.49l1-1.32A25.06,25.06,0,0,0,14.65,2.23l.69,1.52A23.19,23.19,0,0,1,25,1.67Zm0,0"/><path d="M1.67,10a1.7,1.7,0,0,0,1-.36L8.35,11.9A1.64,1.64,0,0,0,9,13a1.6,1.6,0,0,0,1.25.3,1.65,1.65,0,0,0,1.1-.69,1.69,1.69,0,0,0,.27-1.26l3.64-3.12a1.67,1.67,0,1,0-.1-3.11L10.82,1.87a1.67,1.67,0,0,0-3.3-.46A1.65,1.65,0,0,0,8.11,3L7.75,5.11a1.65,1.65,0,0,0-1,1.1l-3.87,1a1.62,1.62,0,0,0-1.5-.48A1.66,1.66,0,0,0,1.67,10Zm7.3.36L4.37,8.52l2.77-.7a1.65,1.65,0,0,0,1.21.51A1.67,1.67,0,0,0,9.56,7.8a1.66,1.66,0,0,0-.17-2.42l.36-2.15.07,0,4.36,3.27a1.39,1.39,0,0,0,0,.5L10.55,10.1A1.61,1.61,0,0,0,9,10.36Zm0,0"/><path class="cls-16" d="M40.22,9.17H38.94a1.66,1.66,0,0,0-2-.72L35,6.92a1.67,1.67,0,0,0-3-1.3,1.67,1.67,0,0,0,0,2,1.69,1.69,0,0,0,2,.57l1.91,1.53a1.67,1.67,0,0,0,3.09,1.08h1.28a1.67,1.67,0,0,0,2.45.5,1.66,1.66,0,0,0,.19-2.49l.88-3.06a1.66,1.66,0,0,0,1-.78h2.12A1.67,1.67,0,0,0,50,4.17a1.67,1.67,0,0,0-3.11-.84H44.77a1.67,1.67,0,0,0-1.11-.8,1.66,1.66,0,0,0-2,1.5,1.65,1.65,0,0,0,.46,1.29l-.87,3.07a1.68,1.68,0,0,0-1,.78Zm0,0"/><path class="cls-17" d="M45.83,42.5a1.68,1.68,0,0,0-1.44.83h-3a1.66,1.66,0,0,0-1.87-.77l-1.3-1.3a1.67,1.67,0,1,0-3.06.4,1.66,1.66,0,0,0,1.88.78l1.3,1.29a1.66,1.66,0,0,0,.76,1.87v1.31A1.67,1.67,0,0,0,40,50a1.68,1.68,0,0,0,1.59-1.27,1.65,1.65,0,0,0-.81-1.85V45.61a1.65,1.65,0,0,0,.62-.61h3a1.66,1.66,0,1,0,2.88-1.67,1.63,1.63,0,0,0-1.44-.83Zm0,0"/><path class="cls-18" d="M16.67,41.66a1.66,1.66,0,0,0-.88-1.46,1.69,1.69,0,0,0-1.71.07l-4.09-2a1.63,1.63,0,0,0-.59-1.18,1.68,1.68,0,0,0-1.27-.38A1.65,1.65,0,0,0,7,37.35a1.61,1.61,0,0,0-.29,1.29L3.05,41.76A1.68,1.68,0,1,0,4.14,43L7.78,39.9a1.63,1.63,0,0,0,1.47-.18l4.09,2.05a1.65,1.65,0,0,0,.83,1.34v3.78a1.67,1.67,0,1,0,1.66,0V43.11a1.67,1.67,0,0,0,.84-1.45Zm0,0"/><path class="cls-19" d="M3.33,32.5a1.72,1.72,0,0,0-.22-.84L5,28.33a1.66,1.66,0,0,0,.82-3.1V21.44a1.67,1.67,0,1,0-1.66,0v3.79a1.59,1.59,0,0,0-.78,1,1.68,1.68,0,0,0,.17,1.26l-1.9,3.33A1.67,1.67,0,1,0,3.33,32.5Zm0,0"/><path class="cls-20" d="M48.33,17.5a1.69,1.69,0,0,0-1.47.87,1.67,1.67,0,0,0,.08,1.71l-2,4.09a1.67,1.67,0,0,0-.65,3.15,1.66,1.66,0,0,0,2.14-2.4l2-4.09A1.68,1.68,0,0,0,50,19.11a1.67,1.67,0,0,0-1.67-1.61Zm0,0"/></svg>