<svg id="Layer_1" data-name="Layer 1" xmlns="http://www.w3.org/2000/svg" viewBox="0 0 50 50"><defs><style>.cls-1{fill:#eff2fa;}.cls-2{fill:#e4eaf6;}.cls-3{fill:#f96058;}.cls-4{fill:#d2555a;}.cls-5{fill:#c7cfe2;}</style></defs><title>Thriive-Icons-2</title><rect class="cls-1" x="0.61" y="10.86" width="48.77" height="39.14" rx="0.5" ry="0.5"/><rect class="cls-2" x="0.61" y="4.14" width="48.77" height="8.43" rx="0.5" ry="0.5"/><rect class="cls-3" x="0.61" y="1.23" width="48.77" height="10.35" rx="0.5" ry="0.5"/><path class="cls-3" d="M11.53,24.64q1.58-2.7,5.5-2.7c2.59,0,4.42.9,5.46,2.7a15,15,0,0,1,1.57,7.53,15.34,15.34,0,0,1-1.57,7.63c-1,1.81-2.87,2.71-5.46,2.71s-4.45-.9-5.5-2.71A15.34,15.34,0,0,1,10,32.17,15,15,0,0,1,11.53,24.64ZM21.22,28A5.31,5.31,0,0,0,19.9,25.3a3.8,3.8,0,0,0-2.87-1,3.86,3.86,0,0,0-2.91,1A5.23,5.23,0,0,0,12.81,28a22.24,22.24,0,0,0-.32,4.14,22.91,22.91,0,0,0,.32,4.23,5.26,5.26,0,0,0,1.31,2.75,3.82,3.82,0,0,0,2.91,1,3.77,3.77,0,0,0,2.87-1,5.34,5.34,0,0,0,1.32-2.75,23.82,23.82,0,0,0,.32-4.23A23.13,23.13,0,0,0,21.22,28Z"/><path class="cls-3" d="M40,24.23,32.25,42.51H29.67l7.91-18H26.75V22.3H40Z"/><rect class="cls-4" x="6.66" y="5.4" width="4.47" height="2.96" rx="0.5" ry="0.5"/><rect class="cls-4" x="39.18" y="5.4" width="4.47" height="2.96" rx="0.5" ry="0.5"/><rect class="cls-5" x="7.79" width="2.21" height="7.28" rx="0.5" ry="0.5"/><rect class="cls-5" x="40.31" width="2.21" height="7.28" rx="0.5" ry="0.5"/></svg>