<svg id="Layer_1" data-name="Layer 1" xmlns="http://www.w3.org/2000/svg" viewBox="0 0 50 50"><defs><style>.cls-1{fill:#eff2fa;}.cls-2{fill:#e4eaf6;}.cls-3{fill:#f96058;}.cls-4{fill:#d2555a;}.cls-5{fill:#c7cfe2;}.cls-6{opacity:0.5;}.cls-7{fill:#ff6464;}</style></defs><title>Thriive-Icons-2</title><rect class="cls-1" x="0.61" y="10.86" width="48.77" height="39.14" rx="0.5" ry="0.5"/><rect class="cls-2" x="0.61" y="4.14" width="48.77" height="8.43" rx="0.5" ry="0.5"/><rect class="cls-3" x="0.61" y="1.23" width="48.77" height="10.35" rx="0.5" ry="0.5"/><rect class="cls-4" x="6.66" y="5.4" width="4.47" height="2.96" rx="0.5" ry="0.5"/><rect class="cls-4" x="39.18" y="5.4" width="4.47" height="2.96" rx="0.5" ry="0.5"/><rect class="cls-5" x="7.79" width="2.21" height="7.28" rx="0.5" ry="0.5"/><rect class="cls-5" x="40.31" width="2.21" height="7.28" rx="0.5" ry="0.5"/><g class="cls-6"><rect class="cls-7" x="9.11" y="17.82" width="3.92" height="3.92" rx="0.5" ry="0.5"/><rect class="cls-7" x="16.07" y="17.82" width="3.92" height="3.92" rx="0.5" ry="0.5"/><rect class="cls-7" x="23.04" y="17.82" width="3.92" height="3.92" rx="0.5" ry="0.5"/><rect class="cls-7" x="30.01" y="17.82" width="3.92" height="3.92" rx="0.5" ry="0.5"/><rect class="cls-7" x="36.98" y="17.82" width="3.92" height="3.92" rx="0.5" ry="0.5"/><rect class="cls-7" x="43.94" y="17.82" width="3.92" height="3.92" rx="0.5" ry="0.5"/><rect class="cls-7" x="2.14" y="23.87" width="3.92" height="3.92" rx="0.5" ry="0.5"/><rect class="cls-7" x="9.11" y="23.87" width="3.92" height="3.92" rx="0.5" ry="0.5"/><rect class="cls-7" x="16.07" y="23.87" width="3.92" height="3.92" rx="0.5" ry="0.5"/><rect class="cls-7" x="23.04" y="23.87" width="3.92" height="3.92" rx="0.5" ry="0.5"/><rect class="cls-7" x="30.01" y="23.87" width="3.92" height="3.92" rx="0.5" ry="0.5"/><rect class="cls-7" x="36.98" y="23.87" width="3.92" height="3.92" rx="0.5" ry="0.5"/><rect class="cls-7" x="43.94" y="23.87" width="3.92" height="3.92" rx="0.5" ry="0.5"/><rect class="cls-7" x="2.14" y="29.87" width="3.92" height="3.92" rx="0.5" ry="0.5"/><rect class="cls-7" x="9.11" y="29.87" width="3.92" height="3.92" rx="0.5" ry="0.5"/><rect class="cls-7" x="16.07" y="29.87" width="3.92" height="3.92" rx="0.5" ry="0.5"/><rect class="cls-7" x="23.04" y="29.87" width="3.92" height="3.92" rx="0.5" ry="0.5"/><rect class="cls-7" x="30.01" y="29.87" width="3.92" height="3.92" rx="0.5" ry="0.5"/><rect class="cls-7" x="36.98" y="29.87" width="3.92" height="3.92" rx="0.5" ry="0.5"/><rect class="cls-7" x="43.94" y="29.87" width="3.92" height="3.92" rx="0.5" ry="0.5"/><rect class="cls-7" x="2.14" y="35.87" width="3.92" height="3.92" rx="0.5" ry="0.5"/><rect class="cls-7" x="9.11" y="35.87" width="3.92" height="3.92" rx="0.5" ry="0.5"/><rect class="cls-7" x="16.07" y="35.87" width="3.92" height="3.92" rx="0.5" ry="0.5"/><rect class="cls-7" x="23.04" y="35.87" width="3.92" height="3.92" rx="0.5" ry="0.5"/><rect class="cls-7" x="30.01" y="35.87" width="3.92" height="3.92" rx="0.5" ry="0.5"/><rect class="cls-7" x="36.98" y="35.87" width="3.92" height="3.92" rx="0.5" ry="0.5"/><rect class="cls-7" x="43.94" y="35.87" width="3.92" height="3.92" rx="0.5" ry="0.5"/><rect class="cls-7" x="2.14" y="41.87" width="3.92" height="3.92" rx="0.5" ry="0.5"/><rect class="cls-7" x="9.11" y="41.87" width="3.92" height="3.92" rx="0.5" ry="0.5"/><rect class="cls-7" x="16.07" y="41.87" width="3.92" height="3.92" rx="0.5" ry="0.5"/></g></svg>