<svg id="Layer_1" data-name="Layer 1" xmlns="http://www.w3.org/2000/svg" xmlns:xlink="http://www.w3.org/1999/xlink" viewBox="0 0 50 50"><defs><style>.cls-1{fill:url(#linear-gradient);}.cls-2{fill:#897bd6;}.cls-3{fill:#3dbddc;}.cls-4{fill:#5ea1d9;}.cls-5{fill:#36c3dc;}.cls-6{fill:none;}.cls-7{fill:url(#linear-gradient-2);}</style><linearGradient id="linear-gradient" x1="23.31" y1="45.86" x2="24.97" y2="45.86" gradientTransform="translate(0.43 -0.02) rotate(-0.02)" gradientUnits="userSpaceOnUse"><stop offset="0" stop-color="#9663bd"/><stop offset="0.06" stop-color="#9267bf"/><stop offset="0.68" stop-color="#728cd2"/><stop offset="1" stop-color="#659ad9"/></linearGradient><linearGradient id="linear-gradient-2" x1="7.08" y1="25" x2="42.92" y2="25" gradientTransform="matrix(1, 0, 0, 1, 0, 0)" xlink:href="#linear-gradient"/></defs><title>Thriive-Icons</title><rect class="cls-1" x="23.75" y="45" width="1.67" height="1.67" transform="translate(-0.29 0.16) rotate(-0.37)"/><rect class="cls-2" x="10.42" y="45" width="1.67" height="1.67"/><path class="cls-3" d="M34.58,5h3.34V8.33h1.66V4.17a.84.84,0,0,0-.83-.84H34.58Zm0-1.67"/><path d="M26.33,14.63a.87.87,0,0,0,0,.74l4.17,8.34a.83.83,0,0,0,1.49,0l4.17-8.34a.81.81,0,0,0,0-.74L32,6.29a.86.86,0,0,0-.74-.42.88.88,0,0,0-.75.42l-4.17,8.34ZM28,15l3.23-6.47L34.48,15l-3.23,6.47Zm3.23,6.47"/><path d="M13.21,30.17a3.34,3.34,0,0,0,0,5L17.35,39a.82.82,0,0,0,1.13,0l4.14-3.77a3.34,3.34,0,0,0,0-5,4,4,0,0,0-4.7-.42,4,4,0,0,0-4.71.42Zm1.13,3.77a1.66,1.66,0,0,1,0-2.54,2.29,2.29,0,0,1,3,0,.83.83,0,0,0,1.12,0,2.29,2.29,0,0,1,3,0,1.66,1.66,0,0,1,0,2.54l-3.58,3.27-3.59-3.27Zm0,0"/><rect class="cls-4" x="24.58" y="3.33" width="1.67" height="1.67"/><rect class="cls-5" x="37.92" y="26.67" width="1.67" height="1.67"/><rect class="cls-6" x="8.75" y="20" width="18.33" height="28.33" rx="0.83" ry="0.83"/><path class="cls-6" d="M22.92,18.33V2.5a.83.83,0,0,1,.83-.83H40.42a.83.83,0,0,1,.83.83V29.17a.83.83,0,0,1-.83.83H28.75V20.83a2.5,2.5,0,0,0-2.5-2.5Z"/><path class="cls-7" d="M7.11,38.53h0v9A2.5,2.5,0,0,0,9.58,50H26.25a2.5,2.5,0,0,0,2.5-2.5V31.67H40.42a2.5,2.5,0,0,0,2.5-2.5V2.5A2.5,2.5,0,0,0,40.42,0H23.75a2.5,2.5,0,0,0-2.5,2.5V18.33H7.84s-.65,1.18-.73,1.23Zm19.14-20.2H22.92V2.5a.83.83,0,0,1,.83-.83H40.42a.83.83,0,0,1,.83.83V29.17a.83.83,0,0,1-.83.83H28.75V20.83A2.5,2.5,0,0,0,26.25,18.33Zm-17.5,2.5A.83.83,0,0,1,9.58,20H26.25a.83.83,0,0,1,.83.83V47.5a.83.83,0,0,1-.83.83H9.58a.83.83,0,0,1-.83-.83Z"/></svg>