<svg xmlns="http://www.w3.org/2000/svg" width="135.813" height="142.416" viewBox="0 0 135.813 142.416">
  <g id="reader-bg" transform="translate(-1015.072 -206.432)">
    <path id="Path_2575" data-name="Path 2575" d="M1159.885,2945.366h-2.446l-.167-.453a69.77,69.77,0,0,0-130.584,0l-.172.453h-2.444l.348-.938a72.067,72.067,0,0,1,135.117,0Z" transform="translate(-9 -2691)" fill="#25a9e0"/>
    <path id="Path_2576" data-name="Path 2576" d="M1156.221,3005.517a2.289,2.289,0,0,0-1.783-.227,5.9,5.9,0,0,0-1.662.788,26.471,26.471,0,0,0-3.335,2.514,60.344,60.344,0,0,0,5.28-12.181c.493-1.524.94-3.161,1.372-5l.35-1.5-1.2.993c-.26.2-.523.4-.792.6l-.158.114-.046.185c-.233.954-.461,1.792-.689,2.586a11.335,11.335,0,0,0-.209-1.706c-.115-.617-.437-1.367-1.065-1.364a.957.957,0,0,0-.787.528,2.688,2.688,0,0,0-.259.952,18.946,18.946,0,0,0,.242,7.687,58.808,58.808,0,0,1-2.794,5.88,12.32,12.32,0,0,0,.424-3.343c0-.6-.106-1.308-.66-1.5a1,1,0,0,0-.982.264,2.5,2.5,0,0,0-.549.9,10.016,10.016,0,0,0-.393,7.392,58.562,58.562,0,0,1-7.667,9.668,12.316,12.316,0,0,0,1.41-3.214,3.022,3.022,0,0,0,.115-1.306,1.206,1.206,0,0,0-.8-.963,1.711,1.711,0,0,0-1.6.788,12.482,12.482,0,0,0-2.362,4.009c-.224.62-1.244,3.681-.689,4.35a58.721,58.721,0,0,1-5.286,3.935c.166-.234.321-.457.442-.639a12.461,12.461,0,0,0,1.926-4.559c.127-.633.129-1.435-.43-1.761a1.119,1.119,0,0,0-1.141.094,3.024,3.024,0,0,0-.807.879,23.9,23.9,0,0,0-3.379,7.411c-.075.287-.164.569-.206.8a58.58,58.58,0,0,1-9.809,4.45,11.524,11.524,0,0,0,3.584-4.573,2.959,2.959,0,0,0,.325-1.2,1.205,1.205,0,0,0-.553-1.064,1.238,1.238,0,0,0-1.268.147,3.536,3.536,0,0,0-.871,1.012c-.826,1.262-1.629,2.535-2.406,3.833a20.138,20.138,0,0,0-1.672,2.761,58.325,58.325,0,0,1-6.189,1.429,9.181,9.181,0,0,0,3.852-5.877,2.782,2.782,0,0,0,0-1.369,1.16,1.16,0,0,0-1-.836,1.7,1.7,0,0,0-1.15.639,22.415,22.415,0,0,0-3.675,4.806,9.64,9.64,0,0,0-1.377,3.127,58.6,58.6,0,0,1-8.1.422h-.219l-.024.023c-.211-.008-.427-.017-.627-.017a70.027,70.027,0,0,1-67.48-51.576l-.1-.386h-2.015l.178.658a71.944,71.944,0,0,0,69.427,53.247h.031c.729.041,1.453.041,2.175.041a60.4,60.4,0,0,0,13.373-1.586,18.783,18.783,0,0,0,7.262,2.152,4.031,4.031,0,0,0,1.537-.126,1.624,1.624,0,0,0,1.074-1.035,1.646,1.646,0,0,0-.779-1.7,4.3,4.3,0,0,0-1.908-.552c-.276-.03-1.1-.093-2.118-.129.978-.317,1.934-.68,2.891-1.046a55.6,55.6,0,0,0,7.932.131,1.9,1.9,0,0,0,1.468-.862,1.323,1.323,0,0,0-.558-1.539,3.29,3.29,0,0,0-1.705-.444c-.482.056-.959.137-1.439.212q1.967-1,3.847-2.131a12.437,12.437,0,0,0,3.39.689,10.6,10.6,0,0,0,4.064-.467,4.521,4.521,0,0,0,1.929-1.095,2.136,2.136,0,0,0,.571-2.058,2.169,2.169,0,0,0-1.555-1.324,5.022,5.022,0,0,0-2.1.026c-.054.009-.13.027-.207.044,1.145-.9,2.263-1.824,3.343-2.8,1.554,1.013,6.406.808,7.459.682a6.583,6.583,0,0,0,2.7-.8,2.662,2.662,0,0,0-.452-4.956,5.919,5.919,0,0,0-3.481-.074,12.487,12.487,0,0,0-1.665.537,60.5,60.5,0,0,0,5.9-7.782,1.492,1.492,0,0,0,.273.163,8.091,8.091,0,0,0,7.213-1.278,4.278,4.278,0,0,0,1.65-2.142,2.215,2.215,0,0,0-.769-2.448" transform="translate(-9 -2691)" fill="#25a9e0"/>
  </g>
</svg>
