<svg xmlns="http://www.w3.org/2000/svg" width="47.6" height="47.63" viewBox="0 0 47.6 47.63">
  <g id="verified" transform="translate(-835.671 -2454.016)">
    <path id="Path_589" data-name="Path 589" d="M323.12,2480.523a21.648,21.648,0,1,1-21.648-21.647,21.648,21.648,0,0,1,21.648,21.647" transform="translate(558 -3)" fill="#8ac440"/>
    <path id="Path_590" data-name="Path 590" d="M278.81,2473.274a23.652,23.652,0,0,0,.043,14.634,25.127,25.127,0,0,0,7.571,11.034,23.512,23.512,0,0,0,38.179-23.433,24.8,24.8,0,0,0-19.954-18.238,23.715,23.715,0,0,0-24.422,12.57,24.1,24.1,0,0,0-1.417,3.433c-.042.13.644.494.6.613a23.506,23.506,0,0,1,34.833-12.686,22.087,22.087,0,0,1,8.882,10.929,23.508,23.508,0,0,1-32.779,29.263,21.27,21.27,0,0,1-6.025-4.506,23.549,23.549,0,0,1-5.75-19.546,24.59,24.59,0,0,1,.839-3.454c.042-.132-.643-.491-.6-.613" transform="translate(558 -3)" fill="#8ac440"/>
    <path id="Path_600" data-name="Path 600" d="M318.146,2480.514l-2.52-3.477.446-4.269a.538.538,0,0,0-.318-.551l-3.922-1.746-1.745-3.922a.545.545,0,0,0-.552-.319l-4.269.446-3.477-2.52a.542.542,0,0,0-.635,0l-3.476,2.52-4.271-.446a.548.548,0,0,0-.551.318l-1.746,3.923-3.922,1.746a.542.542,0,0,0-.318.55l.446,4.27-2.519,3.477a.537.537,0,0,0,0,.634l2.519,3.477-.446,4.27a.541.541,0,0,0,.318.55l3.922,1.746,1.746,3.923a.55.55,0,0,0,.551.319l4.271-.447,3.476,2.52a.539.539,0,0,0,.635,0l3.477-2.52,4.269.447a.547.547,0,0,0,.552-.319l1.745-3.923,3.922-1.746a.536.536,0,0,0,.318-.549l-.446-4.271,2.52-3.476a.539.539,0,0,0,0-.635m-3.517,3.643a.55.55,0,0,0-.1.374l.428,4.085-3.754,1.671a.533.533,0,0,0-.274.275l-1.67,3.753-4.086-.428a.542.542,0,0,0-.373.1l-3.326,2.41-3.327-2.41a.54.54,0,0,0-.317-.1.5.5,0,0,0-.055,0l-4.086.428-1.669-3.753a.541.541,0,0,0-.275-.276l-3.755-1.67.426-4.085a.538.538,0,0,0-.1-.374l-2.412-3.326,2.412-3.326a.536.536,0,0,0,.1-.374l-.426-4.085,3.753-1.671a.544.544,0,0,0,.275-.274l1.669-3.753,4.086.426a.547.547,0,0,0,.374-.1l3.327-2.412,3.326,2.412a.543.543,0,0,0,.373.1l4.086-.426,1.67,3.753a.541.541,0,0,0,.275.274l3.753,1.671-.426,4.085a.542.542,0,0,0,.1.374l2.41,3.326Z" transform="translate(558 -3)" fill="#fff"/>
    <path id="Path_601" data-name="Path 601" d="M307.79,2474.7a.541.541,0,0,0-.765,0l-8.8,8.8-2.682-2.675a.54.54,0,0,0-.764,0l-1.534,1.526a.54.54,0,0,0,0,.765l4.6,4.595a.54.54,0,0,0,.765,0l10.716-10.716a.54.54,0,0,0,0-.764Zm-9.565,11.865-3.83-3.828.765-.764,2.682,2.676a.54.54,0,0,0,.764,0l8.8-8.8.767.766Z" transform="translate(558 -3)" fill="#fff"/>
  </g>
</svg>
